G04*
G04 #@! TF.GenerationSoftware,Altium Limited,Altium Designer,24.2.2 (26)*
G04*
G04 Layer_Color=32896*
%FSLAX25Y25*%
%MOIN*%
G70*
G04*
G04 #@! TF.SameCoordinates,259A4400-9820-475F-8ACA-24378C9DBAE9*
G04*
G04*
G04 #@! TF.FilePolarity,Positive*
G04*
G01*
G75*
%ADD12C,0.00787*%
%ADD14C,0.00600*%
D12*
X573264Y128756D02*
X580842D01*
X571886Y88224D02*
Y128776D01*
X545114Y88224D02*
X571886D01*
X545114D02*
Y128776D01*
X571886D01*
X517264Y128756D02*
X524843D01*
X515886Y88224D02*
Y128776D01*
X489114Y88224D02*
X515886D01*
X489114D02*
Y128776D01*
X515886D01*
X432764Y128756D02*
X440343D01*
X431386Y88224D02*
Y128776D01*
X404614Y88224D02*
X431386D01*
X404614D02*
Y128776D01*
X431386D01*
X372764Y128256D02*
X380343D01*
X371386Y87724D02*
Y128276D01*
X344614Y87724D02*
X371386D01*
X344614D02*
Y128276D01*
X371386D01*
X573264Y83008D02*
X580842D01*
X571886Y42476D02*
Y83028D01*
X545114Y42476D02*
X571886D01*
X545114D02*
Y83028D01*
X571886D01*
X517264Y83008D02*
X524843D01*
X515886Y42476D02*
Y83028D01*
X489114Y42476D02*
X515886D01*
X489114D02*
Y83028D01*
X515886D01*
X432764Y82508D02*
X440343D01*
X431386Y41976D02*
Y82528D01*
X404614Y41976D02*
X431386D01*
X404614D02*
Y82528D01*
X431386D01*
X372764Y81508D02*
X380343D01*
X371386Y40976D02*
Y81528D01*
X344614Y40976D02*
X371386D01*
X344614D02*
Y81528D01*
X371386D01*
X573264Y36256D02*
X580842D01*
X571886Y-4276D02*
Y36276D01*
X545114Y-4276D02*
X571886D01*
X545114D02*
Y36276D01*
X571886D01*
X517264Y36256D02*
X524843D01*
X515886Y-4276D02*
Y36276D01*
X489114Y-4276D02*
X515886D01*
X489114D02*
Y36276D01*
X515886D01*
X432764Y35756D02*
X440343D01*
X431386Y-4776D02*
Y35776D01*
X404614Y-4776D02*
X431386D01*
X404614D02*
Y35776D01*
X431386D01*
X372764Y35256D02*
X380343D01*
X371386Y-5276D02*
Y35276D01*
X344614Y-5276D02*
X371386D01*
X344614D02*
Y35276D01*
X371386D01*
X270764Y127508D02*
X278343D01*
X269386Y86976D02*
Y127528D01*
X242614Y86976D02*
X269386D01*
X242614D02*
Y127528D01*
X269386D01*
X212264Y128008D02*
X219843D01*
X210886Y87476D02*
Y128028D01*
X184114Y87476D02*
X210886D01*
X184114D02*
Y128028D01*
X210886D01*
X270764Y83256D02*
X278343D01*
X269386Y42724D02*
Y83276D01*
X242614Y42724D02*
X269386D01*
X242614D02*
Y83276D01*
X269386D01*
X212264Y83756D02*
X219843D01*
X210886Y43224D02*
Y83776D01*
X184114Y43224D02*
X210886D01*
X184114D02*
Y83776D01*
X210886D01*
X270764Y36508D02*
X278343D01*
X269386Y-4024D02*
Y36528D01*
X242614Y-4024D02*
X269386D01*
X242614D02*
Y36528D01*
X269386D01*
X212264Y36508D02*
X219843D01*
X210886Y-4024D02*
Y36528D01*
X184114Y-4024D02*
X210886D01*
X184114D02*
Y36528D01*
X210886D01*
X96614Y83555D02*
X123386D01*
X96614Y43004D02*
Y83555D01*
Y43004D02*
X123386D01*
Y83555D01*
X124764Y83535D02*
X132343D01*
X65764D02*
X73343D01*
X64386Y43004D02*
Y83555D01*
X37614Y43004D02*
X64386D01*
X37614D02*
Y83555D01*
X64386D01*
X37614Y128807D02*
X64386D01*
X37614Y88256D02*
Y128807D01*
Y88256D02*
X64386D01*
Y128807D01*
X65764Y128787D02*
X73343D01*
X96614Y127807D02*
X123386D01*
X96614Y87256D02*
Y127807D01*
Y87256D02*
X123386D01*
Y127807D01*
X124764Y127787D02*
X132343D01*
X37614Y36807D02*
X64386D01*
X37614Y-3744D02*
Y36807D01*
Y-3744D02*
X64386D01*
Y36807D01*
X65764Y36787D02*
X73343D01*
X96614Y36807D02*
X123386D01*
X96614Y-3744D02*
Y36807D01*
Y-3744D02*
X123386D01*
Y36807D01*
X124764Y36787D02*
X132343D01*
D14*
X586600Y124174D02*
Y127500D01*
X590352D01*
X590400Y124148D02*
Y127452D01*
X590352Y127500D02*
X590400Y127452D01*
Y119500D02*
Y122711D01*
X586600Y119500D02*
X590400D01*
X586600D02*
Y122721D01*
X532400Y87500D02*
Y90826D01*
X528648Y87500D02*
X532400D01*
X528600Y87548D02*
Y90852D01*
Y87548D02*
X528648Y87500D01*
X528600Y92289D02*
Y95500D01*
X532400D01*
Y92279D02*
Y95500D01*
X586600Y102902D02*
Y106227D01*
X590352D01*
X590400Y102876D02*
Y106179D01*
X590352Y106227D02*
X590400Y106179D01*
Y98227D02*
Y101438D01*
X586600Y98227D02*
X590400D01*
X586600D02*
Y101449D01*
X589900Y87500D02*
Y90826D01*
X586148Y87500D02*
X589900D01*
X586100Y87548D02*
Y90852D01*
Y87548D02*
X586148Y87500D01*
X586100Y92289D02*
Y95500D01*
X589900D01*
Y92279D02*
Y95500D01*
X532400Y96386D02*
Y99711D01*
X528648Y96386D02*
X532400D01*
X528600Y96434D02*
Y99737D01*
Y96434D02*
X528648Y96386D01*
X528600Y101175D02*
Y104385D01*
X532400D01*
Y101164D02*
Y104385D01*
X388400Y96214D02*
Y99540D01*
X384648Y96214D02*
X388400D01*
X384600Y96263D02*
Y99566D01*
Y96263D02*
X384648Y96214D01*
X384600Y101004D02*
Y104214D01*
X388400D01*
Y100993D02*
Y104214D01*
X528600Y129174D02*
Y132500D01*
X532352D01*
X532400Y129148D02*
Y132452D01*
X532352Y132500D02*
X532400Y132452D01*
Y124500D02*
Y127711D01*
X528600Y124500D02*
X532400D01*
X528600D02*
Y127721D01*
X478900Y90000D02*
Y93326D01*
X475148Y90000D02*
X478900D01*
X475100Y90048D02*
Y93352D01*
Y90048D02*
X475148Y90000D01*
X475100Y94789D02*
Y98000D01*
X478900D01*
Y94779D02*
Y98000D01*
X528600Y110431D02*
Y113757D01*
X532352D01*
X532400Y110405D02*
Y113709D01*
X532352Y113757D02*
X532400Y113709D01*
Y105757D02*
Y108968D01*
X528600Y105757D02*
X532400D01*
X528600D02*
Y108978D01*
X448900Y124799D02*
Y128125D01*
X445148Y124799D02*
X448900D01*
X445100Y124847D02*
Y128151D01*
Y124847D02*
X445148Y124799D01*
X445100Y129588D02*
Y132799D01*
X448900D01*
Y129578D02*
Y132799D01*
X388400Y87500D02*
Y90826D01*
X384648Y87500D02*
X388400D01*
X384600Y87548D02*
Y90852D01*
Y87548D02*
X384648Y87500D01*
X384600Y92289D02*
Y95500D01*
X388400D01*
Y92279D02*
Y95500D01*
X445100Y110574D02*
Y113899D01*
X448852D01*
X448900Y110548D02*
Y113851D01*
X448852Y113899D02*
X448900Y113851D01*
Y105899D02*
Y109110D01*
X445100Y105899D02*
X448900D01*
X445100D02*
Y109121D01*
X448900Y96449D02*
Y99775D01*
X445148Y96449D02*
X448900D01*
X445100Y96498D02*
Y99801D01*
Y96498D02*
X445148Y96449D01*
X445100Y101239D02*
Y104449D01*
X448900D01*
Y101228D02*
Y104449D01*
X388400Y124500D02*
Y127826D01*
X384648Y124500D02*
X388400D01*
X384600Y124548D02*
Y127852D01*
Y124548D02*
X384648Y124500D01*
X384600Y129289D02*
Y132500D01*
X388400D01*
Y129279D02*
Y132500D01*
X331900Y87201D02*
Y90526D01*
X328148Y87201D02*
X331900D01*
X328100Y87249D02*
Y90553D01*
Y87249D02*
X328148Y87201D01*
X328100Y91990D02*
Y95201D01*
X331900D01*
Y91979D02*
Y95201D01*
X384600Y110317D02*
Y113643D01*
X388352D01*
X388400Y110291D02*
Y113594D01*
X388352Y113643D02*
X388400Y113594D01*
Y105643D02*
Y108853D01*
X384600Y105643D02*
X388400D01*
X384600D02*
Y108864D01*
X586600Y81629D02*
Y84955D01*
X590352D01*
X590400Y81603D02*
Y84906D01*
X590352Y84955D02*
X590400Y84906D01*
Y76955D02*
Y80165D01*
X586600Y76955D02*
X590400D01*
X586600D02*
Y80176D01*
X532400Y41000D02*
Y44326D01*
X528648Y41000D02*
X532400D01*
X528600Y41048D02*
Y44352D01*
Y41048D02*
X528648Y41000D01*
X528600Y45789D02*
Y49000D01*
X532400D01*
Y45779D02*
Y49000D01*
X586600Y60356D02*
Y63682D01*
X590352D01*
X590400Y60330D02*
Y63634D01*
X590352Y63682D02*
X590400Y63634D01*
Y55682D02*
Y58892D01*
X586600Y55682D02*
X590400D01*
X586600D02*
Y58903D01*
X590400Y45045D02*
Y48371D01*
X586648Y45045D02*
X590400D01*
X586600Y45094D02*
Y48397D01*
Y45094D02*
X586648Y45045D01*
X586600Y49835D02*
Y53045D01*
X590400D01*
Y49824D02*
Y53045D01*
X532400Y77643D02*
Y80968D01*
X528648Y77643D02*
X532400D01*
X528600Y77691D02*
Y80994D01*
Y77691D02*
X528648Y77643D01*
X528600Y82432D02*
Y85642D01*
X532400D01*
Y82421D02*
Y85642D01*
X477900Y43500D02*
Y46826D01*
X474148Y43500D02*
X477900D01*
X474100Y43548D02*
Y46852D01*
Y43548D02*
X474148Y43500D01*
X474100Y48289D02*
Y51500D01*
X477900D01*
Y48279D02*
Y51500D01*
X532400Y58900D02*
Y62225D01*
X528648Y58900D02*
X532400D01*
X528600Y58948D02*
Y62251D01*
Y58948D02*
X528648Y58900D01*
X528600Y63689D02*
Y66900D01*
X532400D01*
Y63678D02*
Y66900D01*
Y49528D02*
Y52854D01*
X528648Y49528D02*
X532400D01*
X528600Y49576D02*
Y52880D01*
Y49576D02*
X528648Y49528D01*
X528600Y54317D02*
Y57528D01*
X532400D01*
Y54307D02*
Y57528D01*
X445100Y82224D02*
Y85549D01*
X448852D01*
X448900Y82198D02*
Y85501D01*
X448852Y85549D02*
X448900Y85501D01*
Y77549D02*
Y80760D01*
X445100Y77549D02*
X448900D01*
X445100D02*
Y80771D01*
X388400Y41000D02*
Y44326D01*
X384648Y41000D02*
X388400D01*
X384600Y41048D02*
Y44352D01*
Y41048D02*
X384648Y41000D01*
X384600Y45789D02*
Y49000D01*
X388400D01*
Y45779D02*
Y49000D01*
X445100Y63324D02*
Y66650D01*
X448852D01*
X448900Y63298D02*
Y66601D01*
X448852Y66650D02*
X448900Y66601D01*
Y58650D02*
Y61860D01*
X445100Y58650D02*
X448900D01*
X445100D02*
Y61871D01*
X448900Y49200D02*
Y52525D01*
X445148Y49200D02*
X448900D01*
X445100Y49248D02*
Y52551D01*
Y49248D02*
X445148Y49200D01*
X445100Y53989D02*
Y57200D01*
X448900D01*
Y53978D02*
Y57200D01*
X388400Y77357D02*
Y80683D01*
X384648Y77357D02*
X388400D01*
X384600Y77406D02*
Y80709D01*
Y77406D02*
X384648Y77357D01*
X384600Y82147D02*
Y85357D01*
X388400D01*
Y82136D02*
Y85357D01*
X331900Y43000D02*
Y46326D01*
X328148Y43000D02*
X331900D01*
X328100Y43048D02*
Y46352D01*
Y43048D02*
X328148Y43000D01*
X328100Y47789D02*
Y51000D01*
X331900D01*
Y47779D02*
Y51000D01*
X384600Y63174D02*
Y66500D01*
X388352D01*
X388400Y63148D02*
Y66452D01*
X388352Y66500D02*
X388400Y66452D01*
Y58500D02*
Y61711D01*
X384600Y58500D02*
X388400D01*
X384600D02*
Y61721D01*
X388400Y49071D02*
Y52397D01*
X384648Y49071D02*
X388400D01*
X384600Y49120D02*
Y52423D01*
Y49120D02*
X384648Y49071D01*
X384600Y53861D02*
Y57071D01*
X388400D01*
Y53850D02*
Y57071D01*
X586600Y39083D02*
Y42409D01*
X590352D01*
X590400Y39057D02*
Y42361D01*
X590352Y42409D02*
X590400Y42361D01*
Y34409D02*
Y37620D01*
X586600Y34409D02*
X590400D01*
X586600D02*
Y37630D01*
X532400Y-6701D02*
Y-3375D01*
X528648Y-6701D02*
X532400D01*
X528600Y-6652D02*
Y-3349D01*
Y-6652D02*
X528648Y-6701D01*
X528600Y-1911D02*
Y1299D01*
X532400D01*
Y-1922D02*
Y1299D01*
X586600Y17811D02*
Y21136D01*
X590352D01*
X590400Y17785D02*
Y21088D01*
X590352Y21136D02*
X590400Y21088D01*
Y13136D02*
Y16347D01*
X586600Y13136D02*
X590400D01*
X586600D02*
Y16358D01*
X590400Y2500D02*
Y5826D01*
X586648Y2500D02*
X590400D01*
X586600Y2548D02*
Y5852D01*
Y2548D02*
X586648Y2500D01*
X586600Y7289D02*
Y10500D01*
X590400D01*
Y7279D02*
Y10500D01*
X528600Y35460D02*
Y38785D01*
X532352D01*
X532400Y35434D02*
Y38737D01*
X532352Y38785D02*
X532400Y38737D01*
Y30785D02*
Y33996D01*
X528600Y30785D02*
X532400D01*
X528600D02*
Y34006D01*
X476900Y14000D02*
Y17326D01*
X473148Y14000D02*
X476900D01*
X473100Y14048D02*
Y17352D01*
Y14048D02*
X473148Y14000D01*
X473100Y18789D02*
Y22000D01*
X476900D01*
Y18779D02*
Y22000D01*
X528600Y16717D02*
Y20042D01*
X532352D01*
X532400Y16691D02*
Y19994D01*
X532352Y20042D02*
X532400Y19994D01*
Y12042D02*
Y15253D01*
X528600Y12042D02*
X532400D01*
X528600D02*
Y15263D01*
X532400Y2671D02*
Y5996D01*
X528648Y2671D02*
X532400D01*
X528600Y2719D02*
Y6022D01*
Y2719D02*
X528648Y2671D01*
X528600Y7460D02*
Y10671D01*
X532400D01*
Y7449D02*
Y10671D01*
X448900Y30300D02*
Y33625D01*
X445148Y30300D02*
X448900D01*
X445100Y30348D02*
Y33651D01*
Y30348D02*
X445148Y30300D01*
X445100Y35089D02*
Y38300D01*
X448900D01*
Y35078D02*
Y38300D01*
X388400Y-7500D02*
Y-4174D01*
X384648Y-7500D02*
X388400D01*
X384600Y-7452D02*
Y-4148D01*
Y-7452D02*
X384648Y-7500D01*
X384600Y-2711D02*
Y500D01*
X388400D01*
Y-2721D02*
Y500D01*
X445100Y16074D02*
Y19400D01*
X448852D01*
X448900Y16048D02*
Y19352D01*
X448852Y19400D02*
X448900Y19352D01*
Y11400D02*
Y14611D01*
X445100Y11400D02*
X448900D01*
X445100D02*
Y14621D01*
X448900Y1950D02*
Y5275D01*
X445148Y1950D02*
X448900D01*
X445100Y1998D02*
Y5302D01*
Y1998D02*
X445148Y1950D01*
X445100Y6739D02*
Y9950D01*
X448900D01*
Y6729D02*
Y9950D01*
X384600Y34889D02*
Y38214D01*
X388352D01*
X388400Y34863D02*
Y38166D01*
X388352Y38214D02*
X388400Y38166D01*
Y30214D02*
Y33425D01*
X384600Y30214D02*
X388400D01*
X384600D02*
Y33435D01*
X331900Y-3500D02*
Y-174D01*
X328148Y-3500D02*
X331900D01*
X328100Y-3452D02*
Y-148D01*
Y-3452D02*
X328148Y-3500D01*
X328100Y1289D02*
Y4500D01*
X331900D01*
Y1279D02*
Y4500D01*
X388400Y11357D02*
Y14683D01*
X384648Y11357D02*
X388400D01*
X384600Y11406D02*
Y14709D01*
Y11406D02*
X384648Y11357D01*
X384600Y16147D02*
Y19357D01*
X388400D01*
Y16136D02*
Y19357D01*
Y1929D02*
Y5254D01*
X384648Y1929D02*
X388400D01*
X384600Y1977D02*
Y5280D01*
Y1977D02*
X384648Y1929D01*
X384600Y6718D02*
Y9929D01*
X388400D01*
Y6707D02*
Y9929D01*
X286900Y118252D02*
Y121578D01*
X283148Y118252D02*
X286900D01*
X283100Y118300D02*
Y121604D01*
Y118300D02*
X283148Y118252D01*
X283100Y123041D02*
Y126252D01*
X286900D01*
Y123031D02*
Y126252D01*
X228900Y86594D02*
Y89920D01*
X225148Y86594D02*
X228900D01*
X225100Y86642D02*
Y89946D01*
Y86642D02*
X225148Y86594D01*
X225100Y91383D02*
Y94594D01*
X228900D01*
Y91373D02*
Y94594D01*
X283100Y102145D02*
Y105470D01*
X286852D01*
X286900Y102119D02*
Y105422D01*
X286852Y105470D02*
X286900Y105422D01*
Y97470D02*
Y100681D01*
X283100Y97470D02*
X286900D01*
X283100D02*
Y100691D01*
X286900Y87079D02*
Y90405D01*
X283148Y87079D02*
X286900D01*
X283100Y87128D02*
Y90431D01*
Y87128D02*
X283148Y87079D01*
X283100Y91869D02*
Y95079D01*
X286900D01*
Y91858D02*
Y95079D01*
X228900Y123551D02*
Y126877D01*
X225148Y123551D02*
X228900D01*
X225100Y123600D02*
Y126903D01*
Y123600D02*
X225148Y123551D01*
X225100Y128340D02*
Y131551D01*
X228900D01*
Y128330D02*
Y131551D01*
Y105072D02*
Y108398D01*
X225148Y105072D02*
X228900D01*
X225100Y105121D02*
Y108424D01*
Y105121D02*
X225148Y105072D01*
X225100Y109862D02*
Y113073D01*
X228900D01*
Y109851D02*
Y113073D01*
Y95833D02*
Y99159D01*
X225148Y95833D02*
X228900D01*
X225100Y95881D02*
Y99185D01*
Y95881D02*
X225148Y95833D01*
X225100Y100623D02*
Y103833D01*
X228900D01*
Y100612D02*
Y103833D01*
X286900Y76689D02*
Y80014D01*
X283148Y76689D02*
X286900D01*
X283100Y76737D02*
Y80040D01*
Y76737D02*
X283148Y76689D01*
X283100Y81478D02*
Y84689D01*
X286900D01*
Y81467D02*
Y84689D01*
X228900Y40397D02*
Y43723D01*
X225148Y40397D02*
X228900D01*
X225100Y40446D02*
Y43749D01*
Y40446D02*
X225148Y40397D01*
X225100Y45187D02*
Y48397D01*
X228900D01*
Y45176D02*
Y48397D01*
X283100Y60581D02*
Y63907D01*
X286852D01*
X286900Y60555D02*
Y63859D01*
X286852Y63907D02*
X286900Y63859D01*
Y55907D02*
Y59118D01*
X283100Y55907D02*
X286900D01*
X283100D02*
Y59128D01*
X286900Y45516D02*
Y48842D01*
X283148Y45516D02*
X286900D01*
X283100Y45564D02*
Y48868D01*
Y45564D02*
X283148Y45516D01*
X283100Y50305D02*
Y53516D01*
X286900D01*
Y50295D02*
Y53516D01*
X225100Y82029D02*
Y85355D01*
X228852D01*
X228900Y82003D02*
Y85306D01*
X228852Y85355D02*
X228900Y85306D01*
Y77355D02*
Y80565D01*
X225100Y77355D02*
X228900D01*
X225100D02*
Y80576D01*
Y63550D02*
Y66876D01*
X228852D01*
X228900Y63524D02*
Y66828D01*
X228852Y66876D02*
X228900Y66828D01*
Y58876D02*
Y62087D01*
X225100Y58876D02*
X228900D01*
X225100D02*
Y62097D01*
X228900Y49637D02*
Y52962D01*
X225148Y49637D02*
X228900D01*
X225100Y49685D02*
Y52988D01*
Y49685D02*
X225148Y49637D01*
X225100Y54426D02*
Y57637D01*
X228900D01*
Y54415D02*
Y57637D01*
X286900Y35125D02*
Y38451D01*
X283148Y35125D02*
X286900D01*
X283100Y35174D02*
Y38477D01*
Y35174D02*
X283148Y35125D01*
X283100Y39915D02*
Y43125D01*
X286900D01*
Y39904D02*
Y43125D01*
X228900Y-5799D02*
Y-2474D01*
X225148Y-5799D02*
X228900D01*
X225100Y-5751D02*
Y-2448D01*
Y-5751D02*
X225148Y-5799D01*
X225100Y-1010D02*
Y2201D01*
X228900D01*
Y-1020D02*
Y2201D01*
X286900Y14344D02*
Y17669D01*
X283148Y14344D02*
X286900D01*
X283100Y14392D02*
Y17695D01*
Y14392D02*
X283148Y14344D01*
X283100Y19133D02*
Y22344D01*
X286900D01*
Y19122D02*
Y22344D01*
Y3953D02*
Y7278D01*
X283148Y3953D02*
X286900D01*
X283100Y4001D02*
Y7304D01*
Y4001D02*
X283148Y3953D01*
X283100Y8742D02*
Y11953D01*
X286900D01*
Y8732D02*
Y11953D01*
X225100Y35832D02*
Y39158D01*
X228852D01*
X228900Y35806D02*
Y39110D01*
X228852Y39158D02*
X228900Y39110D01*
Y31158D02*
Y34369D01*
X225100Y31158D02*
X228900D01*
X225100D02*
Y34379D01*
X228900Y12679D02*
Y16005D01*
X225148Y12679D02*
X228900D01*
X225100Y12728D02*
Y16031D01*
Y12728D02*
X225148Y12679D01*
X225100Y17469D02*
Y20679D01*
X228900D01*
Y17458D02*
Y20679D01*
Y3440D02*
Y6766D01*
X225148Y3440D02*
X228900D01*
X225100Y3488D02*
Y6792D01*
Y3488D02*
X225148Y3440D01*
X225100Y8230D02*
Y11440D01*
X228900D01*
Y8219D02*
Y11440D01*
X590400Y108864D02*
Y112189D01*
X586648Y108864D02*
X590400D01*
X586600Y108912D02*
Y112215D01*
Y108912D02*
X586648Y108864D01*
X586600Y113653D02*
Y116864D01*
X590400D01*
Y113642D02*
Y116864D01*
X532400Y115128D02*
Y118454D01*
X528648Y115128D02*
X532400D01*
X528600Y115177D02*
Y118480D01*
Y115177D02*
X528648Y115128D01*
X528600Y119918D02*
Y123128D01*
X532400D01*
Y119907D02*
Y123128D01*
X448900Y115349D02*
Y118675D01*
X445148Y115349D02*
X448900D01*
X445100Y115398D02*
Y118701D01*
Y115398D02*
X445148Y115349D01*
X445100Y120139D02*
Y123349D01*
X448900D01*
Y120128D02*
Y123349D01*
X388400Y115071D02*
Y118397D01*
X384648Y115071D02*
X388400D01*
X384600Y115120D02*
Y118423D01*
Y115120D02*
X384648Y115071D01*
X384600Y119861D02*
Y123071D01*
X388400D01*
Y119850D02*
Y123071D01*
X590400Y66318D02*
Y69644D01*
X586648Y66318D02*
X590400D01*
X586600Y66366D02*
Y69670D01*
Y66366D02*
X586648Y66318D01*
X586600Y71108D02*
Y74318D01*
X590400D01*
Y71097D02*
Y74318D01*
X532400Y68271D02*
Y71597D01*
X528648Y68271D02*
X532400D01*
X528600Y68319D02*
Y71623D01*
Y68319D02*
X528648Y68271D01*
X528600Y73060D02*
Y76271D01*
X532400D01*
Y73050D02*
Y76271D01*
X448900Y68099D02*
Y71425D01*
X445148Y68099D02*
X448900D01*
X445100Y68148D02*
Y71451D01*
Y68148D02*
X445148Y68099D01*
X445100Y72889D02*
Y76099D01*
X448900D01*
Y72878D02*
Y76099D01*
X388400Y67929D02*
Y71254D01*
X384648Y67929D02*
X388400D01*
X384600Y67977D02*
Y71280D01*
Y67977D02*
X384648Y67929D01*
X384600Y72718D02*
Y75929D01*
X388400D01*
Y72707D02*
Y75929D01*
X590400Y23773D02*
Y27098D01*
X586648Y23773D02*
X590400D01*
X586600Y23821D02*
Y27124D01*
Y23821D02*
X586648Y23773D01*
X586600Y28562D02*
Y31773D01*
X590400D01*
Y28552D02*
Y31773D01*
X532400Y21414D02*
Y24739D01*
X528648Y21414D02*
X532400D01*
X528600Y21462D02*
Y24765D01*
Y21462D02*
X528648Y21414D01*
X528600Y26203D02*
Y29414D01*
X532400D01*
Y26192D02*
Y29414D01*
X448900Y20850D02*
Y24175D01*
X445148Y20850D02*
X448900D01*
X445100Y20898D02*
Y24202D01*
Y20898D02*
X445148Y20850D01*
X445100Y25639D02*
Y28850D01*
X448900D01*
Y25629D02*
Y28850D01*
X388400Y20786D02*
Y24111D01*
X384648Y20786D02*
X388400D01*
X384600Y20834D02*
Y24137D01*
Y20834D02*
X384648Y20786D01*
X384600Y25575D02*
Y28786D01*
X388400D01*
Y25564D02*
Y28786D01*
X286900Y107861D02*
Y111187D01*
X283148Y107861D02*
X286900D01*
X283100Y107909D02*
Y111213D01*
Y107909D02*
X283148Y107861D01*
X283100Y112650D02*
Y115861D01*
X286900D01*
Y112640D02*
Y115861D01*
X228900Y114312D02*
Y117637D01*
X225148Y114312D02*
X228900D01*
X225100Y114360D02*
Y117664D01*
Y114360D02*
X225148Y114312D01*
X225100Y119101D02*
Y122312D01*
X228900D01*
Y119091D02*
Y122312D01*
X286900Y66298D02*
Y69623D01*
X283148Y66298D02*
X286900D01*
X283100Y66346D02*
Y69649D01*
Y66346D02*
X283148Y66298D01*
X283100Y71087D02*
Y74298D01*
X286900D01*
Y71077D02*
Y74298D01*
X228900Y68115D02*
Y71441D01*
X225148Y68115D02*
X228900D01*
X225100Y68164D02*
Y71467D01*
Y68164D02*
X225148Y68115D01*
X225100Y72905D02*
Y76115D01*
X228900D01*
Y72894D02*
Y76115D01*
X286900Y24734D02*
Y28060D01*
X283148Y24734D02*
X286900D01*
X283100Y24783D02*
Y28086D01*
Y24783D02*
X283148Y24734D01*
X283100Y29524D02*
Y32734D01*
X286900D01*
Y29513D02*
Y32734D01*
X228900Y21919D02*
Y25244D01*
X225148Y21919D02*
X228900D01*
X225100Y21967D02*
Y25270D01*
Y21967D02*
X225148Y21919D01*
X225100Y26708D02*
Y29919D01*
X228900D01*
Y26697D02*
Y29919D01*
X77600Y20263D02*
Y23484D01*
Y20263D02*
X81400D01*
Y23474D01*
X81352Y28263D02*
X81400Y28215D01*
Y24912D02*
Y28215D01*
X77600Y28263D02*
X81352D01*
X77600Y24938D02*
Y28263D01*
Y29674D02*
Y32895D01*
Y29674D02*
X81400D01*
Y32884D01*
X81352Y37674D02*
X81400Y37625D01*
Y34322D02*
Y37625D01*
X77600Y37674D02*
X81352D01*
X77600Y34348D02*
Y37674D01*
X81400Y44279D02*
Y47500D01*
X77600D02*
X81400D01*
X77600Y44289D02*
Y47500D01*
Y39548D02*
X77648Y39500D01*
X77600Y39548D02*
Y42852D01*
X77648Y39500D02*
X81400D01*
Y42826D01*
X27500Y41900D02*
X30721D01*
X27500Y38100D02*
Y41900D01*
Y38100D02*
X30711D01*
X35452D02*
X35500Y38148D01*
X32148Y38100D02*
X35452D01*
X35500Y38148D02*
Y41900D01*
X32174D02*
X35500D01*
X140900Y16094D02*
Y19316D01*
X137100D02*
X140900D01*
X137100Y16105D02*
Y19316D01*
Y11364D02*
X137148Y11315D01*
X137100Y11364D02*
Y14667D01*
X137148Y11315D02*
X140900D01*
Y14641D01*
X137100Y29851D02*
Y33073D01*
Y29851D02*
X140900D01*
Y33062D01*
X140852Y37852D02*
X140900Y37803D01*
Y34500D02*
Y37803D01*
X137100Y37852D02*
X140852D01*
X137100Y34526D02*
Y37852D01*
X172400Y49279D02*
Y52500D01*
X168600D02*
X172400D01*
X168600Y49289D02*
Y52500D01*
Y44548D02*
X168648Y44500D01*
X168600Y44548D02*
Y47852D01*
X168648Y44500D02*
X172400D01*
Y47826D01*
X140900Y53166D02*
Y56388D01*
X137100D02*
X140900D01*
X137100Y53177D02*
Y56388D01*
Y48436D02*
X137148Y48388D01*
X137100Y48436D02*
Y51739D01*
X137148Y48388D02*
X140900D01*
Y51713D01*
X137100Y57655D02*
Y60877D01*
Y57655D02*
X140900D01*
Y60866D01*
X140852Y65655D02*
X140900Y65607D01*
Y62304D02*
Y65607D01*
X137100Y65655D02*
X140852D01*
X137100Y62330D02*
Y65655D01*
X140900Y25362D02*
Y28583D01*
X137100D02*
X140900D01*
X137100Y25373D02*
Y28583D01*
Y20632D02*
X137148Y20583D01*
X137100Y20632D02*
Y23935D01*
X137148Y20583D02*
X140900D01*
Y23909D01*
X77600Y57906D02*
Y61127D01*
Y57906D02*
X81400D01*
Y61116D01*
X81352Y65905D02*
X81400Y65857D01*
Y62554D02*
Y65857D01*
X77600Y65905D02*
X81352D01*
X77600Y62580D02*
Y65905D01*
X81400Y72095D02*
Y75316D01*
X77600D02*
X81400D01*
X77600Y72105D02*
Y75316D01*
Y67364D02*
X77648Y67316D01*
X77600Y67364D02*
Y70668D01*
X77648Y67316D02*
X81400D01*
Y70642D01*
X25400Y93759D02*
Y96980D01*
X21600D02*
X25400D01*
X21600Y93770D02*
Y96980D01*
Y89029D02*
X21648Y88980D01*
X21600Y89029D02*
Y92332D01*
X21648Y88980D02*
X25400D01*
Y92306D01*
X81400Y81505D02*
Y84727D01*
X77600D02*
X81400D01*
X77600Y81516D02*
Y84727D01*
Y76775D02*
X77648Y76727D01*
X77600Y76775D02*
Y80078D01*
X77648Y76727D02*
X81400D01*
Y80052D01*
Y90916D02*
Y94137D01*
X77600D02*
X81400D01*
X77600Y90927D02*
Y94137D01*
Y86185D02*
X77648Y86137D01*
X77600Y86185D02*
Y89489D01*
X77648Y86137D02*
X81400D01*
Y89463D01*
X148900Y71779D02*
Y75000D01*
X145100D02*
X148900D01*
X145100Y71789D02*
Y75000D01*
Y67048D02*
X145148Y67000D01*
X145100Y67048D02*
Y70352D01*
X145148Y67000D02*
X148900D01*
Y70326D01*
X145100Y76500D02*
Y79721D01*
Y76500D02*
X148900D01*
Y79711D01*
X148852Y84500D02*
X148900Y84452D01*
Y81148D02*
Y84452D01*
X145100Y84500D02*
X148852D01*
X145100Y81174D02*
Y84500D01*
X172400Y93779D02*
Y97000D01*
X168600D02*
X172400D01*
X168600Y93789D02*
Y97000D01*
Y89048D02*
X168648Y89000D01*
X168600Y89048D02*
Y92352D01*
X168648Y89000D02*
X172400D01*
Y92326D01*
X81400Y100327D02*
Y103548D01*
X77600D02*
X81400D01*
X77600Y100337D02*
Y103548D01*
Y95596D02*
X77648Y95548D01*
X77600Y95596D02*
Y98899D01*
X77648Y95548D02*
X81400D01*
Y98873D01*
X77600Y104958D02*
Y108180D01*
Y104958D02*
X81400D01*
Y108169D01*
X81352Y112958D02*
X81400Y112910D01*
Y109607D02*
Y112910D01*
X77600Y112958D02*
X81352D01*
X77600Y109633D02*
Y112958D01*
X81400Y119148D02*
Y122369D01*
X77600D02*
X81400D01*
X77600Y119158D02*
Y122369D01*
Y114417D02*
X77648Y114369D01*
X77600Y114417D02*
Y117721D01*
X77648Y114369D02*
X81400D01*
Y117694D01*
X77600Y123779D02*
Y127001D01*
Y123779D02*
X81400D01*
Y126990D01*
X81352Y131780D02*
X81400Y131731D01*
Y128428D02*
Y131731D01*
X77600Y131780D02*
X81352D01*
X77600Y128454D02*
Y131780D01*
X140900Y99506D02*
Y102727D01*
X137100D02*
X140900D01*
X137100Y99517D02*
Y102727D01*
Y94776D02*
X137148Y94727D01*
X137100Y94776D02*
Y98079D01*
X137148Y94727D02*
X140900D01*
Y98053D01*
X137100Y103995D02*
Y107217D01*
Y103995D02*
X140900D01*
Y107206D01*
X140852Y111995D02*
X140900Y111947D01*
Y108644D02*
Y111947D01*
X137100Y111995D02*
X140852D01*
X137100Y108670D02*
Y111995D01*
X140900Y118042D02*
Y121263D01*
X137100D02*
X140900D01*
X137100Y118053D02*
Y121263D01*
Y113312D02*
X137148Y113263D01*
X137100Y113312D02*
Y116615D01*
X137148Y113263D02*
X140900D01*
Y116589D01*
Y127310D02*
Y130531D01*
X137100D02*
X140900D01*
X137100Y127321D02*
Y130531D01*
Y122580D02*
X137148Y122531D01*
X137100Y122580D02*
Y125883D01*
X137148Y122531D02*
X140900D01*
Y125857D01*
X81400Y53274D02*
Y56495D01*
X77600D02*
X81400D01*
X77600Y53284D02*
Y56495D01*
Y48543D02*
X77648Y48495D01*
X77600Y48543D02*
Y51847D01*
X77648Y48495D02*
X81400D01*
Y51820D01*
Y-3190D02*
Y32D01*
X77600D02*
X81400D01*
X77600Y-3179D02*
Y32D01*
Y-7920D02*
X77648Y-7969D01*
X77600Y-7920D02*
Y-4617D01*
X77648Y-7969D02*
X81400D01*
Y-4643D01*
X25400Y1259D02*
Y4480D01*
X21600D02*
X25400D01*
X21600Y1270D02*
Y4480D01*
Y-3471D02*
X21648Y-3520D01*
X21600Y-3471D02*
Y-168D01*
X21648Y-3520D02*
X25400D01*
Y-194D01*
X77600Y1442D02*
Y4663D01*
Y1442D02*
X81400D01*
Y4653D01*
X81352Y9442D02*
X81400Y9394D01*
Y6090D02*
Y9394D01*
X77600Y9442D02*
X81352D01*
X77600Y6117D02*
Y9442D01*
X81400Y15631D02*
Y18853D01*
X77600D02*
X81400D01*
X77600Y15642D02*
Y18853D01*
Y10901D02*
X77648Y10853D01*
X77600Y10901D02*
Y14204D01*
X77648Y10853D02*
X81400D01*
Y14178D01*
X173400Y1279D02*
Y4500D01*
X169600D02*
X173400D01*
X169600Y1289D02*
Y4500D01*
Y-3452D02*
X169648Y-3500D01*
X169600Y-3452D02*
Y-148D01*
X169648Y-3500D02*
X173400D01*
Y-174D01*
X137100Y2048D02*
Y5269D01*
Y2048D02*
X140900D01*
Y5258D01*
X140852Y10047D02*
X140900Y9999D01*
Y6696D02*
Y9999D01*
X137100Y10047D02*
X140852D01*
X137100Y6722D02*
Y10047D01*
M02*
