G04*
G04 #@! TF.GenerationSoftware,Altium Limited,Altium Designer,24.2.2 (26)*
G04*
G04 Layer_Physical_Order=5*
G04 Layer_Color=16737945*
%FSLAX25Y25*%
%MOIN*%
G70*
G04*
G04 #@! TF.SameCoordinates,259A4400-9820-475F-8ACA-24378C9DBAE9*
G04*
G04*
G04 #@! TF.FilePolarity,Positive*
G04*
G01*
G75*
%ADD116C,0.15886*%
%ADD117C,0.03937*%
%ADD118C,0.03500*%
%ADD119C,0.07000*%
%ADD120C,0.06500*%
%ADD121C,0.03200*%
G36*
X786582Y-11582D02*
X451821D01*
X451722Y-11082D01*
X452246Y-10865D01*
X452865Y-10246D01*
X453200Y-9438D01*
Y-8562D01*
X452865Y-7754D01*
X452246Y-7135D01*
X451438Y-6800D01*
X450562D01*
X449754Y-7135D01*
X449135Y-7754D01*
X448800Y-8562D01*
Y-9438D01*
X449135Y-10246D01*
X449754Y-10865D01*
X450278Y-11082D01*
X450179Y-11582D01*
X329129D01*
X328995Y-11082D01*
X329518Y-10781D01*
X330281Y-10018D01*
X330821Y-9082D01*
X331100Y-8040D01*
Y-6960D01*
X330821Y-5917D01*
X330281Y-4983D01*
X329518Y-4219D01*
X328583Y-3679D01*
X327540Y-3400D01*
X326460D01*
X325417Y-3679D01*
X324482Y-4219D01*
X323719Y-4983D01*
X323179Y-5917D01*
X322900Y-6960D01*
Y-8040D01*
X323179Y-9082D01*
X323719Y-10018D01*
X324482Y-10781D01*
X325005Y-11082D01*
X324871Y-11582D01*
X204821D01*
X204722Y-11082D01*
X205246Y-10865D01*
X205865Y-10246D01*
X206200Y-9438D01*
Y-8562D01*
X205865Y-7754D01*
X205246Y-7135D01*
X204438Y-6800D01*
X203562D01*
X202754Y-7135D01*
X202135Y-7754D01*
X201800Y-8562D01*
Y-9438D01*
X202135Y-10246D01*
X202754Y-10865D01*
X203278Y-11082D01*
X203179Y-11582D01*
X195461D01*
X195332Y-11099D01*
X195364Y-11081D01*
X196081Y-10364D01*
X196588Y-9486D01*
X196850Y-8507D01*
Y-7493D01*
X196588Y-6514D01*
X196081Y-5636D01*
X195364Y-4919D01*
X194486Y-4412D01*
X193507Y-4150D01*
X192493D01*
X191514Y-4412D01*
X190636Y-4919D01*
X189919Y-5636D01*
X189412Y-6514D01*
X189150Y-7493D01*
Y-8507D01*
X189412Y-9486D01*
X189919Y-10364D01*
X190636Y-11081D01*
X190668Y-11099D01*
X190539Y-11582D01*
X-11582D01*
Y136582D01*
X786582D01*
Y-11582D01*
D02*
G37*
%LPC*%
G36*
X236438Y135700D02*
X235562D01*
X234754Y135365D01*
X234135Y134746D01*
X233800Y133938D01*
Y133062D01*
X234135Y132254D01*
X234754Y131635D01*
X235562Y131300D01*
X236438D01*
X237246Y131635D01*
X237865Y132254D01*
X238200Y133062D01*
Y133938D01*
X237865Y134746D01*
X237246Y135365D01*
X236438Y135700D01*
D02*
G37*
G36*
X71938Y134200D02*
X71062D01*
X70254Y133865D01*
X69635Y133246D01*
X69300Y132438D01*
Y131562D01*
X69635Y130754D01*
X70254Y130135D01*
X71062Y129800D01*
X71938D01*
X72746Y130135D01*
X73365Y130754D01*
X73700Y131562D01*
Y132438D01*
X73365Y133246D01*
X72746Y133865D01*
X71938Y134200D01*
D02*
G37*
G36*
X63438D02*
X62562D01*
X61754Y133865D01*
X61135Y133246D01*
X60800Y132438D01*
Y131562D01*
X61135Y130754D01*
X61754Y130135D01*
X62562Y129800D01*
X63438D01*
X64246Y130135D01*
X64865Y130754D01*
X65200Y131562D01*
Y132438D01*
X64865Y133246D01*
X64246Y133865D01*
X63438Y134200D01*
D02*
G37*
G36*
X55938D02*
X55062D01*
X54254Y133865D01*
X53635Y133246D01*
X53300Y132438D01*
Y131562D01*
X53635Y130754D01*
X54254Y130135D01*
X55062Y129800D01*
X55938D01*
X56746Y130135D01*
X57365Y130754D01*
X57700Y131562D01*
Y132438D01*
X57365Y133246D01*
X56746Y133865D01*
X55938Y134200D01*
D02*
G37*
G36*
X48438D02*
X47562D01*
X46754Y133865D01*
X46135Y133246D01*
X45800Y132438D01*
Y131562D01*
X46135Y130754D01*
X46754Y130135D01*
X47562Y129800D01*
X48438D01*
X49246Y130135D01*
X49865Y130754D01*
X50200Y131562D01*
Y132438D01*
X49865Y133246D01*
X49246Y133865D01*
X48438Y134200D01*
D02*
G37*
G36*
X40438D02*
X39562D01*
X38754Y133865D01*
X38135Y133246D01*
X37800Y132438D01*
Y131562D01*
X38135Y130754D01*
X38754Y130135D01*
X39562Y129800D01*
X40438D01*
X41246Y130135D01*
X41865Y130754D01*
X42200Y131562D01*
Y132438D01*
X41865Y133246D01*
X41246Y133865D01*
X40438Y134200D01*
D02*
G37*
G36*
X32938D02*
X32062D01*
X31254Y133865D01*
X30635Y133246D01*
X30300Y132438D01*
Y131562D01*
X30635Y130754D01*
X31254Y130135D01*
X32062Y129800D01*
X32938D01*
X33746Y130135D01*
X34365Y130754D01*
X34700Y131562D01*
Y132438D01*
X34365Y133246D01*
X33746Y133865D01*
X32938Y134200D01*
D02*
G37*
G36*
X135438Y133700D02*
X134562D01*
X133754Y133365D01*
X133135Y132746D01*
X132800Y131938D01*
Y131062D01*
X133135Y130254D01*
X133754Y129635D01*
X134562Y129300D01*
X135438D01*
X136246Y129635D01*
X136865Y130254D01*
X137200Y131062D01*
Y131938D01*
X136865Y132746D01*
X136246Y133365D01*
X135438Y133700D01*
D02*
G37*
G36*
X127438D02*
X126562D01*
X125754Y133365D01*
X125135Y132746D01*
X124800Y131938D01*
Y131062D01*
X125135Y130254D01*
X125754Y129635D01*
X126562Y129300D01*
X127438D01*
X128246Y129635D01*
X128865Y130254D01*
X129200Y131062D01*
Y131938D01*
X128865Y132746D01*
X128246Y133365D01*
X127438Y133700D01*
D02*
G37*
G36*
X117938D02*
X117062D01*
X116254Y133365D01*
X115635Y132746D01*
X115300Y131938D01*
Y131062D01*
X115635Y130254D01*
X116254Y129635D01*
X117062Y129300D01*
X117938D01*
X118746Y129635D01*
X119365Y130254D01*
X119700Y131062D01*
Y131938D01*
X119365Y132746D01*
X118746Y133365D01*
X117938Y133700D01*
D02*
G37*
G36*
X107938D02*
X107062D01*
X106254Y133365D01*
X105635Y132746D01*
X105300Y131938D01*
Y131062D01*
X105635Y130254D01*
X106254Y129635D01*
X107062Y129300D01*
X107938D01*
X108746Y129635D01*
X109365Y130254D01*
X109700Y131062D01*
Y131938D01*
X109365Y132746D01*
X108746Y133365D01*
X107938Y133700D01*
D02*
G37*
G36*
X99438D02*
X98562D01*
X97754Y133365D01*
X97135Y132746D01*
X96800Y131938D01*
Y131062D01*
X97135Y130254D01*
X97754Y129635D01*
X98562Y129300D01*
X99438D01*
X100246Y129635D01*
X100865Y130254D01*
X101200Y131062D01*
Y131938D01*
X100865Y132746D01*
X100246Y133365D01*
X99438Y133700D01*
D02*
G37*
G36*
X92438D02*
X91562D01*
X90754Y133365D01*
X90135Y132746D01*
X89800Y131938D01*
Y131062D01*
X90135Y130254D01*
X90754Y129635D01*
X91562Y129300D01*
X92438D01*
X93246Y129635D01*
X93865Y130254D01*
X94200Y131062D01*
Y131938D01*
X93865Y132746D01*
X93246Y133365D01*
X92438Y133700D01*
D02*
G37*
G36*
X346438Y133600D02*
X345562D01*
X344754Y133265D01*
X344135Y132646D01*
X343800Y131838D01*
Y130962D01*
X344135Y130154D01*
X344754Y129535D01*
X345562Y129200D01*
X346438D01*
X347246Y129535D01*
X347865Y130154D01*
X348200Y130962D01*
Y131838D01*
X347865Y132646D01*
X347246Y133265D01*
X346438Y133600D01*
D02*
G37*
G36*
X405438Y132700D02*
X404562D01*
X403754Y132365D01*
X403135Y131746D01*
X402800Y130938D01*
Y130062D01*
X403135Y129254D01*
X403754Y128635D01*
X404562Y128300D01*
X405438D01*
X406246Y128635D01*
X406865Y129254D01*
X407200Y130062D01*
Y130938D01*
X406865Y131746D01*
X406246Y132365D01*
X405438Y132700D01*
D02*
G37*
G36*
X172438D02*
X171562D01*
X170754Y132365D01*
X170135Y131746D01*
X169800Y130938D01*
Y130062D01*
X170135Y129254D01*
X170754Y128635D01*
X171562Y128300D01*
X172438D01*
X173246Y128635D01*
X173865Y129254D01*
X174200Y130062D01*
Y130938D01*
X173865Y131746D01*
X173246Y132365D01*
X172438Y132700D01*
D02*
G37*
G36*
X338938Y132412D02*
X338062D01*
X337254Y132077D01*
X336635Y131459D01*
X336300Y130650D01*
Y129775D01*
X336635Y128966D01*
X337254Y128347D01*
X338062Y128012D01*
X338938D01*
X339746Y128347D01*
X340365Y128966D01*
X340700Y129775D01*
Y130650D01*
X340365Y131459D01*
X339746Y132077D01*
X338938Y132412D01*
D02*
G37*
G36*
X556938Y132200D02*
X556062D01*
X555254Y131865D01*
X554635Y131246D01*
X554300Y130438D01*
Y129562D01*
X554635Y128754D01*
X555254Y128135D01*
X556062Y127800D01*
X556938D01*
X557746Y128135D01*
X558365Y128754D01*
X558700Y129562D01*
Y130438D01*
X558365Y131246D01*
X557746Y131865D01*
X556938Y132200D01*
D02*
G37*
G36*
X487438D02*
X486562D01*
X485754Y131865D01*
X485135Y131246D01*
X484800Y130438D01*
Y129562D01*
X485135Y128754D01*
X485754Y128135D01*
X486562Y127800D01*
X487438D01*
X488246Y128135D01*
X488865Y128754D01*
X489200Y129562D01*
Y130438D01*
X488865Y131246D01*
X488246Y131865D01*
X487438Y132200D01*
D02*
G37*
G36*
X481438D02*
X480562D01*
X479754Y131865D01*
X479135Y131246D01*
X478800Y130438D01*
Y129562D01*
X479135Y128754D01*
X479754Y128135D01*
X480562Y127800D01*
X481438D01*
X482246Y128135D01*
X482865Y128754D01*
X483200Y129562D01*
Y130438D01*
X482865Y131246D01*
X482246Y131865D01*
X481438Y132200D01*
D02*
G37*
G36*
X84438Y131700D02*
X83562D01*
X82754Y131365D01*
X82135Y130746D01*
X81800Y129938D01*
Y129062D01*
X82135Y128254D01*
X82754Y127635D01*
X83562Y127300D01*
X84438D01*
X85246Y127635D01*
X85865Y128254D01*
X86200Y129062D01*
Y129938D01*
X85865Y130746D01*
X85246Y131365D01*
X84438Y131700D01*
D02*
G37*
G36*
X599467Y134050D02*
X598533D01*
X597630Y133808D01*
X596820Y133341D01*
X596159Y132680D01*
X595692Y131870D01*
X595450Y130967D01*
Y130033D01*
X595692Y129130D01*
X596159Y128320D01*
X596820Y127659D01*
X597630Y127192D01*
X598533Y126950D01*
X599467D01*
X600370Y127192D01*
X601180Y127659D01*
X601841Y128320D01*
X602308Y129130D01*
X602550Y130033D01*
Y130967D01*
X602308Y131870D01*
X601841Y132680D01*
X601180Y133341D01*
X600370Y133808D01*
X599467Y134050D01*
D02*
G37*
G36*
X391438Y131200D02*
X390562D01*
X389754Y130865D01*
X389135Y130246D01*
X388800Y129438D01*
Y128562D01*
X389135Y127754D01*
X389754Y127135D01*
X390562Y126800D01*
X391438D01*
X392246Y127135D01*
X392865Y127754D01*
X393200Y128562D01*
Y129438D01*
X392865Y130246D01*
X392246Y130865D01*
X391438Y131200D01*
D02*
G37*
G36*
X496438Y130872D02*
X495562D01*
X494754Y130537D01*
X494135Y129918D01*
X493800Y129109D01*
Y128234D01*
X494135Y127426D01*
X494754Y126807D01*
X495562Y126472D01*
X496438D01*
X497246Y126807D01*
X497865Y127426D01*
X498200Y128234D01*
Y129109D01*
X497865Y129918D01*
X497246Y130537D01*
X496438Y130872D01*
D02*
G37*
G36*
X755967Y133550D02*
X755033D01*
X754130Y133308D01*
X753320Y132841D01*
X752659Y132180D01*
X752192Y131370D01*
X751950Y130467D01*
Y129533D01*
X752192Y128630D01*
X752659Y127820D01*
X753320Y127159D01*
X754130Y126692D01*
X755033Y126450D01*
X755967D01*
X756870Y126692D01*
X757680Y127159D01*
X758341Y127820D01*
X758808Y128630D01*
X759050Y129533D01*
Y130467D01*
X758808Y131370D01*
X758341Y132180D01*
X757680Y132841D01*
X756870Y133308D01*
X755967Y133550D01*
D02*
G37*
G36*
X744517D02*
X743583D01*
X742680Y133308D01*
X741870Y132841D01*
X741209Y132180D01*
X740742Y131370D01*
X740500Y130467D01*
Y129533D01*
X740742Y128630D01*
X741209Y127820D01*
X741870Y127159D01*
X742680Y126692D01*
X743583Y126450D01*
X744517D01*
X745420Y126692D01*
X746230Y127159D01*
X746891Y127820D01*
X747358Y128630D01*
X747600Y129533D01*
Y130467D01*
X747358Y131370D01*
X746891Y132180D01*
X746230Y132841D01*
X745420Y133308D01*
X744517Y133550D01*
D02*
G37*
G36*
X733067D02*
X732133D01*
X731230Y133308D01*
X730420Y132841D01*
X729759Y132180D01*
X729292Y131370D01*
X729050Y130467D01*
Y129533D01*
X729292Y128630D01*
X729759Y127820D01*
X730420Y127159D01*
X731230Y126692D01*
X732133Y126450D01*
X733067D01*
X733970Y126692D01*
X734780Y127159D01*
X735441Y127820D01*
X735908Y128630D01*
X736150Y129533D01*
Y130467D01*
X735908Y131370D01*
X735441Y132180D01*
X734780Y132841D01*
X733970Y133308D01*
X733067Y133550D01*
D02*
G37*
G36*
X721617D02*
X720683D01*
X719780Y133308D01*
X718970Y132841D01*
X718309Y132180D01*
X717842Y131370D01*
X717600Y130467D01*
Y129533D01*
X717842Y128630D01*
X718309Y127820D01*
X718970Y127159D01*
X719780Y126692D01*
X720683Y126450D01*
X721617D01*
X722520Y126692D01*
X723330Y127159D01*
X723991Y127820D01*
X724458Y128630D01*
X724700Y129533D01*
Y130467D01*
X724458Y131370D01*
X723991Y132180D01*
X723330Y132841D01*
X722520Y133308D01*
X721617Y133550D01*
D02*
G37*
G36*
X710167D02*
X709233D01*
X708330Y133308D01*
X707520Y132841D01*
X706859Y132180D01*
X706392Y131370D01*
X706150Y130467D01*
Y129533D01*
X706392Y128630D01*
X706859Y127820D01*
X707520Y127159D01*
X708330Y126692D01*
X709233Y126450D01*
X710167D01*
X711070Y126692D01*
X711880Y127159D01*
X712541Y127820D01*
X713008Y128630D01*
X713250Y129533D01*
Y130467D01*
X713008Y131370D01*
X712541Y132180D01*
X711880Y132841D01*
X711070Y133308D01*
X710167Y133550D01*
D02*
G37*
G36*
X698717D02*
X697783D01*
X696880Y133308D01*
X696070Y132841D01*
X695409Y132180D01*
X694942Y131370D01*
X694700Y130467D01*
Y129533D01*
X694942Y128630D01*
X695409Y127820D01*
X696070Y127159D01*
X696880Y126692D01*
X697783Y126450D01*
X698717D01*
X699620Y126692D01*
X700430Y127159D01*
X701091Y127820D01*
X701558Y128630D01*
X701800Y129533D01*
Y130467D01*
X701558Y131370D01*
X701091Y132180D01*
X700430Y132841D01*
X699620Y133308D01*
X698717Y133550D01*
D02*
G37*
G36*
X687267D02*
X686333D01*
X685430Y133308D01*
X684620Y132841D01*
X683959Y132180D01*
X683492Y131370D01*
X683250Y130467D01*
Y129533D01*
X683492Y128630D01*
X683959Y127820D01*
X684620Y127159D01*
X685430Y126692D01*
X686333Y126450D01*
X687267D01*
X688170Y126692D01*
X688980Y127159D01*
X689641Y127820D01*
X690108Y128630D01*
X690350Y129533D01*
Y130467D01*
X690108Y131370D01*
X689641Y132180D01*
X688980Y132841D01*
X688170Y133308D01*
X687267Y133550D01*
D02*
G37*
G36*
X664367D02*
X663433D01*
X662530Y133308D01*
X661720Y132841D01*
X661059Y132180D01*
X660592Y131370D01*
X660350Y130467D01*
Y129533D01*
X660592Y128630D01*
X661059Y127820D01*
X661720Y127159D01*
X662530Y126692D01*
X663433Y126450D01*
X664367D01*
X665270Y126692D01*
X666080Y127159D01*
X666741Y127820D01*
X667208Y128630D01*
X667450Y129533D01*
Y130467D01*
X667208Y131370D01*
X666741Y132180D01*
X666080Y132841D01*
X665270Y133308D01*
X664367Y133550D01*
D02*
G37*
G36*
X652917D02*
X651983D01*
X651080Y133308D01*
X650270Y132841D01*
X649609Y132180D01*
X649142Y131370D01*
X648900Y130467D01*
Y129533D01*
X649142Y128630D01*
X649609Y127820D01*
X650270Y127159D01*
X651080Y126692D01*
X651983Y126450D01*
X652917D01*
X653820Y126692D01*
X654630Y127159D01*
X655291Y127820D01*
X655758Y128630D01*
X656000Y129533D01*
Y130467D01*
X655758Y131370D01*
X655291Y132180D01*
X654630Y132841D01*
X653820Y133308D01*
X652917Y133550D01*
D02*
G37*
G36*
X641467D02*
X640533D01*
X639630Y133308D01*
X638820Y132841D01*
X638159Y132180D01*
X637692Y131370D01*
X637450Y130467D01*
Y129533D01*
X637692Y128630D01*
X638159Y127820D01*
X638820Y127159D01*
X639630Y126692D01*
X640533Y126450D01*
X641467D01*
X642370Y126692D01*
X643180Y127159D01*
X643841Y127820D01*
X644308Y128630D01*
X644550Y129533D01*
Y130467D01*
X644308Y131370D01*
X643841Y132180D01*
X643180Y132841D01*
X642370Y133308D01*
X641467Y133550D01*
D02*
G37*
G36*
X197438Y130200D02*
X196562D01*
X195754Y129865D01*
X195135Y129246D01*
X194800Y128438D01*
Y127562D01*
X195135Y126754D01*
X195754Y126135D01*
X196562Y125800D01*
X197438D01*
X198246Y126135D01*
X198865Y126754D01*
X199200Y127562D01*
Y128438D01*
X198865Y129246D01*
X198246Y129865D01*
X197438Y130200D01*
D02*
G37*
G36*
X361438Y129700D02*
X360562D01*
X359754Y129365D01*
X359135Y128746D01*
X358800Y127938D01*
Y127062D01*
X359135Y126254D01*
X359754Y125635D01*
X360562Y125300D01*
X361438D01*
X362246Y125635D01*
X362865Y126254D01*
X363200Y127062D01*
Y127938D01*
X362865Y128746D01*
X362246Y129365D01*
X361438Y129700D01*
D02*
G37*
G36*
X326438Y128200D02*
X325562D01*
X324754Y127865D01*
X324135Y127246D01*
X323800Y126438D01*
Y125562D01*
X324135Y124754D01*
X324754Y124135D01*
X325562Y123800D01*
X326438D01*
X327246Y124135D01*
X327865Y124754D01*
X328200Y125562D01*
Y126438D01*
X327865Y127246D01*
X327246Y127865D01*
X326438Y128200D01*
D02*
G37*
G36*
X636938Y127200D02*
X636062D01*
X635254Y126865D01*
X634635Y126246D01*
X634300Y125438D01*
Y124562D01*
X634635Y123754D01*
X635254Y123135D01*
X636062Y122800D01*
X636938D01*
X637746Y123135D01*
X638365Y123754D01*
X638700Y124562D01*
Y125438D01*
X638365Y126246D01*
X637746Y126865D01*
X636938Y127200D01*
D02*
G37*
G36*
X534403Y126661D02*
X533528D01*
X532719Y126326D01*
X532100Y125707D01*
X531765Y124899D01*
Y124023D01*
X532100Y123215D01*
X532719Y122596D01*
X533528Y122261D01*
X534403D01*
X535212Y122596D01*
X535830Y123215D01*
X536165Y124023D01*
Y124899D01*
X535830Y125707D01*
X535212Y126326D01*
X534403Y126661D01*
D02*
G37*
G36*
X61438Y126585D02*
X60562D01*
X59754Y126250D01*
X59135Y125631D01*
X58800Y124822D01*
Y123947D01*
X59135Y123138D01*
X59754Y122520D01*
X60562Y122185D01*
X61438D01*
X62246Y122520D01*
X62865Y123138D01*
X63200Y123947D01*
Y124822D01*
X62865Y125631D01*
X62246Y126250D01*
X61438Y126585D01*
D02*
G37*
G36*
X675817Y133550D02*
X674883D01*
X673980Y133308D01*
X673170Y132841D01*
X672509Y132180D01*
X672042Y131370D01*
X671800Y130467D01*
Y129533D01*
X672042Y128630D01*
X672509Y127820D01*
X673170Y127159D01*
X673980Y126692D01*
X674565Y126535D01*
X674599Y126008D01*
X674254Y125865D01*
X673635Y125246D01*
X673300Y124438D01*
Y123562D01*
X673635Y122754D01*
X674254Y122135D01*
X675062Y121800D01*
X675938D01*
X676746Y122135D01*
X677365Y122754D01*
X677700Y123562D01*
Y124438D01*
X677365Y125246D01*
X676746Y125865D01*
X676283Y126057D01*
X676317Y126584D01*
X676720Y126692D01*
X677530Y127159D01*
X678191Y127820D01*
X678658Y128630D01*
X678900Y129533D01*
Y130467D01*
X678658Y131370D01*
X678191Y132180D01*
X677530Y132841D01*
X676720Y133308D01*
X675817Y133550D01*
D02*
G37*
G36*
X411438Y125700D02*
X410562D01*
X409754Y125365D01*
X409135Y124746D01*
X408800Y123938D01*
Y123062D01*
X409135Y122254D01*
X409754Y121635D01*
X410562Y121300D01*
X411438D01*
X412246Y121635D01*
X412865Y122254D01*
X413200Y123062D01*
Y123938D01*
X412865Y124746D01*
X412246Y125365D01*
X411438Y125700D01*
D02*
G37*
G36*
X348438D02*
X347562D01*
X346754Y125365D01*
X346135Y124746D01*
X345800Y123938D01*
Y123062D01*
X346135Y122254D01*
X346754Y121635D01*
X347562Y121300D01*
X348438D01*
X349246Y121635D01*
X349865Y122254D01*
X350200Y123062D01*
Y123938D01*
X349865Y124746D01*
X349246Y125365D01*
X348438Y125700D01*
D02*
G37*
G36*
X358438Y124200D02*
X357562D01*
X356754Y123865D01*
X356135Y123246D01*
X355800Y122438D01*
Y121562D01*
X356135Y120754D01*
X356754Y120135D01*
X357562Y119800D01*
X358438D01*
X359246Y120135D01*
X359865Y120754D01*
X360200Y121562D01*
Y122438D01*
X359865Y123246D01*
X359246Y123865D01*
X358438Y124200D01*
D02*
G37*
G36*
X244938D02*
X244062D01*
X243254Y123865D01*
X242635Y123246D01*
X242300Y122438D01*
Y121562D01*
X242635Y120754D01*
X243254Y120135D01*
X244062Y119800D01*
X244938D01*
X245746Y120135D01*
X246365Y120754D01*
X246700Y121562D01*
Y122438D01*
X246365Y123246D01*
X245746Y123865D01*
X244938Y124200D01*
D02*
G37*
G36*
X548438Y123200D02*
X547562D01*
X546754Y122865D01*
X546135Y122246D01*
X545800Y121438D01*
Y120562D01*
X546135Y119754D01*
X546754Y119135D01*
X547562Y118800D01*
X548438D01*
X549246Y119135D01*
X549865Y119754D01*
X550200Y120562D01*
Y121438D01*
X549865Y122246D01*
X549246Y122865D01*
X548438Y123200D01*
D02*
G37*
G36*
X557938Y122700D02*
X557062D01*
X556254Y122365D01*
X555635Y121746D01*
X555300Y120938D01*
Y120062D01*
X555635Y119254D01*
X556254Y118635D01*
X557062Y118300D01*
X557938D01*
X558746Y118635D01*
X559365Y119254D01*
X559700Y120062D01*
Y120938D01*
X559365Y121746D01*
X558746Y122365D01*
X557938Y122700D01*
D02*
G37*
G36*
X775675Y131850D02*
X774325D01*
X773002Y131587D01*
X771755Y131070D01*
X770633Y130321D01*
X769679Y129367D01*
X768930Y128245D01*
X768413Y126998D01*
X768150Y125675D01*
Y124325D01*
X768413Y123002D01*
X768930Y121755D01*
X769679Y120633D01*
X770633Y119679D01*
X771755Y118930D01*
X773002Y118413D01*
X774325Y118150D01*
X775675D01*
X776998Y118413D01*
X778245Y118930D01*
X779367Y119679D01*
X780321Y120633D01*
X781070Y121755D01*
X781587Y123002D01*
X781850Y124325D01*
Y125675D01*
X781587Y126998D01*
X781070Y128245D01*
X780321Y129367D01*
X779367Y130321D01*
X778245Y131070D01*
X776998Y131587D01*
X775675Y131850D01*
D02*
G37*
G36*
X620675D02*
X619325D01*
X618002Y131587D01*
X616755Y131070D01*
X615633Y130321D01*
X614679Y129367D01*
X613930Y128245D01*
X613413Y126998D01*
X613150Y125675D01*
Y124325D01*
X613413Y123002D01*
X613930Y121755D01*
X614679Y120633D01*
X615633Y119679D01*
X616755Y118930D01*
X618002Y118413D01*
X619325Y118150D01*
X620675D01*
X621998Y118413D01*
X623245Y118930D01*
X624367Y119679D01*
X625321Y120633D01*
X626070Y121755D01*
X626587Y123002D01*
X626850Y124325D01*
Y125675D01*
X626587Y126998D01*
X626070Y128245D01*
X625321Y129367D01*
X624367Y130321D01*
X623245Y131070D01*
X621998Y131587D01*
X620675Y131850D01*
D02*
G37*
G36*
X465675D02*
X464325D01*
X463002Y131587D01*
X461755Y131070D01*
X460633Y130321D01*
X459679Y129367D01*
X458930Y128245D01*
X458413Y126998D01*
X458150Y125675D01*
Y124325D01*
X458413Y123002D01*
X458930Y121755D01*
X459679Y120633D01*
X460633Y119679D01*
X461755Y118930D01*
X463002Y118413D01*
X464325Y118150D01*
X465675D01*
X466998Y118413D01*
X468245Y118930D01*
X469367Y119679D01*
X470321Y120633D01*
X471070Y121755D01*
X471587Y123002D01*
X471850Y124325D01*
Y125675D01*
X471587Y126998D01*
X471070Y128245D01*
X470321Y129367D01*
X469367Y130321D01*
X468245Y131070D01*
X466998Y131587D01*
X465675Y131850D01*
D02*
G37*
G36*
X310675D02*
X309325D01*
X308002Y131587D01*
X306755Y131070D01*
X305633Y130321D01*
X304679Y129367D01*
X303930Y128245D01*
X303413Y126998D01*
X303150Y125675D01*
Y124325D01*
X303413Y123002D01*
X303930Y121755D01*
X304679Y120633D01*
X305633Y119679D01*
X306755Y118930D01*
X308002Y118413D01*
X309325Y118150D01*
X310675D01*
X311998Y118413D01*
X313245Y118930D01*
X314367Y119679D01*
X315321Y120633D01*
X316070Y121755D01*
X316587Y123002D01*
X316850Y124325D01*
Y125675D01*
X316587Y126998D01*
X316070Y128245D01*
X315321Y129367D01*
X314367Y130321D01*
X313245Y131070D01*
X311998Y131587D01*
X310675Y131850D01*
D02*
G37*
G36*
X155675D02*
X154325D01*
X153002Y131587D01*
X151755Y131070D01*
X150633Y130321D01*
X149679Y129367D01*
X148930Y128245D01*
X148413Y126998D01*
X148150Y125675D01*
Y124325D01*
X148413Y123002D01*
X148930Y121755D01*
X149679Y120633D01*
X150633Y119679D01*
X151755Y118930D01*
X153002Y118413D01*
X154325Y118150D01*
X155675D01*
X156998Y118413D01*
X158245Y118930D01*
X159367Y119679D01*
X160321Y120633D01*
X161070Y121755D01*
X161587Y123002D01*
X161850Y124325D01*
Y125675D01*
X161587Y126998D01*
X161070Y128245D01*
X160321Y129367D01*
X159367Y130321D01*
X158245Y131070D01*
X156998Y131587D01*
X155675Y131850D01*
D02*
G37*
G36*
X675D02*
X-675D01*
X-1998Y131587D01*
X-3245Y131070D01*
X-4367Y130321D01*
X-5321Y129367D01*
X-6070Y128245D01*
X-6587Y126998D01*
X-6850Y125675D01*
Y124325D01*
X-6587Y123002D01*
X-6070Y121755D01*
X-5321Y120633D01*
X-4367Y119679D01*
X-3245Y118930D01*
X-1998Y118413D01*
X-675Y118150D01*
X675D01*
X1998Y118413D01*
X3245Y118930D01*
X4367Y119679D01*
X5321Y120633D01*
X6070Y121755D01*
X6587Y123002D01*
X6850Y124325D01*
Y125675D01*
X6587Y126998D01*
X6070Y128245D01*
X5321Y129367D01*
X4367Y130321D01*
X3245Y131070D01*
X1998Y131587D01*
X675Y131850D01*
D02*
G37*
G36*
X265438Y121200D02*
X264562D01*
X263754Y120865D01*
X263135Y120246D01*
X262800Y119438D01*
Y118562D01*
X263135Y117754D01*
X263754Y117135D01*
X264562Y116800D01*
X265438D01*
X266246Y117135D01*
X266865Y117754D01*
X267200Y118562D01*
Y119438D01*
X266865Y120246D01*
X266246Y120865D01*
X265438Y121200D01*
D02*
G37*
G36*
X291214Y120881D02*
X290339D01*
X289530Y120546D01*
X288912Y119927D01*
X288577Y119118D01*
Y118243D01*
X288912Y117434D01*
X289530Y116815D01*
X290339Y116481D01*
X291214D01*
X292023Y116815D01*
X292642Y117434D01*
X292976Y118243D01*
Y119118D01*
X292642Y119927D01*
X292023Y120546D01*
X291214Y120881D01*
D02*
G37*
G36*
X585438Y120200D02*
X584562D01*
X583754Y119865D01*
X583135Y119246D01*
X582800Y118438D01*
Y117562D01*
X583135Y116754D01*
X583754Y116135D01*
X584562Y115800D01*
X585438D01*
X586246Y116135D01*
X586865Y116754D01*
X587200Y117562D01*
Y118438D01*
X586865Y119246D01*
X586246Y119865D01*
X585438Y120200D01*
D02*
G37*
G36*
X416938Y120700D02*
X416062D01*
X415254Y120365D01*
X414635Y119746D01*
X414300Y118938D01*
Y118062D01*
X414635Y117254D01*
X415254Y116635D01*
X416062Y116300D01*
X416938D01*
X417746Y116635D01*
X418365Y117254D01*
X418376Y117280D01*
X418917D01*
X419135Y116754D01*
X419754Y116135D01*
X420562Y115800D01*
X421438D01*
X422246Y116135D01*
X422865Y116754D01*
X423200Y117562D01*
Y118438D01*
X422865Y119246D01*
X422246Y119865D01*
X421438Y120200D01*
X420562D01*
X419754Y119865D01*
X419135Y119246D01*
X419124Y119220D01*
X418583D01*
X418365Y119746D01*
X417746Y120365D01*
X416938Y120700D01*
D02*
G37*
G36*
X407938Y120200D02*
X407062D01*
X406254Y119865D01*
X405635Y119246D01*
X405300Y118438D01*
Y117562D01*
X405635Y116754D01*
X406254Y116135D01*
X407062Y115800D01*
X407938D01*
X408746Y116135D01*
X409365Y116754D01*
X409700Y117562D01*
Y118438D01*
X409365Y119246D01*
X408746Y119865D01*
X407938Y120200D01*
D02*
G37*
G36*
X514438Y117700D02*
X513562D01*
X512754Y117365D01*
X512135Y116746D01*
X511824Y115995D01*
X511338Y115773D01*
X511246Y115865D01*
X510438Y116200D01*
X509562D01*
X508754Y115865D01*
X508135Y115246D01*
X507800Y114438D01*
Y113562D01*
X508135Y112754D01*
X508754Y112135D01*
X509562Y111800D01*
X510438D01*
X511246Y112135D01*
X511865Y112754D01*
X512176Y113505D01*
X512662Y113727D01*
X512754Y113635D01*
X513562Y113300D01*
X514438D01*
X515246Y113635D01*
X515865Y114254D01*
X516200Y115062D01*
Y115938D01*
X515865Y116746D01*
X515246Y117365D01*
X514438Y117700D01*
D02*
G37*
G36*
X136519Y119202D02*
X135644D01*
X134836Y118867D01*
X134217Y118248D01*
X133882Y117440D01*
Y116565D01*
X134217Y115756D01*
X134836Y115137D01*
X135644Y114802D01*
X136519D01*
X137328Y115137D01*
X137947Y115756D01*
X138282Y116565D01*
Y117440D01*
X137947Y118248D01*
X137328Y118867D01*
X136519Y119202D01*
D02*
G37*
G36*
X450678Y118440D02*
X449803D01*
X448994Y118105D01*
X448375Y117487D01*
X448040Y116678D01*
Y115803D01*
X448375Y114994D01*
X448994Y114375D01*
X449803Y114040D01*
X450678D01*
X451486Y114375D01*
X452105Y114994D01*
X452440Y115803D01*
Y116678D01*
X452105Y117487D01*
X451486Y118105D01*
X450678Y118440D01*
D02*
G37*
G36*
X244938Y118200D02*
X244062D01*
X243254Y117865D01*
X242635Y117246D01*
X242300Y116438D01*
Y115562D01*
X242635Y114754D01*
X243254Y114135D01*
X244062Y113800D01*
X244938D01*
X245746Y114135D01*
X246365Y114754D01*
X246700Y115562D01*
Y116438D01*
X246365Y117246D01*
X245746Y117865D01*
X244938Y118200D01*
D02*
G37*
G36*
X412739Y117501D02*
X411864D01*
X411055Y117166D01*
X410436Y116548D01*
X410101Y115739D01*
Y114864D01*
X410436Y114055D01*
X411055Y113436D01*
X411864Y113101D01*
X412739D01*
X413548Y113436D01*
X414166Y114055D01*
X414501Y114864D01*
Y115739D01*
X414166Y116548D01*
X413548Y117166D01*
X412739Y117501D01*
D02*
G37*
G36*
X365438Y120700D02*
X364562D01*
X363754Y120365D01*
X363135Y119746D01*
X362800Y118938D01*
Y118062D01*
X362967Y117660D01*
X363059Y117218D01*
X362717Y117057D01*
X362254Y116865D01*
X361635Y116246D01*
X361300Y115438D01*
Y114562D01*
X361635Y113754D01*
X362254Y113135D01*
X363062Y112800D01*
X363938D01*
X364746Y113135D01*
X365365Y113754D01*
X365700Y114562D01*
Y115438D01*
X365533Y115840D01*
X365441Y116282D01*
X365783Y116443D01*
X366246Y116635D01*
X366865Y117254D01*
X367200Y118062D01*
Y118938D01*
X366865Y119746D01*
X366246Y120365D01*
X365438Y120700D01*
D02*
G37*
G36*
X60938Y116700D02*
X60062D01*
X59254Y116365D01*
X58635Y115746D01*
X58300Y114938D01*
Y114062D01*
X58635Y113254D01*
X59254Y112635D01*
X60062Y112300D01*
X60938D01*
X61746Y112635D01*
X62365Y113254D01*
X62700Y114062D01*
Y114938D01*
X62365Y115746D01*
X61746Y116365D01*
X60938Y116700D01*
D02*
G37*
G36*
X599540Y119600D02*
X598460D01*
X597417Y119321D01*
X596483Y118781D01*
X595719Y118017D01*
X595179Y117083D01*
X594900Y116040D01*
Y114960D01*
X595179Y113918D01*
X595719Y112982D01*
X596483Y112219D01*
X597417Y111679D01*
X598460Y111400D01*
X599540D01*
X600583Y111679D01*
X601517Y112219D01*
X602281Y112982D01*
X602821Y113918D01*
X603100Y114960D01*
Y116040D01*
X602821Y117083D01*
X602281Y118017D01*
X601517Y118781D01*
X600583Y119321D01*
X599540Y119600D01*
D02*
G37*
G36*
X330438Y115700D02*
X329562D01*
X328754Y115365D01*
X328135Y114746D01*
X327800Y113938D01*
Y113062D01*
X328135Y112254D01*
X328754Y111635D01*
X329562Y111300D01*
X330438D01*
X331246Y111635D01*
X331865Y112254D01*
X332200Y113062D01*
Y113938D01*
X331865Y114746D01*
X331246Y115365D01*
X330438Y115700D01*
D02*
G37*
G36*
X185938D02*
X185062D01*
X184254Y115365D01*
X183635Y114746D01*
X183300Y113938D01*
Y113062D01*
X183635Y112254D01*
X184254Y111635D01*
X185062Y111300D01*
X185938D01*
X186746Y111635D01*
X187365Y112254D01*
X187700Y113062D01*
Y113938D01*
X187365Y114746D01*
X186746Y115365D01*
X185938Y115700D01*
D02*
G37*
G36*
X756040Y119100D02*
X754960D01*
X753918Y118821D01*
X752983Y118281D01*
X752219Y117517D01*
X751679Y116583D01*
X751400Y115540D01*
Y114460D01*
X751679Y113417D01*
X752219Y112483D01*
X752983Y111719D01*
X753918Y111179D01*
X754960Y110900D01*
X756040D01*
X757083Y111179D01*
X758017Y111719D01*
X758781Y112483D01*
X759321Y113417D01*
X759600Y114460D01*
Y115540D01*
X759321Y116583D01*
X758781Y117517D01*
X758017Y118281D01*
X757083Y118821D01*
X756040Y119100D01*
D02*
G37*
G36*
X744590D02*
X743510D01*
X742467Y118821D01*
X741533Y118281D01*
X740769Y117517D01*
X740229Y116583D01*
X739950Y115540D01*
Y114460D01*
X740229Y113417D01*
X740769Y112483D01*
X741533Y111719D01*
X742467Y111179D01*
X743510Y110900D01*
X744590D01*
X745633Y111179D01*
X746567Y111719D01*
X747331Y112483D01*
X747871Y113417D01*
X748150Y114460D01*
Y115540D01*
X747871Y116583D01*
X747331Y117517D01*
X746567Y118281D01*
X745633Y118821D01*
X744590Y119100D01*
D02*
G37*
G36*
X733140D02*
X732060D01*
X731017Y118821D01*
X730083Y118281D01*
X729319Y117517D01*
X728779Y116583D01*
X728500Y115540D01*
Y114460D01*
X728779Y113417D01*
X729319Y112483D01*
X730083Y111719D01*
X731017Y111179D01*
X732060Y110900D01*
X733140D01*
X734183Y111179D01*
X735117Y111719D01*
X735881Y112483D01*
X736421Y113417D01*
X736700Y114460D01*
Y115540D01*
X736421Y116583D01*
X735881Y117517D01*
X735117Y118281D01*
X734183Y118821D01*
X733140Y119100D01*
D02*
G37*
G36*
X721690D02*
X720610D01*
X719567Y118821D01*
X718633Y118281D01*
X717869Y117517D01*
X717329Y116583D01*
X717050Y115540D01*
Y114460D01*
X717329Y113417D01*
X717869Y112483D01*
X718633Y111719D01*
X719567Y111179D01*
X720610Y110900D01*
X721690D01*
X722732Y111179D01*
X723667Y111719D01*
X724431Y112483D01*
X724971Y113417D01*
X725250Y114460D01*
Y115540D01*
X724971Y116583D01*
X724431Y117517D01*
X723667Y118281D01*
X722732Y118821D01*
X721690Y119100D01*
D02*
G37*
G36*
X710240D02*
X709160D01*
X708117Y118821D01*
X707183Y118281D01*
X706419Y117517D01*
X705879Y116583D01*
X705600Y115540D01*
Y114460D01*
X705879Y113417D01*
X706419Y112483D01*
X707183Y111719D01*
X708117Y111179D01*
X709160Y110900D01*
X710240D01*
X711282Y111179D01*
X712218Y111719D01*
X712981Y112483D01*
X713521Y113417D01*
X713800Y114460D01*
Y115540D01*
X713521Y116583D01*
X712981Y117517D01*
X712218Y118281D01*
X711282Y118821D01*
X710240Y119100D01*
D02*
G37*
G36*
X698790D02*
X697710D01*
X696667Y118821D01*
X695732Y118281D01*
X694969Y117517D01*
X694429Y116583D01*
X694150Y115540D01*
Y114460D01*
X694429Y113417D01*
X694969Y112483D01*
X695732Y111719D01*
X696667Y111179D01*
X697710Y110900D01*
X698790D01*
X699832Y111179D01*
X700768Y111719D01*
X701531Y112483D01*
X702071Y113417D01*
X702350Y114460D01*
Y115540D01*
X702071Y116583D01*
X701531Y117517D01*
X700768Y118281D01*
X699832Y118821D01*
X698790Y119100D01*
D02*
G37*
G36*
X687340D02*
X686260D01*
X685218Y118821D01*
X684282Y118281D01*
X683519Y117517D01*
X682979Y116583D01*
X682700Y115540D01*
Y114460D01*
X682979Y113417D01*
X683519Y112483D01*
X684282Y111719D01*
X685218Y111179D01*
X686260Y110900D01*
X687340D01*
X688382Y111179D01*
X689318Y111719D01*
X690081Y112483D01*
X690621Y113417D01*
X690900Y114460D01*
Y115540D01*
X690621Y116583D01*
X690081Y117517D01*
X689318Y118281D01*
X688382Y118821D01*
X687340Y119100D01*
D02*
G37*
G36*
X675890D02*
X674810D01*
X673768Y118821D01*
X672832Y118281D01*
X672069Y117517D01*
X671529Y116583D01*
X671250Y115540D01*
Y114460D01*
X671529Y113417D01*
X672069Y112483D01*
X672832Y111719D01*
X673768Y111179D01*
X674810Y110900D01*
X675890D01*
X676932Y111179D01*
X677868Y111719D01*
X678631Y112483D01*
X679171Y113417D01*
X679450Y114460D01*
Y115540D01*
X679171Y116583D01*
X678631Y117517D01*
X677868Y118281D01*
X676932Y118821D01*
X675890Y119100D01*
D02*
G37*
G36*
X664440D02*
X663360D01*
X662318Y118821D01*
X661382Y118281D01*
X660619Y117517D01*
X660079Y116583D01*
X659800Y115540D01*
Y114460D01*
X660079Y113417D01*
X660619Y112483D01*
X661382Y111719D01*
X662318Y111179D01*
X663360Y110900D01*
X664440D01*
X665483Y111179D01*
X666418Y111719D01*
X667181Y112483D01*
X667721Y113417D01*
X668000Y114460D01*
Y115540D01*
X667721Y116583D01*
X667181Y117517D01*
X666418Y118281D01*
X665483Y118821D01*
X664440Y119100D01*
D02*
G37*
G36*
X652990D02*
X651910D01*
X650868Y118821D01*
X649932Y118281D01*
X649169Y117517D01*
X648629Y116583D01*
X648350Y115540D01*
Y114460D01*
X648629Y113417D01*
X649169Y112483D01*
X649932Y111719D01*
X650868Y111179D01*
X651910Y110900D01*
X652990D01*
X654033Y111179D01*
X654967Y111719D01*
X655731Y112483D01*
X656271Y113417D01*
X656550Y114460D01*
Y115540D01*
X656271Y116583D01*
X655731Y117517D01*
X654967Y118281D01*
X654033Y118821D01*
X652990Y119100D01*
D02*
G37*
G36*
X641540D02*
X640460D01*
X639418Y118821D01*
X638483Y118281D01*
X637719Y117517D01*
X637179Y116583D01*
X636900Y115540D01*
Y114460D01*
X637179Y113417D01*
X637719Y112483D01*
X638483Y111719D01*
X639418Y111179D01*
X640460Y110900D01*
X641540D01*
X642583Y111179D01*
X643517Y111719D01*
X644281Y112483D01*
X644821Y113417D01*
X645100Y114460D01*
Y115540D01*
X644821Y116583D01*
X644281Y117517D01*
X643517Y118281D01*
X642583Y118821D01*
X641540Y119100D01*
D02*
G37*
G36*
X294438Y115200D02*
X293562D01*
X292754Y114865D01*
X292135Y114246D01*
X291800Y113438D01*
Y112562D01*
X292135Y111754D01*
X292754Y111135D01*
X293562Y110800D01*
X294438D01*
X295246Y111135D01*
X295865Y111754D01*
X296200Y112562D01*
Y113438D01*
X295865Y114246D01*
X295246Y114865D01*
X294438Y115200D01*
D02*
G37*
G36*
X428438Y119700D02*
X427562D01*
X426754Y119365D01*
X426135Y118746D01*
X425800Y117938D01*
Y117062D01*
X426135Y116254D01*
X426754Y115635D01*
X427562Y115300D01*
X428438Y115300D01*
X428578Y114838D01*
X427874Y114547D01*
X427255Y113928D01*
X426920Y113119D01*
Y112244D01*
X427255Y111435D01*
X427874Y110816D01*
X428682Y110482D01*
X429558D01*
X430366Y110816D01*
X430985Y111435D01*
X431320Y112244D01*
Y113119D01*
X430985Y113928D01*
X430366Y114547D01*
X429558Y114882D01*
X429046Y114882D01*
X428682Y114882D01*
X428542Y115343D01*
X429246Y115635D01*
X429865Y116254D01*
X430200Y117062D01*
Y117938D01*
X429865Y118746D01*
X429246Y119365D01*
X428438Y119700D01*
D02*
G37*
G36*
X261938Y114200D02*
X261062D01*
X260254Y113865D01*
X259635Y113246D01*
X259300Y112438D01*
Y111562D01*
X259635Y110754D01*
X260254Y110135D01*
X261062Y109800D01*
X261938D01*
X262746Y110135D01*
X263365Y110754D01*
X263700Y111562D01*
Y112438D01*
X263365Y113246D01*
X262746Y113865D01*
X261938Y114200D01*
D02*
G37*
G36*
X101061Y113816D02*
X100186D01*
X99377Y113481D01*
X98758Y112863D01*
X98423Y112054D01*
Y111179D01*
X98758Y110370D01*
X99377Y109751D01*
X100186Y109416D01*
X101061D01*
X101869Y109751D01*
X102488Y110370D01*
X102823Y111179D01*
Y112054D01*
X102488Y112863D01*
X101869Y113481D01*
X101061Y113816D01*
D02*
G37*
G36*
X210499Y113740D02*
X209624D01*
X208816Y113405D01*
X208197Y112786D01*
X207862Y111977D01*
Y111102D01*
X208197Y110293D01*
X208816Y109675D01*
X209624Y109340D01*
X210499D01*
X211308Y109675D01*
X211927Y110293D01*
X212262Y111102D01*
Y111977D01*
X211927Y112786D01*
X211308Y113405D01*
X210499Y113740D01*
D02*
G37*
G36*
X195438Y113694D02*
X194562D01*
X193754Y113359D01*
X193135Y112740D01*
X192800Y111931D01*
Y111056D01*
X193135Y110248D01*
X193754Y109629D01*
X194562Y109294D01*
X195438D01*
X196246Y109629D01*
X196865Y110248D01*
X197200Y111056D01*
Y111931D01*
X196865Y112740D01*
X196246Y113359D01*
X195438Y113694D01*
D02*
G37*
G36*
X348938Y113200D02*
X348062D01*
X347254Y112865D01*
X346635Y112246D01*
X346300Y111438D01*
Y110562D01*
X346635Y109754D01*
X347254Y109135D01*
X348062Y108800D01*
X348938D01*
X349746Y109135D01*
X350365Y109754D01*
X350700Y110562D01*
Y111438D01*
X350365Y112246D01*
X349746Y112865D01*
X348938Y113200D01*
D02*
G37*
G36*
X118770Y113165D02*
X117895D01*
X117086Y112830D01*
X116467Y112211D01*
X116133Y111403D01*
Y110528D01*
X116467Y109719D01*
X117086Y109100D01*
X117895Y108765D01*
X118770D01*
X119579Y109100D01*
X120198Y109719D01*
X120533Y110528D01*
Y111403D01*
X120198Y112211D01*
X119579Y112830D01*
X118770Y113165D01*
D02*
G37*
G36*
X492438Y112700D02*
X491562D01*
X490754Y112365D01*
X490135Y111746D01*
X489800Y110938D01*
Y110062D01*
X490135Y109254D01*
X490754Y108635D01*
X491562Y108300D01*
X492438D01*
X493246Y108635D01*
X493865Y109254D01*
X494200Y110062D01*
Y110938D01*
X493865Y111746D01*
X493246Y112365D01*
X492438Y112700D01*
D02*
G37*
G36*
X319149Y112204D02*
X318273D01*
X317465Y111869D01*
X316846Y111250D01*
X316511Y110442D01*
Y109566D01*
X316846Y108758D01*
X317465Y108139D01*
X318273Y107804D01*
X319149D01*
X319957Y108139D01*
X320576Y108758D01*
X320911Y109566D01*
Y110442D01*
X320576Y111250D01*
X319957Y111869D01*
X319149Y112204D01*
D02*
G37*
G36*
X41438Y112200D02*
X40562D01*
X39754Y111865D01*
X39135Y111246D01*
X38800Y110438D01*
Y109562D01*
X39135Y108754D01*
X39754Y108135D01*
X40562Y107800D01*
X41438D01*
X42246Y108135D01*
X42865Y108754D01*
X43200Y109562D01*
Y110438D01*
X42865Y111246D01*
X42246Y111865D01*
X41438Y112200D01*
D02*
G37*
G36*
X327438Y111200D02*
X326562D01*
X325754Y110865D01*
X325135Y110246D01*
X324800Y109438D01*
Y108562D01*
X325135Y107754D01*
X325754Y107135D01*
X326562Y106800D01*
X327438D01*
X328246Y107135D01*
X328865Y107754D01*
X329200Y108562D01*
Y109438D01*
X328865Y110246D01*
X328246Y110865D01*
X327438Y111200D01*
D02*
G37*
G36*
X266299Y110561D02*
X265423D01*
X264615Y110226D01*
X263996Y109607D01*
X263661Y108799D01*
Y107923D01*
X263996Y107115D01*
X264615Y106496D01*
X265423Y106161D01*
X266299D01*
X267107Y106496D01*
X267726Y107115D01*
X268061Y107923D01*
Y108799D01*
X267726Y109607D01*
X267107Y110226D01*
X266299Y110561D01*
D02*
G37*
G36*
X725438Y109200D02*
X724562D01*
X723754Y108865D01*
X723135Y108246D01*
X722800Y107438D01*
Y106562D01*
X723135Y105754D01*
X723754Y105135D01*
X724562Y104800D01*
X725438D01*
X726246Y105135D01*
X726865Y105754D01*
X727200Y106562D01*
Y107438D01*
X726865Y108246D01*
X726246Y108865D01*
X725438Y109200D01*
D02*
G37*
G36*
X282758Y109085D02*
X281883D01*
X281075Y108750D01*
X280456Y108131D01*
X280121Y107322D01*
Y106447D01*
X280456Y105638D01*
X281075Y105020D01*
X281883Y104685D01*
X282758D01*
X283567Y105020D01*
X284186Y105638D01*
X284521Y106447D01*
Y107322D01*
X284186Y108131D01*
X283567Y108750D01*
X282758Y109085D01*
D02*
G37*
G36*
X310231Y105421D02*
X309356D01*
X308547Y105086D01*
X308101Y104639D01*
X307492Y104620D01*
X307246Y104865D01*
X306438Y105200D01*
X305562D01*
X304754Y104865D01*
X304135Y104246D01*
X303800Y103438D01*
Y102562D01*
X304135Y101754D01*
X304754Y101135D01*
X305562Y100800D01*
X306438D01*
X307246Y101135D01*
X307693Y101582D01*
X308302Y101601D01*
X308547Y101356D01*
X309356Y101021D01*
X310231D01*
X311040Y101356D01*
X311659Y101975D01*
X311994Y102783D01*
Y103658D01*
X311659Y104467D01*
X311040Y105086D01*
X310231Y105421D01*
D02*
G37*
G36*
X187938Y108706D02*
X187062D01*
X186254Y108371D01*
X185635Y107752D01*
X185300Y106944D01*
Y106069D01*
X185635Y105260D01*
X186254Y104641D01*
X187062Y104306D01*
X187938D01*
X188746Y104641D01*
X189365Y105260D01*
X189700Y106069D01*
Y106944D01*
X189365Y107752D01*
X188746Y108371D01*
X187938Y108706D01*
D02*
G37*
G36*
X106292Y108555D02*
X105417D01*
X104608Y108220D01*
X103990Y107601D01*
X103655Y106792D01*
Y105917D01*
X103990Y105108D01*
X104608Y104490D01*
X105417Y104155D01*
X106292D01*
X107101Y104490D01*
X107720Y105108D01*
X108055Y105917D01*
Y106792D01*
X107720Y107601D01*
X107101Y108220D01*
X106292Y108555D01*
D02*
G37*
G36*
X415810Y108256D02*
X414935D01*
X414126Y107921D01*
X413507Y107302D01*
X413172Y106493D01*
Y105618D01*
X413507Y104809D01*
X414126Y104191D01*
X414935Y103856D01*
X415810D01*
X416618Y104191D01*
X417237Y104809D01*
X417572Y105618D01*
Y106493D01*
X417237Y107302D01*
X416618Y107921D01*
X415810Y108256D01*
D02*
G37*
G36*
X351938Y108200D02*
X351062D01*
X350254Y107865D01*
X349635Y107246D01*
X349300Y106438D01*
Y105562D01*
X349635Y104754D01*
X350254Y104135D01*
X351062Y103800D01*
X351938D01*
X352746Y104135D01*
X353365Y104754D01*
X353700Y105562D01*
Y106438D01*
X353365Y107246D01*
X352746Y107865D01*
X351938Y108200D01*
D02*
G37*
G36*
X290438D02*
X289562D01*
X288754Y107865D01*
X288135Y107246D01*
X287800Y106438D01*
Y105562D01*
X288135Y104754D01*
X288754Y104135D01*
X289562Y103800D01*
X290438D01*
X291246Y104135D01*
X291865Y104754D01*
X292200Y105562D01*
Y106438D01*
X291865Y107246D01*
X291246Y107865D01*
X290438Y108200D01*
D02*
G37*
G36*
X136253D02*
X135378D01*
X134570Y107865D01*
X133951Y107246D01*
X133616Y106438D01*
Y105562D01*
X133951Y104754D01*
X134570Y104135D01*
X135378Y103800D01*
X136253D01*
X137062Y104135D01*
X137681Y104754D01*
X138016Y105562D01*
Y106438D01*
X137681Y107246D01*
X137062Y107865D01*
X136253Y108200D01*
D02*
G37*
G36*
X249438Y106700D02*
X248562D01*
X247754Y106365D01*
X247135Y105746D01*
X246800Y104938D01*
Y104062D01*
X246889Y103847D01*
X246507Y103464D01*
X245938Y103700D01*
X245062D01*
X244254Y103365D01*
X243635Y102746D01*
X243300Y101938D01*
Y101062D01*
X243635Y100254D01*
X244254Y99635D01*
X244780Y99417D01*
Y98876D01*
X244754Y98865D01*
X244135Y98246D01*
X243800Y97438D01*
Y96562D01*
X244135Y95754D01*
X244754Y95135D01*
X245562Y94800D01*
X246438D01*
X247246Y95135D01*
X247865Y95754D01*
X248200Y96562D01*
Y97438D01*
X247865Y98246D01*
X247246Y98865D01*
X246720Y99083D01*
Y99624D01*
X246746Y99635D01*
X247365Y100254D01*
X247700Y101062D01*
Y101938D01*
X247611Y102153D01*
X247993Y102536D01*
X248562Y102300D01*
X249438D01*
X250246Y102635D01*
X250865Y103254D01*
X251200Y104062D01*
Y104938D01*
X250865Y105746D01*
X250246Y106365D01*
X249438Y106700D01*
D02*
G37*
G36*
X171938Y107700D02*
X171062D01*
X170254Y107365D01*
X169635Y106746D01*
X169300Y105938D01*
Y105062D01*
X169635Y104254D01*
X170254Y103635D01*
X171062Y103300D01*
X171938D01*
X172746Y103635D01*
X173365Y104254D01*
X173700Y105062D01*
Y105938D01*
X173365Y106746D01*
X172746Y107365D01*
X171938Y107700D01*
D02*
G37*
G36*
X165438D02*
X164562D01*
X163754Y107365D01*
X163135Y106746D01*
X162800Y105938D01*
Y105062D01*
X163135Y104254D01*
X163754Y103635D01*
X164562Y103300D01*
X165438D01*
X166246Y103635D01*
X166865Y104254D01*
X167200Y105062D01*
Y105938D01*
X166865Y106746D01*
X166246Y107365D01*
X165438Y107700D01*
D02*
G37*
G36*
X158938D02*
X158062D01*
X157254Y107365D01*
X156635Y106746D01*
X156300Y105938D01*
Y105062D01*
X156635Y104254D01*
X157254Y103635D01*
X158062Y103300D01*
X158938D01*
X159746Y103635D01*
X160365Y104254D01*
X160700Y105062D01*
Y105938D01*
X160365Y106746D01*
X159746Y107365D01*
X158938Y107700D01*
D02*
G37*
G36*
X152438D02*
X151562D01*
X150754Y107365D01*
X150135Y106746D01*
X149800Y105938D01*
Y105062D01*
X150135Y104254D01*
X150754Y103635D01*
X151562Y103300D01*
X152438D01*
X153246Y103635D01*
X153865Y104254D01*
X154200Y105062D01*
Y105938D01*
X153865Y106746D01*
X153246Y107365D01*
X152438Y107700D01*
D02*
G37*
G36*
X383753Y107418D02*
X382878D01*
X382069Y107083D01*
X381451Y106465D01*
X381116Y105656D01*
Y104781D01*
X381451Y103972D01*
X382069Y103353D01*
X382878Y103018D01*
X383753D01*
X384562Y103353D01*
X385181Y103972D01*
X385516Y104781D01*
Y105656D01*
X385181Y106465D01*
X384562Y107083D01*
X383753Y107418D01*
D02*
G37*
G36*
X594890Y107269D02*
X594015D01*
X593207Y106934D01*
X592588Y106316D01*
X592253Y105507D01*
Y104632D01*
X592588Y103823D01*
X593207Y103204D01*
X594015Y102869D01*
X594890D01*
X595699Y103204D01*
X596318Y103823D01*
X596653Y104632D01*
Y105507D01*
X596318Y106316D01*
X595699Y106934D01*
X594890Y107269D01*
D02*
G37*
G36*
X633438Y107200D02*
X632562D01*
X631754Y106865D01*
X631135Y106246D01*
X630800Y105438D01*
Y104562D01*
X631135Y103754D01*
X631754Y103135D01*
X632562Y102800D01*
X633438D01*
X634246Y103135D01*
X634865Y103754D01*
X635200Y104562D01*
Y105438D01*
X634865Y106246D01*
X634246Y106865D01*
X633438Y107200D01*
D02*
G37*
G36*
X114040Y110100D02*
X112960D01*
X111917Y109821D01*
X110983Y109281D01*
X110219Y108518D01*
X109679Y107582D01*
X109400Y106540D01*
Y105460D01*
X109679Y104418D01*
X110219Y103482D01*
X110983Y102719D01*
X111917Y102179D01*
X112960Y101900D01*
X114040D01*
X115083Y102179D01*
X116017Y102719D01*
X116781Y103482D01*
X117321Y104418D01*
X117600Y105460D01*
Y106540D01*
X117321Y107582D01*
X116781Y108518D01*
X116017Y109281D01*
X115083Y109821D01*
X114040Y110100D01*
D02*
G37*
G36*
X707438Y106200D02*
X706562D01*
X705754Y105865D01*
X705135Y105246D01*
X704800Y104438D01*
Y103562D01*
X705135Y102754D01*
X705754Y102135D01*
X706562Y101800D01*
X707438D01*
X708246Y102135D01*
X708865Y102754D01*
X709200Y103562D01*
Y104438D01*
X708865Y105246D01*
X708246Y105865D01*
X707438Y106200D01*
D02*
G37*
G36*
X569438Y105700D02*
X568562D01*
X567754Y105365D01*
X567135Y104746D01*
X566800Y103938D01*
Y103062D01*
X567135Y102254D01*
X567754Y101635D01*
X568562Y101300D01*
X569438D01*
X570246Y101635D01*
X570865Y102254D01*
X571200Y103062D01*
Y103938D01*
X570865Y104746D01*
X570246Y105365D01*
X569438Y105700D01*
D02*
G37*
G36*
X774467Y105550D02*
X773533D01*
X772630Y105308D01*
X771820Y104841D01*
X771159Y104180D01*
X770692Y103370D01*
X770450Y102467D01*
Y101533D01*
X770692Y100630D01*
X771159Y99820D01*
X771820Y99159D01*
X772630Y98692D01*
X773533Y98450D01*
X774467D01*
X775370Y98692D01*
X776180Y99159D01*
X776841Y99820D01*
X777308Y100630D01*
X777550Y101533D01*
Y102467D01*
X777308Y103370D01*
X776841Y104180D01*
X776180Y104841D01*
X775370Y105308D01*
X774467Y105550D01*
D02*
G37*
G36*
X333901Y99931D02*
X333025D01*
X332217Y99596D01*
X331598Y98977D01*
X331389Y98474D01*
X331097Y98415D01*
X330289Y98750D01*
X329413D01*
X328605Y98415D01*
X327986Y97797D01*
X327651Y96988D01*
Y96113D01*
X327986Y95304D01*
X328605Y94685D01*
X329413Y94350D01*
X330289D01*
X331097Y94685D01*
X331716Y95304D01*
X331836Y95593D01*
X332450Y95769D01*
X333025Y95531D01*
X333901D01*
X334709Y95866D01*
X335328Y96485D01*
X335663Y97293D01*
Y98168D01*
X335328Y98977D01*
X334709Y99596D01*
X333901Y99931D01*
D02*
G37*
G36*
X83938Y102604D02*
X83062D01*
X82254Y102269D01*
X81635Y101651D01*
X81300Y100842D01*
Y99967D01*
X81635Y99158D01*
X82254Y98539D01*
X83062Y98204D01*
X83938D01*
X84746Y98539D01*
X85365Y99158D01*
X85700Y99967D01*
Y100842D01*
X85365Y101651D01*
X84746Y102269D01*
X83938Y102604D01*
D02*
G37*
G36*
X759540Y106100D02*
X758460D01*
X757417Y105821D01*
X756483Y105281D01*
X755719Y104517D01*
X755179Y103583D01*
X754900Y102540D01*
Y101460D01*
X755179Y100417D01*
X755719Y99483D01*
X756483Y98719D01*
X757417Y98179D01*
X758460Y97900D01*
X759540D01*
X760582Y98179D01*
X761517Y98719D01*
X762281Y99483D01*
X762821Y100417D01*
X763100Y101460D01*
Y102540D01*
X762821Y103583D01*
X762281Y104517D01*
X761517Y105281D01*
X760582Y105821D01*
X759540Y106100D01*
D02*
G37*
G36*
X207040D02*
X205960D01*
X204918Y105821D01*
X203982Y105281D01*
X203219Y104517D01*
X202679Y103583D01*
X202400Y102540D01*
Y101460D01*
X202679Y100417D01*
X203219Y99483D01*
X203982Y98719D01*
X204918Y98179D01*
X205960Y97900D01*
X207040D01*
X208083Y98179D01*
X209017Y98719D01*
X209781Y99483D01*
X210321Y100417D01*
X210600Y101460D01*
Y102540D01*
X210321Y103583D01*
X209781Y104517D01*
X209017Y105281D01*
X208083Y105821D01*
X207040Y106100D01*
D02*
G37*
G36*
X256560Y101914D02*
X255685D01*
X254876Y101579D01*
X254258Y100960D01*
X253923Y100152D01*
Y99276D01*
X254258Y98468D01*
X254876Y97849D01*
X255685Y97514D01*
X256560D01*
X257369Y97849D01*
X257988Y98468D01*
X258323Y99276D01*
Y100152D01*
X257988Y100960D01*
X257369Y101579D01*
X256560Y101914D01*
D02*
G37*
G36*
X362438Y101362D02*
X361562D01*
X360754Y101027D01*
X360135Y100408D01*
X359800Y99599D01*
Y98724D01*
X360135Y97915D01*
X360754Y97297D01*
X361562Y96961D01*
X362438D01*
X363246Y97297D01*
X363865Y97915D01*
X364200Y98724D01*
Y99599D01*
X363865Y100408D01*
X363246Y101027D01*
X362438Y101362D01*
D02*
G37*
G36*
X497985Y100563D02*
X497109D01*
X496301Y100228D01*
X495682Y99609D01*
X495347Y98800D01*
Y97925D01*
X495682Y97117D01*
X496301Y96498D01*
X497109Y96163D01*
X497985D01*
X498793Y96498D01*
X499412Y97117D01*
X499747Y97925D01*
Y98800D01*
X499412Y99609D01*
X498793Y100228D01*
X497985Y100563D01*
D02*
G37*
G36*
X351976Y99477D02*
X351101D01*
X350292Y99142D01*
X349673Y98523D01*
X349339Y97715D01*
Y96839D01*
X349673Y96031D01*
X350292Y95412D01*
X351101Y95077D01*
X351976D01*
X352785Y95412D01*
X353404Y96031D01*
X353738Y96839D01*
Y97715D01*
X353404Y98523D01*
X352785Y99142D01*
X351976Y99477D01*
D02*
G37*
G36*
X624438Y98700D02*
X623562D01*
X622754Y98365D01*
X622135Y97746D01*
X621800Y96938D01*
Y96062D01*
X622135Y95254D01*
X622754Y94635D01*
X623562Y94300D01*
X624438D01*
X625246Y94635D01*
X625865Y95254D01*
X626200Y96062D01*
Y96938D01*
X625865Y97746D01*
X625246Y98365D01*
X624438Y98700D01*
D02*
G37*
G36*
X310938D02*
X310062D01*
X309254Y98365D01*
X308635Y97746D01*
X308300Y96938D01*
Y96062D01*
X308635Y95254D01*
X309254Y94635D01*
X310062Y94300D01*
X310938D01*
X311746Y94635D01*
X312365Y95254D01*
X312700Y96062D01*
Y96938D01*
X312365Y97746D01*
X311746Y98365D01*
X310938Y98700D01*
D02*
G37*
G36*
X528461Y98466D02*
X527585D01*
X526777Y98131D01*
X526158Y97512D01*
X525823Y96703D01*
Y95828D01*
X526158Y95019D01*
X526777Y94401D01*
X527585Y94065D01*
X528461D01*
X529269Y94401D01*
X529888Y95019D01*
X530223Y95828D01*
Y96703D01*
X529888Y97512D01*
X529269Y98131D01*
X528461Y98466D01*
D02*
G37*
G36*
X420030Y98269D02*
X419155D01*
X418346Y97934D01*
X417727Y97315D01*
X417392Y96507D01*
Y95632D01*
X417727Y94823D01*
X418346Y94204D01*
X419155Y93869D01*
X420030D01*
X420838Y94204D01*
X421457Y94823D01*
X421792Y95632D01*
Y96507D01*
X421457Y97315D01*
X420838Y97934D01*
X420030Y98269D01*
D02*
G37*
G36*
X503438Y100101D02*
X502562D01*
X501754Y99766D01*
X501135Y99148D01*
X500800Y98339D01*
Y97464D01*
X501135Y96655D01*
X501754Y96036D01*
X502562Y95701D01*
X503438D01*
X504246Y96036D01*
X504865Y96655D01*
X505300Y96438D01*
Y95562D01*
X505635Y94754D01*
X506254Y94135D01*
X507062Y93800D01*
X507938D01*
X508746Y94135D01*
X509365Y94754D01*
X509700Y95562D01*
Y96438D01*
X509365Y97246D01*
X508746Y97865D01*
X507938Y98200D01*
X507062D01*
X506254Y97865D01*
X505635Y97246D01*
X505200Y97464D01*
Y98339D01*
X504865Y99148D01*
X504246Y99766D01*
X503438Y100101D01*
D02*
G37*
G36*
X208938Y94900D02*
X208062D01*
X207254Y94565D01*
X206635Y93946D01*
X206479Y93570D01*
X205938D01*
X205865Y93746D01*
X205246Y94365D01*
X204438Y94700D01*
X203562D01*
X202754Y94365D01*
X202135Y93746D01*
X201800Y92938D01*
Y92062D01*
X202135Y91254D01*
X202754Y90635D01*
X203562Y90300D01*
X204438D01*
X205246Y90635D01*
X205865Y91254D01*
X206021Y91630D01*
X206562D01*
X206635Y91454D01*
X207254Y90835D01*
X208062Y90500D01*
X208938D01*
X209746Y90835D01*
X210365Y91454D01*
X210700Y92262D01*
Y93138D01*
X210365Y93946D01*
X209746Y94565D01*
X208938Y94900D01*
D02*
G37*
G36*
X741040Y101600D02*
X739960D01*
X738917Y101321D01*
X737983Y100781D01*
X737219Y100017D01*
X736679Y99082D01*
X736400Y98040D01*
Y96960D01*
X736679Y95917D01*
X737219Y94982D01*
X737983Y94219D01*
X738917Y93679D01*
X739960Y93400D01*
X741040D01*
X742083Y93679D01*
X743017Y94219D01*
X743781Y94982D01*
X744321Y95917D01*
X744600Y96960D01*
Y98040D01*
X744321Y99082D01*
X743781Y100017D01*
X743017Y100781D01*
X742083Y101321D01*
X741040Y101600D01*
D02*
G37*
G36*
X711040D02*
X709960D01*
X708918Y101321D01*
X707982Y100781D01*
X707219Y100017D01*
X706679Y99082D01*
X706400Y98040D01*
Y96960D01*
X706679Y95917D01*
X707219Y94982D01*
X707982Y94219D01*
X708918Y93679D01*
X709960Y93400D01*
X711040D01*
X712082Y93679D01*
X713018Y94219D01*
X713781Y94982D01*
X714321Y95917D01*
X714600Y96960D01*
Y98040D01*
X714321Y99082D01*
X713781Y100017D01*
X713018Y100781D01*
X712082Y101321D01*
X711040Y101600D01*
D02*
G37*
G36*
X550938Y97700D02*
X550062D01*
X549254Y97365D01*
X548635Y96746D01*
X548300Y95938D01*
Y95062D01*
X548635Y94254D01*
X549254Y93635D01*
X550062Y93300D01*
X550938D01*
X551746Y93635D01*
X552365Y94254D01*
X552700Y95062D01*
Y95938D01*
X552365Y96746D01*
X551746Y97365D01*
X550938Y97700D01*
D02*
G37*
G36*
X450938D02*
X450062D01*
X449254Y97365D01*
X448635Y96746D01*
X448300Y95938D01*
Y95062D01*
X448635Y94254D01*
X449254Y93635D01*
X450062Y93300D01*
X450938D01*
X451746Y93635D01*
X452365Y94254D01*
X452700Y95062D01*
Y95938D01*
X452365Y96746D01*
X451746Y97365D01*
X450938Y97700D01*
D02*
G37*
G36*
X563438Y97200D02*
X562562D01*
X561754Y96865D01*
X561135Y96246D01*
X560800Y95438D01*
Y94562D01*
X561135Y93754D01*
X561754Y93135D01*
X562562Y92800D01*
X563438D01*
X564246Y93135D01*
X564865Y93754D01*
X565200Y94562D01*
Y95438D01*
X564865Y96246D01*
X564246Y96865D01*
X563438Y97200D01*
D02*
G37*
G36*
X100438D02*
X99562D01*
X98754Y96865D01*
X98135Y96246D01*
X97800Y95438D01*
Y94562D01*
X98135Y93754D01*
X98754Y93135D01*
X99562Y92800D01*
X100438D01*
X101246Y93135D01*
X101865Y93754D01*
X102200Y94562D01*
Y95438D01*
X101865Y96246D01*
X101246Y96865D01*
X100438Y97200D01*
D02*
G37*
G36*
X429438Y94700D02*
X428562D01*
X427754Y94365D01*
X427135Y93746D01*
X426800Y92938D01*
Y92503D01*
X426300Y92404D01*
X426202Y92640D01*
X425584Y93259D01*
X424775Y93593D01*
X423900D01*
X423091Y93259D01*
X422472Y92640D01*
X422137Y91831D01*
Y91341D01*
X421637Y91134D01*
X421499Y91273D01*
X420690Y91608D01*
X419815D01*
X419006Y91273D01*
X418388Y90654D01*
X418007Y90578D01*
X417721Y90865D01*
X416912Y91200D01*
X416037D01*
X415228Y90865D01*
X414609Y90246D01*
X414274Y89438D01*
Y88562D01*
X414609Y87754D01*
X415228Y87135D01*
X416037Y86800D01*
X416912D01*
X417721Y87135D01*
X418339Y87754D01*
X418720Y87829D01*
X419006Y87543D01*
X419815Y87208D01*
X420690D01*
X421499Y87543D01*
X422118Y88161D01*
X422452Y88970D01*
Y89460D01*
X422953Y89667D01*
X423091Y89528D01*
X423900Y89193D01*
X424775D01*
X425584Y89528D01*
X426202Y90147D01*
X426537Y90956D01*
Y91390D01*
X427037Y91489D01*
X427135Y91254D01*
X427754Y90635D01*
X428562Y90300D01*
X429438D01*
X430246Y90635D01*
X430865Y91254D01*
X431200Y92062D01*
Y92938D01*
X430865Y93746D01*
X430246Y94365D01*
X429438Y94700D01*
D02*
G37*
G36*
X641438Y96200D02*
X640562D01*
X639754Y95865D01*
X639135Y95246D01*
X638800Y94438D01*
Y93562D01*
X639135Y92754D01*
X639754Y92135D01*
X640562Y91800D01*
X641438D01*
X642246Y92135D01*
X642865Y92754D01*
X643200Y93562D01*
Y94438D01*
X642865Y95246D01*
X642246Y95865D01*
X641438Y96200D01*
D02*
G37*
G36*
X281049Y95811D02*
X280173D01*
X279365Y95476D01*
X278746Y94857D01*
X278411Y94049D01*
Y93173D01*
X278746Y92365D01*
X279365Y91746D01*
X280173Y91411D01*
X281049D01*
X281857Y91746D01*
X282476Y92365D01*
X282811Y93173D01*
Y94049D01*
X282476Y94857D01*
X281857Y95476D01*
X281049Y95811D01*
D02*
G37*
G36*
X405568Y95700D02*
X404693D01*
X403884Y95365D01*
X403265Y94746D01*
X402930Y93938D01*
Y93062D01*
X403265Y92254D01*
X403884Y91635D01*
X404693Y91300D01*
X405568D01*
X406377Y91635D01*
X406996Y92254D01*
X407331Y93062D01*
Y93938D01*
X406996Y94746D01*
X406377Y95365D01*
X405568Y95700D01*
D02*
G37*
G36*
X56438Y95700D02*
X55562D01*
X54754Y95365D01*
X54135Y94746D01*
X53800Y93938D01*
Y93062D01*
X54135Y92254D01*
X54754Y91635D01*
X55562Y91300D01*
X56438D01*
X57246Y91635D01*
X57865Y92254D01*
X58200Y93062D01*
Y93938D01*
X57865Y94746D01*
X57246Y95365D01*
X56438Y95700D01*
D02*
G37*
G36*
X298464Y94931D02*
X297589D01*
X296780Y94596D01*
X296161Y93977D01*
X295826Y93169D01*
Y92294D01*
X296161Y91485D01*
X296780Y90866D01*
X297589Y90531D01*
X298464D01*
X299273Y90866D01*
X299891Y91485D01*
X300226Y92294D01*
Y93169D01*
X299891Y93977D01*
X299273Y94596D01*
X298464Y94931D01*
D02*
G37*
G36*
X195040Y98600D02*
X193960D01*
X192918Y98321D01*
X191982Y97781D01*
X191219Y97018D01*
X190679Y96083D01*
X190400Y95040D01*
Y93960D01*
X190679Y92918D01*
X191219Y91983D01*
X191982Y91219D01*
X192918Y90679D01*
X193960Y90400D01*
X195040D01*
X196082Y90679D01*
X197018Y91219D01*
X197781Y91983D01*
X198321Y92918D01*
X198600Y93960D01*
Y95040D01*
X198321Y96083D01*
X197781Y97018D01*
X197018Y97781D01*
X196082Y98321D01*
X195040Y98600D01*
D02*
G37*
G36*
X349256Y94700D02*
X348381D01*
X347572Y94365D01*
X346954Y93746D01*
X346619Y92938D01*
Y92062D01*
X346954Y91254D01*
X347572Y90635D01*
X348381Y90300D01*
X349256D01*
X350065Y90635D01*
X350684Y91254D01*
X351019Y92062D01*
Y92938D01*
X350684Y93746D01*
X350065Y94365D01*
X349256Y94700D01*
D02*
G37*
G36*
X10341Y107291D02*
X8659D01*
X7008Y106963D01*
X5453Y106319D01*
X4054Y105384D01*
X2864Y104194D01*
X1929Y102795D01*
X1285Y101240D01*
X957Y99589D01*
Y97907D01*
X1285Y96256D01*
X1929Y94701D01*
X2864Y93302D01*
X4054Y92112D01*
X5453Y91177D01*
X7008Y90533D01*
X8659Y90205D01*
X10341D01*
X11992Y90533D01*
X13547Y91177D01*
X14946Y92112D01*
X16136Y93302D01*
X17071Y94701D01*
X17715Y96256D01*
X18043Y97907D01*
Y99589D01*
X17715Y101240D01*
X17071Y102795D01*
X16136Y104194D01*
X14946Y105384D01*
X13547Y106319D01*
X11992Y106963D01*
X10341Y107291D01*
D02*
G37*
G36*
X293233Y94431D02*
X292358D01*
X291549Y94096D01*
X290931Y93477D01*
X290596Y92668D01*
Y91793D01*
X290931Y90985D01*
X291549Y90366D01*
X292358Y90031D01*
X293233D01*
X294042Y90366D01*
X294661Y90985D01*
X294996Y91793D01*
Y92668D01*
X294661Y93477D01*
X294042Y94096D01*
X293233Y94431D01*
D02*
G37*
G36*
X515499Y93906D02*
X514624D01*
X513816Y93571D01*
X513197Y92952D01*
X512862Y92144D01*
Y91268D01*
X513197Y90460D01*
X513816Y89841D01*
X514624Y89506D01*
X515499D01*
X516308Y89841D01*
X516927Y90460D01*
X517262Y91268D01*
Y92144D01*
X516927Y92952D01*
X516308Y93571D01*
X515499Y93906D01*
D02*
G37*
G36*
X137438Y93600D02*
X136562D01*
X135754Y93265D01*
X135135Y92646D01*
X134800Y91838D01*
Y90962D01*
X135135Y90154D01*
X135754Y89535D01*
X136562Y89200D01*
X137438D01*
X138246Y89535D01*
X138865Y90154D01*
X139200Y90962D01*
Y91838D01*
X138865Y92646D01*
X138246Y93265D01*
X137438Y93600D01*
D02*
G37*
G36*
X623438Y93200D02*
X622562D01*
X621754Y92865D01*
X621135Y92246D01*
X620800Y91438D01*
Y90562D01*
X621135Y89754D01*
X621754Y89135D01*
X622562Y88800D01*
X623438D01*
X624246Y89135D01*
X624865Y89754D01*
X625200Y90562D01*
Y91438D01*
X624865Y92246D01*
X624246Y92865D01*
X623438Y93200D01*
D02*
G37*
G36*
X324954D02*
X324078D01*
X323270Y92865D01*
X322651Y92246D01*
X322316Y91438D01*
Y90562D01*
X322651Y89754D01*
X323270Y89135D01*
X324078Y88800D01*
X324954D01*
X325762Y89135D01*
X326381Y89754D01*
X326716Y90562D01*
Y91438D01*
X326381Y92246D01*
X325762Y92865D01*
X324954Y93200D01*
D02*
G37*
G36*
X451681Y92469D02*
X450806D01*
X449997Y92134D01*
X449378Y91515D01*
X449043Y90707D01*
Y89832D01*
X449378Y89023D01*
X449997Y88404D01*
X450806Y88069D01*
X451681D01*
X452490Y88404D01*
X453109Y89023D01*
X453443Y89832D01*
Y90707D01*
X453109Y91515D01*
X452490Y92134D01*
X451681Y92469D01*
D02*
G37*
G36*
X311938Y92525D02*
X311062D01*
X310254Y92190D01*
X309635Y91571D01*
X309300Y90762D01*
Y89887D01*
X309635Y89078D01*
X310254Y88460D01*
X311062Y88125D01*
X311938D01*
X312746Y88460D01*
X313365Y89078D01*
X313412Y89192D01*
X313953D01*
X314135Y88754D01*
X314754Y88135D01*
X315562Y87800D01*
X316438D01*
X317246Y88135D01*
X317865Y88754D01*
X318200Y89562D01*
Y90438D01*
X317865Y91246D01*
X317246Y91865D01*
X316438Y92200D01*
X315562D01*
X314754Y91865D01*
X314135Y91246D01*
X314088Y91132D01*
X313547D01*
X313365Y91571D01*
X312746Y92190D01*
X311938Y92525D01*
D02*
G37*
G36*
X411924Y91644D02*
X411049D01*
X410241Y91309D01*
X409622Y90690D01*
X409287Y89881D01*
Y89006D01*
X409622Y88197D01*
X410241Y87578D01*
X411049Y87244D01*
X411924D01*
X412733Y87578D01*
X413352Y88197D01*
X413687Y89006D01*
Y89881D01*
X413352Y90690D01*
X412733Y91309D01*
X411924Y91644D01*
D02*
G37*
G36*
X302586Y91418D02*
X301711D01*
X300903Y91083D01*
X300284Y90464D01*
X299949Y89656D01*
Y88780D01*
X300284Y87972D01*
X300903Y87353D01*
X301711Y87018D01*
X302586D01*
X303395Y87353D01*
X304014Y87972D01*
X304349Y88780D01*
Y89656D01*
X304014Y90464D01*
X303395Y91083D01*
X302586Y91418D01*
D02*
G37*
G36*
X427225Y88212D02*
X426350D01*
X425541Y87877D01*
X424922Y87258D01*
X424742Y86823D01*
X424403Y86756D01*
X423594Y87091D01*
X422719D01*
X421910Y86756D01*
X421291Y86137D01*
X421155Y85809D01*
X420565Y85691D01*
X420349Y85908D01*
X419540Y86243D01*
X418665D01*
X417856Y85908D01*
X417237Y85289D01*
X416902Y84481D01*
Y83605D01*
X417237Y82797D01*
X417856Y82178D01*
X418665Y81843D01*
X419540D01*
X420349Y82178D01*
X420967Y82797D01*
X421103Y83125D01*
X421693Y83242D01*
X421910Y83026D01*
X422719Y82691D01*
X423594D01*
X424403Y83026D01*
X425021Y83645D01*
X425201Y84079D01*
X425541Y84147D01*
X426350Y83812D01*
X427225D01*
X428033Y84147D01*
X428652Y84765D01*
X428987Y85574D01*
Y86449D01*
X428652Y87258D01*
X428033Y87877D01*
X427225Y88212D01*
D02*
G37*
G36*
X774467Y93425D02*
X773533D01*
X772630Y93183D01*
X771820Y92716D01*
X771159Y92055D01*
X770692Y91245D01*
X770450Y90342D01*
Y89408D01*
X770692Y88505D01*
X771159Y87695D01*
X771820Y87034D01*
X772630Y86567D01*
X773533Y86325D01*
X774467D01*
X775370Y86567D01*
X776180Y87034D01*
X776841Y87695D01*
X777308Y88505D01*
X777550Y89408D01*
Y90342D01*
X777308Y91245D01*
X776841Y92055D01*
X776180Y92716D01*
X775370Y93183D01*
X774467Y93425D01*
D02*
G37*
G36*
X725438Y90700D02*
X724562D01*
X723754Y90365D01*
X723135Y89746D01*
X722800Y88938D01*
Y88062D01*
X723135Y87254D01*
X723754Y86635D01*
X724562Y86300D01*
X725438D01*
X726246Y86635D01*
X726865Y87254D01*
X727200Y88062D01*
Y88938D01*
X726865Y89746D01*
X726246Y90365D01*
X725438Y90700D01*
D02*
G37*
G36*
X637057D02*
X636182D01*
X635373Y90365D01*
X634754Y89746D01*
X634419Y88938D01*
Y88062D01*
X634754Y87254D01*
X635373Y86635D01*
X636182Y86300D01*
X637057D01*
X637865Y86635D01*
X638484Y87254D01*
X638819Y88062D01*
Y88938D01*
X638484Y89746D01*
X637865Y90365D01*
X637057Y90700D01*
D02*
G37*
G36*
X630938Y90200D02*
X630062D01*
X629254Y89865D01*
X628635Y89246D01*
X628300Y88438D01*
Y87562D01*
X628635Y86754D01*
X629254Y86135D01*
X630062Y85800D01*
X630938D01*
X631746Y86135D01*
X632365Y86754D01*
X632700Y87562D01*
Y88438D01*
X632365Y89246D01*
X631746Y89865D01*
X630938Y90200D01*
D02*
G37*
G36*
X759540Y93975D02*
X758460D01*
X757417Y93696D01*
X756483Y93156D01*
X755719Y92392D01*
X755179Y91457D01*
X754900Y90415D01*
Y89335D01*
X755179Y88292D01*
X755719Y87357D01*
X756483Y86594D01*
X757417Y86054D01*
X758460Y85775D01*
X759540D01*
X760582Y86054D01*
X761517Y86594D01*
X762281Y87357D01*
X762821Y88292D01*
X763100Y89335D01*
Y90415D01*
X762821Y91457D01*
X762281Y92392D01*
X761517Y93156D01*
X760582Y93696D01*
X759540Y93975D01*
D02*
G37*
G36*
X663675Y99350D02*
X662325D01*
X661002Y99087D01*
X659755Y98570D01*
X658633Y97821D01*
X657679Y96867D01*
X656930Y95745D01*
X656413Y94498D01*
X656150Y93175D01*
Y91825D01*
X656413Y90502D01*
X656930Y89255D01*
X657679Y88133D01*
X658633Y87179D01*
X659755Y86430D01*
X661002Y85913D01*
X662325Y85650D01*
X663675D01*
X664998Y85913D01*
X666245Y86430D01*
X667367Y87179D01*
X668321Y88133D01*
X669070Y89255D01*
X669587Y90502D01*
X669850Y91825D01*
Y93175D01*
X669587Y94498D01*
X669070Y95745D01*
X668321Y96867D01*
X667367Y97821D01*
X666245Y98570D01*
X664998Y99087D01*
X663675Y99350D01*
D02*
G37*
G36*
X603675D02*
X602325D01*
X601002Y99087D01*
X599755Y98570D01*
X598633Y97821D01*
X597679Y96867D01*
X596930Y95745D01*
X596413Y94498D01*
X596150Y93175D01*
Y91825D01*
X596413Y90502D01*
X596930Y89255D01*
X597679Y88133D01*
X598633Y87179D01*
X599755Y86430D01*
X601002Y85913D01*
X602325Y85650D01*
X603675D01*
X604998Y85913D01*
X606245Y86430D01*
X607367Y87179D01*
X608321Y88133D01*
X609070Y89255D01*
X609587Y90502D01*
X609850Y91825D01*
Y93175D01*
X609587Y94498D01*
X609070Y95745D01*
X608321Y96867D01*
X607367Y97821D01*
X606245Y98570D01*
X604998Y99087D01*
X603675Y99350D01*
D02*
G37*
G36*
X432090Y89922D02*
X431215D01*
X430406Y89587D01*
X429787Y88968D01*
X429452Y88160D01*
Y87285D01*
X429787Y86476D01*
X430406Y85857D01*
X431215Y85522D01*
X432090D01*
X432899Y85857D01*
X433517Y86476D01*
X433852Y87285D01*
Y88160D01*
X433517Y88968D01*
X432899Y89587D01*
X432090Y89922D01*
D02*
G37*
G36*
X293438Y89200D02*
X292562D01*
X291754Y88865D01*
X291135Y88246D01*
X290800Y87438D01*
Y86562D01*
X291135Y85754D01*
X291754Y85135D01*
X292562Y84800D01*
X293438D01*
X294246Y85135D01*
X294865Y85754D01*
X295200Y86562D01*
Y87438D01*
X294865Y88246D01*
X294246Y88865D01*
X293438Y89200D01*
D02*
G37*
G36*
X413438Y86354D02*
X412562D01*
X411754Y86019D01*
X411135Y85400D01*
X410925Y84893D01*
X410338Y84773D01*
X410246Y84865D01*
X409438Y85200D01*
X408562D01*
X407754Y84865D01*
X407135Y84246D01*
X406800Y83438D01*
Y82562D01*
X407135Y81754D01*
X407754Y81135D01*
X408562Y80800D01*
X409438D01*
X410246Y81135D01*
X410865Y81754D01*
X411075Y82261D01*
X411662Y82381D01*
X411754Y82289D01*
X412562Y81954D01*
X413438D01*
X414246Y82289D01*
X414865Y82908D01*
X415200Y83716D01*
Y84592D01*
X414865Y85400D01*
X414246Y86019D01*
X413438Y86354D01*
D02*
G37*
G36*
X585438Y88609D02*
X584562D01*
X583754Y88274D01*
X583135Y87655D01*
X582800Y86847D01*
Y85971D01*
X583135Y85163D01*
X583754Y84544D01*
X584562Y84209D01*
X585438D01*
X586246Y84544D01*
X586865Y85163D01*
X587200Y85971D01*
Y86847D01*
X586865Y87655D01*
X586246Y88274D01*
X585438Y88609D01*
D02*
G37*
G36*
X557938Y88200D02*
X557062D01*
X556254Y87865D01*
X555635Y87246D01*
X555300Y86438D01*
Y85562D01*
X555635Y84754D01*
X556254Y84135D01*
X557062Y83800D01*
X557938D01*
X558746Y84135D01*
X559365Y84754D01*
X559700Y85562D01*
Y86438D01*
X559365Y87246D01*
X558746Y87865D01*
X557938Y88200D01*
D02*
G37*
G36*
X198253D02*
X197378D01*
X196570Y87865D01*
X195951Y87246D01*
X195616Y86438D01*
Y85562D01*
X195951Y84754D01*
X196570Y84135D01*
X197378Y83800D01*
X198253D01*
X199062Y84135D01*
X199681Y84754D01*
X200016Y85562D01*
Y86438D01*
X199681Y87246D01*
X199062Y87865D01*
X198253Y88200D01*
D02*
G37*
G36*
X348938Y88038D02*
X348062D01*
X347254Y87704D01*
X346635Y87085D01*
X346300Y86276D01*
Y85401D01*
X346635Y84592D01*
X347254Y83973D01*
X348062Y83639D01*
X348938D01*
X349746Y83973D01*
X350365Y84592D01*
X350700Y85401D01*
Y86276D01*
X350365Y87085D01*
X349746Y87704D01*
X348938Y88038D01*
D02*
G37*
G36*
X369600Y87723D02*
X368725D01*
X367916Y87388D01*
X367297Y86769D01*
X366962Y85961D01*
Y85085D01*
X367297Y84277D01*
X367916Y83658D01*
X368725Y83323D01*
X369600D01*
X370408Y83658D01*
X371027Y84277D01*
X371362Y85085D01*
Y85961D01*
X371027Y86769D01*
X370408Y87388D01*
X369600Y87723D01*
D02*
G37*
G36*
X483438Y86700D02*
X482562D01*
X481754Y86365D01*
X481135Y85746D01*
X480800Y84938D01*
Y84062D01*
X481135Y83254D01*
X481754Y82635D01*
X482562Y82300D01*
X483438D01*
X484246Y82635D01*
X484865Y83254D01*
X485200Y84062D01*
Y84938D01*
X484865Y85746D01*
X484246Y86365D01*
X483438Y86700D01*
D02*
G37*
G36*
X237438D02*
X236562D01*
X235754Y86365D01*
X235135Y85746D01*
X234800Y84938D01*
Y84062D01*
X235135Y83254D01*
X235754Y82635D01*
X236562Y82300D01*
X237438D01*
X238246Y82635D01*
X238865Y83254D01*
X239200Y84062D01*
Y84938D01*
X238865Y85746D01*
X238246Y86365D01*
X237438Y86700D01*
D02*
G37*
G36*
X525786Y86352D02*
X524911D01*
X524102Y86017D01*
X523483Y85398D01*
X523148Y84589D01*
Y83714D01*
X523483Y82906D01*
X524102Y82287D01*
X524911Y81952D01*
X525786D01*
X526594Y82287D01*
X527213Y82906D01*
X527548Y83714D01*
Y84589D01*
X527213Y85398D01*
X526594Y86017D01*
X525786Y86352D01*
D02*
G37*
G36*
X171938Y85700D02*
X171062D01*
X170254Y85365D01*
X169635Y84746D01*
X169300Y83938D01*
Y83062D01*
X169635Y82254D01*
X170254Y81635D01*
X171062Y81300D01*
X171938D01*
X172746Y81635D01*
X173365Y82254D01*
X173700Y83062D01*
Y83938D01*
X173365Y84746D01*
X172746Y85365D01*
X171938Y85700D01*
D02*
G37*
G36*
X473540Y89100D02*
X472460D01*
X471418Y88821D01*
X470482Y88281D01*
X469719Y87517D01*
X469179Y86582D01*
X468900Y85540D01*
Y84460D01*
X469179Y83417D01*
X469719Y82482D01*
X470482Y81719D01*
X471418Y81179D01*
X472460Y80900D01*
X473540D01*
X474582Y81179D01*
X475518Y81719D01*
X476281Y82482D01*
X476821Y83417D01*
X477100Y84460D01*
Y85540D01*
X476821Y86582D01*
X476281Y87517D01*
X475518Y88281D01*
X474582Y88821D01*
X473540Y89100D01*
D02*
G37*
G36*
X194024Y85286D02*
X193148D01*
X192340Y84951D01*
X191721Y84332D01*
X191386Y83524D01*
Y82648D01*
X191721Y81840D01*
X192340Y81221D01*
X193148Y80886D01*
X194024D01*
X194832Y81221D01*
X195451Y81840D01*
X195786Y82648D01*
Y83524D01*
X195451Y84332D01*
X194832Y84951D01*
X194024Y85286D01*
D02*
G37*
G36*
X158938Y85200D02*
X158062D01*
X157254Y84865D01*
X156635Y84246D01*
X156300Y83438D01*
Y82562D01*
X156635Y81754D01*
X157254Y81135D01*
X158062Y80800D01*
X158938D01*
X159746Y81135D01*
X160365Y81754D01*
X160700Y82562D01*
Y83438D01*
X160365Y84246D01*
X159746Y84865D01*
X158938Y85200D01*
D02*
G37*
G36*
X121438D02*
X120562D01*
X119754Y84865D01*
X119135Y84246D01*
X118800Y83438D01*
Y82562D01*
X119135Y81754D01*
X119754Y81135D01*
X120562Y80800D01*
X121438D01*
X122246Y81135D01*
X122865Y81754D01*
X123200Y82562D01*
Y83438D01*
X122865Y84246D01*
X122246Y84865D01*
X121438Y85200D01*
D02*
G37*
G36*
X393262Y85108D02*
X392387D01*
X391578Y84773D01*
X390959Y84154D01*
X390624Y83345D01*
Y82470D01*
X390959Y81661D01*
X391578Y81043D01*
X392387Y80708D01*
X393262D01*
X394071Y81043D01*
X394689Y81661D01*
X395024Y82470D01*
Y83345D01*
X394689Y84154D01*
X394071Y84773D01*
X393262Y85108D01*
D02*
G37*
G36*
X381941Y84798D02*
X381066D01*
X380257Y84463D01*
X379638Y83844D01*
X379303Y83035D01*
Y82160D01*
X379638Y81352D01*
X380257Y80733D01*
X381066Y80398D01*
X381941D01*
X382749Y80733D01*
X383368Y81352D01*
X383703Y82160D01*
Y83035D01*
X383368Y83844D01*
X382749Y84463D01*
X381941Y84798D01*
D02*
G37*
G36*
X328438Y84700D02*
X327562D01*
X326754Y84365D01*
X326135Y83746D01*
X325800Y82938D01*
Y82062D01*
X326135Y81254D01*
X326754Y80635D01*
X327562Y80300D01*
X328438D01*
X329246Y80635D01*
X329865Y81254D01*
X330200Y82062D01*
Y82938D01*
X329865Y83746D01*
X329246Y84365D01*
X328438Y84700D01*
D02*
G37*
G36*
X373804Y84530D02*
X372929D01*
X372120Y84195D01*
X371501Y83576D01*
X371166Y82767D01*
Y81892D01*
X371501Y81084D01*
X372120Y80465D01*
X372929Y80130D01*
X373804D01*
X374613Y80465D01*
X375232Y81084D01*
X375566Y81892D01*
Y82767D01*
X375232Y83576D01*
X374613Y84195D01*
X373804Y84530D01*
D02*
G37*
G36*
X262438Y84200D02*
X261562D01*
X260754Y83865D01*
X260135Y83246D01*
X259800Y82438D01*
Y81562D01*
X260135Y80754D01*
X260754Y80135D01*
X261562Y79800D01*
X262438D01*
X263246Y80135D01*
X263865Y80754D01*
X264200Y81562D01*
Y82438D01*
X263865Y83246D01*
X263246Y83865D01*
X262438Y84200D01*
D02*
G37*
G36*
X349464Y82808D02*
X348588D01*
X347780Y82473D01*
X347161Y81854D01*
X346826Y81045D01*
Y80170D01*
X347161Y79361D01*
X347780Y78743D01*
X348588Y78408D01*
X349464D01*
X350272Y78743D01*
X350891Y79361D01*
X351226Y80170D01*
Y81045D01*
X350891Y81854D01*
X350272Y82473D01*
X349464Y82808D01*
D02*
G37*
G36*
X648540Y86600D02*
X647460D01*
X646418Y86321D01*
X645482Y85781D01*
X644719Y85018D01*
X644179Y84083D01*
X643900Y83040D01*
Y81960D01*
X644179Y80918D01*
X644719Y79983D01*
X645482Y79219D01*
X646418Y78679D01*
X647460Y78400D01*
X648540D01*
X649582Y78679D01*
X650518Y79219D01*
X651281Y79983D01*
X651821Y80918D01*
X652100Y81960D01*
Y83040D01*
X651821Y84083D01*
X651281Y85018D01*
X650518Y85781D01*
X649582Y86321D01*
X648540Y86600D01*
D02*
G37*
G36*
X618540D02*
X617460D01*
X616418Y86321D01*
X615483Y85781D01*
X614719Y85018D01*
X614179Y84083D01*
X613900Y83040D01*
Y81960D01*
X614179Y80918D01*
X614719Y79983D01*
X615483Y79219D01*
X616418Y78679D01*
X617460Y78400D01*
X618540D01*
X619583Y78679D01*
X620517Y79219D01*
X621281Y79983D01*
X621821Y80918D01*
X622100Y81960D01*
Y83040D01*
X621821Y84083D01*
X621281Y85018D01*
X620517Y85781D01*
X619583Y86321D01*
X618540Y86600D01*
D02*
G37*
G36*
X322540Y82219D02*
X321665D01*
X320856Y81884D01*
X320237Y81265D01*
X319902Y80456D01*
Y79581D01*
X320237Y78773D01*
X320856Y78154D01*
X321665Y77819D01*
X322540D01*
X323349Y78154D01*
X323968Y78773D01*
X324303Y79581D01*
Y80456D01*
X323968Y81265D01*
X323349Y81884D01*
X322540Y82219D01*
D02*
G37*
G36*
X247438Y81700D02*
X246562D01*
X245754Y81365D01*
X245135Y80746D01*
X244800Y79938D01*
Y79062D01*
X245135Y78254D01*
X245754Y77635D01*
X246562Y77300D01*
X247438D01*
X248246Y77635D01*
X248865Y78254D01*
X249200Y79062D01*
Y79938D01*
X248865Y80746D01*
X248246Y81365D01*
X247438Y81700D01*
D02*
G37*
G36*
X451938Y84200D02*
X451062D01*
X450254Y83865D01*
X449635Y83246D01*
X449300Y82438D01*
Y81562D01*
X449635Y80754D01*
X450254Y80135D01*
X451062Y79800D01*
X451938D01*
X452176Y79899D01*
X452558Y79516D01*
X452332Y78970D01*
Y78094D01*
X452667Y77286D01*
X453286Y76667D01*
X454094Y76332D01*
X454970D01*
X455778Y76667D01*
X456397Y77286D01*
X456732Y78094D01*
Y78970D01*
X456397Y79778D01*
X455778Y80397D01*
X454970Y80732D01*
X454094D01*
X453856Y80633D01*
X453474Y81016D01*
X453700Y81562D01*
Y82438D01*
X453365Y83246D01*
X452746Y83865D01*
X451938Y84200D01*
D02*
G37*
G36*
X103438Y79700D02*
X102562D01*
X101754Y79365D01*
X101135Y78746D01*
X100800Y77938D01*
Y77062D01*
X101135Y76254D01*
X101754Y75635D01*
X102562Y75300D01*
X103438D01*
X104246Y75635D01*
X104865Y76254D01*
X105200Y77062D01*
Y77938D01*
X104865Y78746D01*
X104246Y79365D01*
X103438Y79700D01*
D02*
G37*
G36*
X498040Y82600D02*
X496960D01*
X495918Y82321D01*
X494982Y81781D01*
X494219Y81018D01*
X493679Y80082D01*
X493400Y79040D01*
Y77960D01*
X493679Y76917D01*
X494219Y75982D01*
X494982Y75219D01*
X495918Y74679D01*
X496960Y74400D01*
X498040D01*
X499083Y74679D01*
X500017Y75219D01*
X500781Y75982D01*
X501321Y76917D01*
X501600Y77960D01*
Y79040D01*
X501321Y80082D01*
X500781Y81018D01*
X500017Y81781D01*
X499083Y82321D01*
X498040Y82600D01*
D02*
G37*
G36*
X361938Y78700D02*
X361062D01*
X360254Y78365D01*
X359635Y77746D01*
X359300Y76938D01*
Y76062D01*
X359635Y75254D01*
X360254Y74635D01*
X361062Y74300D01*
X361938D01*
X362746Y74635D01*
X363365Y75254D01*
X363700Y76062D01*
Y76938D01*
X363365Y77746D01*
X362746Y78365D01*
X361938Y78700D01*
D02*
G37*
G36*
X774467Y81300D02*
X773533D01*
X772630Y81058D01*
X771820Y80591D01*
X771159Y79930D01*
X770692Y79120D01*
X770450Y78217D01*
Y77283D01*
X770692Y76380D01*
X771159Y75570D01*
X771820Y74909D01*
X772630Y74442D01*
X773533Y74200D01*
X774467D01*
X775370Y74442D01*
X776180Y74909D01*
X776841Y75570D01*
X777308Y76380D01*
X777550Y77283D01*
Y78217D01*
X777308Y79120D01*
X776841Y79930D01*
X776180Y80591D01*
X775370Y81058D01*
X774467Y81300D01*
D02*
G37*
G36*
X308438Y78200D02*
X307562D01*
X306754Y77865D01*
X306135Y77246D01*
X305800Y76438D01*
Y75562D01*
X306135Y74754D01*
X306754Y74135D01*
X307562Y73800D01*
X308438D01*
X309246Y74135D01*
X309865Y74754D01*
X310200Y75562D01*
Y76438D01*
X309865Y77246D01*
X309246Y77865D01*
X308438Y78200D01*
D02*
G37*
G36*
X759540Y81850D02*
X758460D01*
X757417Y81571D01*
X756483Y81031D01*
X755719Y80268D01*
X755179Y79333D01*
X754900Y78290D01*
Y77210D01*
X755179Y76168D01*
X755719Y75232D01*
X756483Y74469D01*
X757417Y73929D01*
X758460Y73650D01*
X759540D01*
X760582Y73929D01*
X761517Y74469D01*
X762281Y75232D01*
X762821Y76168D01*
X763100Y77210D01*
Y78290D01*
X762821Y79333D01*
X762281Y80268D01*
X761517Y81031D01*
X760582Y81571D01*
X759540Y81850D01*
D02*
G37*
G36*
X244411Y77673D02*
X243536D01*
X242727Y77338D01*
X242108Y76719D01*
X241773Y75911D01*
Y75036D01*
X242108Y74227D01*
X242727Y73608D01*
X243536Y73273D01*
X244411D01*
X245219Y73608D01*
X245838Y74227D01*
X246173Y75036D01*
Y75911D01*
X245838Y76719D01*
X245219Y77338D01*
X244411Y77673D01*
D02*
G37*
G36*
X390938Y77139D02*
X390062D01*
X389254Y76804D01*
X388635Y76185D01*
X388300Y75377D01*
Y74502D01*
X388635Y73693D01*
X389254Y73074D01*
X390062Y72739D01*
X390938D01*
X391746Y73074D01*
X392365Y73693D01*
X392700Y74502D01*
Y75377D01*
X392365Y76185D01*
X391746Y76804D01*
X390938Y77139D01*
D02*
G37*
G36*
X110938Y73700D02*
X110062D01*
X109254Y73365D01*
X108635Y72746D01*
X108300Y71938D01*
Y71727D01*
X107884Y71449D01*
X107873Y71454D01*
X106997D01*
X106189Y71119D01*
X105570Y70500D01*
X105235Y69691D01*
Y68816D01*
X105570Y68007D01*
X106189Y67389D01*
X106997Y67054D01*
X107873D01*
X108681Y67389D01*
X109300Y68007D01*
X109635Y68816D01*
Y69027D01*
X110051Y69305D01*
X110062Y69300D01*
X110938D01*
X111746Y69635D01*
X112365Y70254D01*
X112700Y71062D01*
Y71938D01*
X112365Y72746D01*
X111746Y73365D01*
X110938Y73700D01*
D02*
G37*
G36*
X53938Y75700D02*
X53062D01*
X52254Y75365D01*
X51635Y74746D01*
X51300Y73938D01*
Y73062D01*
X51635Y72254D01*
X52254Y71635D01*
X53062Y71300D01*
X53938D01*
X54746Y71635D01*
X55365Y72254D01*
X55700Y73062D01*
Y73938D01*
X55365Y74746D01*
X54746Y75365D01*
X53938Y75700D01*
D02*
G37*
G36*
X171938Y78200D02*
X171062D01*
X170254Y77865D01*
X169635Y77246D01*
X169300Y76438D01*
Y75975D01*
X169255Y75558D01*
X168838Y75513D01*
X168375D01*
X167567Y75178D01*
X166948Y74559D01*
X166613Y73751D01*
Y72875D01*
X166948Y72067D01*
X167567Y71448D01*
X168375Y71113D01*
X169251D01*
X170059Y71448D01*
X170678Y72067D01*
X171013Y72875D01*
Y73338D01*
X171058Y73755D01*
X171475Y73800D01*
X171938D01*
X172746Y74135D01*
X173365Y74754D01*
X173700Y75562D01*
Y76438D01*
X173365Y77246D01*
X172746Y77865D01*
X171938Y78200D01*
D02*
G37*
G36*
X334522Y78039D02*
X333646D01*
X332838Y77703D01*
X332219Y77085D01*
X331884Y76276D01*
Y75401D01*
X331973Y75185D01*
X331633Y74700D01*
X331062D01*
X330254Y74365D01*
X329635Y73746D01*
X329300Y72938D01*
Y72062D01*
X329635Y71254D01*
X330254Y70635D01*
X331062Y70300D01*
X331938D01*
X332746Y70635D01*
X333365Y71254D01*
X333700Y72062D01*
Y72938D01*
X333611Y73153D01*
X333951Y73638D01*
X334522D01*
X335330Y73973D01*
X335949Y74592D01*
X336284Y75401D01*
Y76276D01*
X335949Y77085D01*
X335330Y77703D01*
X334522Y78039D01*
D02*
G37*
G36*
X313938Y78200D02*
X313062D01*
X312254Y77865D01*
X311635Y77246D01*
X311300Y76438D01*
Y75562D01*
X311635Y74754D01*
X311962Y74427D01*
X312226Y74100D01*
X311962Y73773D01*
X311635Y73446D01*
X311300Y72638D01*
Y71762D01*
X311635Y70954D01*
X312254Y70335D01*
X313062Y70000D01*
X313938D01*
X314746Y70335D01*
X315365Y70954D01*
X315700Y71762D01*
Y72638D01*
X315365Y73446D01*
X315038Y73773D01*
X314774Y74100D01*
X315038Y74427D01*
X315365Y74754D01*
X315700Y75562D01*
Y76438D01*
X315365Y77246D01*
X314746Y77865D01*
X313938Y78200D01*
D02*
G37*
G36*
X444342Y74337D02*
X443467D01*
X442659Y74002D01*
X442040Y73383D01*
X441705Y72574D01*
Y71699D01*
X442040Y70890D01*
X442659Y70272D01*
X443467Y69937D01*
X444342D01*
X445151Y70272D01*
X445770Y70890D01*
X446105Y71699D01*
Y72574D01*
X445770Y73383D01*
X445151Y74002D01*
X444342Y74337D01*
D02*
G37*
G36*
X567040Y77600D02*
X565960D01*
X564918Y77321D01*
X563982Y76781D01*
X563219Y76017D01*
X562679Y75082D01*
X562400Y74040D01*
Y72960D01*
X562679Y71917D01*
X563219Y70982D01*
X563982Y70219D01*
X564918Y69679D01*
X565960Y69400D01*
X567040D01*
X568083Y69679D01*
X569018Y70219D01*
X569781Y70982D01*
X570321Y71917D01*
X570600Y72960D01*
Y74040D01*
X570321Y75082D01*
X569781Y76017D01*
X569018Y76781D01*
X568083Y77321D01*
X567040Y77600D01*
D02*
G37*
G36*
X137000Y80631D02*
X136060Y80507D01*
X135185Y80145D01*
X134432Y79568D01*
X133855Y78816D01*
X133493Y77940D01*
X133369Y77000D01*
Y73000D01*
X133493Y72060D01*
X133855Y71184D01*
X134432Y70432D01*
X135185Y69855D01*
X136060Y69493D01*
X137000Y69369D01*
X137940Y69493D01*
X138815Y69855D01*
X139568Y70432D01*
X140145Y71184D01*
X140507Y72060D01*
X140631Y73000D01*
Y77000D01*
X140507Y77940D01*
X140145Y78816D01*
X139568Y79568D01*
X138815Y80145D01*
X137940Y80507D01*
X137000Y80631D01*
D02*
G37*
G36*
X476100Y73291D02*
X475225D01*
X474417Y72956D01*
X473798Y72337D01*
X473463Y71528D01*
Y70653D01*
X473798Y69844D01*
X474417Y69226D01*
X475225Y68891D01*
X476100D01*
X476909Y69226D01*
X477528Y69844D01*
X477863Y70653D01*
Y71528D01*
X477528Y72337D01*
X476909Y72956D01*
X476100Y73291D01*
D02*
G37*
G36*
X268438Y69700D02*
X267562D01*
X266754Y69365D01*
X266135Y68746D01*
X266021Y68470D01*
X265479D01*
X265365Y68746D01*
X264746Y69365D01*
X263938Y69700D01*
X263062D01*
X262254Y69365D01*
X261635Y68746D01*
X261300Y67938D01*
Y67062D01*
X261635Y66254D01*
X262254Y65635D01*
X263062Y65300D01*
X263938D01*
X264746Y65635D01*
X265365Y66254D01*
X265479Y66530D01*
X266021D01*
X266135Y66254D01*
X266754Y65635D01*
X267562Y65300D01*
X268438D01*
X269246Y65635D01*
X269865Y66254D01*
X270200Y67062D01*
Y67938D01*
X269865Y68746D01*
X269246Y69365D01*
X268438Y69700D01*
D02*
G37*
G36*
X648540Y76600D02*
X647460D01*
X646418Y76321D01*
X645482Y75781D01*
X644719Y75017D01*
X644179Y74082D01*
X643900Y73040D01*
Y71960D01*
X644179Y70917D01*
X644719Y69982D01*
X645482Y69219D01*
X646418Y68679D01*
X647460Y68400D01*
X648540D01*
X649582Y68679D01*
X650518Y69219D01*
X651281Y69982D01*
X651821Y70917D01*
X652100Y71960D01*
Y73040D01*
X651821Y74082D01*
X651281Y75017D01*
X650518Y75781D01*
X649582Y76321D01*
X648540Y76600D01*
D02*
G37*
G36*
X618540D02*
X617460D01*
X616418Y76321D01*
X615483Y75781D01*
X614719Y75017D01*
X614179Y74082D01*
X613900Y73040D01*
Y71960D01*
X614179Y70917D01*
X614719Y69982D01*
X615483Y69219D01*
X616418Y68679D01*
X617460Y68400D01*
X618540D01*
X619583Y68679D01*
X620517Y69219D01*
X621281Y69982D01*
X621821Y70917D01*
X622100Y71960D01*
Y73040D01*
X621821Y74082D01*
X621281Y75017D01*
X620517Y75781D01*
X619583Y76321D01*
X618540Y76600D01*
D02*
G37*
G36*
X468938Y72700D02*
X468062D01*
X467254Y72365D01*
X466635Y71746D01*
X466300Y70938D01*
Y70062D01*
X466635Y69254D01*
X467254Y68635D01*
X468062Y68300D01*
X468938D01*
X469746Y68635D01*
X470365Y69254D01*
X470700Y70062D01*
Y70938D01*
X470365Y71746D01*
X469746Y72365D01*
X468938Y72700D01*
D02*
G37*
G36*
X458438Y77200D02*
X457562D01*
X456754Y76865D01*
X456135Y76246D01*
X455800Y75438D01*
Y74562D01*
X456135Y73754D01*
X456754Y73135D01*
X457030Y73021D01*
Y72479D01*
X456754Y72365D01*
X456135Y71746D01*
X455800Y70938D01*
Y70062D01*
X456135Y69254D01*
X456754Y68635D01*
X457562Y68300D01*
X458438D01*
X459246Y68635D01*
X459865Y69254D01*
X460200Y70062D01*
Y70938D01*
X459865Y71746D01*
X459246Y72365D01*
X458970Y72479D01*
Y73021D01*
X459246Y73135D01*
X459865Y73754D01*
X460200Y74562D01*
Y75438D01*
X459865Y76246D01*
X459246Y76865D01*
X458438Y77200D01*
D02*
G37*
G36*
X318938Y72200D02*
X318062D01*
X317254Y71865D01*
X316635Y71246D01*
X316300Y70438D01*
Y69562D01*
X316635Y68754D01*
X317254Y68135D01*
X318062Y67800D01*
X318938D01*
X319746Y68135D01*
X320365Y68754D01*
X320700Y69562D01*
Y70438D01*
X320365Y71246D01*
X319746Y71865D01*
X318938Y72200D01*
D02*
G37*
G36*
X244438D02*
X243562D01*
X242754Y71865D01*
X242135Y71246D01*
X241800Y70438D01*
Y69562D01*
X242135Y68754D01*
X242754Y68135D01*
X243562Y67800D01*
X244438D01*
X245246Y68135D01*
X245865Y68754D01*
X246200Y69562D01*
Y70438D01*
X245865Y71246D01*
X245246Y71865D01*
X244438Y72200D01*
D02*
G37*
G36*
X450938Y72085D02*
X450062D01*
X449254Y71750D01*
X448635Y71131D01*
X448300Y70322D01*
Y69447D01*
X448635Y68638D01*
X449254Y68020D01*
X450062Y67685D01*
X450938D01*
X451746Y68020D01*
X452365Y68638D01*
X452700Y69447D01*
Y70322D01*
X452365Y71131D01*
X451746Y71750D01*
X450938Y72085D01*
D02*
G37*
G36*
X510938Y72018D02*
X510062D01*
X509254Y71684D01*
X508635Y71065D01*
X508300Y70256D01*
Y69381D01*
X508635Y68572D01*
X509254Y67953D01*
X510062Y67619D01*
X510938D01*
X511746Y67953D01*
X512365Y68572D01*
X512700Y69381D01*
Y70256D01*
X512365Y71065D01*
X511746Y71684D01*
X510938Y72018D01*
D02*
G37*
G36*
X503938Y71700D02*
X503062D01*
X502254Y71365D01*
X501635Y70746D01*
X501300Y69938D01*
Y69062D01*
X501635Y68254D01*
X502254Y67635D01*
X503062Y67300D01*
X503938D01*
X504746Y67635D01*
X505365Y68254D01*
X505700Y69062D01*
Y69938D01*
X505365Y70746D01*
X504746Y71365D01*
X503938Y71700D01*
D02*
G37*
G36*
X258438D02*
X257562D01*
X256754Y71365D01*
X256135Y70746D01*
X255800Y69938D01*
Y69062D01*
X256135Y68254D01*
X256754Y67635D01*
X257562Y67300D01*
X258438D01*
X259246Y67635D01*
X259865Y68254D01*
X260200Y69062D01*
Y69938D01*
X259865Y70746D01*
X259246Y71365D01*
X258438Y71700D01*
D02*
G37*
G36*
X629438Y71200D02*
X628562D01*
X627754Y70865D01*
X627135Y70246D01*
X626800Y69438D01*
Y68562D01*
X627135Y67754D01*
X627754Y67135D01*
X628562Y66800D01*
X629438D01*
X630246Y67135D01*
X630865Y67754D01*
X631200Y68562D01*
Y69438D01*
X630865Y70246D01*
X630246Y70865D01*
X629438Y71200D01*
D02*
G37*
G36*
X164938Y70847D02*
X164062D01*
X163254Y70512D01*
X162635Y69893D01*
X162300Y69085D01*
Y68209D01*
X162635Y67401D01*
X163254Y66782D01*
X164062Y66447D01*
X164938D01*
X165746Y66782D01*
X166365Y67401D01*
X166700Y68209D01*
Y69085D01*
X166365Y69893D01*
X165746Y70512D01*
X164938Y70847D01*
D02*
G37*
G36*
X224938Y70700D02*
X224062D01*
X223254Y70365D01*
X222635Y69746D01*
X222300Y68938D01*
Y68062D01*
X222635Y67254D01*
X223254Y66635D01*
X224062Y66300D01*
X224938D01*
X225746Y66635D01*
X226365Y67254D01*
X226700Y68062D01*
Y68938D01*
X226365Y69746D01*
X225746Y70365D01*
X224938Y70700D01*
D02*
G37*
G36*
X497414Y70592D02*
X496539D01*
X495730Y70257D01*
X495111Y69638D01*
X494776Y68829D01*
Y67954D01*
X495111Y67146D01*
X495730Y66527D01*
X496539Y66192D01*
X497414D01*
X498223Y66527D01*
X498841Y67146D01*
X499176Y67954D01*
Y68829D01*
X498841Y69638D01*
X498223Y70257D01*
X497414Y70592D01*
D02*
G37*
G36*
X370999Y70065D02*
X370124D01*
X369316Y69730D01*
X368697Y69111D01*
X368362Y68303D01*
Y67427D01*
X368697Y66619D01*
X369316Y66000D01*
X370124Y65665D01*
X370999D01*
X371808Y66000D01*
X372427Y66619D01*
X372762Y67427D01*
Y68303D01*
X372427Y69111D01*
X371808Y69730D01*
X370999Y70065D01*
D02*
G37*
G36*
X472438Y66200D02*
X471562D01*
X470754Y65865D01*
X470327Y65438D01*
X470000Y65302D01*
X469673Y65438D01*
X469246Y65865D01*
X468438Y66200D01*
X467562D01*
X466754Y65865D01*
X466135Y65246D01*
X465800Y64438D01*
Y63562D01*
X466135Y62754D01*
X466754Y62135D01*
X467562Y61800D01*
X468438D01*
X469246Y62135D01*
X469673Y62562D01*
X470000Y62698D01*
X470327Y62562D01*
X470754Y62135D01*
X471562Y61800D01*
X472438D01*
X473246Y62135D01*
X473865Y62754D01*
X474200Y63562D01*
Y64438D01*
X473865Y65246D01*
X473246Y65865D01*
X472438Y66200D01*
D02*
G37*
G36*
X329506Y69233D02*
X328631D01*
X327822Y68898D01*
X327203Y68279D01*
X326869Y67471D01*
Y66596D01*
X327203Y65787D01*
X327822Y65168D01*
X328631Y64833D01*
X329506D01*
X330315Y65168D01*
X330934Y65787D01*
X331269Y66596D01*
Y67471D01*
X330934Y68279D01*
X330315Y68898D01*
X329506Y69233D01*
D02*
G37*
G36*
X314925Y68815D02*
X314050D01*
X313241Y68480D01*
X312622Y67862D01*
X312287Y67053D01*
Y66178D01*
X312622Y65369D01*
X313241Y64750D01*
X314050Y64415D01*
X314925D01*
X315733Y64750D01*
X316352Y65369D01*
X316687Y66178D01*
Y67053D01*
X316352Y67862D01*
X315733Y68480D01*
X314925Y68815D01*
D02*
G37*
G36*
X309585D02*
X308710D01*
X307902Y68480D01*
X307283Y67862D01*
X306948Y67053D01*
Y66178D01*
X307283Y65369D01*
X307902Y64750D01*
X308710Y64415D01*
X309585D01*
X310394Y64750D01*
X311013Y65369D01*
X311348Y66178D01*
Y67053D01*
X311013Y67862D01*
X310394Y68480D01*
X309585Y68815D01*
D02*
G37*
G36*
X159938Y68700D02*
X159062D01*
X158254Y68365D01*
X157635Y67746D01*
X157300Y66938D01*
Y66062D01*
X157635Y65254D01*
X158254Y64635D01*
X159062Y64300D01*
X159938D01*
X160746Y64635D01*
X161365Y65254D01*
X161700Y66062D01*
Y66938D01*
X161365Y67746D01*
X160746Y68365D01*
X159938Y68700D01*
D02*
G37*
G36*
X588657Y67231D02*
X587781D01*
X586973Y66896D01*
X586354Y66278D01*
X586019Y65469D01*
Y64594D01*
X586354Y63785D01*
X586973Y63166D01*
X587781Y62831D01*
X588657D01*
X589465Y63166D01*
X590084Y63785D01*
X590419Y64594D01*
Y65469D01*
X590084Y66278D01*
X589465Y66896D01*
X588657Y67231D01*
D02*
G37*
G36*
X346187Y66951D02*
X345312D01*
X344503Y66616D01*
X343884Y65997D01*
X343549Y65188D01*
Y64313D01*
X343884Y63504D01*
X344503Y62885D01*
X345312Y62551D01*
X346187D01*
X346996Y62885D01*
X347615Y63504D01*
X347949Y64313D01*
Y65188D01*
X347615Y65997D01*
X346996Y66616D01*
X346187Y66951D01*
D02*
G37*
G36*
X299438Y66700D02*
X298562D01*
X297754Y66365D01*
X297135Y65746D01*
X296800Y64938D01*
Y64062D01*
X297135Y63254D01*
X297754Y62635D01*
X298562Y62300D01*
X299438D01*
X300246Y62635D01*
X300865Y63254D01*
X301200Y64062D01*
Y64938D01*
X300865Y65746D01*
X300246Y66365D01*
X299438Y66700D01*
D02*
G37*
G36*
X774467Y69175D02*
X773533D01*
X772630Y68933D01*
X771820Y68466D01*
X771159Y67805D01*
X770692Y66995D01*
X770450Y66092D01*
Y65158D01*
X770692Y64255D01*
X771159Y63445D01*
X771820Y62784D01*
X772630Y62317D01*
X773533Y62075D01*
X774467D01*
X775370Y62317D01*
X776180Y62784D01*
X776841Y63445D01*
X777308Y64255D01*
X777550Y65158D01*
Y66092D01*
X777308Y66995D01*
X776841Y67805D01*
X776180Y68466D01*
X775370Y68933D01*
X774467Y69175D01*
D02*
G37*
G36*
X661438Y65700D02*
X660562D01*
X659754Y65365D01*
X659135Y64746D01*
X658800Y63938D01*
Y63062D01*
X659135Y62254D01*
X659754Y61635D01*
X660562Y61300D01*
X661438D01*
X662246Y61635D01*
X662865Y62254D01*
X663200Y63062D01*
Y63938D01*
X662865Y64746D01*
X662246Y65365D01*
X661438Y65700D01*
D02*
G37*
G36*
X368472Y65269D02*
X367597D01*
X366789Y64934D01*
X366170Y64315D01*
X365835Y63507D01*
Y62631D01*
X366170Y61823D01*
X366789Y61204D01*
X367597Y60869D01*
X368472D01*
X369281Y61204D01*
X369900Y61823D01*
X370235Y62631D01*
Y63507D01*
X369900Y64315D01*
X369281Y64934D01*
X368472Y65269D01*
D02*
G37*
G36*
X492438Y65200D02*
X491562D01*
X490754Y64865D01*
X490135Y64246D01*
X489800Y63438D01*
Y62562D01*
X490135Y61754D01*
X490754Y61135D01*
X491562Y60800D01*
X492438D01*
X493246Y61135D01*
X493865Y61754D01*
X494200Y62562D01*
Y63438D01*
X493865Y64246D01*
X493246Y64865D01*
X492438Y65200D01*
D02*
G37*
G36*
X333938Y63200D02*
X333062D01*
X332254Y62865D01*
X331635Y62246D01*
X331300Y61438D01*
Y60562D01*
X331635Y59754D01*
X332254Y59135D01*
X333062Y58800D01*
X333938D01*
X334746Y59135D01*
X335365Y59754D01*
X335700Y60562D01*
Y61438D01*
X335365Y62246D01*
X334746Y62865D01*
X333938Y63200D01*
D02*
G37*
G36*
X451438Y66854D02*
X450562D01*
X449754Y66519D01*
X449135Y65900D01*
X448800Y65092D01*
Y64216D01*
X449135Y63408D01*
X449462Y63081D01*
X449726Y62754D01*
X449462Y62427D01*
X449135Y62100D01*
X448800Y61291D01*
Y60416D01*
X449135Y59608D01*
X449754Y58989D01*
X450562Y58654D01*
X451438D01*
X452246Y58989D01*
X452865Y59608D01*
X453200Y60416D01*
Y61291D01*
X452865Y62100D01*
X452538Y62427D01*
X452274Y62754D01*
X452538Y63081D01*
X452865Y63408D01*
X453200Y64216D01*
Y65092D01*
X452865Y65900D01*
X452246Y66519D01*
X451438Y66854D01*
D02*
G37*
G36*
X648540Y66600D02*
X647460D01*
X646418Y66321D01*
X645482Y65781D01*
X644719Y65017D01*
X644179Y64082D01*
X643900Y63040D01*
Y61960D01*
X644179Y60918D01*
X644719Y59983D01*
X645482Y59219D01*
X646418Y58679D01*
X647460Y58400D01*
X648540D01*
X649582Y58679D01*
X650518Y59219D01*
X651281Y59983D01*
X651821Y60918D01*
X652100Y61960D01*
Y63040D01*
X651821Y64082D01*
X651281Y65017D01*
X650518Y65781D01*
X649582Y66321D01*
X648540Y66600D01*
D02*
G37*
G36*
X618540D02*
X617460D01*
X616418Y66321D01*
X615483Y65781D01*
X614719Y65017D01*
X614179Y64082D01*
X613900Y63040D01*
Y61960D01*
X614179Y60918D01*
X614719Y59983D01*
X615483Y59219D01*
X616418Y58679D01*
X617460Y58400D01*
X618540D01*
X619583Y58679D01*
X620517Y59219D01*
X621281Y59983D01*
X621821Y60918D01*
X622100Y61960D01*
Y63040D01*
X621821Y64082D01*
X621281Y65017D01*
X620517Y65781D01*
X619583Y66321D01*
X618540Y66600D01*
D02*
G37*
G36*
X421737Y69600D02*
X420263D01*
X418839Y69218D01*
X417561Y68481D01*
X416519Y67439D01*
X415782Y66162D01*
X415400Y64737D01*
Y63263D01*
X415782Y61839D01*
X416519Y60562D01*
X417561Y59519D01*
X418839Y58782D01*
X420263Y58400D01*
X421737D01*
X423162Y58782D01*
X424438Y59519D01*
X425481Y60562D01*
X426218Y61839D01*
X426600Y63263D01*
Y64737D01*
X426218Y66162D01*
X425481Y67439D01*
X424438Y68481D01*
X423162Y69218D01*
X421737Y69600D01*
D02*
G37*
G36*
X260076Y62752D02*
X259201D01*
X258392Y62417D01*
X257773Y61798D01*
X257438Y60989D01*
Y60114D01*
X257773Y59305D01*
X258392Y58686D01*
X259201Y58351D01*
X260076D01*
X260885Y58686D01*
X261503Y59305D01*
X261838Y60114D01*
Y60989D01*
X261503Y61798D01*
X260885Y62417D01*
X260076Y62752D01*
D02*
G37*
G36*
X309738Y62154D02*
X308863D01*
X308054Y61819D01*
X307435Y61200D01*
X307101Y60391D01*
Y59516D01*
X307435Y58708D01*
X308054Y58089D01*
X308863Y57754D01*
X309738D01*
X310547Y58089D01*
X311166Y58708D01*
X311501Y59516D01*
Y60391D01*
X311166Y61200D01*
X310547Y61819D01*
X309738Y62154D01*
D02*
G37*
G36*
X547455Y62021D02*
X546580D01*
X545771Y61686D01*
X545152Y61067D01*
X544817Y60259D01*
Y59384D01*
X545152Y58575D01*
X545771Y57956D01*
X546580Y57621D01*
X547455D01*
X548263Y57956D01*
X548882Y58575D01*
X549217Y59384D01*
Y60259D01*
X548882Y61067D01*
X548263Y61686D01*
X547455Y62021D01*
D02*
G37*
G36*
X281438Y61700D02*
X280562D01*
X279754Y61365D01*
X279135Y60746D01*
X278800Y59938D01*
Y59062D01*
X279135Y58254D01*
X279754Y57635D01*
X280562Y57300D01*
X281438D01*
X282246Y57635D01*
X282865Y58254D01*
X283200Y59062D01*
Y59938D01*
X282865Y60746D01*
X282246Y61365D01*
X281438Y61700D01*
D02*
G37*
G36*
X315521Y60837D02*
X314646D01*
X313837Y60502D01*
X313218Y59883D01*
X312883Y59074D01*
Y58199D01*
X313218Y57390D01*
X313837Y56772D01*
X314646Y56437D01*
X315521D01*
X316329Y56772D01*
X316948Y57390D01*
X317283Y58199D01*
Y59074D01*
X316948Y59883D01*
X316329Y60502D01*
X315521Y60837D01*
D02*
G37*
G36*
X443938Y60200D02*
X443062D01*
X442254Y59865D01*
X441635Y59246D01*
X441300Y58438D01*
Y57562D01*
X441635Y56754D01*
X442254Y56135D01*
X443062Y55800D01*
X443938D01*
X444746Y56135D01*
X445365Y56754D01*
X445700Y57562D01*
Y58438D01*
X445365Y59246D01*
X444746Y59865D01*
X443938Y60200D01*
D02*
G37*
G36*
X369668Y60038D02*
X368793D01*
X367984Y59703D01*
X367366Y59084D01*
X367031Y58276D01*
Y57401D01*
X367366Y56592D01*
X367984Y55973D01*
X368793Y55638D01*
X369668D01*
X370477Y55973D01*
X371096Y56592D01*
X371431Y57401D01*
Y58276D01*
X371096Y59084D01*
X370477Y59703D01*
X369668Y60038D01*
D02*
G37*
G36*
X114040Y63600D02*
X112960D01*
X111917Y63321D01*
X110983Y62781D01*
X110219Y62018D01*
X109679Y61083D01*
X109400Y60040D01*
Y58960D01*
X109679Y57917D01*
X110219Y56982D01*
X110502Y56700D01*
X110295Y56200D01*
X110062D01*
X109254Y55865D01*
X108635Y55246D01*
X108300Y54438D01*
Y53562D01*
X108635Y52754D01*
X109254Y52135D01*
X110062Y51800D01*
X110938D01*
X111746Y52135D01*
X112365Y52754D01*
X112700Y53562D01*
Y54438D01*
X112460Y55016D01*
X112828Y55436D01*
X112960Y55400D01*
X114040D01*
X115083Y55679D01*
X116017Y56219D01*
X116781Y56982D01*
X117321Y57917D01*
X117600Y58960D01*
Y60040D01*
X117321Y61083D01*
X116781Y62018D01*
X116017Y62781D01*
X115083Y63321D01*
X114040Y63600D01*
D02*
G37*
G36*
X253438Y58700D02*
X252562D01*
X251754Y58365D01*
X251135Y57746D01*
X250800Y56938D01*
Y56062D01*
X251135Y55254D01*
X251754Y54635D01*
X252562Y54300D01*
X253438D01*
X254246Y54635D01*
X254865Y55254D01*
X255200Y56062D01*
Y56938D01*
X254865Y57746D01*
X254246Y58365D01*
X253438Y58700D01*
D02*
G37*
G36*
X331438Y58200D02*
X330562D01*
X329754Y57865D01*
X329135Y57246D01*
X328800Y56438D01*
Y55562D01*
X329135Y54754D01*
X329754Y54135D01*
X330562Y53800D01*
X331438D01*
X332246Y54135D01*
X332865Y54754D01*
X333200Y55562D01*
Y56438D01*
X332865Y57246D01*
X332246Y57865D01*
X331438Y58200D01*
D02*
G37*
G36*
X690438Y57700D02*
X689562D01*
X688754Y57365D01*
X688135Y56746D01*
X687800Y55938D01*
Y55062D01*
X688135Y54254D01*
X688754Y53635D01*
X689562Y53300D01*
X690438D01*
X691246Y53635D01*
X691865Y54254D01*
X692200Y55062D01*
Y55938D01*
X691865Y56746D01*
X691246Y57365D01*
X690438Y57700D01*
D02*
G37*
G36*
X319438D02*
X318562D01*
X317754Y57365D01*
X317135Y56746D01*
X316800Y55938D01*
Y55062D01*
X317135Y54254D01*
X317754Y53635D01*
X318562Y53300D01*
X319438D01*
X320246Y53635D01*
X320865Y54254D01*
X321200Y55062D01*
Y55938D01*
X320865Y56746D01*
X320246Y57365D01*
X319438Y57700D01*
D02*
G37*
G36*
X346938Y61700D02*
X346062D01*
X345254Y61365D01*
X344635Y60746D01*
X344300Y59938D01*
Y59062D01*
X344635Y58254D01*
X345208Y57681D01*
X345217Y57396D01*
X345175Y57126D01*
X344898Y57012D01*
X344280Y56393D01*
X343945Y55584D01*
Y54709D01*
X344280Y53900D01*
X344898Y53282D01*
X345707Y52947D01*
X346582D01*
X347391Y53282D01*
X348010Y53900D01*
X348344Y54709D01*
Y55584D01*
X348010Y56393D01*
X347437Y56966D01*
X347428Y57251D01*
X347469Y57520D01*
X347746Y57635D01*
X348365Y58254D01*
X348700Y59062D01*
Y59938D01*
X348365Y60746D01*
X347746Y61365D01*
X346938Y61700D01*
D02*
G37*
G36*
X42938Y57200D02*
X42062D01*
X41254Y56865D01*
X40635Y56246D01*
X40300Y55438D01*
Y54562D01*
X40635Y53754D01*
X41254Y53135D01*
X42062Y52800D01*
X42938D01*
X43746Y53135D01*
X44365Y53754D01*
X44700Y54562D01*
Y55438D01*
X44365Y56246D01*
X43746Y56865D01*
X42938Y57200D01*
D02*
G37*
G36*
X311438Y57085D02*
X310562D01*
X309754Y56750D01*
X309135Y56131D01*
X308800Y55322D01*
Y54447D01*
X309135Y53638D01*
X309754Y53020D01*
X310562Y52685D01*
X311438D01*
X312246Y53020D01*
X312865Y53638D01*
X313200Y54447D01*
Y55322D01*
X312865Y56131D01*
X312246Y56750D01*
X311438Y57085D01*
D02*
G37*
G36*
X383500Y56700D02*
X382625D01*
X381816Y56365D01*
X381197Y55746D01*
X380862Y54938D01*
Y54062D01*
X381197Y53254D01*
X381816Y52635D01*
X382625Y52300D01*
X383500D01*
X384309Y52635D01*
X384928Y53254D01*
X385262Y54062D01*
Y54938D01*
X384928Y55746D01*
X384309Y56365D01*
X383500Y56700D01*
D02*
G37*
G36*
X451938Y56200D02*
X451062D01*
X450254Y55865D01*
X449635Y55246D01*
X449300Y54438D01*
Y53562D01*
X449635Y52754D01*
X450254Y52135D01*
X451062Y51800D01*
X451938D01*
X452746Y52135D01*
X453365Y52754D01*
X453700Y53562D01*
Y54438D01*
X453365Y55246D01*
X452746Y55865D01*
X451938Y56200D01*
D02*
G37*
G36*
X281438D02*
X280562D01*
X279754Y55865D01*
X279135Y55246D01*
X278800Y54438D01*
Y53562D01*
X279135Y52754D01*
X279754Y52135D01*
X280562Y51800D01*
X281438D01*
X282246Y52135D01*
X282865Y52754D01*
X283200Y53562D01*
Y54438D01*
X282865Y55246D01*
X282246Y55865D01*
X281438Y56200D01*
D02*
G37*
G36*
X203438D02*
X202562D01*
X201754Y55865D01*
X201135Y55246D01*
X200800Y54438D01*
Y53562D01*
X201135Y52754D01*
X201754Y52135D01*
X202562Y51800D01*
X203438D01*
X204246Y52135D01*
X204865Y52754D01*
X205200Y53562D01*
Y54438D01*
X204865Y55246D01*
X204246Y55865D01*
X203438Y56200D01*
D02*
G37*
G36*
X76753D02*
X75878D01*
X75070Y55865D01*
X74451Y55246D01*
X74116Y54438D01*
Y53562D01*
X74451Y52754D01*
X75070Y52135D01*
X75878Y51800D01*
X76753D01*
X77562Y52135D01*
X78181Y52754D01*
X78516Y53562D01*
Y54438D01*
X78181Y55246D01*
X77562Y55865D01*
X76753Y56200D01*
D02*
G37*
G36*
X300060Y57092D02*
X299184D01*
X298376Y56757D01*
X297757Y56138D01*
X297422Y55329D01*
Y54454D01*
X297757Y53646D01*
X298376Y53027D01*
X299184Y52692D01*
X300060D01*
X300868Y53027D01*
X300881Y53040D01*
X301408Y52859D01*
X301678Y52208D01*
X302297Y51589D01*
X303106Y51254D01*
X303981D01*
X304789Y51589D01*
X305408Y52208D01*
X305743Y53016D01*
Y53891D01*
X305408Y54700D01*
X304789Y55319D01*
X303981Y55654D01*
X303106D01*
X302297Y55319D01*
X302284Y55306D01*
X301757Y55486D01*
X301487Y56138D01*
X300868Y56757D01*
X300060Y57092D01*
D02*
G37*
G36*
X358938Y55200D02*
X358062D01*
X357254Y54865D01*
X356635Y54246D01*
X356300Y53438D01*
Y52562D01*
X356635Y51754D01*
X357254Y51135D01*
X358062Y50800D01*
X358938D01*
X359746Y51135D01*
X360365Y51754D01*
X360700Y52562D01*
Y53438D01*
X360365Y54246D01*
X359746Y54865D01*
X358938Y55200D01*
D02*
G37*
G36*
X243938D02*
X243062D01*
X242254Y54865D01*
X241635Y54246D01*
X241300Y53438D01*
Y52562D01*
X241635Y51754D01*
X242254Y51135D01*
X243062Y50800D01*
X243938D01*
X244746Y51135D01*
X245365Y51754D01*
X245700Y52562D01*
Y53438D01*
X245365Y54246D01*
X244746Y54865D01*
X243938Y55200D01*
D02*
G37*
G36*
X774467Y57050D02*
X773533D01*
X772630Y56808D01*
X771820Y56341D01*
X771159Y55680D01*
X770692Y54870D01*
X770450Y53967D01*
Y53033D01*
X770692Y52130D01*
X771159Y51320D01*
X771820Y50659D01*
X772630Y50192D01*
X773533Y49950D01*
X774467D01*
X775370Y50192D01*
X776180Y50659D01*
X776841Y51320D01*
X777308Y52130D01*
X777550Y53033D01*
Y53967D01*
X777308Y54870D01*
X776841Y55680D01*
X776180Y56341D01*
X775370Y56808D01*
X774467Y57050D01*
D02*
G37*
G36*
X562938Y54200D02*
X562062D01*
X561254Y53865D01*
X560635Y53246D01*
X560300Y52438D01*
Y51562D01*
X560635Y50754D01*
X561254Y50135D01*
X562062Y49800D01*
X562938D01*
X563746Y50135D01*
X564365Y50754D01*
X564700Y51562D01*
Y52438D01*
X564365Y53246D01*
X563746Y53865D01*
X562938Y54200D01*
D02*
G37*
G36*
X585537Y54101D02*
X584662D01*
X583853Y53766D01*
X583234Y53147D01*
X582899Y52338D01*
Y51463D01*
X583234Y50655D01*
X583853Y50036D01*
X584662Y49701D01*
X585537D01*
X586346Y50036D01*
X586964Y50655D01*
X587299Y51463D01*
Y52338D01*
X586964Y53147D01*
X586346Y53766D01*
X585537Y54101D01*
D02*
G37*
G36*
X759540Y57600D02*
X758460D01*
X757417Y57321D01*
X756483Y56781D01*
X755719Y56018D01*
X755179Y55082D01*
X754900Y54040D01*
Y52960D01*
X755179Y51917D01*
X755719Y50982D01*
X756483Y50219D01*
X757417Y49679D01*
X758460Y49400D01*
X759540D01*
X760582Y49679D01*
X761517Y50219D01*
X762281Y50982D01*
X762821Y51917D01*
X763100Y52960D01*
Y54040D01*
X762821Y55082D01*
X762281Y56018D01*
X761517Y56781D01*
X760582Y57321D01*
X759540Y57600D01*
D02*
G37*
G36*
X494938Y53200D02*
X494062D01*
X493254Y52865D01*
X492635Y52246D01*
X492300Y51438D01*
Y50562D01*
X492635Y49754D01*
X493254Y49135D01*
X494062Y48800D01*
X494938D01*
X495746Y49135D01*
X496365Y49754D01*
X496700Y50562D01*
Y51438D01*
X496365Y52246D01*
X495746Y52865D01*
X494938Y53200D01*
D02*
G37*
G36*
X618540Y56600D02*
X617460D01*
X616418Y56321D01*
X615483Y55781D01*
X614719Y55018D01*
X614179Y54083D01*
X613900Y53040D01*
Y51960D01*
X614179Y50918D01*
X614719Y49983D01*
X615483Y49219D01*
X616418Y48679D01*
X617460Y48400D01*
X618540D01*
X619583Y48679D01*
X620517Y49219D01*
X621281Y49983D01*
X621821Y50918D01*
X622100Y51960D01*
Y53040D01*
X621821Y54083D01*
X621281Y55018D01*
X620517Y55781D01*
X619583Y56321D01*
X618540Y56600D01*
D02*
G37*
G36*
X208938Y52700D02*
X208062D01*
X207254Y52365D01*
X206635Y51746D01*
X206300Y50938D01*
Y50062D01*
X206635Y49254D01*
X207254Y48635D01*
X208062Y48300D01*
X208938D01*
X209746Y48635D01*
X210365Y49254D01*
X210700Y50062D01*
Y50938D01*
X210365Y51746D01*
X209746Y52365D01*
X208938Y52700D01*
D02*
G37*
G36*
X195438D02*
X194562D01*
X193754Y52365D01*
X193135Y51746D01*
X192800Y50938D01*
Y50062D01*
X193135Y49254D01*
X193754Y48635D01*
X194562Y48300D01*
X195438D01*
X196246Y48635D01*
X196865Y49254D01*
X197200Y50062D01*
Y50938D01*
X196865Y51746D01*
X196246Y52365D01*
X195438Y52700D01*
D02*
G37*
G36*
X134978D02*
X134103D01*
X133294Y52365D01*
X132676Y51746D01*
X132341Y50938D01*
Y50062D01*
X132676Y49254D01*
X133294Y48635D01*
X134103Y48300D01*
X134978D01*
X135787Y48635D01*
X136406Y49254D01*
X136741Y50062D01*
Y50938D01*
X136406Y51746D01*
X135787Y52365D01*
X134978Y52700D01*
D02*
G37*
G36*
X100938Y52200D02*
X100062D01*
X99254Y51865D01*
X98635Y51246D01*
X98300Y50438D01*
Y49562D01*
X98635Y48754D01*
X99254Y48135D01*
X100062Y47800D01*
X100938D01*
X101746Y48135D01*
X102365Y48754D01*
X102700Y49562D01*
Y50438D01*
X102365Y51246D01*
X101746Y51865D01*
X100938Y52200D01*
D02*
G37*
G36*
X451438Y51200D02*
X450562D01*
X449754Y50865D01*
X449135Y50246D01*
X448800Y49438D01*
Y48562D01*
X449135Y47754D01*
X449754Y47135D01*
X450562Y46800D01*
X451438D01*
X452246Y47135D01*
X452865Y47754D01*
X453200Y48562D01*
Y49438D01*
X452865Y50246D01*
X452246Y50865D01*
X451438Y51200D01*
D02*
G37*
G36*
X383780Y50687D02*
X382904D01*
X382096Y50353D01*
X381477Y49734D01*
X381142Y48925D01*
Y48050D01*
X381477Y47241D01*
X382096Y46622D01*
X382904Y46288D01*
X383780D01*
X384588Y46622D01*
X385207Y47241D01*
X385542Y48050D01*
Y48925D01*
X385207Y49734D01*
X384588Y50353D01*
X383780Y50687D01*
D02*
G37*
G36*
X14838Y80568D02*
X14162D01*
X13509Y80393D01*
X12923Y80055D01*
X12445Y79577D01*
X12106Y78991D01*
X11931Y78338D01*
Y77662D01*
X12106Y77009D01*
X12445Y76423D01*
X12923Y75945D01*
X13193Y75789D01*
Y75211D01*
X12923Y75055D01*
X12445Y74577D01*
X12106Y73991D01*
X11931Y73338D01*
Y72662D01*
X12106Y72009D01*
X12445Y71423D01*
X12923Y70945D01*
X13193Y70789D01*
Y70211D01*
X12923Y70055D01*
X12445Y69577D01*
X12106Y68991D01*
X11931Y68338D01*
Y67662D01*
X12106Y67009D01*
X12445Y66423D01*
X12923Y65945D01*
X13193Y65789D01*
Y65211D01*
X12923Y65055D01*
X12445Y64577D01*
X12106Y63991D01*
X11931Y63338D01*
Y62662D01*
X12106Y62009D01*
X12445Y61423D01*
X12923Y60945D01*
X13193Y60789D01*
Y60211D01*
X12923Y60055D01*
X12445Y59577D01*
X12106Y58991D01*
X11931Y58338D01*
Y57662D01*
X12106Y57009D01*
X12445Y56423D01*
X12923Y55945D01*
X13193Y55789D01*
Y55211D01*
X12923Y55055D01*
X12445Y54577D01*
X12106Y53991D01*
X11931Y53338D01*
Y52662D01*
X12106Y52009D01*
X12445Y51423D01*
X12923Y50945D01*
X13193Y50789D01*
Y50211D01*
X12923Y50055D01*
X12445Y49577D01*
X12106Y48991D01*
X11931Y48338D01*
Y47662D01*
X12106Y47009D01*
X12445Y46423D01*
X12923Y45945D01*
X13509Y45606D01*
X14162Y45432D01*
X14838D01*
X15491Y45606D01*
X16077Y45945D01*
X16555Y46423D01*
X16894Y47009D01*
X17068Y47662D01*
Y48338D01*
X16894Y48991D01*
X16555Y49577D01*
X16077Y50055D01*
X15807Y50211D01*
Y50789D01*
X16077Y50945D01*
X16555Y51423D01*
X16894Y52009D01*
X17068Y52662D01*
Y53338D01*
X16894Y53991D01*
X16555Y54577D01*
X16077Y55055D01*
X15807Y55211D01*
Y55789D01*
X16077Y55945D01*
X16555Y56423D01*
X16894Y57009D01*
X17068Y57662D01*
Y58338D01*
X16894Y58991D01*
X16555Y59577D01*
X16077Y60055D01*
X15807Y60211D01*
Y60789D01*
X16077Y60945D01*
X16555Y61423D01*
X16894Y62009D01*
X17068Y62662D01*
Y63338D01*
X16894Y63991D01*
X16555Y64577D01*
X16077Y65055D01*
X15807Y65211D01*
Y65789D01*
X16077Y65945D01*
X16555Y66423D01*
X16894Y67009D01*
X17068Y67662D01*
Y68338D01*
X16894Y68991D01*
X16555Y69577D01*
X16077Y70055D01*
X15807Y70211D01*
Y70789D01*
X16077Y70945D01*
X16555Y71423D01*
X16894Y72009D01*
X17068Y72662D01*
Y73338D01*
X16894Y73991D01*
X16555Y74577D01*
X16077Y75055D01*
X15807Y75211D01*
Y75789D01*
X16077Y75945D01*
X16555Y76423D01*
X16894Y77009D01*
X17068Y77662D01*
Y78338D01*
X16894Y78991D01*
X16555Y79577D01*
X16077Y80055D01*
X15491Y80393D01*
X14838Y80568D01*
D02*
G37*
G36*
X509938Y49694D02*
X509062D01*
X508254Y49359D01*
X507635Y48740D01*
X507300Y47931D01*
Y47056D01*
X507635Y46248D01*
X508254Y45629D01*
X509062Y45294D01*
X509938D01*
X510746Y45629D01*
X511365Y46248D01*
X511700Y47056D01*
Y47931D01*
X511365Y48740D01*
X510746Y49359D01*
X509938Y49694D01*
D02*
G37*
G36*
X393897Y60700D02*
X393022D01*
X392213Y60365D01*
X391594Y59746D01*
X391260Y58938D01*
Y58062D01*
X391594Y57254D01*
X391765Y57083D01*
X391648Y56493D01*
X391339Y56365D01*
X390720Y55746D01*
X390386Y54938D01*
Y54062D01*
X390720Y53254D01*
X391222Y52752D01*
X391188Y52197D01*
X391183Y52195D01*
X390564Y51576D01*
X390229Y50768D01*
Y49892D01*
X390564Y49084D01*
X391183Y48465D01*
X391322Y48407D01*
X391406Y47984D01*
X391360Y47850D01*
X391030Y47053D01*
Y46178D01*
X391365Y45369D01*
X391984Y44750D01*
X392792Y44415D01*
X393668D01*
X394476Y44750D01*
X395095Y45369D01*
X395430Y46178D01*
Y47053D01*
X395095Y47862D01*
X394476Y48480D01*
X394336Y48538D01*
X394252Y48961D01*
X394299Y49095D01*
X394629Y49892D01*
Y50768D01*
X394294Y51576D01*
X393793Y52078D01*
X393826Y52632D01*
X393832Y52635D01*
X394451Y53254D01*
X394785Y54062D01*
Y54938D01*
X394451Y55746D01*
X394280Y55917D01*
X394397Y56507D01*
X394706Y56635D01*
X395324Y57254D01*
X395659Y58062D01*
Y58938D01*
X395324Y59746D01*
X394706Y60365D01*
X393897Y60700D01*
D02*
G37*
G36*
X186071Y48566D02*
X185196D01*
X184388Y48231D01*
X183769Y47613D01*
X183434Y46804D01*
Y45929D01*
X183769Y45120D01*
X184388Y44501D01*
X185196Y44166D01*
X186071D01*
X186880Y44501D01*
X187499Y45120D01*
X187834Y45929D01*
Y46804D01*
X187499Y47613D01*
X186880Y48231D01*
X186071Y48566D01*
D02*
G37*
G36*
X24838Y83069D02*
X24162D01*
X23509Y82894D01*
X22923Y82555D01*
X22445Y82077D01*
X22106Y81491D01*
X21932Y80838D01*
Y80162D01*
X22106Y79509D01*
X22445Y78923D01*
X22923Y78445D01*
X23193Y78289D01*
Y77711D01*
X22923Y77555D01*
X22445Y77077D01*
X22106Y76491D01*
X21932Y75838D01*
Y75162D01*
X22106Y74509D01*
X22445Y73923D01*
X22923Y73445D01*
X23193Y73289D01*
Y72711D01*
X22923Y72555D01*
X22445Y72077D01*
X22106Y71491D01*
X21932Y70838D01*
Y70162D01*
X22106Y69509D01*
X22445Y68923D01*
X22923Y68445D01*
X23193Y68289D01*
Y67711D01*
X22923Y67555D01*
X22445Y67077D01*
X22106Y66491D01*
X21932Y65838D01*
Y65162D01*
X22106Y64509D01*
X22445Y63923D01*
X22923Y63445D01*
X23193Y63289D01*
Y62711D01*
X22923Y62555D01*
X22445Y62077D01*
X22106Y61491D01*
X21932Y60838D01*
Y60162D01*
X22106Y59509D01*
X22445Y58923D01*
X22923Y58445D01*
X23193Y58289D01*
Y57711D01*
X22923Y57555D01*
X22445Y57077D01*
X22106Y56491D01*
X21932Y55838D01*
Y55162D01*
X22106Y54509D01*
X22445Y53923D01*
X22923Y53445D01*
X23193Y53289D01*
Y52711D01*
X22923Y52555D01*
X22445Y52077D01*
X22106Y51491D01*
X21932Y50838D01*
Y50162D01*
X22106Y49509D01*
X22445Y48923D01*
X22923Y48445D01*
X23193Y48289D01*
Y47711D01*
X22923Y47555D01*
X22445Y47077D01*
X22106Y46491D01*
X21932Y45838D01*
Y45162D01*
X22106Y44509D01*
X22445Y43923D01*
X22923Y43445D01*
X23509Y43106D01*
X24162Y42932D01*
X24838D01*
X25491Y43106D01*
X26077Y43445D01*
X26555Y43923D01*
X26893Y44509D01*
X27068Y45162D01*
Y45838D01*
X26893Y46491D01*
X26555Y47077D01*
X26077Y47555D01*
X25807Y47711D01*
Y48289D01*
X26077Y48445D01*
X26555Y48923D01*
X26893Y49509D01*
X27068Y50162D01*
Y50838D01*
X26893Y51491D01*
X26555Y52077D01*
X26077Y52555D01*
X25807Y52711D01*
Y53289D01*
X26077Y53445D01*
X26555Y53923D01*
X26893Y54509D01*
X27068Y55162D01*
Y55838D01*
X26893Y56491D01*
X26555Y57077D01*
X26077Y57555D01*
X25807Y57711D01*
Y58289D01*
X26077Y58445D01*
X26555Y58923D01*
X26893Y59509D01*
X27068Y60162D01*
Y60838D01*
X26893Y61491D01*
X26555Y62077D01*
X26077Y62555D01*
X25807Y62711D01*
Y63289D01*
X26077Y63445D01*
X26555Y63923D01*
X26893Y64509D01*
X27068Y65162D01*
Y65838D01*
X26893Y66491D01*
X26555Y67077D01*
X26077Y67555D01*
X25807Y67711D01*
Y68289D01*
X26077Y68445D01*
X26555Y68923D01*
X26893Y69509D01*
X27068Y70162D01*
Y70838D01*
X26893Y71491D01*
X26555Y72077D01*
X26077Y72555D01*
X25807Y72711D01*
Y73289D01*
X26077Y73445D01*
X26555Y73923D01*
X26893Y74509D01*
X27068Y75162D01*
Y75838D01*
X26893Y76491D01*
X26555Y77077D01*
X26077Y77555D01*
X25807Y77711D01*
Y78289D01*
X26077Y78445D01*
X26555Y78923D01*
X26893Y79509D01*
X27068Y80162D01*
Y80838D01*
X26893Y81491D01*
X26555Y82077D01*
X26077Y82555D01*
X25491Y82894D01*
X24838Y83069D01*
D02*
G37*
G36*
X418873Y46437D02*
X417998D01*
X417189Y46102D01*
X416570Y45483D01*
X416235Y44674D01*
Y43799D01*
X416570Y42990D01*
X417189Y42372D01*
X417998Y42037D01*
X418873D01*
X419682Y42372D01*
X420300Y42990D01*
X420635Y43799D01*
Y44674D01*
X420300Y45483D01*
X419682Y46102D01*
X418873Y46437D01*
D02*
G37*
G36*
X370384Y46389D02*
X369509D01*
X368701Y46055D01*
X368082Y45436D01*
X367747Y44627D01*
Y43752D01*
X368082Y42943D01*
X368701Y42324D01*
X369509Y41989D01*
X370384D01*
X371193Y42324D01*
X371812Y42943D01*
X372147Y43752D01*
Y44627D01*
X371812Y45436D01*
X371193Y46055D01*
X370384Y46389D01*
D02*
G37*
G36*
X457438Y45700D02*
X456562D01*
X455754Y45365D01*
X455135Y44746D01*
X454800Y43938D01*
Y43062D01*
X455135Y42254D01*
X455754Y41635D01*
X456562Y41300D01*
X457438D01*
X458246Y41635D01*
X458865Y42254D01*
X459200Y43062D01*
Y43938D01*
X458865Y44746D01*
X458246Y45365D01*
X457438Y45700D01*
D02*
G37*
G36*
X281804Y45567D02*
X280929D01*
X280120Y45232D01*
X279502Y44613D01*
X279167Y43804D01*
Y42929D01*
X279502Y42120D01*
X280120Y41502D01*
X280929Y41167D01*
X281804D01*
X282613Y41502D01*
X283232Y42120D01*
X283567Y42929D01*
Y43804D01*
X283232Y44613D01*
X282613Y45232D01*
X281804Y45567D01*
D02*
G37*
G36*
X258938Y45200D02*
X258062D01*
X257254Y44865D01*
X256635Y44246D01*
X256300Y43438D01*
Y42562D01*
X256635Y41754D01*
X257254Y41135D01*
X258062Y40800D01*
X258938D01*
X259746Y41135D01*
X260365Y41754D01*
X260700Y42562D01*
Y43438D01*
X260365Y44246D01*
X259746Y44865D01*
X258938Y45200D01*
D02*
G37*
G36*
X405923Y45156D02*
X405048D01*
X404240Y44821D01*
X403621Y44202D01*
X403286Y43393D01*
Y42518D01*
X403621Y41710D01*
X404240Y41091D01*
X405048Y40756D01*
X405923D01*
X406732Y41091D01*
X407351Y41710D01*
X407686Y42518D01*
Y43393D01*
X407351Y44202D01*
X406732Y44821D01*
X405923Y45156D01*
D02*
G37*
G36*
X464938Y44700D02*
X464062D01*
X463254Y44365D01*
X462635Y43746D01*
X462300Y42938D01*
Y42062D01*
X462635Y41254D01*
X463254Y40635D01*
X464062Y40300D01*
X464938D01*
X465746Y40635D01*
X466365Y41254D01*
X466700Y42062D01*
Y42938D01*
X466365Y43746D01*
X465746Y44365D01*
X464938Y44700D01*
D02*
G37*
G36*
X123438Y44200D02*
X122562D01*
X121754Y43865D01*
X121135Y43246D01*
X120800Y42438D01*
Y41562D01*
X121135Y40754D01*
X121754Y40135D01*
X122562Y39800D01*
X123438D01*
X124246Y40135D01*
X124865Y40754D01*
X125200Y41562D01*
Y42438D01*
X124865Y43246D01*
X124246Y43865D01*
X123438Y44200D01*
D02*
G37*
G36*
X410938Y39931D02*
X410062D01*
X409254Y39596D01*
X408635Y38977D01*
X408384Y38927D01*
X407946Y39365D01*
X407138Y39700D01*
X406262D01*
X405454Y39365D01*
X404835Y38746D01*
X404500Y37938D01*
Y37062D01*
X404835Y36254D01*
X405454Y35635D01*
X406262Y35300D01*
X407138D01*
X407946Y35635D01*
X408565Y36254D01*
X408816Y36304D01*
X409254Y35866D01*
X410062Y35531D01*
X410938D01*
X411746Y35866D01*
X412365Y36485D01*
X412700Y37293D01*
Y38168D01*
X412365Y38977D01*
X411746Y39596D01*
X410938Y39931D01*
D02*
G37*
G36*
X217438Y43200D02*
X216562D01*
X215754Y42865D01*
X215135Y42246D01*
X214800Y41438D01*
Y40562D01*
X215135Y39754D01*
X215754Y39135D01*
X216562Y38800D01*
X217438D01*
X218246Y39135D01*
X218865Y39754D01*
X219200Y40562D01*
Y41438D01*
X218865Y42246D01*
X218246Y42865D01*
X217438Y43200D01*
D02*
G37*
G36*
X310098Y43040D02*
X309223D01*
X308414Y42705D01*
X307795Y42086D01*
X307460Y41277D01*
Y40402D01*
X307795Y39594D01*
X308414Y38975D01*
X309223Y38640D01*
X310098D01*
X310906Y38975D01*
X311525Y39594D01*
X311860Y40402D01*
Y41277D01*
X311525Y42086D01*
X310906Y42705D01*
X310098Y43040D01*
D02*
G37*
G36*
X266938Y43012D02*
X266062D01*
X265254Y42677D01*
X264635Y42059D01*
X264300Y41250D01*
Y40375D01*
X264635Y39566D01*
X265254Y38947D01*
X266062Y38612D01*
X266938D01*
X267746Y38947D01*
X268365Y39566D01*
X268700Y40375D01*
Y41250D01*
X268365Y42059D01*
X267746Y42677D01*
X266938Y43012D01*
D02*
G37*
G36*
X618540Y46600D02*
X617460D01*
X616418Y46321D01*
X615483Y45781D01*
X614719Y45017D01*
X614179Y44082D01*
X613900Y43040D01*
Y41960D01*
X614179Y40918D01*
X614719Y39983D01*
X615483Y39219D01*
X616418Y38679D01*
X617460Y38400D01*
X618540D01*
X619583Y38679D01*
X620517Y39219D01*
X621281Y39983D01*
X621821Y40918D01*
X622100Y41960D01*
Y43040D01*
X621821Y44082D01*
X621281Y45017D01*
X620517Y45781D01*
X619583Y46321D01*
X618540Y46600D01*
D02*
G37*
G36*
X200938Y42700D02*
X200062D01*
X199254Y42365D01*
X198635Y41746D01*
X198300Y40938D01*
Y40062D01*
X198635Y39254D01*
X199254Y38635D01*
X200062Y38300D01*
X200938D01*
X201746Y38635D01*
X202365Y39254D01*
X202700Y40062D01*
Y40938D01*
X202365Y41746D01*
X201746Y42365D01*
X200938Y42700D01*
D02*
G37*
G36*
X57438D02*
X56562D01*
X55754Y42365D01*
X55135Y41746D01*
X54800Y40938D01*
Y40062D01*
X55135Y39254D01*
X55754Y38635D01*
X56562Y38300D01*
X57438D01*
X58246Y38635D01*
X58865Y39254D01*
X59200Y40062D01*
Y40938D01*
X58865Y41746D01*
X58246Y42365D01*
X57438Y42700D01*
D02*
G37*
G36*
X304867Y42694D02*
X303992D01*
X303183Y42359D01*
X302564Y41740D01*
X302229Y40931D01*
Y40056D01*
X302564Y39248D01*
X303183Y38629D01*
X303992Y38294D01*
X304867D01*
X305676Y38629D01*
X306294Y39248D01*
X306629Y40056D01*
Y40931D01*
X306294Y41740D01*
X305676Y42359D01*
X304867Y42694D01*
D02*
G37*
G36*
X295303Y42856D02*
X294428D01*
X293619Y42522D01*
X293000Y41903D01*
X292665Y41094D01*
Y40219D01*
X293000Y39410D01*
X293619Y38791D01*
X294428Y38456D01*
X295303D01*
X296111Y38791D01*
X296606Y39286D01*
X296797Y39248D01*
X297416Y38629D01*
X298224Y38294D01*
X299099D01*
X299908Y38629D01*
X300527Y39248D01*
X300862Y40056D01*
Y40931D01*
X300527Y41740D01*
X299908Y42359D01*
X299099Y42694D01*
X298224D01*
X297416Y42359D01*
X296921Y41865D01*
X296730Y41903D01*
X296111Y42522D01*
X295303Y42856D01*
D02*
G37*
G36*
X377938Y42374D02*
X377062D01*
X376254Y42039D01*
X375635Y41420D01*
X375300Y40612D01*
Y39736D01*
X375635Y38928D01*
X376254Y38309D01*
X377062Y37974D01*
X377938D01*
X378746Y38309D01*
X379365Y38928D01*
X379700Y39736D01*
Y40612D01*
X379365Y41420D01*
X378746Y42039D01*
X377938Y42374D01*
D02*
G37*
G36*
X432938Y42251D02*
X432062D01*
X431254Y41916D01*
X430635Y41297D01*
X430300Y40488D01*
Y39613D01*
X430635Y38804D01*
X431254Y38186D01*
X432062Y37851D01*
X432938D01*
X433746Y38186D01*
X434365Y38804D01*
X434700Y39613D01*
Y40488D01*
X434365Y41297D01*
X433746Y41916D01*
X432938Y42251D01*
D02*
G37*
G36*
X495938Y42200D02*
X495062D01*
X494254Y41865D01*
X493635Y41246D01*
X493300Y40438D01*
Y39562D01*
X493635Y38754D01*
X494254Y38135D01*
X495062Y37800D01*
X495938D01*
X496746Y38135D01*
X497365Y38754D01*
X497700Y39562D01*
Y40438D01*
X497365Y41246D01*
X496746Y41865D01*
X495938Y42200D01*
D02*
G37*
G36*
X342776Y42061D02*
X341900D01*
X341092Y41727D01*
X340473Y41108D01*
X340138Y40299D01*
Y39424D01*
X340473Y38615D01*
X341092Y37996D01*
X341900Y37661D01*
X342776D01*
X343584Y37996D01*
X344203Y38615D01*
X344538Y39424D01*
Y40299D01*
X344203Y41108D01*
X343584Y41727D01*
X342776Y42061D01*
D02*
G37*
G36*
X438458Y41943D02*
X437583D01*
X436774Y41608D01*
X436155Y40989D01*
X435820Y40181D01*
Y39306D01*
X436155Y38497D01*
X436774Y37878D01*
X437583Y37543D01*
X438458D01*
X439267Y37878D01*
X439886Y38497D01*
X440220Y39306D01*
Y40181D01*
X439886Y40989D01*
X439267Y41608D01*
X438458Y41943D01*
D02*
G37*
G36*
X774467Y44550D02*
X773533D01*
X772630Y44308D01*
X771820Y43841D01*
X771159Y43180D01*
X770692Y42370D01*
X770450Y41467D01*
Y40533D01*
X770692Y39630D01*
X771159Y38820D01*
X771820Y38159D01*
X772630Y37692D01*
X773533Y37450D01*
X774467D01*
X775370Y37692D01*
X776180Y38159D01*
X776841Y38820D01*
X777308Y39630D01*
X777550Y40533D01*
Y41467D01*
X777308Y42370D01*
X776841Y43180D01*
X776180Y43841D01*
X775370Y44308D01*
X774467Y44550D01*
D02*
G37*
G36*
X759540Y45100D02*
X758460D01*
X757417Y44821D01*
X756483Y44281D01*
X755719Y43518D01*
X755179Y42582D01*
X754900Y41540D01*
Y40460D01*
X755179Y39417D01*
X755719Y38482D01*
X756483Y37719D01*
X757417Y37179D01*
X758460Y36900D01*
X759540D01*
X760582Y37179D01*
X761517Y37719D01*
X762281Y38482D01*
X762821Y39417D01*
X763100Y40460D01*
Y41540D01*
X762821Y42582D01*
X762281Y43518D01*
X761517Y44281D01*
X760582Y44821D01*
X759540Y45100D01*
D02*
G37*
G36*
X243438Y41200D02*
X242562D01*
X241754Y40865D01*
X241135Y40246D01*
X240800Y39438D01*
Y38562D01*
X241135Y37754D01*
X241754Y37135D01*
X242562Y36800D01*
X243438D01*
X244246Y37135D01*
X244865Y37754D01*
X245200Y38562D01*
Y39438D01*
X244865Y40246D01*
X244246Y40865D01*
X243438Y41200D01*
D02*
G37*
G36*
X235438D02*
X234562D01*
X233754Y40865D01*
X233135Y40246D01*
X232800Y39438D01*
Y38562D01*
X233135Y37754D01*
X233754Y37135D01*
X234562Y36800D01*
X235438D01*
X236246Y37135D01*
X236865Y37754D01*
X237200Y38562D01*
Y39438D01*
X236865Y40246D01*
X236246Y40865D01*
X235438Y41200D01*
D02*
G37*
G36*
X397438Y40700D02*
X396562D01*
X395754Y40365D01*
X395135Y39746D01*
X394800Y38938D01*
Y38062D01*
X395135Y37254D01*
X395754Y36635D01*
X396562Y36300D01*
X397438D01*
X398246Y36635D01*
X398865Y37254D01*
X399200Y38062D01*
Y38938D01*
X398865Y39746D01*
X398246Y40365D01*
X397438Y40700D01*
D02*
G37*
G36*
X324938Y40200D02*
X324062D01*
X323254Y39865D01*
X322635Y39246D01*
X322300Y38438D01*
Y37562D01*
X322635Y36754D01*
X323254Y36135D01*
X324062Y35800D01*
X324938D01*
X325746Y36135D01*
X326365Y36754D01*
X326700Y37562D01*
Y38438D01*
X326365Y39246D01*
X325746Y39865D01*
X324938Y40200D01*
D02*
G37*
G36*
X383502Y39420D02*
X382627D01*
X381818Y39085D01*
X381199Y38466D01*
X380864Y37657D01*
Y36782D01*
X381199Y35974D01*
X381818Y35355D01*
X382627Y35020D01*
X383502D01*
X384310Y35355D01*
X384929Y35974D01*
X385264Y36782D01*
Y37657D01*
X384929Y38466D01*
X384310Y39085D01*
X383502Y39420D01*
D02*
G37*
G36*
X417830Y39362D02*
X416955D01*
X416146Y39027D01*
X415527Y38408D01*
X415192Y37599D01*
Y36724D01*
X415527Y35916D01*
X416146Y35297D01*
X416955Y34962D01*
X417830D01*
X418638Y35297D01*
X419257Y35916D01*
X419592Y36724D01*
Y37599D01*
X419257Y38408D01*
X418638Y39027D01*
X417830Y39362D01*
D02*
G37*
G36*
X316438Y39176D02*
X315562D01*
X314754Y38841D01*
X314135Y38222D01*
X313800Y37413D01*
Y36538D01*
X314135Y35730D01*
X314754Y35111D01*
X315562Y34776D01*
X316438D01*
X317246Y35111D01*
X317865Y35730D01*
X318200Y36538D01*
Y37413D01*
X317865Y38222D01*
X317246Y38841D01*
X316438Y39176D01*
D02*
G37*
G36*
X264339Y38578D02*
X263464D01*
X262655Y38243D01*
X262036Y37624D01*
X261701Y36815D01*
Y35940D01*
X262036Y35131D01*
X262655Y34512D01*
X263464Y34178D01*
X264339D01*
X265147Y34512D01*
X265766Y35131D01*
X266101Y35940D01*
Y36815D01*
X265766Y37624D01*
X265147Y38243D01*
X264339Y38578D01*
D02*
G37*
G36*
X154938Y37700D02*
X154062D01*
X153254Y37365D01*
X152635Y36746D01*
X152300Y35938D01*
Y35062D01*
X152635Y34254D01*
X153254Y33635D01*
X154062Y33300D01*
X154938D01*
X155746Y33635D01*
X156365Y34254D01*
X156700Y35062D01*
Y35938D01*
X156365Y36746D01*
X155746Y37365D01*
X154938Y37700D01*
D02*
G37*
G36*
X146438D02*
X145562D01*
X144754Y37365D01*
X144135Y36746D01*
X143800Y35938D01*
Y35062D01*
X144135Y34254D01*
X144754Y33635D01*
X145562Y33300D01*
X146438D01*
X147246Y33635D01*
X147865Y34254D01*
X148200Y35062D01*
Y35938D01*
X147865Y36746D01*
X147246Y37365D01*
X146438Y37700D01*
D02*
G37*
G36*
X679438Y37200D02*
X678562D01*
X677754Y36865D01*
X677135Y36246D01*
X676800Y35438D01*
Y34562D01*
X677135Y33754D01*
X677754Y33135D01*
X678562Y32800D01*
X679438D01*
X680246Y33135D01*
X680865Y33754D01*
X681200Y34562D01*
Y35438D01*
X680865Y36246D01*
X680246Y36865D01*
X679438Y37200D01*
D02*
G37*
G36*
X628938Y36700D02*
X628062D01*
X627254Y36365D01*
X626635Y35746D01*
X626300Y34938D01*
Y34062D01*
X626635Y33254D01*
X627254Y32635D01*
X628062Y32300D01*
X628938D01*
X629746Y32635D01*
X630365Y33254D01*
X630700Y34062D01*
Y34938D01*
X630365Y35746D01*
X629746Y36365D01*
X628938Y36700D01*
D02*
G37*
G36*
X430438Y33700D02*
X429562D01*
X428754Y33365D01*
X428135Y32746D01*
X427800Y31938D01*
Y31592D01*
X427384Y31314D01*
X427051Y31452D01*
X426176D01*
X425367Y31117D01*
X424748Y30499D01*
X424413Y29690D01*
Y28815D01*
X424748Y28006D01*
X425367Y27387D01*
X426176Y27052D01*
X427051D01*
X427859Y27387D01*
X428478Y28006D01*
X428813Y28815D01*
Y29160D01*
X429229Y29438D01*
X429562Y29300D01*
X430438D01*
X431246Y29635D01*
X431865Y30254D01*
X432200Y31062D01*
Y31938D01*
X431865Y32746D01*
X431246Y33365D01*
X430438Y33700D01*
D02*
G37*
G36*
X298435Y35200D02*
X297559D01*
X296751Y34865D01*
X296132Y34246D01*
X295797Y33438D01*
Y32562D01*
X296132Y31754D01*
X296751Y31135D01*
X297559Y30800D01*
X298435D01*
X299243Y31135D01*
X299862Y31754D01*
X300197Y32562D01*
Y33438D01*
X299862Y34246D01*
X299243Y34865D01*
X298435Y35200D01*
D02*
G37*
G36*
X289438D02*
X288562D01*
X287754Y34865D01*
X287135Y34246D01*
X286800Y33438D01*
Y32562D01*
X287135Y31754D01*
X287754Y31135D01*
X288562Y30800D01*
X289438D01*
X290246Y31135D01*
X290865Y31754D01*
X291200Y32562D01*
Y33438D01*
X290865Y34246D01*
X290246Y34865D01*
X289438Y35200D01*
D02*
G37*
G36*
X62938D02*
X62062D01*
X61254Y34865D01*
X60635Y34246D01*
X60300Y33438D01*
Y32562D01*
X60635Y31754D01*
X61254Y31135D01*
X62062Y30800D01*
X62938D01*
X63746Y31135D01*
X64365Y31754D01*
X64700Y32562D01*
Y33438D01*
X64365Y34246D01*
X63746Y34865D01*
X62938Y35200D01*
D02*
G37*
G36*
X55938D02*
X55062D01*
X54254Y34865D01*
X53635Y34246D01*
X53300Y33438D01*
Y32562D01*
X53635Y31754D01*
X54254Y31135D01*
X55062Y30800D01*
X55938D01*
X56746Y31135D01*
X57365Y31754D01*
X57700Y32562D01*
Y33438D01*
X57365Y34246D01*
X56746Y34865D01*
X55938Y35200D01*
D02*
G37*
G36*
X48938D02*
X48062D01*
X47254Y34865D01*
X46635Y34246D01*
X46300Y33438D01*
Y32562D01*
X46635Y31754D01*
X47254Y31135D01*
X48062Y30800D01*
X48938D01*
X49746Y31135D01*
X50365Y31754D01*
X50700Y32562D01*
Y33438D01*
X50365Y34246D01*
X49746Y34865D01*
X48938Y35200D01*
D02*
G37*
G36*
X42938D02*
X42062D01*
X41254Y34865D01*
X40635Y34246D01*
X40300Y33438D01*
Y32562D01*
X40635Y31754D01*
X41254Y31135D01*
X42062Y30800D01*
X42938D01*
X43746Y31135D01*
X44365Y31754D01*
X44700Y32562D01*
Y33438D01*
X44365Y34246D01*
X43746Y34865D01*
X42938Y35200D01*
D02*
G37*
G36*
X355376Y35138D02*
X354501D01*
X353692Y34804D01*
X353074Y34185D01*
X352738Y33376D01*
Y32501D01*
X353074Y31692D01*
X353692Y31073D01*
X354501Y30738D01*
X355376D01*
X356185Y31073D01*
X356804Y31692D01*
X357138Y32501D01*
Y33376D01*
X356804Y34185D01*
X356185Y34804D01*
X355376Y35138D01*
D02*
G37*
G36*
X409438Y34700D02*
X408562D01*
X407754Y34365D01*
X407135Y33746D01*
X406800Y32938D01*
Y32062D01*
X407135Y31254D01*
X407754Y30635D01*
X408562Y30300D01*
X409438D01*
X410246Y30635D01*
X410865Y31254D01*
X411200Y32062D01*
Y32938D01*
X410865Y33746D01*
X410246Y34365D01*
X409438Y34700D01*
D02*
G37*
G36*
X250938Y33200D02*
X250062D01*
X249254Y32865D01*
X248635Y32246D01*
X248300Y31438D01*
Y30562D01*
X248635Y29754D01*
X249254Y29135D01*
X250062Y28800D01*
X250938D01*
X251746Y29135D01*
X252365Y29754D01*
X252700Y30562D01*
Y31438D01*
X252365Y32246D01*
X251746Y32865D01*
X250938Y33200D01*
D02*
G37*
G36*
X547438Y32700D02*
X546562D01*
X545754Y32365D01*
X545135Y31746D01*
X544800Y30938D01*
Y30062D01*
X545135Y29254D01*
X545754Y28635D01*
X546562Y28300D01*
X547438D01*
X548246Y28635D01*
X548865Y29254D01*
X549200Y30062D01*
Y30938D01*
X548865Y31746D01*
X548246Y32365D01*
X547438Y32700D01*
D02*
G37*
G36*
X443938D02*
X443062D01*
X442254Y32365D01*
X441635Y31746D01*
X441300Y30938D01*
Y30062D01*
X441635Y29254D01*
X442254Y28635D01*
X443062Y28300D01*
X443938D01*
X444746Y28635D01*
X445365Y29254D01*
X445700Y30062D01*
Y30938D01*
X445365Y31746D01*
X444746Y32365D01*
X443938Y32700D01*
D02*
G37*
G36*
X304938D02*
X304062D01*
X303254Y32365D01*
X302635Y31746D01*
X302300Y30938D01*
Y30062D01*
X302635Y29254D01*
X303254Y28635D01*
X304062Y28300D01*
X304938D01*
X305746Y28635D01*
X306365Y29254D01*
X306700Y30062D01*
Y30938D01*
X306365Y31746D01*
X305746Y32365D01*
X304938Y32700D01*
D02*
G37*
G36*
X262984D02*
X262108D01*
X261300Y32365D01*
X260681Y31746D01*
X260346Y30938D01*
Y30062D01*
X260681Y29254D01*
X261300Y28635D01*
X262108Y28300D01*
X262984D01*
X263792Y28635D01*
X264411Y29254D01*
X264746Y30062D01*
Y30938D01*
X264411Y31746D01*
X263792Y32365D01*
X262984Y32700D01*
D02*
G37*
G36*
X293837Y32560D02*
X292962D01*
X292153Y32225D01*
X291534Y31606D01*
X291199Y30798D01*
Y29923D01*
X291534Y29114D01*
X292153Y28495D01*
X292962Y28160D01*
X293837D01*
X294645Y28495D01*
X295264Y29114D01*
X295599Y29923D01*
Y30798D01*
X295264Y31606D01*
X294645Y32225D01*
X293837Y32560D01*
D02*
G37*
G36*
X389843Y32192D02*
X388967D01*
X388159Y31857D01*
X387540Y31238D01*
X387205Y30430D01*
Y29555D01*
X387540Y28746D01*
X388159Y28127D01*
X388967Y27792D01*
X389843D01*
X390651Y28127D01*
X391270Y28746D01*
X391605Y29555D01*
Y30430D01*
X391270Y31238D01*
X390651Y31857D01*
X389843Y32192D01*
D02*
G37*
G36*
X555040Y35600D02*
X553960D01*
X552917Y35321D01*
X551982Y34781D01*
X551219Y34018D01*
X550679Y33083D01*
X550400Y32040D01*
Y30960D01*
X550679Y29917D01*
X551219Y28982D01*
X551982Y28219D01*
X552917Y27679D01*
X553960Y27400D01*
X555040D01*
X556082Y27679D01*
X557018Y28219D01*
X557781Y28982D01*
X558321Y29917D01*
X558600Y30960D01*
Y32040D01*
X558321Y33083D01*
X557781Y34018D01*
X557018Y34781D01*
X556082Y35321D01*
X555040Y35600D01*
D02*
G37*
G36*
X476735Y28734D02*
X475860D01*
X475051Y28399D01*
X474432Y27780D01*
X474321Y27512D01*
X473783Y27318D01*
X473109Y27597D01*
X472234D01*
X471425Y27262D01*
X470907Y26744D01*
X470462Y26746D01*
X470324Y26787D01*
X469746Y27365D01*
X468938Y27700D01*
X468062D01*
X467254Y27365D01*
X466917Y27028D01*
X466358Y27072D01*
X465739Y27691D01*
X464930Y28026D01*
X464055D01*
X463246Y27691D01*
X462627Y27072D01*
X462543Y26869D01*
X462053Y26771D01*
X462051Y26773D01*
X461243Y27108D01*
X460367D01*
X459559Y26773D01*
X458940Y26154D01*
X458605Y25345D01*
Y24470D01*
X458940Y23662D01*
X459559Y23043D01*
X460367Y22708D01*
X461243D01*
X462051Y23043D01*
X462670Y23662D01*
X462754Y23865D01*
X463245Y23962D01*
X463246Y23961D01*
X464055Y23626D01*
X464930D01*
X465739Y23961D01*
X466076Y24298D01*
X466635Y24254D01*
X467254Y23635D01*
X468062Y23300D01*
X468938D01*
X469746Y23635D01*
X470264Y24153D01*
X470709Y24151D01*
X470847Y24110D01*
X471425Y23532D01*
X472234Y23197D01*
X473109D01*
X473917Y23532D01*
X474536Y24151D01*
X474647Y24419D01*
X475186Y24613D01*
X475860Y24333D01*
X475997Y24128D01*
X475760Y23554D01*
Y22679D01*
X476094Y21870D01*
X476713Y21251D01*
X477522Y20916D01*
X478397D01*
X479206Y21251D01*
X479824Y21870D01*
X480160Y22679D01*
Y23554D01*
X479824Y24363D01*
X479206Y24981D01*
X478397Y25316D01*
X478260Y25522D01*
X478497Y26096D01*
Y26971D01*
X478162Y27780D01*
X477543Y28399D01*
X476735Y28734D01*
D02*
G37*
G36*
X369905Y31618D02*
X369030D01*
X368221Y31283D01*
X367602Y30664D01*
X367267Y29856D01*
Y28981D01*
X367602Y28172D01*
X368221Y27553D01*
X369030Y27218D01*
X369905D01*
X370714Y27553D01*
X371333Y28172D01*
X371668Y28981D01*
Y29856D01*
X371333Y30664D01*
X370714Y31283D01*
X369905Y31618D01*
D02*
G37*
G36*
X774467Y34050D02*
X773533D01*
X772630Y33808D01*
X771820Y33341D01*
X771159Y32680D01*
X770692Y31870D01*
X770450Y30967D01*
Y30033D01*
X770692Y29130D01*
X771159Y28320D01*
X771820Y27659D01*
X772630Y27192D01*
X773533Y26950D01*
X774467D01*
X775370Y27192D01*
X776180Y27659D01*
X776841Y28320D01*
X777308Y29130D01*
X777550Y30033D01*
Y30967D01*
X777308Y31870D01*
X776841Y32680D01*
X776180Y33341D01*
X775370Y33808D01*
X774467Y34050D01*
D02*
G37*
G36*
X457938Y31200D02*
X457062D01*
X456254Y30865D01*
X455635Y30246D01*
X455300Y29438D01*
Y28562D01*
X455635Y27754D01*
X456254Y27135D01*
X457062Y26800D01*
X457938D01*
X458746Y27135D01*
X459365Y27754D01*
X459700Y28562D01*
Y29438D01*
X459365Y30246D01*
X458746Y30865D01*
X457938Y31200D01*
D02*
G37*
G36*
X311438D02*
X310562D01*
X309754Y30865D01*
X309135Y30246D01*
X308800Y29438D01*
Y28562D01*
X309135Y27754D01*
X309754Y27135D01*
X310562Y26800D01*
X311438D01*
X312246Y27135D01*
X312865Y27754D01*
X313200Y28562D01*
Y29438D01*
X312865Y30246D01*
X312246Y30865D01*
X311438Y31200D01*
D02*
G37*
G36*
X327451Y30654D02*
X326576D01*
X325767Y30319D01*
X325148Y29700D01*
X324813Y28892D01*
Y28016D01*
X325148Y27208D01*
X325767Y26589D01*
X326576Y26254D01*
X327451D01*
X328260Y26589D01*
X328878Y27208D01*
X329213Y28016D01*
Y28892D01*
X328878Y29700D01*
X328260Y30319D01*
X327451Y30654D01*
D02*
G37*
G36*
X663675Y39350D02*
X662325D01*
X661002Y39087D01*
X659755Y38570D01*
X658633Y37821D01*
X657679Y36867D01*
X656930Y35745D01*
X656413Y34498D01*
X656150Y33175D01*
Y31825D01*
X656413Y30502D01*
X656930Y29255D01*
X657679Y28133D01*
X658633Y27179D01*
X659755Y26430D01*
X661002Y25913D01*
X662325Y25650D01*
X663675D01*
X664998Y25913D01*
X666245Y26430D01*
X667367Y27179D01*
X668321Y28133D01*
X669070Y29255D01*
X669587Y30502D01*
X669850Y31825D01*
Y33175D01*
X669587Y34498D01*
X669070Y35745D01*
X668321Y36867D01*
X667367Y37821D01*
X666245Y38570D01*
X664998Y39087D01*
X663675Y39350D01*
D02*
G37*
G36*
X603675D02*
X602325D01*
X601002Y39087D01*
X599755Y38570D01*
X598633Y37821D01*
X597679Y36867D01*
X596930Y35745D01*
X596413Y34498D01*
X596150Y33175D01*
Y31825D01*
X596413Y30502D01*
X596930Y29255D01*
X597679Y28133D01*
X598633Y27179D01*
X599755Y26430D01*
X601002Y25913D01*
X602325Y25650D01*
X603675D01*
X604998Y25913D01*
X606245Y26430D01*
X607367Y27179D01*
X608321Y28133D01*
X609070Y29255D01*
X609587Y30502D01*
X609850Y31825D01*
Y33175D01*
X609587Y34498D01*
X609070Y35745D01*
X608321Y36867D01*
X607367Y37821D01*
X606245Y38570D01*
X604998Y39087D01*
X603675Y39350D01*
D02*
G37*
G36*
X633938Y29786D02*
X633062D01*
X632254Y29451D01*
X631635Y28832D01*
X631300Y28023D01*
Y27148D01*
X631635Y26340D01*
X632254Y25721D01*
X633062Y25386D01*
X633938D01*
X634746Y25721D01*
X635365Y26340D01*
X635700Y27148D01*
Y28023D01*
X635365Y28832D01*
X634746Y29451D01*
X633938Y29786D01*
D02*
G37*
G36*
X350944Y29603D02*
X350069D01*
X349260Y29268D01*
X348641Y28649D01*
X348306Y27841D01*
Y26965D01*
X348641Y26157D01*
X349260Y25538D01*
X350069Y25203D01*
X350944D01*
X351752Y25538D01*
X352371Y26157D01*
X352706Y26965D01*
Y27841D01*
X352371Y28649D01*
X351752Y29268D01*
X350944Y29603D01*
D02*
G37*
G36*
X405876Y29510D02*
X405001D01*
X404192Y29175D01*
X403573Y28556D01*
X403238Y27748D01*
Y26872D01*
X403573Y26064D01*
X404192Y25445D01*
X405001Y25110D01*
X405876D01*
X406684Y25445D01*
X407303Y26064D01*
X407638Y26872D01*
Y27748D01*
X407303Y28556D01*
X406684Y29175D01*
X405876Y29510D01*
D02*
G37*
G36*
X359094Y29426D02*
X358219D01*
X357410Y29091D01*
X356791Y28473D01*
X356456Y27664D01*
Y26789D01*
X356791Y25980D01*
X357410Y25361D01*
X358219Y25026D01*
X359094D01*
X359902Y25361D01*
X360521Y25980D01*
X360856Y26789D01*
Y27664D01*
X360521Y28473D01*
X359902Y29091D01*
X359094Y29426D01*
D02*
G37*
G36*
X624438Y29200D02*
X623562D01*
X622754Y28865D01*
X622135Y28246D01*
X621800Y27438D01*
Y26562D01*
X622135Y25754D01*
X622754Y25135D01*
X623562Y24800D01*
X624438D01*
X625246Y25135D01*
X625865Y25754D01*
X626200Y26562D01*
Y27438D01*
X625865Y28246D01*
X625246Y28865D01*
X624438Y29200D01*
D02*
G37*
G36*
X424897Y26451D02*
X424021D01*
X423213Y26116D01*
X422594Y25497D01*
X422259Y24689D01*
Y24487D01*
X421843Y24209D01*
X421821Y24219D01*
X420946D01*
X420138Y23884D01*
X419519Y23265D01*
X419184Y22456D01*
Y21581D01*
X419519Y20772D01*
X420138Y20154D01*
X420946Y19819D01*
X421821D01*
X422630Y20154D01*
X423249Y20772D01*
X423584Y21581D01*
Y21782D01*
X424000Y22060D01*
X424021Y22051D01*
X424897D01*
X425705Y22386D01*
X426324Y23005D01*
X426659Y23813D01*
Y24689D01*
X426324Y25497D01*
X425705Y26116D01*
X424897Y26451D01*
D02*
G37*
G36*
X383623Y28529D02*
X382748D01*
X381939Y28194D01*
X381320Y27575D01*
X380985Y26766D01*
Y25891D01*
X381320Y25083D01*
X381939Y24464D01*
X382748Y24129D01*
X383623D01*
X384432Y24464D01*
X385050Y25083D01*
X385385Y25891D01*
Y26766D01*
X385050Y27575D01*
X384432Y28194D01*
X383623Y28529D01*
D02*
G37*
G36*
X268438Y28200D02*
X267562D01*
X266754Y27865D01*
X266135Y27246D01*
X265800Y26438D01*
Y25562D01*
X266135Y24754D01*
X266754Y24135D01*
X267562Y23800D01*
X268438D01*
X269246Y24135D01*
X269865Y24754D01*
X270200Y25562D01*
Y26438D01*
X269865Y27246D01*
X269246Y27865D01*
X268438Y28200D01*
D02*
G37*
G36*
X198938D02*
X198062D01*
X197254Y27865D01*
X196635Y27246D01*
X196300Y26438D01*
Y25562D01*
X196635Y24754D01*
X197254Y24135D01*
X198062Y23800D01*
X198938D01*
X199746Y24135D01*
X200365Y24754D01*
X200700Y25562D01*
Y26438D01*
X200365Y27246D01*
X199746Y27865D01*
X198938Y28200D01*
D02*
G37*
G36*
X119037Y28101D02*
X118162D01*
X117353Y27766D01*
X116734Y27147D01*
X116399Y26338D01*
Y25463D01*
X116734Y24654D01*
X117353Y24036D01*
X118162Y23701D01*
X119037D01*
X119846Y24036D01*
X120464Y24654D01*
X120799Y25463D01*
Y26338D01*
X120464Y27147D01*
X119846Y27766D01*
X119037Y28101D01*
D02*
G37*
G36*
X741040Y31600D02*
X739960D01*
X738917Y31321D01*
X737983Y30781D01*
X737219Y30018D01*
X736679Y29083D01*
X736400Y28040D01*
Y26960D01*
X736679Y25918D01*
X737219Y24983D01*
X737983Y24219D01*
X738917Y23679D01*
X739960Y23400D01*
X741040D01*
X742083Y23679D01*
X743017Y24219D01*
X743781Y24983D01*
X744321Y25918D01*
X744600Y26960D01*
Y28040D01*
X744321Y29083D01*
X743781Y30018D01*
X743017Y30781D01*
X742083Y31321D01*
X741040Y31600D01*
D02*
G37*
G36*
X731040D02*
X729960D01*
X728918Y31321D01*
X727983Y30781D01*
X727219Y30018D01*
X726679Y29083D01*
X726400Y28040D01*
Y26960D01*
X726679Y25918D01*
X727219Y24983D01*
X727983Y24219D01*
X728918Y23679D01*
X729960Y23400D01*
X731040D01*
X732083Y23679D01*
X733017Y24219D01*
X733781Y24983D01*
X734321Y25918D01*
X734600Y26960D01*
Y28040D01*
X734321Y29083D01*
X733781Y30018D01*
X733017Y30781D01*
X732083Y31321D01*
X731040Y31600D01*
D02*
G37*
G36*
X721040D02*
X719960D01*
X718918Y31321D01*
X717982Y30781D01*
X717219Y30018D01*
X716679Y29083D01*
X716400Y28040D01*
Y26960D01*
X716679Y25918D01*
X717219Y24983D01*
X717982Y24219D01*
X718918Y23679D01*
X719960Y23400D01*
X721040D01*
X722083Y23679D01*
X723018Y24219D01*
X723781Y24983D01*
X724321Y25918D01*
X724600Y26960D01*
Y28040D01*
X724321Y29083D01*
X723781Y30018D01*
X723018Y30781D01*
X722083Y31321D01*
X721040Y31600D01*
D02*
G37*
G36*
X711040D02*
X709960D01*
X708918Y31321D01*
X707982Y30781D01*
X707219Y30018D01*
X706679Y29083D01*
X706400Y28040D01*
Y26960D01*
X706679Y25918D01*
X707219Y24983D01*
X707982Y24219D01*
X708918Y23679D01*
X709960Y23400D01*
X711040D01*
X712082Y23679D01*
X713018Y24219D01*
X713781Y24983D01*
X714321Y25918D01*
X714600Y26960D01*
Y28040D01*
X714321Y29083D01*
X713781Y30018D01*
X713018Y30781D01*
X712082Y31321D01*
X711040Y31600D01*
D02*
G37*
G36*
X364438Y27700D02*
X363562D01*
X362754Y27365D01*
X362135Y26746D01*
X361800Y25938D01*
Y25062D01*
X362135Y24254D01*
X362754Y23635D01*
X363562Y23300D01*
X364438D01*
X365246Y23635D01*
X365865Y24254D01*
X366200Y25062D01*
Y25938D01*
X365865Y26746D01*
X365246Y27365D01*
X364438Y27700D01*
D02*
G37*
G36*
X207938D02*
X207062D01*
X206254Y27365D01*
X205635Y26746D01*
X205300Y25938D01*
Y25062D01*
X205635Y24254D01*
X206254Y23635D01*
X207062Y23300D01*
X207938D01*
X208746Y23635D01*
X209365Y24254D01*
X209700Y25062D01*
Y25938D01*
X209365Y26746D01*
X208746Y27365D01*
X207938Y27700D01*
D02*
G37*
G36*
X450521Y27178D02*
X449645D01*
X448837Y26842D01*
X448218Y26224D01*
X447883Y25415D01*
Y24540D01*
X448218Y23731D01*
X448837Y23112D01*
X449645Y22777D01*
X450521D01*
X451329Y23112D01*
X451948Y23731D01*
X452283Y24540D01*
Y25415D01*
X451948Y26224D01*
X451329Y26842D01*
X450521Y27178D01*
D02*
G37*
G36*
X493438Y27108D02*
X492562D01*
X491754Y26773D01*
X491135Y26154D01*
X490800Y25345D01*
Y24470D01*
X491135Y23662D01*
X491754Y23043D01*
X492562Y22708D01*
X493438D01*
X494246Y23043D01*
X494865Y23662D01*
X495200Y24470D01*
Y25345D01*
X494865Y26154D01*
X494246Y26773D01*
X493438Y27108D01*
D02*
G37*
G36*
X628938Y26700D02*
X628062D01*
X627254Y26365D01*
X626635Y25746D01*
X626300Y24938D01*
Y24062D01*
X626635Y23254D01*
X627254Y22635D01*
X628062Y22300D01*
X628938D01*
X629746Y22635D01*
X630365Y23254D01*
X630700Y24062D01*
Y24938D01*
X630365Y25746D01*
X629746Y26365D01*
X628938Y26700D01*
D02*
G37*
G36*
X154174Y26007D02*
X153299D01*
X152490Y25672D01*
X151871Y25053D01*
X151537Y24244D01*
Y23369D01*
X151871Y22560D01*
X152490Y21942D01*
X153299Y21607D01*
X154174D01*
X154983Y21942D01*
X155602Y22560D01*
X155937Y23369D01*
Y24244D01*
X155602Y25053D01*
X154983Y25672D01*
X154174Y26007D01*
D02*
G37*
G36*
X332953Y25700D02*
X332077D01*
X331269Y25365D01*
X330650Y24746D01*
X330315Y23938D01*
Y23062D01*
X330650Y22254D01*
X331269Y21635D01*
X332077Y21300D01*
X332953D01*
X333761Y21635D01*
X334380Y22254D01*
X334715Y23062D01*
Y23938D01*
X334380Y24746D01*
X333761Y25365D01*
X332953Y25700D01*
D02*
G37*
G36*
X106925Y29284D02*
X106050D01*
X105242Y28949D01*
X104623Y28330D01*
X104288Y27521D01*
Y26646D01*
X104623Y25838D01*
X105242Y25219D01*
X105572Y25082D01*
X105730Y24475D01*
X105473Y23856D01*
Y22981D01*
X105808Y22172D01*
X106427Y21553D01*
X107236Y21218D01*
X108111D01*
X108920Y21553D01*
X109538Y22172D01*
X109873Y22981D01*
Y23856D01*
X109538Y24665D01*
X108920Y25283D01*
X108589Y25420D01*
X108431Y26027D01*
X108688Y26646D01*
Y27521D01*
X108353Y28330D01*
X107734Y28949D01*
X106925Y29284D01*
D02*
G37*
G36*
X369633Y24899D02*
X368758D01*
X367950Y24564D01*
X367331Y23946D01*
X366996Y23137D01*
Y22262D01*
X367331Y21453D01*
X367950Y20834D01*
X368758Y20499D01*
X369633D01*
X370442Y20834D01*
X371061Y21453D01*
X371396Y22262D01*
Y23137D01*
X371061Y23946D01*
X370442Y24564D01*
X369633Y24899D01*
D02*
G37*
G36*
X189438Y24200D02*
X188562D01*
X187754Y23865D01*
X187135Y23246D01*
X186800Y22438D01*
Y21562D01*
X187135Y20754D01*
X187754Y20135D01*
X188562Y19800D01*
X189438D01*
X190246Y20135D01*
X190865Y20754D01*
X191200Y21562D01*
Y22438D01*
X190865Y23246D01*
X190246Y23865D01*
X189438Y24200D01*
D02*
G37*
G36*
X348938Y23700D02*
X348062D01*
X347254Y23365D01*
X346635Y22746D01*
X346300Y21938D01*
Y21062D01*
X346635Y20254D01*
X347254Y19635D01*
X348062Y19300D01*
X348938D01*
X349746Y19635D01*
X350365Y20254D01*
X350700Y21062D01*
Y21938D01*
X350365Y22746D01*
X349746Y23365D01*
X348938Y23700D01*
D02*
G37*
G36*
X10341Y35795D02*
X8659D01*
X7008Y35467D01*
X5453Y34823D01*
X4054Y33888D01*
X2864Y32698D01*
X1929Y31299D01*
X1285Y29744D01*
X957Y28093D01*
Y26411D01*
X1285Y24760D01*
X1929Y23205D01*
X2864Y21806D01*
X4054Y20616D01*
X5453Y19681D01*
X7008Y19037D01*
X8659Y18709D01*
X10341D01*
X11992Y19037D01*
X13547Y19681D01*
X14946Y20616D01*
X16136Y21806D01*
X17071Y23205D01*
X17715Y24760D01*
X18043Y26411D01*
Y28093D01*
X17715Y29744D01*
X17071Y31299D01*
X16136Y32698D01*
X14946Y33888D01*
X13547Y34823D01*
X11992Y35467D01*
X10341Y35795D01*
D02*
G37*
G36*
X368363Y19923D02*
X367487D01*
X366679Y19588D01*
X366060Y18969D01*
X365937Y18672D01*
X365396D01*
X365365Y18746D01*
X364746Y19365D01*
X363938Y19700D01*
X363062D01*
X362254Y19365D01*
X361635Y18746D01*
X361300Y17938D01*
Y17062D01*
X361635Y16254D01*
X362254Y15635D01*
X363062Y15300D01*
X363938D01*
X364746Y15635D01*
X365365Y16254D01*
X365488Y16551D01*
X366029D01*
X366060Y16477D01*
X366679Y15858D01*
X367487Y15523D01*
X368363D01*
X369171Y15858D01*
X369790Y16477D01*
X370125Y17286D01*
Y18161D01*
X369790Y18969D01*
X369171Y19588D01*
X368363Y19923D01*
D02*
G37*
G36*
X117938Y22700D02*
X117062D01*
X116254Y22365D01*
X115635Y21746D01*
X115300Y20938D01*
Y20062D01*
X115635Y19254D01*
X116254Y18635D01*
X117062Y18300D01*
X117938D01*
X118746Y18635D01*
X119365Y19254D01*
X119700Y20062D01*
Y20938D01*
X119365Y21746D01*
X118746Y22365D01*
X117938Y22700D01*
D02*
G37*
G36*
X97938Y22587D02*
X97062D01*
X96254Y22252D01*
X95635Y21633D01*
X95300Y20824D01*
Y19949D01*
X95635Y19140D01*
X96254Y18522D01*
X97062Y18187D01*
X97938D01*
X98746Y18522D01*
X99365Y19140D01*
X99700Y19949D01*
Y20824D01*
X99365Y21633D01*
X98746Y22252D01*
X97938Y22587D01*
D02*
G37*
G36*
X198259Y21711D02*
X197384D01*
X196575Y21375D01*
X195956Y20757D01*
X195621Y19948D01*
Y19073D01*
X195956Y18264D01*
X196575Y17645D01*
X197384Y17311D01*
X198259D01*
X199067Y17645D01*
X199686Y18264D01*
X200021Y19073D01*
Y19948D01*
X199686Y20757D01*
X199067Y21375D01*
X198259Y21711D01*
D02*
G37*
G36*
X551549Y21200D02*
X550673D01*
X549865Y20865D01*
X549246Y20246D01*
X548911Y19438D01*
Y18562D01*
X549246Y17754D01*
X549865Y17135D01*
X550673Y16800D01*
X551549D01*
X552357Y17135D01*
X552976Y17754D01*
X553311Y18562D01*
Y19438D01*
X552976Y20246D01*
X552357Y20865D01*
X551549Y21200D01*
D02*
G37*
G36*
X546438D02*
X545562D01*
X544754Y20865D01*
X544135Y20246D01*
X543800Y19438D01*
Y18562D01*
X544135Y17754D01*
X544754Y17135D01*
X545562Y16800D01*
X546438D01*
X547246Y17135D01*
X547865Y17754D01*
X548200Y18562D01*
Y19438D01*
X547865Y20246D01*
X547246Y20865D01*
X546438Y21200D01*
D02*
G37*
G36*
X263938D02*
X263062D01*
X262254Y20865D01*
X261635Y20246D01*
X261300Y19438D01*
Y18562D01*
X261635Y17754D01*
X262254Y17135D01*
X263062Y16800D01*
X263938D01*
X264746Y17135D01*
X265365Y17754D01*
X265700Y18562D01*
Y19438D01*
X265365Y20246D01*
X264746Y20865D01*
X263938Y21200D01*
D02*
G37*
G36*
X58438D02*
X57562D01*
X56754Y20865D01*
X56135Y20246D01*
X55800Y19438D01*
Y18562D01*
X56135Y17754D01*
X56754Y17135D01*
X57562Y16800D01*
X58438D01*
X59246Y17135D01*
X59865Y17754D01*
X60200Y18562D01*
Y19438D01*
X59865Y20246D01*
X59246Y20865D01*
X58438Y21200D01*
D02*
G37*
G36*
X315938Y20700D02*
X315062D01*
X314254Y20365D01*
X313635Y19746D01*
X313300Y18938D01*
Y18062D01*
X313635Y17254D01*
X314254Y16635D01*
X315062Y16300D01*
X315938D01*
X316746Y16635D01*
X317365Y17254D01*
X317700Y18062D01*
Y18938D01*
X317365Y19746D01*
X316746Y20365D01*
X315938Y20700D01*
D02*
G37*
G36*
X453938Y20351D02*
X453062D01*
X452254Y20016D01*
X451635Y19397D01*
X451300Y18588D01*
Y17713D01*
X451635Y16904D01*
X452254Y16286D01*
X453062Y15951D01*
X453938D01*
X454746Y16286D01*
X455365Y16904D01*
X455700Y17713D01*
Y18588D01*
X455365Y19397D01*
X454746Y20016D01*
X453938Y20351D01*
D02*
G37*
G36*
X564438Y20200D02*
X563562D01*
X562754Y19865D01*
X562135Y19246D01*
X561800Y18438D01*
Y17562D01*
X562135Y16754D01*
X562754Y16135D01*
X563562Y15800D01*
X564438D01*
X565246Y16135D01*
X565865Y16754D01*
X566200Y17562D01*
Y18438D01*
X565865Y19246D01*
X565246Y19865D01*
X564438Y20200D01*
D02*
G37*
G36*
X678021Y19775D02*
X677146D01*
X676337Y19440D01*
X675719Y18822D01*
X675384Y18013D01*
Y17138D01*
X675719Y16329D01*
X676337Y15710D01*
X677146Y15375D01*
X678021D01*
X678830Y15710D01*
X679449Y16329D01*
X679784Y17138D01*
Y18013D01*
X679449Y18822D01*
X678830Y19440D01*
X678021Y19775D01*
D02*
G37*
G36*
X248438Y19700D02*
X247562D01*
X246754Y19365D01*
X246135Y18746D01*
X245800Y17938D01*
Y17062D01*
X246135Y16254D01*
X246754Y15635D01*
X247562Y15300D01*
X248438D01*
X249246Y15635D01*
X249865Y16254D01*
X250200Y17062D01*
Y17938D01*
X249865Y18746D01*
X249246Y19365D01*
X248438Y19700D01*
D02*
G37*
G36*
X109138Y19417D02*
X108262D01*
X107454Y19082D01*
X106835Y18463D01*
X106500Y17655D01*
Y16780D01*
X106835Y15971D01*
X107454Y15352D01*
X108262Y15017D01*
X109138D01*
X109946Y15352D01*
X110565Y15971D01*
X110900Y16780D01*
Y17655D01*
X110565Y18463D01*
X109946Y19082D01*
X109138Y19417D01*
D02*
G37*
G36*
X162040Y22600D02*
X160960D01*
X159917Y22321D01*
X158983Y21781D01*
X158219Y21017D01*
X157679Y20083D01*
X157400Y19040D01*
Y17960D01*
X157679Y16917D01*
X158219Y15982D01*
X158983Y15219D01*
X159917Y14679D01*
X160960Y14400D01*
X162040D01*
X163083Y14679D01*
X164017Y15219D01*
X164781Y15982D01*
X165321Y16917D01*
X165600Y17960D01*
Y19040D01*
X165321Y20083D01*
X164781Y21017D01*
X164017Y21781D01*
X163083Y22321D01*
X162040Y22600D01*
D02*
G37*
G36*
X774967Y20550D02*
X774033D01*
X773130Y20308D01*
X772320Y19841D01*
X771659Y19180D01*
X771192Y18370D01*
X770950Y17467D01*
Y16533D01*
X771192Y15630D01*
X771659Y14820D01*
X772320Y14159D01*
X773130Y13692D01*
X774033Y13450D01*
X774967D01*
X775870Y13692D01*
X776680Y14159D01*
X777341Y14820D01*
X777808Y15630D01*
X778050Y16533D01*
Y17467D01*
X777808Y18370D01*
X777341Y19180D01*
X776680Y19841D01*
X775870Y20308D01*
X774967Y20550D01*
D02*
G37*
G36*
X101741Y17725D02*
X100866D01*
X100057Y17391D01*
X99438Y16772D01*
X99103Y15963D01*
Y15088D01*
X99438Y14279D01*
X100057Y13660D01*
X100866Y13325D01*
X101741D01*
X102550Y13660D01*
X103168Y14279D01*
X103503Y15088D01*
Y15963D01*
X103168Y16772D01*
X102550Y17391D01*
X101741Y17725D01*
D02*
G37*
G36*
X409473Y17640D02*
X408598D01*
X407789Y17305D01*
X407170Y16686D01*
X406835Y15877D01*
Y15002D01*
X407170Y14194D01*
X407789Y13575D01*
X408598Y13240D01*
X409473D01*
X410282Y13575D01*
X410900Y14194D01*
X411235Y15002D01*
Y15877D01*
X410900Y16686D01*
X410282Y17305D01*
X409473Y17640D01*
D02*
G37*
G36*
X511438Y17585D02*
X510562D01*
X509754Y17250D01*
X509135Y16631D01*
X508800Y15822D01*
Y14947D01*
X509135Y14138D01*
X509754Y13520D01*
X510562Y13185D01*
X511438D01*
X512246Y13520D01*
X512865Y14138D01*
X513200Y14947D01*
Y15822D01*
X512865Y16631D01*
X512246Y17250D01*
X511438Y17585D01*
D02*
G37*
G36*
X760040Y21100D02*
X758960D01*
X757917Y20821D01*
X756983Y20281D01*
X756219Y19518D01*
X755679Y18583D01*
X755400Y17540D01*
Y16460D01*
X755679Y15417D01*
X756219Y14482D01*
X756983Y13719D01*
X757917Y13179D01*
X758960Y12900D01*
X760040D01*
X761083Y13179D01*
X762017Y13719D01*
X762781Y14482D01*
X763321Y15417D01*
X763600Y16460D01*
Y17540D01*
X763321Y18583D01*
X762781Y19518D01*
X762017Y20281D01*
X761083Y20821D01*
X760040Y21100D01*
D02*
G37*
G36*
X425438Y17200D02*
X424562D01*
X423754Y16865D01*
X423135Y16246D01*
X422800Y15438D01*
Y14562D01*
X423135Y13754D01*
X423754Y13135D01*
X424562Y12800D01*
X425438D01*
X426246Y13135D01*
X426865Y13754D01*
X427200Y14562D01*
Y15438D01*
X426865Y16246D01*
X426246Y16865D01*
X425438Y17200D01*
D02*
G37*
G36*
X46211Y17080D02*
X45336D01*
X44527Y16745D01*
X43909Y16126D01*
X43574Y15317D01*
Y14442D01*
X43909Y13634D01*
X44527Y13015D01*
X45336Y12680D01*
X46211D01*
X47020Y13015D01*
X47639Y13634D01*
X47974Y14442D01*
Y15317D01*
X47639Y16126D01*
X47020Y16745D01*
X46211Y17080D01*
D02*
G37*
G36*
X149938Y16700D02*
X149062D01*
X148254Y16365D01*
X147635Y15746D01*
X147300Y14938D01*
Y14062D01*
X147635Y13254D01*
X148254Y12635D01*
X149062Y12300D01*
X149938D01*
X150746Y12635D01*
X151365Y13254D01*
X151700Y14062D01*
Y14938D01*
X151365Y15746D01*
X150746Y16365D01*
X149938Y16700D01*
D02*
G37*
G36*
X135438Y15900D02*
X134562D01*
X133754Y15565D01*
X133135Y14946D01*
X132800Y14138D01*
Y13262D01*
X133135Y12454D01*
X133754Y11835D01*
X134562Y11500D01*
X135438D01*
X136246Y11835D01*
X136865Y12454D01*
X137200Y13262D01*
Y14138D01*
X136865Y14946D01*
X136246Y15565D01*
X135438Y15900D01*
D02*
G37*
G36*
X144053Y14700D02*
X143177D01*
X142369Y14365D01*
X141750Y13746D01*
X141415Y12938D01*
Y12062D01*
X141750Y11254D01*
X142369Y10635D01*
X143177Y10300D01*
X144053D01*
X144861Y10635D01*
X145480Y11254D01*
X145815Y12062D01*
Y12938D01*
X145480Y13746D01*
X144861Y14365D01*
X144053Y14700D01*
D02*
G37*
G36*
X353284Y13700D02*
X352409D01*
X351601Y13365D01*
X350982Y12746D01*
X350647Y11938D01*
Y11062D01*
X350982Y10254D01*
X351601Y9635D01*
X352409Y9300D01*
X353284D01*
X354093Y9635D01*
X354712Y10254D01*
X355047Y11062D01*
Y11938D01*
X354712Y12746D01*
X354093Y13365D01*
X353284Y13700D01*
D02*
G37*
G36*
X514938Y13200D02*
X514062D01*
X513254Y12865D01*
X512635Y12246D01*
X512300Y11438D01*
Y10562D01*
X512635Y9754D01*
X513254Y9135D01*
X514062Y8800D01*
X514938D01*
X515746Y9135D01*
X516365Y9754D01*
X516700Y10562D01*
Y11438D01*
X516365Y12246D01*
X515746Y12865D01*
X514938Y13200D01*
D02*
G37*
G36*
X491938D02*
X491062D01*
X490254Y12865D01*
X489635Y12246D01*
X489300Y11438D01*
Y10562D01*
X489635Y9754D01*
X490254Y9135D01*
X491062Y8800D01*
X491938D01*
X492746Y9135D01*
X493365Y9754D01*
X493700Y10562D01*
Y11438D01*
X493365Y12246D01*
X492746Y12865D01*
X491938Y13200D01*
D02*
G37*
G36*
X59289Y11791D02*
X58414D01*
X57606Y11456D01*
X56987Y10837D01*
X56652Y10029D01*
Y9153D01*
X56987Y8345D01*
X57606Y7726D01*
X58414Y7391D01*
X59289D01*
X60098Y7726D01*
X60717Y8345D01*
X61052Y9153D01*
Y10029D01*
X60717Y10837D01*
X60098Y11456D01*
X59289Y11791D01*
D02*
G37*
G36*
X245938Y11700D02*
X245062D01*
X244254Y11365D01*
X243635Y10746D01*
X243300Y9938D01*
Y9062D01*
X243635Y8254D01*
X244254Y7635D01*
X245062Y7300D01*
X245938D01*
X246746Y7635D01*
X247365Y8254D01*
X247700Y9062D01*
Y9938D01*
X247365Y10746D01*
X246746Y11365D01*
X245938Y11700D01*
D02*
G37*
G36*
X200115Y13968D02*
X199240D01*
X198431Y13633D01*
X197812Y13015D01*
X197477Y12206D01*
Y11331D01*
X197812Y10522D01*
X198431Y9903D01*
X199240Y9568D01*
X199553D01*
X199800Y9198D01*
Y8323D01*
X200135Y7514D01*
X200754Y6896D01*
X201562Y6561D01*
X202438D01*
X203246Y6896D01*
X203865Y7514D01*
X204200Y8323D01*
Y9198D01*
X203865Y10007D01*
X203246Y10626D01*
X202438Y10961D01*
X202125D01*
X201877Y11331D01*
Y12206D01*
X201543Y13015D01*
X200924Y13633D01*
X200115Y13968D01*
D02*
G37*
G36*
X209438Y10700D02*
X208562D01*
X207754Y10365D01*
X207135Y9746D01*
X206800Y8938D01*
Y8062D01*
X207135Y7254D01*
X207754Y6635D01*
X208562Y6300D01*
X209438D01*
X210246Y6635D01*
X210865Y7254D01*
X211200Y8062D01*
Y8938D01*
X210865Y9746D01*
X210246Y10365D01*
X209438Y10700D01*
D02*
G37*
G36*
X193040Y14100D02*
X191960D01*
X190918Y13821D01*
X189982Y13281D01*
X189219Y12517D01*
X188679Y11582D01*
X188400Y10540D01*
Y9460D01*
X188679Y8417D01*
X189219Y7482D01*
X189982Y6719D01*
X190918Y6179D01*
X191960Y5900D01*
X193040D01*
X194082Y6179D01*
X195018Y6719D01*
X195781Y7482D01*
X196321Y8417D01*
X196600Y9460D01*
Y10540D01*
X196321Y11582D01*
X195781Y12517D01*
X195018Y13281D01*
X194082Y13821D01*
X193040Y14100D01*
D02*
G37*
G36*
X253938Y10185D02*
X253062D01*
X252254Y9850D01*
X251635Y9231D01*
X251300Y8423D01*
Y7547D01*
X251635Y6739D01*
X252254Y6120D01*
X253062Y5785D01*
X253938D01*
X254746Y6120D01*
X255365Y6739D01*
X255700Y7547D01*
Y8423D01*
X255365Y9231D01*
X254746Y9850D01*
X253938Y10185D01*
D02*
G37*
G36*
X747977Y13600D02*
X746898D01*
X745855Y13321D01*
X744920Y12781D01*
X744157Y12017D01*
X743617Y11083D01*
X743337Y10040D01*
Y8960D01*
X743617Y7918D01*
X744157Y6983D01*
X744920Y6219D01*
X745855Y5679D01*
X746898Y5400D01*
X747977D01*
X749020Y5679D01*
X749955Y6219D01*
X750718Y6983D01*
X751258Y7918D01*
X751538Y8960D01*
Y10040D01*
X751258Y11083D01*
X750718Y12017D01*
X749955Y12781D01*
X749020Y13321D01*
X747977Y13600D01*
D02*
G37*
G36*
X736290D02*
X735210D01*
X734167Y13321D01*
X733232Y12781D01*
X732469Y12017D01*
X731929Y11083D01*
X731650Y10040D01*
Y8960D01*
X731929Y7918D01*
X732469Y6983D01*
X733232Y6219D01*
X734167Y5679D01*
X735210Y5400D01*
X736290D01*
X737332Y5679D01*
X738268Y6219D01*
X739031Y6983D01*
X739571Y7918D01*
X739850Y8960D01*
Y10040D01*
X739571Y11083D01*
X739031Y12017D01*
X738268Y12781D01*
X737332Y13321D01*
X736290Y13600D01*
D02*
G37*
G36*
X724602D02*
X723523D01*
X722480Y13321D01*
X721545Y12781D01*
X720782Y12017D01*
X720242Y11083D01*
X719963Y10040D01*
Y8960D01*
X720242Y7918D01*
X720782Y6983D01*
X721545Y6219D01*
X722480Y5679D01*
X723523Y5400D01*
X724602D01*
X725645Y5679D01*
X726580Y6219D01*
X727343Y6983D01*
X727883Y7918D01*
X728162Y8960D01*
Y10040D01*
X727883Y11083D01*
X727343Y12017D01*
X726580Y12781D01*
X725645Y13321D01*
X724602Y13600D01*
D02*
G37*
G36*
X712915D02*
X711835D01*
X710792Y13321D01*
X709858Y12781D01*
X709094Y12017D01*
X708554Y11083D01*
X708275Y10040D01*
Y8960D01*
X708554Y7918D01*
X709094Y6983D01*
X709858Y6219D01*
X710792Y5679D01*
X711835Y5400D01*
X712915D01*
X713958Y5679D01*
X714892Y6219D01*
X715656Y6983D01*
X716196Y7918D01*
X716475Y8960D01*
Y10040D01*
X716196Y11083D01*
X715656Y12017D01*
X714892Y12781D01*
X713958Y13321D01*
X712915Y13600D01*
D02*
G37*
G36*
X701227D02*
X700148D01*
X699105Y13321D01*
X698170Y12781D01*
X697407Y12017D01*
X696867Y11083D01*
X696588Y10040D01*
Y8960D01*
X696867Y7918D01*
X697407Y6983D01*
X698170Y6219D01*
X699105Y5679D01*
X700148Y5400D01*
X701227D01*
X702270Y5679D01*
X703205Y6219D01*
X703968Y6983D01*
X704508Y7918D01*
X704787Y8960D01*
Y10040D01*
X704508Y11083D01*
X703968Y12017D01*
X703205Y12781D01*
X702270Y13321D01*
X701227Y13600D01*
D02*
G37*
G36*
X689540D02*
X688460D01*
X687418Y13321D01*
X686482Y12781D01*
X685719Y12017D01*
X685179Y11083D01*
X684900Y10040D01*
Y8960D01*
X685179Y7918D01*
X685719Y6983D01*
X686482Y6219D01*
X687418Y5679D01*
X688460Y5400D01*
X689540D01*
X690583Y5679D01*
X691517Y6219D01*
X692281Y6983D01*
X692821Y7918D01*
X693100Y8960D01*
Y10040D01*
X692821Y11083D01*
X692281Y12017D01*
X691517Y12781D01*
X690583Y13321D01*
X689540Y13600D01*
D02*
G37*
G36*
X676540D02*
X675460D01*
X674417Y13321D01*
X673483Y12781D01*
X672719Y12017D01*
X672179Y11083D01*
X671900Y10040D01*
Y8960D01*
X672179Y7918D01*
X672719Y6983D01*
X673483Y6219D01*
X674417Y5679D01*
X675460Y5400D01*
X676540D01*
X677583Y5679D01*
X678517Y6219D01*
X679281Y6983D01*
X679821Y7918D01*
X680100Y8960D01*
Y10040D01*
X679821Y11083D01*
X679281Y12017D01*
X678517Y12781D01*
X677583Y13321D01*
X676540Y13600D01*
D02*
G37*
G36*
X663040Y13100D02*
X661960D01*
X660918Y12821D01*
X659982Y12281D01*
X659219Y11518D01*
X658679Y10582D01*
X658400Y9540D01*
Y8460D01*
X658679Y7418D01*
X659219Y6482D01*
X659982Y5719D01*
X660918Y5179D01*
X661960Y4900D01*
X663040D01*
X664082Y5179D01*
X665018Y5719D01*
X665781Y6482D01*
X666321Y7418D01*
X666600Y8460D01*
Y9540D01*
X666321Y10582D01*
X665781Y11518D01*
X665018Y12281D01*
X664082Y12821D01*
X663040Y13100D01*
D02*
G37*
G36*
X651540D02*
X650460D01*
X649417Y12821D01*
X648483Y12281D01*
X647719Y11518D01*
X647179Y10582D01*
X646900Y9540D01*
Y8460D01*
X647179Y7418D01*
X647719Y6482D01*
X648483Y5719D01*
X649417Y5179D01*
X650460Y4900D01*
X651540D01*
X652583Y5179D01*
X653517Y5719D01*
X654281Y6482D01*
X654821Y7418D01*
X655100Y8460D01*
Y9540D01*
X654821Y10582D01*
X654281Y11518D01*
X653517Y12281D01*
X652583Y12821D01*
X651540Y13100D01*
D02*
G37*
G36*
X85938Y9200D02*
X85062D01*
X84254Y8865D01*
X83635Y8246D01*
X83300Y7438D01*
Y6562D01*
X83635Y5754D01*
X84254Y5135D01*
X85062Y4800D01*
X85938D01*
X86746Y5135D01*
X87365Y5754D01*
X87700Y6562D01*
Y7438D01*
X87365Y8246D01*
X86746Y8865D01*
X85938Y9200D01*
D02*
G37*
G36*
X640040Y12600D02*
X638960D01*
X637918Y12321D01*
X636982Y11781D01*
X636219Y11017D01*
X635679Y10082D01*
X635400Y9040D01*
Y7960D01*
X635679Y6917D01*
X636219Y5982D01*
X636982Y5219D01*
X637918Y4679D01*
X638960Y4400D01*
X640040D01*
X641082Y4679D01*
X642018Y5219D01*
X642781Y5982D01*
X643321Y6917D01*
X643600Y7960D01*
Y9040D01*
X643321Y10082D01*
X642781Y11017D01*
X642018Y11781D01*
X641082Y12321D01*
X640040Y12600D01*
D02*
G37*
G36*
X104438Y8700D02*
X103562D01*
X102754Y8365D01*
X102135Y7746D01*
X101800Y6938D01*
Y6062D01*
X102135Y5254D01*
X102754Y4635D01*
X103562Y4300D01*
X104438D01*
X105246Y4635D01*
X105865Y5254D01*
X106200Y6062D01*
Y6938D01*
X105865Y7746D01*
X105246Y8365D01*
X104438Y8700D01*
D02*
G37*
G36*
X549938Y11200D02*
X549062D01*
X548254Y10865D01*
X547635Y10246D01*
X547300Y9438D01*
Y8562D01*
X547108Y8275D01*
X546637D01*
X545828Y7940D01*
X545210Y7321D01*
X544875Y6512D01*
Y5637D01*
X545210Y4828D01*
X545828Y4210D01*
X546637Y3875D01*
X547512D01*
X548321Y4210D01*
X548940Y4828D01*
X549275Y5637D01*
Y6512D01*
X549467Y6800D01*
X549938D01*
X550746Y7135D01*
X551365Y7754D01*
X551700Y8562D01*
Y9438D01*
X551365Y10246D01*
X550746Y10865D01*
X549938Y11200D01*
D02*
G37*
G36*
X566438Y8200D02*
X565562D01*
X564754Y7865D01*
X564135Y7246D01*
X563800Y6438D01*
Y5562D01*
X564135Y4754D01*
X564754Y4135D01*
X565562Y3800D01*
X566438D01*
X567246Y4135D01*
X567865Y4754D01*
X568200Y5562D01*
Y6438D01*
X567865Y7246D01*
X567246Y7865D01*
X566438Y8200D01*
D02*
G37*
G36*
X496438Y7200D02*
X495562D01*
X494754Y6865D01*
X494135Y6246D01*
X493800Y5438D01*
Y4562D01*
X494135Y3754D01*
X494754Y3135D01*
X495562Y2800D01*
X496438D01*
X497246Y3135D01*
X497865Y3754D01*
X498200Y4562D01*
Y5438D01*
X497865Y6246D01*
X497246Y6865D01*
X496438Y7200D01*
D02*
G37*
G36*
X424438D02*
X423562D01*
X422754Y6865D01*
X422135Y6246D01*
X421800Y5438D01*
Y4562D01*
X422135Y3754D01*
X422754Y3135D01*
X423562Y2800D01*
X424438D01*
X425246Y3135D01*
X425865Y3754D01*
X426200Y4562D01*
Y5438D01*
X425865Y6246D01*
X425246Y6865D01*
X424438Y7200D01*
D02*
G37*
G36*
X369622Y7104D02*
X368747D01*
X367938Y6769D01*
X367319Y6150D01*
X366984Y5342D01*
Y4467D01*
X367319Y3658D01*
X367938Y3039D01*
X368747Y2704D01*
X369622D01*
X370430Y3039D01*
X371049Y3658D01*
X371384Y4467D01*
Y5342D01*
X371049Y6150D01*
X370430Y6769D01*
X369622Y7104D01*
D02*
G37*
G36*
X344388Y4750D02*
X343513D01*
X342704Y4415D01*
X342085Y3796D01*
X341750Y2987D01*
Y2112D01*
X342085Y1304D01*
X342704Y685D01*
X343513Y350D01*
X344388D01*
X345196Y685D01*
X345815Y1304D01*
X346150Y2112D01*
Y2987D01*
X345815Y3796D01*
X345196Y4415D01*
X344388Y4750D01*
D02*
G37*
G36*
X108837Y4578D02*
X107962D01*
X107154Y4243D01*
X106535Y3624D01*
X106200Y2816D01*
Y1940D01*
X106535Y1132D01*
X107154Y513D01*
X107962Y178D01*
X108837D01*
X109646Y513D01*
X110265Y1132D01*
X110600Y1940D01*
Y2816D01*
X110265Y3624D01*
X109646Y4243D01*
X108837Y4578D01*
D02*
G37*
G36*
X491438Y4200D02*
X490562D01*
X489754Y3865D01*
X489135Y3246D01*
X488800Y2438D01*
Y1562D01*
X489135Y754D01*
X489754Y135D01*
X490562Y-200D01*
X491438D01*
X492246Y135D01*
X492865Y754D01*
X493200Y1562D01*
Y2438D01*
X492865Y3246D01*
X492246Y3865D01*
X491438Y4200D01*
D02*
G37*
G36*
X284438D02*
X283562D01*
X282754Y3865D01*
X282135Y3246D01*
X281800Y2438D01*
Y1562D01*
X282135Y754D01*
X282754Y135D01*
X283562Y-200D01*
X284438D01*
X285246Y135D01*
X285865Y754D01*
X286200Y1562D01*
Y2438D01*
X285865Y3246D01*
X285246Y3865D01*
X284438Y4200D01*
D02*
G37*
G36*
X264438Y3700D02*
X263562D01*
X262754Y3365D01*
X262135Y2746D01*
X261800Y1938D01*
Y1062D01*
X262135Y254D01*
X262754Y-365D01*
X263562Y-700D01*
X264438D01*
X265246Y-365D01*
X265865Y254D01*
X266200Y1062D01*
Y1938D01*
X265865Y2746D01*
X265246Y3365D01*
X264438Y3700D01*
D02*
G37*
G36*
X257438D02*
X256562D01*
X255754Y3365D01*
X255135Y2746D01*
X254800Y1938D01*
Y1062D01*
X255135Y254D01*
X255754Y-365D01*
X256562Y-700D01*
X257438D01*
X258246Y-365D01*
X258865Y254D01*
X259200Y1062D01*
Y1938D01*
X258865Y2746D01*
X258246Y3365D01*
X257438Y3700D01*
D02*
G37*
G36*
X511438Y2700D02*
X510562D01*
X509754Y2365D01*
X509135Y1746D01*
X508800Y938D01*
Y62D01*
X509135Y-746D01*
X509754Y-1365D01*
X510562Y-1700D01*
X511438D01*
X512246Y-1365D01*
X512865Y-746D01*
X513200Y62D01*
Y938D01*
X512865Y1746D01*
X512246Y2365D01*
X511438Y2700D01*
D02*
G37*
G36*
X187580Y4969D02*
X186705D01*
X185896Y4634D01*
X185277Y4015D01*
X184942Y3207D01*
Y2700D01*
X184562D01*
X183754Y2365D01*
X183135Y1746D01*
X182800Y938D01*
Y62D01*
X183135Y-746D01*
X183754Y-1365D01*
X184562Y-1700D01*
X185438D01*
X186246Y-1365D01*
X186865Y-746D01*
X187200Y62D01*
Y569D01*
X187580D01*
X188389Y904D01*
X189008Y1523D01*
X189342Y2332D01*
Y3207D01*
X189008Y4015D01*
X188389Y4634D01*
X187580Y4969D01*
D02*
G37*
G36*
X412938Y2563D02*
X412062D01*
X411254Y2228D01*
X410635Y1609D01*
X410300Y800D01*
Y-75D01*
X410635Y-883D01*
X411254Y-1502D01*
X412062Y-1837D01*
X412938D01*
X413746Y-1502D01*
X414365Y-883D01*
X414700Y-75D01*
Y800D01*
X414365Y1609D01*
X413746Y2228D01*
X412938Y2563D01*
D02*
G37*
G36*
X248540Y4600D02*
X247460D01*
X246417Y4321D01*
X245482Y3781D01*
X244719Y3018D01*
X244179Y2083D01*
X243900Y1040D01*
Y-40D01*
X244179Y-1082D01*
X244719Y-2018D01*
X245482Y-2781D01*
X246417Y-3321D01*
X247460Y-3600D01*
X248540D01*
X249583Y-3321D01*
X250518Y-2781D01*
X251281Y-2018D01*
X251821Y-1082D01*
X252100Y-40D01*
Y1040D01*
X251821Y2083D01*
X251281Y3018D01*
X250518Y3781D01*
X249583Y4321D01*
X248540Y4600D01*
D02*
G37*
G36*
X585753Y-800D02*
X584878D01*
X584070Y-1135D01*
X583451Y-1754D01*
X583116Y-2562D01*
Y-3438D01*
X583451Y-4246D01*
X584070Y-4865D01*
X584878Y-5200D01*
X585753D01*
X586562Y-4865D01*
X587181Y-4246D01*
X587516Y-3438D01*
Y-2562D01*
X587181Y-1754D01*
X586562Y-1135D01*
X585753Y-800D01*
D02*
G37*
G36*
X117938Y-1384D02*
X117062D01*
X116254Y-1719D01*
X115635Y-2338D01*
X115300Y-3146D01*
Y-4022D01*
X115635Y-4830D01*
X116254Y-5449D01*
X117062Y-5784D01*
X117938D01*
X118746Y-5449D01*
X119365Y-4830D01*
X119700Y-4022D01*
Y-3146D01*
X119365Y-2338D01*
X118746Y-1719D01*
X117938Y-1384D01*
D02*
G37*
G36*
X140551Y-1927D02*
X139675D01*
X138867Y-2262D01*
X138248Y-2881D01*
X137913Y-3689D01*
Y-4564D01*
X138248Y-5373D01*
X138867Y-5992D01*
X139675Y-6327D01*
X140551D01*
X141359Y-5992D01*
X141978Y-5373D01*
X142313Y-4564D01*
Y-3689D01*
X141978Y-2881D01*
X141359Y-2262D01*
X140551Y-1927D01*
D02*
G37*
G36*
X775675Y6850D02*
X774325D01*
X773002Y6587D01*
X771755Y6070D01*
X770633Y5321D01*
X769679Y4367D01*
X768930Y3245D01*
X768413Y1998D01*
X768150Y675D01*
Y-675D01*
X768413Y-1998D01*
X768930Y-3245D01*
X769679Y-4367D01*
X770633Y-5321D01*
X771755Y-6070D01*
X773002Y-6587D01*
X774325Y-6850D01*
X775675D01*
X776998Y-6587D01*
X778245Y-6070D01*
X779367Y-5321D01*
X780321Y-4367D01*
X781070Y-3245D01*
X781587Y-1998D01*
X781850Y-675D01*
Y675D01*
X781587Y1998D01*
X781070Y3245D01*
X780321Y4367D01*
X779367Y5321D01*
X778245Y6070D01*
X776998Y6587D01*
X775675Y6850D01*
D02*
G37*
G36*
X465675D02*
X464325D01*
X463002Y6587D01*
X461755Y6070D01*
X460633Y5321D01*
X459679Y4367D01*
X458930Y3245D01*
X458413Y1998D01*
X458150Y675D01*
Y-675D01*
X458413Y-1998D01*
X458930Y-3245D01*
X459679Y-4367D01*
X460633Y-5321D01*
X461755Y-6070D01*
X463002Y-6587D01*
X464325Y-6850D01*
X465675D01*
X466998Y-6587D01*
X468245Y-6070D01*
X469367Y-5321D01*
X470321Y-4367D01*
X471070Y-3245D01*
X471587Y-1998D01*
X471850Y-675D01*
Y675D01*
X471587Y1998D01*
X471070Y3245D01*
X470321Y4367D01*
X469367Y5321D01*
X468245Y6070D01*
X466998Y6587D01*
X465675Y6850D01*
D02*
G37*
G36*
X310675D02*
X309325D01*
X308002Y6587D01*
X306755Y6070D01*
X305633Y5321D01*
X304679Y4367D01*
X303930Y3245D01*
X303413Y1998D01*
X303150Y675D01*
Y-675D01*
X303413Y-1998D01*
X303930Y-3245D01*
X304679Y-4367D01*
X305633Y-5321D01*
X306755Y-6070D01*
X308002Y-6587D01*
X309325Y-6850D01*
X310675D01*
X311998Y-6587D01*
X313245Y-6070D01*
X314367Y-5321D01*
X315321Y-4367D01*
X316070Y-3245D01*
X316587Y-1998D01*
X316850Y-675D01*
Y675D01*
X316587Y1998D01*
X316070Y3245D01*
X315321Y4367D01*
X314367Y5321D01*
X313245Y6070D01*
X311998Y6587D01*
X310675Y6850D01*
D02*
G37*
G36*
X155675D02*
X154325D01*
X153002Y6587D01*
X151755Y6070D01*
X150633Y5321D01*
X149679Y4367D01*
X148930Y3245D01*
X148413Y1998D01*
X148150Y675D01*
Y-675D01*
X148413Y-1998D01*
X148930Y-3245D01*
X149679Y-4367D01*
X150633Y-5321D01*
X151755Y-6070D01*
X153002Y-6587D01*
X154325Y-6850D01*
X155675D01*
X156998Y-6587D01*
X158245Y-6070D01*
X159367Y-5321D01*
X160321Y-4367D01*
X161070Y-3245D01*
X161587Y-1998D01*
X161850Y-675D01*
Y675D01*
X161587Y1998D01*
X161070Y3245D01*
X160321Y4367D01*
X159367Y5321D01*
X158245Y6070D01*
X156998Y6587D01*
X155675Y6850D01*
D02*
G37*
G36*
X675D02*
X-675D01*
X-1998Y6587D01*
X-3245Y6070D01*
X-4367Y5321D01*
X-5321Y4367D01*
X-6070Y3245D01*
X-6587Y1998D01*
X-6850Y675D01*
Y-675D01*
X-6587Y-1998D01*
X-6070Y-3245D01*
X-5321Y-4367D01*
X-4367Y-5321D01*
X-3245Y-6070D01*
X-1998Y-6587D01*
X-675Y-6850D01*
X675D01*
X1998Y-6587D01*
X3245Y-6070D01*
X4367Y-5321D01*
X5321Y-4367D01*
X6070Y-3245D01*
X6587Y-1998D01*
X6850Y-675D01*
Y675D01*
X6587Y1998D01*
X6070Y3245D01*
X5321Y4367D01*
X4367Y5321D01*
X3245Y6070D01*
X1998Y6587D01*
X675Y6850D01*
D02*
G37*
G36*
X419438Y-300D02*
X418562D01*
X417754Y-635D01*
X417135Y-1254D01*
X416800Y-2062D01*
Y-2938D01*
X417135Y-3746D01*
X417754Y-4365D01*
X418562Y-4700D01*
X419438D01*
X419806Y-4547D01*
X420300Y-4884D01*
Y-5438D01*
X420635Y-6246D01*
X421254Y-6865D01*
X422062Y-7200D01*
X422938D01*
X423746Y-6865D01*
X424365Y-6246D01*
X424700Y-5438D01*
Y-4562D01*
X424365Y-3754D01*
X423746Y-3135D01*
X422938Y-2800D01*
X422062D01*
X421694Y-2953D01*
X421200Y-2616D01*
Y-2062D01*
X420865Y-1254D01*
X420246Y-635D01*
X419438Y-300D01*
D02*
G37*
G36*
X620675Y6350D02*
X619325D01*
X618002Y6087D01*
X616755Y5570D01*
X615633Y4821D01*
X614679Y3867D01*
X613930Y2745D01*
X613413Y1498D01*
X613150Y175D01*
Y-1175D01*
X613413Y-2498D01*
X613930Y-3745D01*
X614679Y-4867D01*
X615633Y-5821D01*
X616755Y-6570D01*
X618002Y-7087D01*
X619325Y-7350D01*
X620675D01*
X621998Y-7087D01*
X623245Y-6570D01*
X624367Y-5821D01*
X625321Y-4867D01*
X626070Y-3745D01*
X626587Y-2498D01*
X626850Y-1175D01*
Y175D01*
X626587Y1498D01*
X626070Y2745D01*
X625321Y3867D01*
X624367Y4821D01*
X623245Y5570D01*
X621998Y6087D01*
X620675Y6350D01*
D02*
G37*
G36*
X111938Y-3500D02*
X111062D01*
X110254Y-3835D01*
X109635Y-4454D01*
X109300Y-5262D01*
Y-6138D01*
X109635Y-6946D01*
X110254Y-7565D01*
X111062Y-7900D01*
X111938D01*
X112746Y-7565D01*
X113365Y-6946D01*
X113700Y-6138D01*
Y-5262D01*
X113365Y-4454D01*
X112746Y-3835D01*
X111938Y-3500D01*
D02*
G37*
G36*
X747905Y-1950D02*
X746970D01*
X746067Y-2192D01*
X745258Y-2659D01*
X744597Y-3320D01*
X744129Y-4130D01*
X743888Y-5033D01*
Y-5967D01*
X744129Y-6870D01*
X744597Y-7680D01*
X745258Y-8341D01*
X746067Y-8808D01*
X746970Y-9050D01*
X747905D01*
X748808Y-8808D01*
X749617Y-8341D01*
X750278Y-7680D01*
X750746Y-6870D01*
X750987Y-5967D01*
Y-5033D01*
X750746Y-4130D01*
X750278Y-3320D01*
X749617Y-2659D01*
X748808Y-2192D01*
X747905Y-1950D01*
D02*
G37*
G36*
X736217D02*
X735283D01*
X734380Y-2192D01*
X733570Y-2659D01*
X732909Y-3320D01*
X732442Y-4130D01*
X732200Y-5033D01*
Y-5967D01*
X732442Y-6870D01*
X732909Y-7680D01*
X733570Y-8341D01*
X734380Y-8808D01*
X735283Y-9050D01*
X736217D01*
X737120Y-8808D01*
X737930Y-8341D01*
X738591Y-7680D01*
X739058Y-6870D01*
X739300Y-5967D01*
Y-5033D01*
X739058Y-4130D01*
X738591Y-3320D01*
X737930Y-2659D01*
X737120Y-2192D01*
X736217Y-1950D01*
D02*
G37*
G36*
X724530D02*
X723595D01*
X722692Y-2192D01*
X721883Y-2659D01*
X721222Y-3320D01*
X720754Y-4130D01*
X720512Y-5033D01*
Y-5967D01*
X720754Y-6870D01*
X721222Y-7680D01*
X721883Y-8341D01*
X722692Y-8808D01*
X723595Y-9050D01*
X724530D01*
X725433Y-8808D01*
X726242Y-8341D01*
X726903Y-7680D01*
X727371Y-6870D01*
X727612Y-5967D01*
Y-5033D01*
X727371Y-4130D01*
X726903Y-3320D01*
X726242Y-2659D01*
X725433Y-2192D01*
X724530Y-1950D01*
D02*
G37*
G36*
X712842D02*
X711908D01*
X711005Y-2192D01*
X710195Y-2659D01*
X709534Y-3320D01*
X709067Y-4130D01*
X708825Y-5033D01*
Y-5967D01*
X709067Y-6870D01*
X709534Y-7680D01*
X710195Y-8341D01*
X711005Y-8808D01*
X711908Y-9050D01*
X712842D01*
X713745Y-8808D01*
X714555Y-8341D01*
X715216Y-7680D01*
X715683Y-6870D01*
X715925Y-5967D01*
Y-5033D01*
X715683Y-4130D01*
X715216Y-3320D01*
X714555Y-2659D01*
X713745Y-2192D01*
X712842Y-1950D01*
D02*
G37*
G36*
X701155D02*
X700220D01*
X699317Y-2192D01*
X698508Y-2659D01*
X697847Y-3320D01*
X697379Y-4130D01*
X697137Y-5033D01*
Y-5967D01*
X697379Y-6870D01*
X697847Y-7680D01*
X698508Y-8341D01*
X699317Y-8808D01*
X700220Y-9050D01*
X701155D01*
X702058Y-8808D01*
X702867Y-8341D01*
X703528Y-7680D01*
X703996Y-6870D01*
X704238Y-5967D01*
Y-5033D01*
X703996Y-4130D01*
X703528Y-3320D01*
X702867Y-2659D01*
X702058Y-2192D01*
X701155Y-1950D01*
D02*
G37*
G36*
X689467D02*
X688533D01*
X687630Y-2192D01*
X686820Y-2659D01*
X686159Y-3320D01*
X685692Y-4130D01*
X685450Y-5033D01*
Y-5967D01*
X685692Y-6870D01*
X686159Y-7680D01*
X686820Y-8341D01*
X687630Y-8808D01*
X688533Y-9050D01*
X689467D01*
X690370Y-8808D01*
X691180Y-8341D01*
X691841Y-7680D01*
X692308Y-6870D01*
X692550Y-5967D01*
Y-5033D01*
X692308Y-4130D01*
X691841Y-3320D01*
X691180Y-2659D01*
X690370Y-2192D01*
X689467Y-1950D01*
D02*
G37*
G36*
X676467D02*
X675533D01*
X674630Y-2192D01*
X673820Y-2659D01*
X673159Y-3320D01*
X672692Y-4130D01*
X672450Y-5033D01*
Y-5967D01*
X672692Y-6870D01*
X673159Y-7680D01*
X673820Y-8341D01*
X674630Y-8808D01*
X675533Y-9050D01*
X676467D01*
X677370Y-8808D01*
X678180Y-8341D01*
X678841Y-7680D01*
X679308Y-6870D01*
X679550Y-5967D01*
Y-5033D01*
X679308Y-4130D01*
X678841Y-3320D01*
X678180Y-2659D01*
X677370Y-2192D01*
X676467Y-1950D01*
D02*
G37*
G36*
X408153Y-4453D02*
X407278D01*
X406470Y-4788D01*
X405851Y-5407D01*
X405516Y-6216D01*
Y-7091D01*
X405851Y-7900D01*
X406470Y-8518D01*
X407278Y-8853D01*
X408153D01*
X408962Y-8518D01*
X409164Y-8316D01*
X409788Y-8399D01*
X410254Y-8865D01*
X411062Y-9200D01*
X411938D01*
X412746Y-8865D01*
X413365Y-8246D01*
X413700Y-7438D01*
Y-6562D01*
X413365Y-5754D01*
X412746Y-5135D01*
X411938Y-4800D01*
X411062D01*
X410254Y-5135D01*
X410052Y-5337D01*
X409428Y-5254D01*
X408962Y-4788D01*
X408153Y-4453D01*
D02*
G37*
G36*
X394938Y-4809D02*
X394062D01*
X393254Y-5144D01*
X392635Y-5762D01*
X392300Y-6571D01*
Y-7446D01*
X392635Y-8255D01*
X393254Y-8874D01*
X394062Y-9209D01*
X394938D01*
X395746Y-8874D01*
X396365Y-8255D01*
X396700Y-7446D01*
Y-6571D01*
X396365Y-5762D01*
X395746Y-5144D01*
X394938Y-4809D01*
D02*
G37*
G36*
X662967Y-2450D02*
X662033D01*
X661130Y-2692D01*
X660320Y-3159D01*
X659659Y-3820D01*
X659192Y-4630D01*
X658950Y-5533D01*
Y-6467D01*
X659192Y-7370D01*
X659659Y-8180D01*
X660320Y-8841D01*
X661130Y-9308D01*
X662033Y-9550D01*
X662967D01*
X663870Y-9308D01*
X664680Y-8841D01*
X665341Y-8180D01*
X665808Y-7370D01*
X666050Y-6467D01*
Y-5533D01*
X665808Y-4630D01*
X665341Y-3820D01*
X664680Y-3159D01*
X663870Y-2692D01*
X662967Y-2450D01*
D02*
G37*
G36*
X651467D02*
X650533D01*
X649630Y-2692D01*
X648820Y-3159D01*
X648159Y-3820D01*
X647692Y-4630D01*
X647450Y-5533D01*
Y-6467D01*
X647692Y-7370D01*
X648159Y-8180D01*
X648820Y-8841D01*
X649630Y-9308D01*
X650533Y-9550D01*
X651467D01*
X652370Y-9308D01*
X653180Y-8841D01*
X653841Y-8180D01*
X654308Y-7370D01*
X654550Y-6467D01*
Y-5533D01*
X654308Y-4630D01*
X653841Y-3820D01*
X653180Y-3159D01*
X652370Y-2692D01*
X651467Y-2450D01*
D02*
G37*
G36*
X344438Y-5300D02*
X343562D01*
X342754Y-5635D01*
X342135Y-6254D01*
X341800Y-7062D01*
Y-7938D01*
X342135Y-8746D01*
X342754Y-9365D01*
X343562Y-9700D01*
X344438D01*
X345246Y-9365D01*
X345865Y-8746D01*
X346200Y-7938D01*
Y-7062D01*
X345865Y-6254D01*
X345246Y-5635D01*
X344438Y-5300D01*
D02*
G37*
G36*
X291438D02*
X290562D01*
X289754Y-5635D01*
X289135Y-6254D01*
X288800Y-7062D01*
Y-7938D01*
X289135Y-8746D01*
X289754Y-9365D01*
X290562Y-9700D01*
X291438D01*
X292246Y-9365D01*
X292865Y-8746D01*
X293200Y-7938D01*
Y-7062D01*
X292865Y-6254D01*
X292246Y-5635D01*
X291438Y-5300D01*
D02*
G37*
G36*
X639967Y-2950D02*
X639033D01*
X638130Y-3192D01*
X637320Y-3659D01*
X636659Y-4320D01*
X636192Y-5130D01*
X635950Y-6033D01*
Y-6967D01*
X636192Y-7870D01*
X636659Y-8680D01*
X637320Y-9341D01*
X638130Y-9808D01*
X639033Y-10050D01*
X639967D01*
X640870Y-9808D01*
X641680Y-9341D01*
X642341Y-8680D01*
X642808Y-7870D01*
X643050Y-6967D01*
Y-6033D01*
X642808Y-5130D01*
X642341Y-4320D01*
X641680Y-3659D01*
X640870Y-3192D01*
X639967Y-2950D01*
D02*
G37*
G36*
X600967D02*
X600033D01*
X599130Y-3192D01*
X598320Y-3659D01*
X597659Y-4320D01*
X597192Y-5130D01*
X596950Y-6033D01*
Y-6967D01*
X597192Y-7870D01*
X597659Y-8680D01*
X598320Y-9341D01*
X599130Y-9808D01*
X600033Y-10050D01*
X600967D01*
X601870Y-9808D01*
X602680Y-9341D01*
X603341Y-8680D01*
X603808Y-7870D01*
X604050Y-6967D01*
Y-6033D01*
X603808Y-5130D01*
X603341Y-4320D01*
X602680Y-3659D01*
X601870Y-3192D01*
X600967Y-2950D01*
D02*
G37*
G36*
X172438Y-5800D02*
X171562D01*
X170754Y-6135D01*
X170135Y-6754D01*
X169800Y-7562D01*
Y-8438D01*
X170135Y-9246D01*
X170754Y-9865D01*
X171562Y-10200D01*
X172438D01*
X173246Y-9865D01*
X173865Y-9246D01*
X174200Y-8438D01*
Y-7562D01*
X173865Y-6754D01*
X173246Y-6135D01*
X172438Y-5800D01*
D02*
G37*
%LPD*%
D116*
X9500Y27252D02*
D03*
Y98748D02*
D03*
D117*
X14500Y48000D02*
D03*
Y53000D02*
D03*
Y58000D02*
D03*
Y63000D02*
D03*
Y68000D02*
D03*
Y73000D02*
D03*
Y78000D02*
D03*
X24500Y45500D02*
D03*
Y50500D02*
D03*
Y55500D02*
D03*
Y60500D02*
D03*
Y65500D02*
D03*
Y70500D02*
D03*
Y75500D02*
D03*
Y80500D02*
D03*
D118*
X137000Y75000D02*
D03*
X421000Y64000D02*
D03*
D119*
X113500Y106000D02*
D03*
Y59500D02*
D03*
X618000Y42500D02*
D03*
Y52500D02*
D03*
Y62500D02*
D03*
Y72500D02*
D03*
Y82500D02*
D03*
X648000D02*
D03*
Y72500D02*
D03*
Y62500D02*
D03*
Y52500D02*
D03*
Y42500D02*
D03*
X759000Y102000D02*
D03*
Y89875D02*
D03*
X755500Y115000D02*
D03*
X732600D02*
D03*
X744050D02*
D03*
X759000Y65625D02*
D03*
Y77750D02*
D03*
X327000Y-7500D02*
D03*
X161500Y18500D02*
D03*
X192500Y10000D02*
D03*
X566500Y73500D02*
D03*
X497500Y78500D02*
D03*
X554500Y31500D02*
D03*
X473000Y85000D02*
D03*
X206500Y102000D02*
D03*
X248000Y500D02*
D03*
X194500Y94500D02*
D03*
X197000Y60000D02*
D03*
X709700Y115000D02*
D03*
X639500Y8500D02*
D03*
X651000Y9000D02*
D03*
X600500Y8500D02*
D03*
X662500Y9000D02*
D03*
X676000Y9500D02*
D03*
X759000Y41000D02*
D03*
Y53500D02*
D03*
X689000Y9500D02*
D03*
X735750D02*
D03*
X700688D02*
D03*
X712375D02*
D03*
X724062D02*
D03*
X675350Y115000D02*
D03*
X686800D02*
D03*
X698250D02*
D03*
X721150D02*
D03*
X652450D02*
D03*
X641000D02*
D03*
X663900D02*
D03*
X599000Y115500D02*
D03*
X759000Y30500D02*
D03*
X759500Y17000D02*
D03*
X747437Y9500D02*
D03*
X740500Y97500D02*
D03*
X730500D02*
D03*
X720500D02*
D03*
X710500D02*
D03*
Y27500D02*
D03*
X720500D02*
D03*
X730500D02*
D03*
X740500D02*
D03*
D120*
X193000Y-8000D02*
D03*
D121*
X390500Y94494D02*
D03*
X381503Y82598D02*
D03*
X411487Y89444D02*
D03*
X463000Y95501D02*
D03*
X511000Y15385D02*
D03*
X551111Y19000D02*
D03*
X481000Y130000D02*
D03*
X410500Y37731D02*
D03*
X677584Y17575D02*
D03*
X415372Y106055D02*
D03*
X306000Y103000D02*
D03*
X288500Y99000D02*
D03*
X369231Y57838D02*
D03*
X106488Y27084D02*
D03*
X431652Y87722D02*
D03*
X690000Y55500D02*
D03*
X428500Y125500D02*
D03*
X514500Y11000D02*
D03*
X511000Y500D02*
D03*
X204000Y-9000D02*
D03*
X291000Y-7500D02*
D03*
X451000Y-9000D02*
D03*
X623000Y91000D02*
D03*
X633000Y105000D02*
D03*
X725000Y107000D02*
D03*
Y88500D02*
D03*
X281000Y54000D02*
D03*
X348000Y123500D02*
D03*
X369947Y44189D02*
D03*
X346145Y55147D02*
D03*
X370562Y67865D02*
D03*
X164500Y68647D02*
D03*
X192000Y63500D02*
D03*
Y69000D02*
D03*
X193586Y83086D02*
D03*
X55500Y33000D02*
D03*
X48500D02*
D03*
X42500D02*
D03*
X135816Y106000D02*
D03*
X152000Y105500D02*
D03*
X158500D02*
D03*
X165000D02*
D03*
X171500D02*
D03*
X195000Y111494D02*
D03*
X187500Y106506D02*
D03*
X143700Y112780D02*
D03*
X185500Y113500D02*
D03*
X204000Y92500D02*
D03*
X197816Y86000D02*
D03*
X137000Y91400D02*
D03*
X154500Y35500D02*
D03*
X146000D02*
D03*
X134540Y50500D02*
D03*
X185634Y46366D02*
D03*
X122166Y99834D02*
D03*
X100000Y95000D02*
D03*
X105855Y106355D02*
D03*
X117500Y131500D02*
D03*
X127000D02*
D03*
X135000D02*
D03*
X107500D02*
D03*
X99000D02*
D03*
X92000D02*
D03*
X71500Y132000D02*
D03*
X63000D02*
D03*
X55500D02*
D03*
X48000D02*
D03*
X40000D02*
D03*
X32500D02*
D03*
X61000Y124385D02*
D03*
X76000D02*
D03*
X202000Y8761D02*
D03*
X199678Y11768D02*
D03*
X104000Y6500D02*
D03*
X187143Y2769D02*
D03*
X197821Y19511D02*
D03*
X101303Y15525D02*
D03*
X135000Y13700D02*
D03*
X108700Y17217D02*
D03*
X107673Y23418D02*
D03*
X547017Y59821D02*
D03*
X509500Y47494D02*
D03*
X532875Y31600D02*
D03*
X547000Y30500D02*
D03*
X569500Y22006D02*
D03*
X585099Y51901D02*
D03*
X510500Y69819D02*
D03*
X483000Y84500D02*
D03*
X344000Y-7500D02*
D03*
X394500Y-7009D02*
D03*
X383063Y54500D02*
D03*
X392585D02*
D03*
X393460Y58500D02*
D03*
X450240Y116240D02*
D03*
X245500Y101500D02*
D03*
X409000Y32500D02*
D03*
X405438Y27310D02*
D03*
X409035Y15440D02*
D03*
X406700Y37500D02*
D03*
X438021Y39743D02*
D03*
X443500Y30500D02*
D03*
X430537Y27738D02*
D03*
X426613Y29252D02*
D03*
X420474Y32847D02*
D03*
X417392Y37162D02*
D03*
X430000Y31500D02*
D03*
X432500Y40051D02*
D03*
X358500Y53000D02*
D03*
X354939Y32939D02*
D03*
X361500Y76500D02*
D03*
X351500Y106000D02*
D03*
X348500Y111000D02*
D03*
X351538Y97277D02*
D03*
X359000Y116000D02*
D03*
X329851Y96550D02*
D03*
X333463Y97731D02*
D03*
X329069Y67033D02*
D03*
X319000Y55500D02*
D03*
X315083Y58637D02*
D03*
X333459Y50000D02*
D03*
X331500Y72500D02*
D03*
X334084Y75839D02*
D03*
X332515Y23500D02*
D03*
X304500Y30500D02*
D03*
X297997Y33000D02*
D03*
X364000Y25500D02*
D03*
X369196Y22699D02*
D03*
X367925Y17723D02*
D03*
X364979Y13616D02*
D03*
X491000Y2000D02*
D03*
X547075Y6075D02*
D03*
X549500Y9000D02*
D03*
X585316Y-3000D02*
D03*
X628500Y24500D02*
D03*
Y34500D02*
D03*
X624000Y27000D02*
D03*
X661000Y63500D02*
D03*
X641000Y94000D02*
D03*
X593500Y73000D02*
D03*
X585500Y31500D02*
D03*
X585000Y118000D02*
D03*
X548000Y121000D02*
D03*
X513000Y123000D02*
D03*
X533965Y124461D02*
D03*
X514000Y115500D02*
D03*
X492000Y110500D02*
D03*
X508000Y77500D02*
D03*
X588219Y65031D02*
D03*
X679000Y35000D02*
D03*
X636619Y88500D02*
D03*
X629000Y69000D02*
D03*
X624000Y96500D02*
D03*
X584000Y99500D02*
D03*
X594453Y105069D02*
D03*
X630500Y88000D02*
D03*
X563000Y95000D02*
D03*
X556500Y130000D02*
D03*
X496000Y128672D02*
D03*
X405000Y130500D02*
D03*
X450500Y95500D02*
D03*
X451243Y90269D02*
D03*
X468500Y70500D02*
D03*
X458000Y75000D02*
D03*
X454532Y78532D02*
D03*
X450551Y75115D02*
D03*
X451000Y64654D02*
D03*
X450500Y69885D02*
D03*
X451000Y60854D02*
D03*
X636500Y125000D02*
D03*
X487000Y130000D02*
D03*
X361000Y127500D02*
D03*
X352847Y11500D02*
D03*
X383185Y26329D02*
D03*
X392429Y50330D02*
D03*
X389000Y46615D02*
D03*
X393230D02*
D03*
X383064Y37220D02*
D03*
X223000Y47000D02*
D03*
X243500Y53000D02*
D03*
X237000Y84500D02*
D03*
X232000Y83500D02*
D03*
X224500Y68500D02*
D03*
X268000Y26000D02*
D03*
X264000Y1500D02*
D03*
X262546Y30500D02*
D03*
X259638Y60552D02*
D03*
X298662Y40494D02*
D03*
X294865Y40657D02*
D03*
X304429Y40494D02*
D03*
X309660Y40840D02*
D03*
X318500Y70000D02*
D03*
X314487Y66615D02*
D03*
X309794Y103221D02*
D03*
X302980Y98622D02*
D03*
X310500Y96500D02*
D03*
X262000Y82000D02*
D03*
X247000Y79500D02*
D03*
X243973Y75473D02*
D03*
X208500Y50500D02*
D03*
X108400Y2378D02*
D03*
X111500Y-5700D02*
D03*
X117438Y2500D02*
D03*
X153736Y23807D02*
D03*
X143000Y23500D02*
D03*
X110500Y71500D02*
D03*
X107435Y69254D02*
D03*
X103000Y77500D02*
D03*
X171500Y76000D02*
D03*
X168813Y73313D02*
D03*
X119500Y76000D02*
D03*
X100500Y50000D02*
D03*
X100000Y54500D02*
D03*
X76316Y54000D02*
D03*
X85500Y7000D02*
D03*
X58852Y9591D02*
D03*
X42500Y55000D02*
D03*
X171500Y83500D02*
D03*
X158500Y91000D02*
D03*
X491500Y11000D02*
D03*
X476297Y26534D02*
D03*
X477959Y23116D02*
D03*
X472671Y25397D02*
D03*
X494500Y51000D02*
D03*
X472500Y50500D02*
D03*
X411500Y-7000D02*
D03*
X412500Y363D02*
D03*
X407716Y-6653D02*
D03*
X422500Y-5000D02*
D03*
X419000Y-2500D02*
D03*
X495500Y40000D02*
D03*
X503500Y69500D02*
D03*
X496976Y68392D02*
D03*
X497547Y98363D02*
D03*
X492000Y63000D02*
D03*
X475663Y71091D02*
D03*
X550500Y95500D02*
D03*
X550000Y85500D02*
D03*
X557500Y120500D02*
D03*
X510000Y114000D02*
D03*
X707000Y104000D02*
D03*
X698500Y75000D02*
D03*
X407500Y118000D02*
D03*
X390500Y74939D02*
D03*
X389684Y78650D02*
D03*
X392824Y82908D02*
D03*
X83500Y100404D02*
D03*
X121000Y83000D02*
D03*
X41000Y110000D02*
D03*
X26000Y40000D02*
D03*
X58000Y19000D02*
D03*
X189000Y22000D02*
D03*
X169420Y-4807D02*
D03*
X185000Y500D02*
D03*
X143615Y12500D02*
D03*
X172000Y-8000D02*
D03*
X140113Y-4127D02*
D03*
X149500Y14500D02*
D03*
X203146Y32881D02*
D03*
X243000Y39000D02*
D03*
X299000Y64500D02*
D03*
X293000Y78500D02*
D03*
X298026Y92731D02*
D03*
X308000Y76000D02*
D03*
X254500Y121500D02*
D03*
X282321Y106885D02*
D03*
X290000Y106000D02*
D03*
X265000Y119000D02*
D03*
X391000Y129000D02*
D03*
X412301Y115301D02*
D03*
X416500Y118500D02*
D03*
X411000Y123500D02*
D03*
X358000Y122000D02*
D03*
X324516Y91000D02*
D03*
X328000Y82500D02*
D03*
X346500Y59500D02*
D03*
X345749Y64751D02*
D03*
X331000Y56000D02*
D03*
X325000Y49119D02*
D03*
X350506Y27403D02*
D03*
X348500Y21500D02*
D03*
X389405Y29992D02*
D03*
X369467Y29418D02*
D03*
X364000Y33500D02*
D03*
X405742Y13545D02*
D03*
X425000Y15000D02*
D03*
X421384Y22019D02*
D03*
X451967Y14533D02*
D03*
X457500Y29000D02*
D03*
X369184Y4904D02*
D03*
X343950Y2550D02*
D03*
X315500Y18500D02*
D03*
X263500Y19000D02*
D03*
X249000Y104500D02*
D03*
X210062Y111540D02*
D03*
X496000Y5000D02*
D03*
X460805Y24908D02*
D03*
X464493Y25826D02*
D03*
X493000Y24908D02*
D03*
X450083Y24978D02*
D03*
X468500Y25500D02*
D03*
X248000Y17500D02*
D03*
X257000Y1500D02*
D03*
X245500Y9500D02*
D03*
X258500Y43000D02*
D03*
X263901Y36378D02*
D03*
X281367Y43367D02*
D03*
X266500Y40812D02*
D03*
X324500Y38000D02*
D03*
X316000Y36976D02*
D03*
X342338Y39862D02*
D03*
X256123Y99714D02*
D03*
X338500Y130212D02*
D03*
X346000Y131400D02*
D03*
X208500Y92700D02*
D03*
X246000Y97000D02*
D03*
X110000Y125000D02*
D03*
X244500Y116000D02*
D03*
Y122000D02*
D03*
X230479Y123521D02*
D03*
X172000Y130500D02*
D03*
X136082Y117002D02*
D03*
X62000Y74000D02*
D03*
X53500Y73500D02*
D03*
X62500Y33000D02*
D03*
X57000Y40500D02*
D03*
X118333Y110965D02*
D03*
X100623Y111616D02*
D03*
X84000Y129500D02*
D03*
X83000Y107500D02*
D03*
X60500Y114500D02*
D03*
X56000Y93500D02*
D03*
X515062Y91706D02*
D03*
X525348Y84152D02*
D03*
X507500Y96000D02*
D03*
X383316Y105218D02*
D03*
X419592Y96069D02*
D03*
X362000Y99161D02*
D03*
X405130Y93500D02*
D03*
X327000Y109000D02*
D03*
X429120Y112681D02*
D03*
X363500Y115000D02*
D03*
X365000Y118500D02*
D03*
X348818Y92500D02*
D03*
X373366Y82330D02*
D03*
X369162Y85523D02*
D03*
X370000Y78000D02*
D03*
X368035Y63069D02*
D03*
X333500Y61000D02*
D03*
X348500Y85839D02*
D03*
X349026Y80608D02*
D03*
X675500Y124000D02*
D03*
X503000Y97901D02*
D03*
X424337Y91393D02*
D03*
X420253Y89408D02*
D03*
X416474Y89000D02*
D03*
X322102Y80019D02*
D03*
X313500Y76000D02*
D03*
Y72200D02*
D03*
X309148Y66615D02*
D03*
X309301Y59954D02*
D03*
X299622Y54892D02*
D03*
X311000Y54885D02*
D03*
X303543Y53454D02*
D03*
X311500Y90325D02*
D03*
X302149Y89218D02*
D03*
X316000Y90000D02*
D03*
X557500Y86000D02*
D03*
X633500Y27586D02*
D03*
X546000Y19000D02*
D03*
X472000Y58000D02*
D03*
X451500Y54000D02*
D03*
X443500Y58000D02*
D03*
X405486Y42956D02*
D03*
X528023Y96266D02*
D03*
X284000Y2000D02*
D03*
X424459Y24251D02*
D03*
X418435Y44237D02*
D03*
X311000Y29000D02*
D03*
X327013Y28454D02*
D03*
X358656Y27226D02*
D03*
X377500Y40174D02*
D03*
X280611Y93611D02*
D03*
X293000Y87000D02*
D03*
X292796Y92231D02*
D03*
X294000Y113000D02*
D03*
X290776Y118681D02*
D03*
X564000Y18000D02*
D03*
X453500Y18151D02*
D03*
X585000Y86409D02*
D03*
X231000Y99500D02*
D03*
X261500Y112000D02*
D03*
X265861Y108361D02*
D03*
X318711Y110004D02*
D03*
X330000Y113500D02*
D03*
X472000Y64000D02*
D03*
X250500Y31000D02*
D03*
X253500Y7985D02*
D03*
X209000Y8500D02*
D03*
X468000Y64000D02*
D03*
X424000Y5000D02*
D03*
X464500Y42500D02*
D03*
X458000Y70500D02*
D03*
X443905Y72137D02*
D03*
X451000Y49000D02*
D03*
X457000Y43500D02*
D03*
X426787Y86012D02*
D03*
X423156Y84891D02*
D03*
X326000Y126000D02*
D03*
X428000Y117500D02*
D03*
X451500Y82000D02*
D03*
X110500Y54000D02*
D03*
X118599Y25901D02*
D03*
X142874Y16748D02*
D03*
X397000Y38500D02*
D03*
X419102Y84043D02*
D03*
X231000Y19000D02*
D03*
X365000Y111500D02*
D03*
X429000Y92500D02*
D03*
X383342Y48487D02*
D03*
X413000Y84154D02*
D03*
X409000Y83000D02*
D03*
X367000Y128454D02*
D03*
X421000Y118000D02*
D03*
X263500Y67500D02*
D03*
X97500Y20387D02*
D03*
X117500Y-3584D02*
D03*
X64000Y-7900D02*
D03*
X45774Y14880D02*
D03*
X118000Y16000D02*
D03*
X117500Y20500D02*
D03*
X203000Y54000D02*
D03*
X195000Y50500D02*
D03*
X198500Y26000D02*
D03*
X123000Y42000D02*
D03*
X207500Y25500D02*
D03*
X167500Y83500D02*
D03*
X363500Y17500D02*
D03*
X289000Y33000D02*
D03*
X293399Y30360D02*
D03*
X321000Y19000D02*
D03*
X562500Y52000D02*
D03*
X253000Y56500D02*
D03*
X197000Y128000D02*
D03*
X230500Y57000D02*
D03*
X107000Y38500D02*
D03*
X281500Y99500D02*
D03*
X278000Y38000D02*
D03*
X281000Y59500D02*
D03*
X159500Y66500D02*
D03*
X158500Y83000D02*
D03*
X200500Y40500D02*
D03*
X235000Y39000D02*
D03*
X534000Y11000D02*
D03*
X566000Y6000D02*
D03*
X266500Y113000D02*
D03*
X266000Y80500D02*
D03*
X268000Y67500D02*
D03*
X267000Y62000D02*
D03*
X236000Y133500D02*
D03*
X534000Y98000D02*
D03*
X527457Y53516D02*
D03*
X569000Y103500D02*
D03*
X231000Y68000D02*
D03*
X60500Y27500D02*
D03*
X19500Y2500D02*
D03*
X26000Y97500D02*
D03*
X76000Y92000D02*
D03*
X244000Y70000D02*
D03*
X258000Y69500D02*
D03*
X217000Y41000D02*
D03*
M02*
