G04*
G04 #@! TF.GenerationSoftware,Altium Limited,Altium Designer,24.2.2 (26)*
G04*
G04 Layer_Color=8388736*
%FSLAX25Y25*%
%MOIN*%
G70*
G04*
G04 #@! TF.SameCoordinates,259A4400-9820-475F-8ACA-24378C9DBAE9*
G04*
G04*
G04 #@! TF.FilePolarity,Negative*
G04*
G01*
G75*
%ADD43R,0.04331X0.05512*%
%ADD54R,0.03985X0.04942*%
G04:AMPARAMS|DCode=56|XSize=53.49mil|YSize=23.1mil|CornerRadius=11.55mil|HoleSize=0mil|Usage=FLASHONLY|Rotation=180.000|XOffset=0mil|YOffset=0mil|HoleType=Round|Shape=RoundedRectangle|*
%AMROUNDEDRECTD56*
21,1,0.05349,0.00000,0,0,180.0*
21,1,0.03039,0.02310,0,0,180.0*
1,1,0.02310,-0.01519,0.00000*
1,1,0.02310,0.01519,0.00000*
1,1,0.02310,0.01519,0.00000*
1,1,0.02310,-0.01519,0.00000*
%
%ADD56ROUNDEDRECTD56*%
%ADD57R,0.05349X0.02310*%
%ADD58R,0.03150X0.02165*%
%ADD59R,0.02254X0.02423*%
%ADD61R,0.05100X0.03985*%
%ADD62R,0.02423X0.02254*%
G04:AMPARAMS|DCode=63|XSize=93.59mil|YSize=24.49mil|CornerRadius=12.25mil|HoleSize=0mil|Usage=FLASHONLY|Rotation=180.000|XOffset=0mil|YOffset=0mil|HoleType=Round|Shape=RoundedRectangle|*
%AMROUNDEDRECTD63*
21,1,0.09359,0.00000,0,0,180.0*
21,1,0.06909,0.02449,0,0,180.0*
1,1,0.02449,-0.03455,0.00000*
1,1,0.02449,0.03455,0.00000*
1,1,0.02449,0.03455,0.00000*
1,1,0.02449,-0.03455,0.00000*
%
%ADD63ROUNDEDRECTD63*%
%ADD64R,0.09359X0.02449*%
%ADD65R,0.01981X0.04147*%
%ADD66R,0.04147X0.01981*%
%ADD67R,0.21469X0.21469*%
%ADD68R,0.03162X0.02769*%
%ADD69R,0.02769X0.03162*%
%ADD70R,0.06607X0.02572*%
%ADD71R,0.06607X0.01981*%
%ADD72R,0.01981X0.06607*%
%ADD73O,0.07800X0.10800*%
%ADD74R,0.07800X0.10800*%
%ADD75R,0.05131X0.04737*%
%ADD76R,0.04343X0.03950*%
%ADD77R,0.08339X0.11784*%
%ADD78R,0.11902X0.03989*%
%ADD79R,0.03989X0.11902*%
%ADD80R,0.02965X0.02572*%
%ADD81R,0.03556X0.04737*%
%ADD82R,0.03556X0.03162*%
%ADD83R,0.07702X0.12402*%
%ADD84R,0.06410X0.01981*%
%ADD85R,0.07887X0.08674*%
%ADD86R,0.06430X0.04501*%
%ADD87R,0.03359X0.06706*%
%ADD88R,0.06410X0.02572*%
%ADD89R,0.04737X0.02965*%
%ADD90R,0.02572X0.02965*%
%ADD91R,0.04343X0.03950*%
%ADD92O,0.08280X0.03162*%
%ADD93R,0.04981X0.03359*%
%ADD94R,0.06312X0.03162*%
%ADD95R,0.05524X0.03162*%
%ADD96R,0.04537X0.02175*%
%ADD97R,0.06706X0.03359*%
%ADD98R,0.03084X0.02926*%
%ADD99R,0.04501X0.06430*%
%ADD100R,0.02965X0.02965*%
%ADD101R,0.04934X0.03162*%
%ADD102C,0.16686*%
%ADD103C,0.04737*%
%ADD104C,0.04300*%
%ADD105C,0.00800*%
%ADD106C,0.07800*%
%ADD107C,0.07300*%
D43*
X83528Y14000D02*
D03*
X74472D02*
D03*
X82028Y-6500D02*
D03*
X72972D02*
D03*
D54*
X694000Y68500D02*
D03*
Y75000D02*
D03*
X511500Y106500D02*
D03*
Y100000D02*
D03*
D56*
X65703Y79102D02*
D03*
X73000Y82705D02*
D03*
X65851Y62500D02*
D03*
X73149Y66102D02*
D03*
X65851Y46000D02*
D03*
X73149Y49602D02*
D03*
X69352Y117000D02*
D03*
X76648Y120602D02*
D03*
D57*
X73000Y75500D02*
D03*
X73149Y58898D02*
D03*
Y42398D02*
D03*
X76648Y113398D02*
D03*
D58*
X132224Y26740D02*
D03*
Y19260D02*
D03*
X122776D02*
D03*
Y23000D02*
D03*
Y26740D02*
D03*
X52776Y-240D02*
D03*
Y7240D02*
D03*
X62224D02*
D03*
Y3500D02*
D03*
Y-240D02*
D03*
D59*
X502000Y104687D02*
D03*
Y101313D02*
D03*
X557500Y116687D02*
D03*
Y113313D02*
D03*
Y89500D02*
D03*
Y92874D02*
D03*
D61*
X163916Y75000D02*
D03*
X158084D02*
D03*
D62*
X541500Y87500D02*
D03*
X544874D02*
D03*
D63*
X376464Y111000D02*
D03*
Y116000D02*
D03*
Y121000D02*
D03*
Y126000D02*
D03*
X395500D02*
D03*
Y121000D02*
D03*
Y116000D02*
D03*
D64*
Y111000D02*
D03*
D65*
X431827Y77583D02*
D03*
X429858D02*
D03*
X427890D02*
D03*
X425921D02*
D03*
X423953D02*
D03*
X421984D02*
D03*
X420016D02*
D03*
X418047D02*
D03*
X416079D02*
D03*
X414110D02*
D03*
X412142D02*
D03*
X410173D02*
D03*
Y50417D02*
D03*
X412142D02*
D03*
X414110D02*
D03*
X416079D02*
D03*
X418047D02*
D03*
X420016D02*
D03*
X421984D02*
D03*
X423953D02*
D03*
X425921D02*
D03*
X427890D02*
D03*
X429858D02*
D03*
X431827D02*
D03*
D66*
X407417Y74827D02*
D03*
Y72858D02*
D03*
Y70890D02*
D03*
Y68921D02*
D03*
Y66953D02*
D03*
Y64984D02*
D03*
Y63016D02*
D03*
Y61047D02*
D03*
Y59079D02*
D03*
Y57110D02*
D03*
Y55142D02*
D03*
Y53173D02*
D03*
X434583D02*
D03*
Y55142D02*
D03*
Y57110D02*
D03*
Y59079D02*
D03*
Y61047D02*
D03*
Y63016D02*
D03*
Y64984D02*
D03*
Y66953D02*
D03*
Y68921D02*
D03*
Y70890D02*
D03*
Y72858D02*
D03*
Y74827D02*
D03*
X113201Y23047D02*
D03*
Y25016D02*
D03*
Y26984D02*
D03*
Y28953D02*
D03*
X100799D02*
D03*
Y26984D02*
D03*
Y25016D02*
D03*
Y23047D02*
D03*
D67*
X421000Y64000D02*
D03*
D68*
X271532Y109500D02*
D03*
X275468D02*
D03*
X340469Y52000D02*
D03*
X336531D02*
D03*
X340968Y63500D02*
D03*
X337032D02*
D03*
X276532Y64000D02*
D03*
X280469D02*
D03*
X337032Y69500D02*
D03*
X340968D02*
D03*
X216500Y12500D02*
D03*
X212563D02*
D03*
X487032Y58000D02*
D03*
X490969D02*
D03*
X480469Y58000D02*
D03*
X476532D02*
D03*
X502032Y44500D02*
D03*
X505969D02*
D03*
X432469Y-3000D02*
D03*
X428532D02*
D03*
X212531Y94500D02*
D03*
X216469D02*
D03*
X213500Y72500D02*
D03*
X209563D02*
D03*
X237000Y500D02*
D03*
X233063D02*
D03*
X113969Y17000D02*
D03*
X110031D02*
D03*
X432469Y2500D02*
D03*
X428532D02*
D03*
X572968Y18000D02*
D03*
X569031D02*
D03*
X518469Y73500D02*
D03*
X514532D02*
D03*
X502063Y51000D02*
D03*
X506000D02*
D03*
X118437Y41000D02*
D03*
X114500D02*
D03*
X137469Y-1500D02*
D03*
X133531D02*
D03*
X428532Y24500D02*
D03*
X432469D02*
D03*
X428532Y19000D02*
D03*
X432469D02*
D03*
X438531Y8000D02*
D03*
X442469D02*
D03*
X428532D02*
D03*
X432469D02*
D03*
X428532Y13500D02*
D03*
X432469D02*
D03*
X438531Y19000D02*
D03*
X442469D02*
D03*
X438531Y13500D02*
D03*
X442469D02*
D03*
X438531Y24500D02*
D03*
X442469D02*
D03*
X242000Y44500D02*
D03*
X238063D02*
D03*
X158531Y27500D02*
D03*
X162469D02*
D03*
X35531Y15000D02*
D03*
X39469D02*
D03*
X235968Y128500D02*
D03*
X232031D02*
D03*
X369032Y26000D02*
D03*
X372969D02*
D03*
X369032Y33500D02*
D03*
X372969D02*
D03*
X400531D02*
D03*
X404468D02*
D03*
X390531D02*
D03*
X394468D02*
D03*
X380563Y33500D02*
D03*
X384500D02*
D03*
X285563Y109500D02*
D03*
X289500D02*
D03*
X275437Y115500D02*
D03*
X271500D02*
D03*
X415969Y33500D02*
D03*
X412032D02*
D03*
X468532Y67500D02*
D03*
X472469D02*
D03*
X115500Y123500D02*
D03*
X119437D02*
D03*
X53000Y-6500D02*
D03*
X56937D02*
D03*
X289469Y115500D02*
D03*
X285531D02*
D03*
X442469Y-3000D02*
D03*
X438531D02*
D03*
X262469Y5000D02*
D03*
X258531D02*
D03*
X262469Y11500D02*
D03*
X258531D02*
D03*
X486531Y90000D02*
D03*
X490469D02*
D03*
X490469Y83500D02*
D03*
X486531D02*
D03*
X442469Y2500D02*
D03*
X438531D02*
D03*
X137469Y-7000D02*
D03*
X133531D02*
D03*
X601532Y107500D02*
D03*
X605469D02*
D03*
X179063Y11000D02*
D03*
X183000D02*
D03*
X513031Y127000D02*
D03*
X516968D02*
D03*
X506468Y73500D02*
D03*
X502531D02*
D03*
D69*
X366000Y5032D02*
D03*
Y8969D02*
D03*
X305000Y95500D02*
D03*
Y91563D02*
D03*
X357500Y60969D02*
D03*
Y57032D02*
D03*
X351000Y60969D02*
D03*
Y57032D02*
D03*
X366000Y87968D02*
D03*
Y84031D02*
D03*
X366000Y73032D02*
D03*
Y76968D02*
D03*
X471000Y43031D02*
D03*
Y46968D02*
D03*
X298500Y96500D02*
D03*
Y100437D02*
D03*
X320500Y99968D02*
D03*
Y96031D02*
D03*
X314500Y99968D02*
D03*
Y96031D02*
D03*
X201000Y83031D02*
D03*
Y86968D02*
D03*
X228000Y5032D02*
D03*
Y8969D02*
D03*
X582000Y-3968D02*
D03*
Y-32D02*
D03*
X94000Y24032D02*
D03*
Y27968D02*
D03*
X70000Y25032D02*
D03*
Y28969D02*
D03*
X119000Y46500D02*
D03*
Y50437D02*
D03*
X100000Y40000D02*
D03*
Y43937D02*
D03*
X50000Y97531D02*
D03*
Y101469D02*
D03*
X382500Y14063D02*
D03*
Y18000D02*
D03*
X88500Y2968D02*
D03*
Y-969D02*
D03*
X139500Y26469D02*
D03*
Y22532D02*
D03*
X121000Y117500D02*
D03*
Y113563D02*
D03*
X105000Y2968D02*
D03*
Y-969D02*
D03*
X200000Y30531D02*
D03*
Y34468D02*
D03*
X194500Y34468D02*
D03*
Y30531D02*
D03*
X189000Y117469D02*
D03*
Y113531D02*
D03*
X195000Y113531D02*
D03*
Y117469D02*
D03*
X232000Y117469D02*
D03*
Y113531D02*
D03*
X238000Y113563D02*
D03*
Y117500D02*
D03*
X244500Y34468D02*
D03*
Y30531D02*
D03*
X238000Y30531D02*
D03*
Y34468D02*
D03*
X368000Y111531D02*
D03*
Y115469D02*
D03*
X396000Y81532D02*
D03*
Y85469D02*
D03*
X401500Y81532D02*
D03*
Y85469D02*
D03*
X327500Y9437D02*
D03*
Y5500D02*
D03*
X694500Y83531D02*
D03*
Y87468D02*
D03*
X536000Y73968D02*
D03*
Y70031D02*
D03*
X101500Y118468D02*
D03*
Y114532D02*
D03*
X57000Y48469D02*
D03*
Y44532D02*
D03*
X685000Y55000D02*
D03*
Y58937D02*
D03*
Y43937D02*
D03*
Y40000D02*
D03*
X57500Y65969D02*
D03*
Y62032D02*
D03*
X57000Y81968D02*
D03*
Y78031D02*
D03*
X408000Y106532D02*
D03*
Y110468D02*
D03*
X588500Y-3968D02*
D03*
Y-32D02*
D03*
X237000Y11032D02*
D03*
Y14968D02*
D03*
X202000Y32D02*
D03*
Y3968D02*
D03*
X227500Y83500D02*
D03*
Y79563D02*
D03*
X546000Y969D02*
D03*
Y-2968D02*
D03*
X539500Y-2937D02*
D03*
Y1000D02*
D03*
X531500Y60031D02*
D03*
Y63968D02*
D03*
X115500Y117469D02*
D03*
Y113531D02*
D03*
X694500Y98469D02*
D03*
Y94532D02*
D03*
X676500Y79563D02*
D03*
Y83500D02*
D03*
X113500Y46500D02*
D03*
Y50437D02*
D03*
X175000Y79532D02*
D03*
Y83469D02*
D03*
X175000Y69968D02*
D03*
Y66031D02*
D03*
X193000Y21969D02*
D03*
Y18032D02*
D03*
X523000Y123031D02*
D03*
Y126969D02*
D03*
X171500Y21563D02*
D03*
Y25500D02*
D03*
X35500Y-2968D02*
D03*
Y969D02*
D03*
X544500Y124469D02*
D03*
Y120531D02*
D03*
X45000Y22063D02*
D03*
Y26000D02*
D03*
X88000Y24032D02*
D03*
Y27968D02*
D03*
X60500Y121468D02*
D03*
Y117532D02*
D03*
X187000Y66031D02*
D03*
Y69968D02*
D03*
X186500Y83469D02*
D03*
Y79532D02*
D03*
X56000Y101469D02*
D03*
Y97531D02*
D03*
X36000Y98032D02*
D03*
Y101969D02*
D03*
X42000Y77531D02*
D03*
Y81468D02*
D03*
X42000Y65469D02*
D03*
Y61532D02*
D03*
Y48469D02*
D03*
Y44532D02*
D03*
X45000Y121468D02*
D03*
Y117532D02*
D03*
D70*
X414567Y26516D02*
D03*
Y23957D02*
D03*
Y21398D02*
D03*
Y18839D02*
D03*
Y16280D02*
D03*
Y13721D02*
D03*
Y11161D02*
D03*
Y8602D02*
D03*
Y6043D02*
D03*
Y3484D02*
D03*
X391433D02*
D03*
Y6043D02*
D03*
Y8602D02*
D03*
Y11161D02*
D03*
Y13721D02*
D03*
Y16280D02*
D03*
Y18839D02*
D03*
Y21398D02*
D03*
Y23957D02*
D03*
Y26516D02*
D03*
D71*
X290815Y53673D02*
D03*
Y55642D02*
D03*
Y57610D02*
D03*
Y59579D02*
D03*
Y61547D02*
D03*
Y63516D02*
D03*
Y65484D02*
D03*
Y67453D02*
D03*
Y69421D02*
D03*
Y71390D02*
D03*
Y73358D02*
D03*
Y75327D02*
D03*
X324185D02*
D03*
Y73358D02*
D03*
Y71390D02*
D03*
Y69421D02*
D03*
Y67453D02*
D03*
Y65484D02*
D03*
Y63516D02*
D03*
Y61547D02*
D03*
Y59579D02*
D03*
Y57610D02*
D03*
Y55642D02*
D03*
Y53673D02*
D03*
D72*
X296673Y81185D02*
D03*
X298642D02*
D03*
X300610D02*
D03*
X302579D02*
D03*
X304547D02*
D03*
X306516D02*
D03*
X308484D02*
D03*
X310453D02*
D03*
X312421D02*
D03*
X314390D02*
D03*
X316358D02*
D03*
X318327D02*
D03*
Y47815D02*
D03*
X316358D02*
D03*
X314390D02*
D03*
X312421D02*
D03*
X310453D02*
D03*
X308484D02*
D03*
X306516D02*
D03*
X304547D02*
D03*
X302579D02*
D03*
X300610D02*
D03*
X298642D02*
D03*
X296673D02*
D03*
D73*
X249500Y127500D02*
D03*
X259500D02*
D03*
X269500D02*
D03*
X279500D02*
D03*
D74*
X289500D02*
D03*
D75*
X349260Y76453D02*
D03*
Y70547D02*
D03*
X356740Y76453D02*
D03*
Y70547D02*
D03*
D76*
X371937Y58500D02*
D03*
X364063Y54760D02*
D03*
Y62240D02*
D03*
X251937Y11760D02*
D03*
Y19240D02*
D03*
X244063Y15500D02*
D03*
X530063Y128240D02*
D03*
Y120760D02*
D03*
X537937Y124500D02*
D03*
X185937Y17760D02*
D03*
Y25240D02*
D03*
X178063Y21500D02*
D03*
D77*
X167022Y53500D02*
D03*
X150978D02*
D03*
D78*
X183500Y59799D02*
D03*
Y47201D02*
D03*
X181000Y90201D02*
D03*
Y102799D02*
D03*
D79*
X139598Y57000D02*
D03*
X127000D02*
D03*
X139598Y42500D02*
D03*
X127000D02*
D03*
X139598Y106000D02*
D03*
X127000D02*
D03*
X139598Y92000D02*
D03*
X127000D02*
D03*
D80*
X114000Y78370D02*
D03*
Y74630D02*
D03*
X113500Y94740D02*
D03*
Y91000D02*
D03*
D81*
X94874Y96787D02*
D03*
D82*
Y103480D02*
D03*
X87000D02*
D03*
Y96000D02*
D03*
D83*
X137000Y75000D02*
D03*
D84*
X145709Y81890D02*
D03*
Y79921D02*
D03*
Y77953D02*
D03*
Y75984D02*
D03*
Y74016D02*
D03*
Y72047D02*
D03*
Y70079D02*
D03*
Y68110D02*
D03*
X128291D02*
D03*
Y70079D02*
D03*
Y72047D02*
D03*
Y74016D02*
D03*
Y75984D02*
D03*
Y77953D02*
D03*
Y79921D02*
D03*
Y81890D02*
D03*
D85*
X150323Y96000D02*
D03*
X165677D02*
D03*
D86*
X78000Y96772D02*
D03*
Y103228D02*
D03*
X70000Y96772D02*
D03*
Y103228D02*
D03*
X327500Y16272D02*
D03*
Y22728D02*
D03*
X374000Y13272D02*
D03*
Y19728D02*
D03*
X97000Y-3728D02*
D03*
Y2728D02*
D03*
X149000Y20272D02*
D03*
Y26728D02*
D03*
X79000Y31457D02*
D03*
Y25000D02*
D03*
X44000Y-6228D02*
D03*
Y228D02*
D03*
D87*
X542500Y51870D02*
D03*
X547500D02*
D03*
X552500D02*
D03*
X557500D02*
D03*
Y73130D02*
D03*
X552500D02*
D03*
X547500D02*
D03*
X542500D02*
D03*
D88*
X521209Y58161D02*
D03*
Y60720D02*
D03*
Y63279D02*
D03*
Y65839D02*
D03*
X503791D02*
D03*
Y63279D02*
D03*
Y60720D02*
D03*
Y58161D02*
D03*
D89*
X82472Y49240D02*
D03*
Y45500D02*
D03*
Y41760D02*
D03*
X91528D02*
D03*
Y45500D02*
D03*
Y49240D02*
D03*
X92028Y66240D02*
D03*
Y62500D02*
D03*
Y58760D02*
D03*
X82972D02*
D03*
Y62500D02*
D03*
Y66240D02*
D03*
X95028Y120740D02*
D03*
Y117000D02*
D03*
Y113260D02*
D03*
X85972D02*
D03*
Y117000D02*
D03*
Y120740D02*
D03*
X92028Y82740D02*
D03*
Y79000D02*
D03*
Y75260D02*
D03*
X82972D02*
D03*
Y79000D02*
D03*
Y82740D02*
D03*
D90*
X222130Y72500D02*
D03*
X225870D02*
D03*
D91*
X43000Y101756D02*
D03*
Y96244D02*
D03*
X108500Y120256D02*
D03*
Y114744D02*
D03*
X36500Y27256D02*
D03*
Y21744D02*
D03*
X53500Y122256D02*
D03*
Y116744D02*
D03*
X557500Y100244D02*
D03*
Y105756D02*
D03*
X106500Y44244D02*
D03*
Y49756D02*
D03*
X677500Y54000D02*
D03*
Y59512D02*
D03*
X678500Y44756D02*
D03*
Y39244D02*
D03*
X62500Y102756D02*
D03*
Y97244D02*
D03*
X50500Y48756D02*
D03*
Y43244D02*
D03*
X50000Y66756D02*
D03*
Y61244D02*
D03*
X50000Y82512D02*
D03*
Y77000D02*
D03*
D92*
X573004Y-3500D02*
D03*
Y1500D02*
D03*
Y6500D02*
D03*
Y11500D02*
D03*
X554500Y-3500D02*
D03*
Y1500D02*
D03*
Y6500D02*
D03*
Y11500D02*
D03*
X208748Y45000D02*
D03*
Y40000D02*
D03*
Y35000D02*
D03*
Y30000D02*
D03*
X227252Y45000D02*
D03*
Y40000D02*
D03*
Y35000D02*
D03*
Y30000D02*
D03*
X204748Y128500D02*
D03*
Y123500D02*
D03*
Y118500D02*
D03*
Y113500D02*
D03*
X223252Y128500D02*
D03*
Y123500D02*
D03*
Y118500D02*
D03*
Y113500D02*
D03*
D93*
X210209Y4740D02*
D03*
Y1000D02*
D03*
Y-2740D02*
D03*
X220791D02*
D03*
Y1000D02*
D03*
Y4740D02*
D03*
X489791Y43260D02*
D03*
Y47000D02*
D03*
Y50740D02*
D03*
X479209D02*
D03*
Y47000D02*
D03*
Y43260D02*
D03*
X209209Y80260D02*
D03*
Y84000D02*
D03*
Y87740D02*
D03*
X219791D02*
D03*
Y84000D02*
D03*
Y80260D02*
D03*
D94*
X490421Y67760D02*
D03*
Y71500D02*
D03*
Y75240D02*
D03*
X480579D02*
D03*
Y67760D02*
D03*
D95*
X52079Y22240D02*
D03*
Y18500D02*
D03*
Y14760D02*
D03*
X61921D02*
D03*
Y22240D02*
D03*
X112157Y9000D02*
D03*
Y5260D02*
D03*
Y1520D02*
D03*
X122000D02*
D03*
Y9000D02*
D03*
D96*
X81740Y941D02*
D03*
Y3500D02*
D03*
Y6059D02*
D03*
X74260D02*
D03*
Y3500D02*
D03*
Y941D02*
D03*
D97*
X336370Y19000D02*
D03*
Y14000D02*
D03*
Y9000D02*
D03*
Y4000D02*
D03*
X357630D02*
D03*
Y9000D02*
D03*
Y14000D02*
D03*
Y19000D02*
D03*
X522870Y110500D02*
D03*
Y105500D02*
D03*
Y100500D02*
D03*
Y95500D02*
D03*
X544130D02*
D03*
Y100500D02*
D03*
Y105500D02*
D03*
Y110500D02*
D03*
D98*
X35465Y9500D02*
D03*
X38535D02*
D03*
D99*
X130772Y7000D02*
D03*
X137228D02*
D03*
D100*
X180500Y83272D02*
D03*
Y79728D02*
D03*
X181000Y66228D02*
D03*
Y69772D02*
D03*
D101*
X565169Y107240D02*
D03*
Y99760D02*
D03*
X573831Y103500D02*
D03*
D102*
X9500Y27252D02*
D03*
Y98748D02*
D03*
D103*
X14500Y48000D02*
D03*
Y53000D02*
D03*
Y58000D02*
D03*
Y63000D02*
D03*
Y68000D02*
D03*
Y73000D02*
D03*
Y78000D02*
D03*
X24500Y45500D02*
D03*
Y50500D02*
D03*
Y55500D02*
D03*
Y60500D02*
D03*
Y65500D02*
D03*
Y70500D02*
D03*
Y75500D02*
D03*
Y80500D02*
D03*
D104*
X137000Y75000D02*
D03*
X421000Y64000D02*
D03*
D105*
X620000Y125000D02*
D03*
X465000D02*
D03*
X310000D02*
D03*
X155000D02*
D03*
X620000Y-500D02*
D03*
X465000Y0D02*
D03*
X310000D02*
D03*
X155000D02*
D03*
X603000Y32500D02*
D03*
Y92500D02*
D03*
X663000D02*
D03*
Y32500D02*
D03*
X774000Y102000D02*
D03*
Y89875D02*
D03*
X755500Y130000D02*
D03*
X732600D02*
D03*
X744050D02*
D03*
X774000Y65625D02*
D03*
Y77750D02*
D03*
X709700Y130000D02*
D03*
X639500Y-6500D02*
D03*
X651000Y-6000D02*
D03*
X600500Y-6500D02*
D03*
X662500Y-6000D02*
D03*
X676000Y-5500D02*
D03*
X774000Y41000D02*
D03*
Y53500D02*
D03*
X689000Y-5500D02*
D03*
X735750D02*
D03*
X700688D02*
D03*
X712375D02*
D03*
X724062D02*
D03*
X675350Y130000D02*
D03*
X686800D02*
D03*
X698250D02*
D03*
X721150D02*
D03*
X652450D02*
D03*
X641000D02*
D03*
X663900D02*
D03*
X599000Y130500D02*
D03*
X774000Y30500D02*
D03*
X774500Y17000D02*
D03*
X747437Y-5500D02*
D03*
X775000Y125000D02*
D03*
Y0D02*
D03*
X0Y125000D02*
D03*
Y0D02*
D03*
D106*
X113500Y106000D02*
D03*
Y59500D02*
D03*
X618000Y42500D02*
D03*
Y52500D02*
D03*
Y62500D02*
D03*
Y72500D02*
D03*
Y82500D02*
D03*
X648000D02*
D03*
Y72500D02*
D03*
Y62500D02*
D03*
Y52500D02*
D03*
Y42500D02*
D03*
X759000Y102000D02*
D03*
Y89875D02*
D03*
X755500Y115000D02*
D03*
X732600D02*
D03*
X744050D02*
D03*
X759000Y65625D02*
D03*
Y77750D02*
D03*
X327000Y-7500D02*
D03*
X161500Y18500D02*
D03*
X192500Y10000D02*
D03*
X566500Y73500D02*
D03*
X497500Y78500D02*
D03*
X554500Y31500D02*
D03*
X473000Y85000D02*
D03*
X206500Y102000D02*
D03*
X248000Y500D02*
D03*
X194500Y94500D02*
D03*
X197000Y60000D02*
D03*
X709700Y115000D02*
D03*
X639500Y8500D02*
D03*
X651000Y9000D02*
D03*
X600500Y8500D02*
D03*
X662500Y9000D02*
D03*
X676000Y9500D02*
D03*
X759000Y41000D02*
D03*
Y53500D02*
D03*
X689000Y9500D02*
D03*
X735750D02*
D03*
X700688D02*
D03*
X712375D02*
D03*
X724062D02*
D03*
X675350Y115000D02*
D03*
X686800D02*
D03*
X698250D02*
D03*
X721150D02*
D03*
X652450D02*
D03*
X641000D02*
D03*
X663900D02*
D03*
X599000Y115500D02*
D03*
X759000Y30500D02*
D03*
X759500Y17000D02*
D03*
X747437Y9500D02*
D03*
X740500Y97500D02*
D03*
X730500D02*
D03*
X720500D02*
D03*
X710500D02*
D03*
Y27500D02*
D03*
X720500D02*
D03*
X730500D02*
D03*
X740500D02*
D03*
D107*
X193000Y-8000D02*
D03*
M02*
