G04*
G04 #@! TF.GenerationSoftware,Altium Limited,Altium Designer,24.2.2 (26)*
G04*
G04 Layer_Physical_Order=3*
G04 Layer_Color=16440176*
%FSLAX25Y25*%
%MOIN*%
G70*
G04*
G04 #@! TF.SameCoordinates,259A4400-9820-475F-8ACA-24378C9DBAE9*
G04*
G04*
G04 #@! TF.FilePolarity,Positive*
G04*
G01*
G75*
%ADD110C,0.03000*%
%ADD116C,0.15886*%
%ADD117C,0.03937*%
%ADD118C,0.03500*%
%ADD119C,0.07000*%
%ADD120C,0.06500*%
%ADD121C,0.03200*%
%ADD122C,0.00588*%
G36*
X403980Y132459D02*
X403754Y132365D01*
X403135Y131746D01*
X402800Y130938D01*
Y130062D01*
X403070Y129411D01*
X402824Y128911D01*
X398609D01*
X398261Y128842D01*
X397965Y128644D01*
X396192Y126871D01*
X369182D01*
X368933Y127371D01*
X369200Y128016D01*
Y128892D01*
X368865Y129700D01*
X368246Y130319D01*
X367438Y130654D01*
X366562D01*
X365754Y130319D01*
X365135Y129700D01*
X364800Y128892D01*
Y128709D01*
X364701Y128605D01*
X364300Y128372D01*
X364100Y128411D01*
X363004D01*
X362865Y128746D01*
X362246Y129365D01*
X361438Y129700D01*
X360562D01*
X359754Y129365D01*
X359135Y128746D01*
X358800Y127938D01*
Y127062D01*
X359135Y126254D01*
X359754Y125635D01*
X360562Y125300D01*
X361438D01*
X362246Y125635D01*
X362865Y126254D01*
X363004Y126589D01*
X363722D01*
X364996Y125316D01*
X365291Y125118D01*
X365640Y125049D01*
X396570D01*
X396918Y125118D01*
X397214Y125316D01*
X398987Y127089D01*
X426324D01*
X426570Y126589D01*
X426300Y125938D01*
Y125062D01*
X426635Y124254D01*
X427254Y123635D01*
X428062Y123300D01*
X428938D01*
X429746Y123635D01*
X430365Y124254D01*
X430700Y125062D01*
Y125938D01*
X430430Y126589D01*
X430676Y127089D01*
X443122D01*
X454187Y116024D01*
X454187Y116024D01*
X454483Y115827D01*
X454832Y115757D01*
X468451D01*
X468800Y115827D01*
X469095Y116024D01*
X470016Y116945D01*
X474856D01*
X475205Y117014D01*
X475501Y117212D01*
X486228Y127939D01*
X486562Y127800D01*
X487438D01*
X488246Y128135D01*
X488865Y128754D01*
X489200Y129562D01*
Y130438D01*
X488933Y131082D01*
X489182Y131582D01*
X492614D01*
X492805Y131121D01*
X475096Y113411D01*
X436904D01*
X428677Y121638D01*
X428382Y121836D01*
X428033Y121905D01*
X413170D01*
X412928Y122405D01*
X413200Y123062D01*
Y123938D01*
X412865Y124746D01*
X412246Y125365D01*
X411438Y125700D01*
X410562D01*
X409754Y125365D01*
X409135Y124746D01*
X408996Y124411D01*
X360009D01*
X359661Y124342D01*
X359365Y124144D01*
X359133Y123912D01*
X358438Y124200D01*
X357562D01*
X356754Y123865D01*
X356135Y123246D01*
X355800Y122438D01*
Y121562D01*
X356135Y120754D01*
X356754Y120135D01*
X357562Y119800D01*
X358438D01*
X359246Y120135D01*
X359865Y120754D01*
X360200Y121562D01*
Y122402D01*
X360387Y122589D01*
X408606D01*
X408721Y122405D01*
X408444Y121905D01*
X367494D01*
X367145Y121836D01*
X366849Y121638D01*
X366849Y121638D01*
X365773Y120561D01*
X365438Y120700D01*
X364562D01*
X363754Y120365D01*
X363135Y119746D01*
X362800Y118938D01*
Y118062D01*
X362967Y117660D01*
X363059Y117218D01*
X362717Y117057D01*
X362254Y116865D01*
X361700Y116311D01*
X361370Y116372D01*
X361192Y116457D01*
X360865Y117246D01*
X360246Y117865D01*
X359438Y118200D01*
X358562D01*
X357754Y117865D01*
X357135Y117246D01*
X356800Y116438D01*
Y116196D01*
X356300Y115989D01*
X352088Y120201D01*
X351792Y120399D01*
X351443Y120468D01*
X330698D01*
X330506Y120930D01*
X337727Y128151D01*
X338062Y128012D01*
X338938D01*
X339746Y128347D01*
X340365Y128966D01*
X340700Y129775D01*
Y130375D01*
X340839Y130489D01*
X340839Y130489D01*
X343996D01*
X344135Y130154D01*
X344754Y129535D01*
X345562Y129200D01*
X346438D01*
X347246Y129535D01*
X347865Y130154D01*
X348200Y130962D01*
Y131838D01*
X347943Y132459D01*
X348206Y132959D01*
X403881D01*
X403980Y132459D01*
D02*
G37*
G36*
X228599Y129373D02*
X228407Y128911D01*
X199004D01*
X198865Y129246D01*
X198246Y129865D01*
X197438Y130200D01*
X196562D01*
X195754Y129865D01*
X195135Y129246D01*
X194800Y128438D01*
Y127562D01*
X195135Y126754D01*
X195754Y126135D01*
X196562Y125800D01*
X197438D01*
X198246Y126135D01*
X198865Y126754D01*
X199004Y127089D01*
X229149D01*
X230055Y126183D01*
X229878Y125653D01*
X229233Y125386D01*
X228614Y124767D01*
X228279Y123959D01*
Y123083D01*
X228614Y122275D01*
X229233Y121656D01*
X230041Y121321D01*
X230917D01*
X231725Y121656D01*
X232344Y122275D01*
X232611Y122920D01*
X233141Y123097D01*
X241095Y115143D01*
Y114967D01*
X241164Y114618D01*
X241362Y114323D01*
X243223Y112462D01*
X243518Y112264D01*
X243867Y112195D01*
X244043D01*
X249038Y107200D01*
X248831Y106700D01*
X248562D01*
X248228Y106561D01*
X242605Y112184D01*
X242309Y112381D01*
X241960Y112451D01*
X212066D01*
X211927Y112786D01*
X211308Y113405D01*
X210499Y113740D01*
X209624D01*
X208816Y113405D01*
X208197Y112786D01*
X207862Y111977D01*
Y111102D01*
X208148Y110411D01*
X207926Y109911D01*
X167917D01*
X167710Y110411D01*
X169158Y111859D01*
X184030D01*
X184254Y111635D01*
X185062Y111300D01*
X185938D01*
X186746Y111635D01*
X187365Y112254D01*
X187700Y113062D01*
Y113938D01*
X187365Y114746D01*
X186746Y115365D01*
X186604Y115424D01*
X186514Y115514D01*
X185819Y115978D01*
X185000Y116141D01*
X168969D01*
X168777Y116603D01*
X172644Y120470D01*
X172842Y120766D01*
X172911Y121115D01*
Y128496D01*
X173246Y128635D01*
X173865Y129254D01*
X174200Y130062D01*
Y130938D01*
X173865Y131746D01*
X173252Y132359D01*
X173253Y132395D01*
X173361Y132859D01*
X225113D01*
X228599Y129373D01*
D02*
G37*
G36*
X506668Y127043D02*
X506964Y126846D01*
X507312Y126776D01*
X554921D01*
X555137Y126353D01*
X555114Y126155D01*
X554453Y125714D01*
X551919Y123179D01*
X548487D01*
X548438Y123200D01*
X547562D01*
X546754Y122865D01*
X546135Y122246D01*
X545800Y121438D01*
Y120562D01*
X546135Y119754D01*
X546754Y119135D01*
X547562Y118800D01*
X548438D01*
X548672Y118897D01*
X552806D01*
X553625Y119060D01*
X554320Y119524D01*
X556854Y122059D01*
X571413D01*
X585086Y108386D01*
X585781Y107922D01*
X586600Y107759D01*
X593990D01*
X594015Y107269D01*
X593207Y106934D01*
X592588Y106316D01*
X592253Y105507D01*
Y104632D01*
X592588Y103823D01*
X593207Y103204D01*
X594015Y102869D01*
X594890D01*
X595699Y103204D01*
X596318Y103823D01*
X596653Y104632D01*
Y105507D01*
X596318Y106316D01*
X595699Y106934D01*
X594890Y107269D01*
X594916Y107759D01*
X604213D01*
X610955Y101017D01*
X610764Y100555D01*
X597171D01*
X596822Y100486D01*
X596526Y100288D01*
X592149Y95911D01*
X565004D01*
X564865Y96246D01*
X564246Y96865D01*
X563438Y97200D01*
X562562D01*
X561754Y96865D01*
X561135Y96246D01*
X560800Y95438D01*
Y94562D01*
X561135Y93754D01*
X561754Y93135D01*
X562562Y92800D01*
X563438D01*
X564246Y93135D01*
X564865Y93754D01*
X565004Y94089D01*
X592527D01*
X592875Y94158D01*
X593171Y94356D01*
X597548Y98733D01*
X599098D01*
X599250Y98233D01*
X598633Y97821D01*
X597679Y96867D01*
X596930Y95745D01*
X596413Y94498D01*
X596150Y93175D01*
Y91825D01*
X596413Y90502D01*
X596930Y89255D01*
X597679Y88133D01*
X598633Y87179D01*
X599250Y86768D01*
X599098Y86268D01*
X592521D01*
X591144Y87644D01*
X590849Y87842D01*
X590500Y87911D01*
X588904D01*
X587177Y89638D01*
X586882Y89836D01*
X586533Y89905D01*
X533717D01*
X533368Y89836D01*
X533073Y89638D01*
X528291Y84856D01*
X527740Y85013D01*
X527694Y85209D01*
X528644Y86159D01*
X528842Y86455D01*
X528911Y86804D01*
Y94252D01*
X529269Y94401D01*
X529888Y95019D01*
X530223Y95828D01*
Y96703D01*
X529888Y97512D01*
X529269Y98131D01*
X528461Y98466D01*
X527585D01*
X526777Y98131D01*
X526158Y97512D01*
X525823Y96703D01*
Y95828D01*
X526158Y95019D01*
X526777Y94401D01*
X527089Y94271D01*
Y87181D01*
X526121Y86213D01*
X525786Y86352D01*
X524911D01*
X524102Y86017D01*
X523483Y85398D01*
X523148Y84589D01*
Y83714D01*
X523415Y83069D01*
X523166Y82569D01*
X521960D01*
X515486Y89044D01*
X515663Y89574D01*
X516308Y89841D01*
X516927Y90460D01*
X517262Y91268D01*
Y92144D01*
X516927Y92952D01*
X516308Y93571D01*
X515973Y93710D01*
Y95438D01*
X515904Y95787D01*
X515706Y96083D01*
X503388Y108401D01*
X503244Y108497D01*
X503100Y108595D01*
X503096Y108596D01*
X503092Y108599D01*
X502922Y108633D01*
X502752Y108668D01*
X478018Y108892D01*
X477948Y109100D01*
X477936Y109393D01*
X478160Y109543D01*
X495227Y126610D01*
X495562Y126472D01*
X496438D01*
X497246Y126807D01*
X497865Y127426D01*
X498200Y128234D01*
Y129109D01*
X497933Y129754D01*
X498182Y130254D01*
X503457D01*
X506668Y127043D01*
D02*
G37*
G36*
X168054Y136082D02*
X166486Y134514D01*
X166022Y133819D01*
X165859Y133000D01*
Y121387D01*
X163263Y118791D01*
X158937D01*
X158786Y119291D01*
X159367Y119679D01*
X160321Y120633D01*
X161070Y121755D01*
X161587Y123002D01*
X161850Y124325D01*
Y125675D01*
X161587Y126998D01*
X161070Y128245D01*
X160321Y129367D01*
X159367Y130321D01*
X158245Y131070D01*
X156998Y131587D01*
X155675Y131850D01*
X154325D01*
X153002Y131587D01*
X151755Y131070D01*
X150633Y130321D01*
X149679Y129367D01*
X148930Y128245D01*
X148413Y126998D01*
X148150Y125675D01*
Y124325D01*
X148379Y123176D01*
X148102Y122819D01*
X147978Y122746D01*
X147489Y122843D01*
X120202D01*
X119383Y122680D01*
X118688Y122216D01*
X104751Y108279D01*
X104608Y108220D01*
X103990Y107601D01*
X103655Y106792D01*
Y106111D01*
X103585Y105869D01*
X103233Y105629D01*
X98286D01*
X91201Y112714D01*
X90506Y113178D01*
X89687Y113341D01*
X75072D01*
X62924Y125489D01*
X62865Y125631D01*
X62246Y126250D01*
X61438Y126585D01*
X60562D01*
X59754Y126250D01*
X59135Y125631D01*
X58800Y124822D01*
Y123947D01*
X59135Y123138D01*
X59754Y122520D01*
X59896Y122461D01*
X72671Y109686D01*
X73365Y109222D01*
X74185Y109059D01*
X80794D01*
X81057Y108559D01*
X80800Y107938D01*
Y107062D01*
X81135Y106254D01*
X81754Y105635D01*
X82562Y105300D01*
X83438D01*
X84246Y105635D01*
X84865Y106254D01*
X85200Y107062D01*
Y107938D01*
X84943Y108559D01*
X85206Y109059D01*
X88800D01*
X95885Y101974D01*
X96122Y101816D01*
X95970Y101316D01*
X85504D01*
X85365Y101651D01*
X84746Y102269D01*
X83938Y102604D01*
X83062D01*
X82254Y102269D01*
X81635Y101651D01*
X81300Y100842D01*
Y100705D01*
X80838Y100514D01*
X79038Y102314D01*
X78343Y102778D01*
X77524Y102941D01*
X69854D01*
X57581Y115214D01*
X56887Y115678D01*
X56067Y115841D01*
X36967D01*
X36148Y115678D01*
X35453Y115214D01*
X18917Y98678D01*
X18543Y98118D01*
X18043Y98269D01*
Y99589D01*
X17715Y101240D01*
X17071Y102795D01*
X16136Y104194D01*
X14946Y105384D01*
X13547Y106319D01*
X11992Y106963D01*
X10341Y107291D01*
X8659D01*
X7008Y106963D01*
X5453Y106319D01*
X4054Y105384D01*
X2864Y104194D01*
X1929Y102795D01*
X1285Y101240D01*
X957Y99589D01*
Y97907D01*
X1285Y96256D01*
X1929Y94701D01*
X2864Y93302D01*
X4054Y92112D01*
X5453Y91177D01*
X7008Y90533D01*
X8659Y90205D01*
X10341D01*
X11992Y90533D01*
X13547Y91177D01*
X14946Y92112D01*
X16136Y93302D01*
X17071Y94701D01*
X17715Y96256D01*
X17790Y96637D01*
X18290Y96588D01*
Y49318D01*
X17986Y49014D01*
X17522Y48319D01*
X17359Y47500D01*
Y35115D01*
X17522Y34295D01*
X17986Y33601D01*
X34101Y17486D01*
X34795Y17022D01*
X35615Y16859D01*
X57420D01*
X57562Y16800D01*
X58438D01*
X59246Y17135D01*
X59865Y17754D01*
X60200Y18562D01*
Y19438D01*
X59865Y20246D01*
X59246Y20865D01*
X58438Y21200D01*
X57562D01*
X57420Y21141D01*
X36502D01*
X34516Y23127D01*
X34707Y23589D01*
X98074D01*
X98480Y23182D01*
X98334Y22622D01*
X98057Y22537D01*
X97938Y22587D01*
X97062D01*
X96254Y22252D01*
X95635Y21633D01*
X95300Y20824D01*
Y19949D01*
X95359Y19807D01*
Y15053D01*
X94986Y14680D01*
X94522Y13986D01*
X94359Y13166D01*
Y7000D01*
X94522Y6181D01*
X94986Y5486D01*
X103308Y-2836D01*
X104003Y-3300D01*
X104822Y-3463D01*
X114297D01*
X115614Y-4780D01*
X115635Y-4830D01*
X116254Y-5449D01*
X117062Y-5784D01*
X117938D01*
X118746Y-5449D01*
X119365Y-4830D01*
X119700Y-4022D01*
Y-3146D01*
X119365Y-2338D01*
X118746Y-1719D01*
X118512Y-1622D01*
X117090Y-200D01*
X117297Y300D01*
X117875D01*
X118684Y635D01*
X119303Y1254D01*
X119638Y2062D01*
Y2938D01*
X119473Y3336D01*
X119760Y3846D01*
X120069Y3886D01*
X130775Y-6820D01*
X130584Y-7282D01*
X111508D01*
X111505Y-7280D01*
X111505Y-7279D01*
X111482Y-7277D01*
X111482Y-7282D01*
X79178Y-6921D01*
X62022Y10235D01*
X61726Y10433D01*
X61377Y10502D01*
X60856D01*
X60717Y10837D01*
X60098Y11456D01*
X59289Y11791D01*
X58414D01*
X57606Y11456D01*
X56987Y10837D01*
X56652Y10029D01*
Y9153D01*
X56987Y8345D01*
X57606Y7726D01*
X58414Y7391D01*
X59289D01*
X60098Y7726D01*
X60717Y8345D01*
X61281Y8399D01*
X78152Y-8472D01*
X78295Y-8568D01*
X78438Y-8666D01*
X78443Y-8667D01*
X78447Y-8670D01*
X78617Y-8704D01*
X78786Y-8739D01*
X111018Y-9100D01*
X111482Y-9115D01*
X111500Y-9117D01*
X111511Y-9115D01*
X112007Y-9105D01*
X151098D01*
X151200Y-9173D01*
X151549Y-9243D01*
X151549Y-9243D01*
X158451D01*
X158800Y-9173D01*
X159095Y-8976D01*
X159160Y-8911D01*
X169996D01*
X170135Y-9246D01*
X170754Y-9865D01*
X171562Y-10200D01*
X172438D01*
X173246Y-9865D01*
X173865Y-9246D01*
X174200Y-8438D01*
Y-7562D01*
X173865Y-6754D01*
X173246Y-6135D01*
X172438Y-5800D01*
X171931D01*
X171597Y-5300D01*
X171620Y-5244D01*
Y-4369D01*
X171353Y-3724D01*
X171602Y-3224D01*
X178605D01*
X184025Y-8644D01*
X184025Y-8644D01*
X184321Y-8842D01*
X184669Y-8911D01*
X189258D01*
X189412Y-9486D01*
X189919Y-10364D01*
X190636Y-11081D01*
X190668Y-11099D01*
X190539Y-11582D01*
X-11582D01*
Y136582D01*
X167847D01*
X168054Y136082D01*
D02*
G37*
G36*
X481967Y131582D02*
X484818D01*
X485067Y131082D01*
X484800Y130438D01*
Y129562D01*
X484939Y129227D01*
X474479Y118767D01*
X470813D01*
X470621Y119229D01*
X473196Y121804D01*
X473196Y121804D01*
X473393Y122100D01*
X473463Y122449D01*
X473463Y122449D01*
Y125674D01*
X479378Y131589D01*
X481936D01*
X481967Y131582D01*
D02*
G37*
G36*
X307297Y131295D02*
X306755Y131070D01*
X305633Y130321D01*
X304679Y129367D01*
X303930Y128245D01*
X303413Y126998D01*
X303150Y125675D01*
Y124325D01*
X303413Y123002D01*
X303930Y121755D01*
X304679Y120633D01*
X305633Y119679D01*
X306755Y118930D01*
X308002Y118413D01*
X309325Y118150D01*
X310675D01*
X311402Y118295D01*
X311648Y117834D01*
X306908Y113094D01*
X304318D01*
X303969Y113024D01*
X303673Y112827D01*
X290896Y100050D01*
X290406Y100148D01*
X290365Y100246D01*
X289746Y100865D01*
X288938Y101200D01*
X288062D01*
X287254Y100865D01*
X286635Y100246D01*
X286300Y99438D01*
Y98562D01*
X286635Y97754D01*
X287254Y97135D01*
X287899Y96868D01*
X288076Y96338D01*
X262727Y70989D01*
X262530Y70694D01*
X262460Y70345D01*
Y69628D01*
X262493Y69464D01*
X262254Y69365D01*
X261911Y69023D01*
X261411Y69230D01*
Y79613D01*
X261598Y79800D01*
X262438D01*
X263246Y80135D01*
X263338Y80227D01*
X263824Y80005D01*
X264135Y79254D01*
X264754Y78635D01*
X265562Y78300D01*
X266438D01*
X267246Y78635D01*
X267865Y79254D01*
X268200Y80062D01*
Y80938D01*
X267865Y81746D01*
X267246Y82365D01*
X266438Y82700D01*
X265562D01*
X264754Y82365D01*
X264662Y82273D01*
X264176Y82495D01*
X263865Y83246D01*
X263246Y83865D01*
X262601Y84132D01*
X262424Y84662D01*
X281241Y103480D01*
X283354D01*
X283702Y103549D01*
X283998Y103746D01*
X285459Y105207D01*
X285459Y105207D01*
X285656Y105503D01*
X285726Y105852D01*
Y106910D01*
X290904Y112089D01*
X291996D01*
X292135Y111754D01*
X292754Y111135D01*
X293562Y110800D01*
X294438D01*
X295246Y111135D01*
X295865Y111754D01*
X296200Y112562D01*
Y113438D01*
X295865Y114246D01*
X295246Y114865D01*
X294438Y115200D01*
X293562D01*
X292754Y114865D01*
X292135Y114246D01*
X291996Y113911D01*
X290527D01*
X290178Y113842D01*
X289882Y113644D01*
X289882Y113644D01*
X284170Y107932D01*
X283973Y107636D01*
X283903Y107288D01*
Y106229D01*
X282976Y105302D01*
X280864D01*
X280515Y105233D01*
X280220Y105035D01*
X273898Y98714D01*
X273817Y98725D01*
X273414Y98936D01*
Y100029D01*
X280471Y107087D01*
X280471Y107087D01*
X280669Y107382D01*
X280691Y107493D01*
X281713Y108514D01*
X281823Y108537D01*
X282119Y108734D01*
X290004Y116619D01*
X290339Y116481D01*
X291214D01*
X292023Y116815D01*
X292642Y117434D01*
X292976Y118243D01*
Y119118D01*
X292642Y119927D01*
X292023Y120546D01*
X291214Y120881D01*
X290339D01*
X289530Y120546D01*
X288912Y119927D01*
X288577Y119118D01*
Y118243D01*
X288715Y117908D01*
X281049Y110242D01*
X280939Y110220D01*
X280643Y110023D01*
X280643Y110023D01*
X279183Y108562D01*
X278985Y108266D01*
X278963Y108156D01*
X271858Y101051D01*
X271660Y100755D01*
X271591Y100406D01*
Y99158D01*
X254350Y81918D01*
X249398D01*
X248677Y82638D01*
X248382Y82836D01*
X248033Y82905D01*
X245967D01*
X245618Y82836D01*
X245323Y82638D01*
X245323Y82638D01*
X244602Y81918D01*
X239886D01*
X239695Y82379D01*
X244123Y86807D01*
X249879D01*
X250228Y86877D01*
X250524Y87074D01*
X251038Y87589D01*
X253527D01*
X253875Y87658D01*
X254171Y87856D01*
X256723Y90407D01*
X258025D01*
X258374Y90477D01*
X258669Y90674D01*
X299790Y131795D01*
X307198D01*
X307297Y131295D01*
D02*
G37*
G36*
X427279Y119582D02*
X426754Y119365D01*
X426135Y118746D01*
X425800Y117938D01*
Y117062D01*
X426135Y116254D01*
X426754Y115635D01*
X427562Y115300D01*
X428438D01*
X428578Y114838D01*
X427874Y114547D01*
X427255Y113928D01*
X426920Y113119D01*
Y112244D01*
X426982Y112094D01*
X426704Y111678D01*
X415084D01*
X413744Y113018D01*
X413760Y113648D01*
X414166Y114055D01*
X414501Y114864D01*
Y115739D01*
X414166Y116548D01*
X413548Y117166D01*
X412739Y117501D01*
X411864D01*
X411055Y117166D01*
X410436Y116548D01*
X410101Y115739D01*
Y114864D01*
X410368Y114219D01*
X410119Y113719D01*
X389910D01*
X387984Y115644D01*
X387689Y115842D01*
X387340Y115911D01*
X365806D01*
X365707Y116407D01*
X365783Y116443D01*
X366246Y116635D01*
X366865Y117254D01*
X367200Y118062D01*
Y118938D01*
X367061Y119272D01*
X367871Y120082D01*
X414318D01*
X414567Y119582D01*
X414300Y118938D01*
Y118062D01*
X414635Y117254D01*
X415254Y116635D01*
X416062Y116300D01*
X416938D01*
X417746Y116635D01*
X418365Y117254D01*
X418376Y117280D01*
X418917D01*
X419135Y116754D01*
X419754Y116135D01*
X420562Y115800D01*
X421438D01*
X422246Y116135D01*
X422865Y116754D01*
X423200Y117562D01*
Y118438D01*
X422865Y119246D01*
X422529Y119582D01*
X422736Y120082D01*
X427179D01*
X427279Y119582D01*
D02*
G37*
G36*
X148516Y116648D02*
X148324Y116186D01*
X137881D01*
X137532Y116116D01*
X137236Y115919D01*
X137236Y115919D01*
X136729Y115411D01*
X121868D01*
X121867Y115411D01*
X121519Y115342D01*
X121223Y115144D01*
X121223Y115144D01*
X119105Y113026D01*
X118770Y113165D01*
X117895D01*
X117086Y112830D01*
X116467Y112211D01*
X116133Y111403D01*
Y110528D01*
X116467Y109719D01*
X117086Y109100D01*
X117895Y108765D01*
X118770D01*
X119579Y109100D01*
X120198Y109719D01*
X120533Y110528D01*
Y111403D01*
X120394Y111738D01*
X122245Y113589D01*
X125418D01*
X125570Y113089D01*
X125299Y112908D01*
X118100Y105708D01*
X117600Y105916D01*
Y106540D01*
X117321Y107582D01*
X116781Y108518D01*
X116017Y109281D01*
X115083Y109821D01*
X114040Y110100D01*
X113335D01*
X113128Y110600D01*
X121089Y118561D01*
X146602D01*
X148516Y116648D01*
D02*
G37*
G36*
X355235Y112373D02*
X355043Y111911D01*
X350504D01*
X350365Y112246D01*
X349746Y112865D01*
X348938Y113200D01*
X348062D01*
X347254Y112865D01*
X346635Y112246D01*
X346300Y111438D01*
Y110562D01*
X346635Y109754D01*
X347254Y109135D01*
X348062Y108800D01*
X348938D01*
X349746Y109135D01*
X350365Y109754D01*
X350504Y110089D01*
X355839D01*
X365393Y100535D01*
X365202Y100073D01*
X364004D01*
X363865Y100408D01*
X363246Y101027D01*
X362438Y101362D01*
X361562D01*
X360754Y101027D01*
X360135Y100408D01*
X359800Y99599D01*
Y98724D01*
X360135Y97915D01*
X360754Y97297D01*
X361562Y96961D01*
X362438D01*
X363246Y97297D01*
X363865Y97915D01*
X364004Y98250D01*
X393000D01*
X393349Y98320D01*
X393644Y98517D01*
X395216Y100089D01*
X412593D01*
X412800Y99589D01*
X412096Y98885D01*
X406974D01*
X406625Y98816D01*
X406329Y98618D01*
X404658Y96947D01*
X404575Y96822D01*
X404484Y96702D01*
X404476Y96675D01*
X404461Y96651D01*
X404431Y96504D01*
X404393Y96359D01*
X404344Y95555D01*
X403884Y95365D01*
X403265Y94746D01*
X402930Y93938D01*
Y93062D01*
X403198Y92418D01*
X402949Y91918D01*
X391336D01*
X391236Y92418D01*
X391746Y92629D01*
X392365Y93248D01*
X392700Y94056D01*
Y94931D01*
X392365Y95740D01*
X391746Y96359D01*
X390938Y96694D01*
X390062D01*
X389254Y96359D01*
X388635Y95740D01*
X388300Y94931D01*
Y94056D01*
X388567Y93411D01*
X388318Y92911D01*
X362399D01*
X350919Y104392D01*
X350600Y104737D01*
X350600Y104737D01*
X350416Y104916D01*
X350237Y105100D01*
X350237Y105100D01*
X349892Y105419D01*
X338315Y116996D01*
X338506Y117458D01*
X350150D01*
X355235Y112373D01*
D02*
G37*
G36*
X296413Y136120D02*
X268561Y108268D01*
X268061Y108475D01*
Y108799D01*
X267726Y109607D01*
X267107Y110226D01*
X266929Y110300D01*
X266935Y110661D01*
X266983Y110819D01*
X267746Y111135D01*
X268365Y111754D01*
X268700Y112562D01*
Y113438D01*
X268365Y114246D01*
X267746Y114865D01*
X266938Y115200D01*
X266062D01*
X265254Y114865D01*
X264635Y114246D01*
X264300Y113438D01*
Y112562D01*
X264635Y111754D01*
X265254Y111135D01*
X265432Y111061D01*
X265426Y110700D01*
X265378Y110542D01*
X264615Y110226D01*
X263996Y109607D01*
X263661Y108799D01*
Y107923D01*
X263800Y107589D01*
X258349Y102138D01*
X258152Y101843D01*
X258096Y101559D01*
X257908Y101449D01*
X257582Y101365D01*
X257369Y101579D01*
X256560Y101914D01*
X256532D01*
X256465Y102253D01*
X256267Y102548D01*
X245375Y113440D01*
X245493Y114030D01*
X245746Y114135D01*
X246365Y114754D01*
X246700Y115562D01*
Y116438D01*
X246611Y116653D01*
X246478Y117319D01*
X246014Y118014D01*
X227946Y136082D01*
X228153Y136582D01*
X296222D01*
X296413Y136120D01*
D02*
G37*
G36*
X230576Y102162D02*
X230399Y101632D01*
X229754Y101365D01*
X229135Y100746D01*
X228800Y99938D01*
Y99062D01*
X228809Y99041D01*
X228475Y98541D01*
X209546D01*
X209339Y99041D01*
X209781Y99483D01*
X210321Y100417D01*
X210600Y101460D01*
Y102540D01*
X210321Y103583D01*
X209781Y104517D01*
X209017Y105281D01*
X208083Y105821D01*
X207040Y106100D01*
X205960D01*
X204918Y105821D01*
X203982Y105281D01*
X203947Y105245D01*
X202724Y105704D01*
X202347Y105766D01*
X201972Y105841D01*
X192180D01*
Y105849D01*
X190692Y105653D01*
X189306Y105079D01*
X189173Y104977D01*
X189117Y104955D01*
X183073Y101141D01*
X126564D01*
X125745Y100978D01*
X125050Y100514D01*
X124828Y100292D01*
X124288Y100459D01*
X124031Y101080D01*
X123412Y101699D01*
X122767Y101966D01*
X122590Y102496D01*
X128182Y108089D01*
X138485D01*
X140531Y106042D01*
X140827Y105845D01*
X141176Y105775D01*
X146224D01*
X146573Y105845D01*
X146869Y106042D01*
X148915Y108089D01*
X224649D01*
X230576Y102162D01*
D02*
G37*
G36*
X786582Y-11582D02*
X444539D01*
X444348Y-11120D01*
X458159Y2690D01*
X458583Y2407D01*
X458413Y1998D01*
X458150Y675D01*
Y-675D01*
X458413Y-1998D01*
X458930Y-3245D01*
X459679Y-4367D01*
X460633Y-5321D01*
X461755Y-6070D01*
X463002Y-6587D01*
X464325Y-6850D01*
X465675D01*
X466998Y-6587D01*
X468245Y-6070D01*
X469367Y-5321D01*
X470321Y-4367D01*
X471070Y-3245D01*
X471587Y-1998D01*
X471850Y-675D01*
Y675D01*
X471587Y1998D01*
X471070Y3245D01*
X470321Y4367D01*
X469367Y5321D01*
X468750Y5733D01*
X468902Y6233D01*
X477218D01*
X479095Y4356D01*
X479390Y4158D01*
X479739Y4089D01*
X493996D01*
X494135Y3754D01*
X494754Y3135D01*
X495562Y2800D01*
X496438D01*
X497246Y3135D01*
X497865Y3754D01*
X498200Y4562D01*
Y5438D01*
X497865Y6246D01*
X497246Y6865D01*
X496438Y7200D01*
X495562D01*
X494754Y6865D01*
X494135Y6246D01*
X493996Y5911D01*
X480116D01*
X478239Y7788D01*
X477944Y7986D01*
X477595Y8055D01*
X462497D01*
X462306Y8517D01*
X475562Y21773D01*
X476192D01*
X476713Y21251D01*
X477522Y20916D01*
X478397D01*
X479206Y21251D01*
X479824Y21870D01*
X480092Y22515D01*
X480621Y22692D01*
X490038Y13276D01*
X489998Y12609D01*
X489635Y12246D01*
X489300Y11438D01*
Y10562D01*
X489635Y9754D01*
X490254Y9135D01*
X491062Y8800D01*
X491938D01*
X492746Y9135D01*
X493365Y9754D01*
X493700Y10562D01*
Y11438D01*
X493365Y12246D01*
X492746Y12865D01*
X492411Y13004D01*
Y13103D01*
X492342Y13451D01*
X492144Y13747D01*
X479213Y26678D01*
X478918Y26876D01*
X478569Y26945D01*
X478497D01*
Y26971D01*
X478162Y27780D01*
X477543Y28399D01*
X476735Y28734D01*
X475860D01*
X475051Y28399D01*
X474432Y27780D01*
X474321Y27512D01*
X473783Y27318D01*
X473109Y27597D01*
X472234D01*
X471425Y27262D01*
X470907Y26744D01*
X470462Y26746D01*
X470324Y26787D01*
X469746Y27365D01*
X468938Y27700D01*
X468062D01*
X467254Y27365D01*
X466917Y27028D01*
X466358Y27072D01*
X465739Y27691D01*
X464930Y28026D01*
X464055D01*
X463720Y27887D01*
X461963Y29644D01*
X461667Y29842D01*
X461318Y29911D01*
X459906D01*
X459800Y30082D01*
X460079Y30582D01*
X468441D01*
X469356Y29668D01*
X469651Y29470D01*
X470000Y29401D01*
X470000Y29401D01*
X492283D01*
X494529Y27156D01*
X494246Y26773D01*
X493438Y27108D01*
X492562D01*
X491754Y26773D01*
X491135Y26154D01*
X490800Y25345D01*
Y24470D01*
X491135Y23662D01*
X491754Y23043D01*
X492562Y22708D01*
X493438D01*
X494246Y23043D01*
X494865Y23662D01*
X495200Y24470D01*
Y25345D01*
X494865Y26154D01*
X495248Y26436D01*
X507595Y14089D01*
Y12494D01*
X507664Y12145D01*
X507862Y11849D01*
X516849Y2862D01*
X517145Y2664D01*
X517494Y2595D01*
X517494Y2595D01*
X544590D01*
X544823Y2362D01*
X545118Y2164D01*
X545467Y2095D01*
X545467Y2095D01*
X547533D01*
X547882Y2164D01*
X548177Y2362D01*
X548411Y2595D01*
X587506D01*
X587855Y2664D01*
X588151Y2862D01*
X598271Y12982D01*
X599456D01*
X599522Y12483D01*
X598917Y12321D01*
X597983Y11781D01*
X597219Y11017D01*
X596679Y10082D01*
X596400Y9040D01*
Y7960D01*
X596679Y6917D01*
X597219Y5982D01*
X597983Y5219D01*
X598917Y4679D01*
X599960Y4400D01*
X601040D01*
X602082Y4679D01*
X603018Y5219D01*
X603781Y5982D01*
X604321Y6917D01*
X604600Y7960D01*
Y9040D01*
X604321Y10082D01*
X603781Y11017D01*
X603018Y11781D01*
X602082Y12321D01*
X601478Y12483D01*
X601544Y12982D01*
X638456D01*
X638522Y12483D01*
X637918Y12321D01*
X636982Y11781D01*
X636219Y11017D01*
X635679Y10082D01*
X635400Y9040D01*
Y7960D01*
X635679Y6917D01*
X636219Y5982D01*
X636982Y5219D01*
X637918Y4679D01*
X638960Y4400D01*
X640040D01*
X641082Y4679D01*
X642018Y5219D01*
X642781Y5982D01*
X643321Y6917D01*
X643600Y7960D01*
Y9040D01*
X643321Y10082D01*
X642781Y11017D01*
X642018Y11781D01*
X641082Y12321D01*
X640478Y12483D01*
X640544Y12982D01*
X660198D01*
X660332Y12483D01*
X659982Y12281D01*
X659219Y11518D01*
X658679Y10582D01*
X658400Y9540D01*
Y8460D01*
X658679Y7418D01*
X659219Y6482D01*
X659982Y5719D01*
X660918Y5179D01*
X661960Y4900D01*
X663040D01*
X664082Y5179D01*
X665018Y5719D01*
X665781Y6482D01*
X666321Y7418D01*
X666600Y8460D01*
Y9540D01*
X666321Y10582D01*
X665781Y11518D01*
X665018Y12281D01*
X664668Y12483D01*
X664802Y12982D01*
X672977D01*
X673184Y12483D01*
X672719Y12017D01*
X672179Y11083D01*
X671900Y10040D01*
Y8960D01*
X672179Y7918D01*
X672719Y6983D01*
X673483Y6219D01*
X674417Y5679D01*
X675460Y5400D01*
X676540D01*
X677583Y5679D01*
X678517Y6219D01*
X679281Y6983D01*
X679821Y7918D01*
X680100Y8960D01*
Y10040D01*
X679821Y11083D01*
X679281Y12017D01*
X678816Y12483D01*
X679023Y12982D01*
X684229D01*
X685527Y11684D01*
X685179Y11083D01*
X684900Y10040D01*
Y8960D01*
X685179Y7918D01*
X685719Y6983D01*
X686482Y6219D01*
X687418Y5679D01*
X688460Y5400D01*
X689540D01*
X690583Y5679D01*
X691517Y6219D01*
X692281Y6983D01*
X692821Y7918D01*
X693100Y8960D01*
Y10040D01*
X692821Y11083D01*
X692281Y12017D01*
X691517Y12781D01*
X690583Y13321D01*
X689540Y13600D01*
X688460D01*
X687418Y13321D01*
X686816Y12973D01*
X686081Y13708D01*
X686272Y14170D01*
X694729D01*
X697214Y11684D01*
X696867Y11083D01*
X696588Y10040D01*
Y8960D01*
X696867Y7918D01*
X697407Y6983D01*
X698170Y6219D01*
X699105Y5679D01*
X700148Y5400D01*
X701227D01*
X702270Y5679D01*
X703205Y6219D01*
X703968Y6983D01*
X704508Y7918D01*
X704787Y8960D01*
Y10040D01*
X704508Y11083D01*
X703968Y12017D01*
X703205Y12781D01*
X702270Y13321D01*
X701227Y13600D01*
X700148D01*
X699105Y13321D01*
X698503Y12973D01*
X695751Y15726D01*
X695455Y15923D01*
X695106Y15993D01*
X679766D01*
X679517Y16493D01*
X679784Y17138D01*
Y18013D01*
X679545Y18589D01*
X679835Y19089D01*
X701498D01*
X708902Y11684D01*
X708554Y11083D01*
X708275Y10040D01*
Y8960D01*
X708554Y7918D01*
X709094Y6983D01*
X709858Y6219D01*
X710792Y5679D01*
X711835Y5400D01*
X712915D01*
X713958Y5679D01*
X714892Y6219D01*
X715656Y6983D01*
X716196Y7918D01*
X716475Y8960D01*
Y10040D01*
X716196Y11083D01*
X715656Y12017D01*
X714892Y12781D01*
X713958Y13321D01*
X712915Y13600D01*
X711835D01*
X710792Y13321D01*
X710191Y12973D01*
X703037Y20127D01*
X703228Y20589D01*
X711685D01*
X720589Y11684D01*
X720242Y11083D01*
X719963Y10040D01*
Y8960D01*
X720242Y7918D01*
X720782Y6983D01*
X721545Y6219D01*
X722480Y5679D01*
X723523Y5400D01*
X724602D01*
X725645Y5679D01*
X726580Y6219D01*
X727343Y6983D01*
X727883Y7918D01*
X728162Y8960D01*
Y10040D01*
X727883Y11083D01*
X727343Y12017D01*
X726580Y12781D01*
X725645Y13321D01*
X724602Y13600D01*
X723523D01*
X722480Y13321D01*
X721878Y12973D01*
X713157Y21695D01*
X713364Y22195D01*
X716106D01*
X716455Y22264D01*
X716751Y22462D01*
X718316Y24027D01*
X718918Y23679D01*
X719960Y23400D01*
X721040D01*
X722083Y23679D01*
X723018Y24219D01*
X723781Y24983D01*
X724321Y25918D01*
X724600Y26960D01*
Y28040D01*
X724321Y29083D01*
X723781Y30018D01*
X723018Y30781D01*
X722083Y31321D01*
X721040Y31600D01*
X719960D01*
X718918Y31321D01*
X717982Y30781D01*
X717219Y30018D01*
X716679Y29083D01*
X716400Y28040D01*
Y26960D01*
X716679Y25918D01*
X717027Y25316D01*
X715729Y24017D01*
X713523D01*
X713316Y24518D01*
X713781Y24983D01*
X714321Y25918D01*
X714600Y26960D01*
Y28040D01*
X714321Y29083D01*
X713781Y30018D01*
X713018Y30781D01*
X712082Y31321D01*
X711040Y31600D01*
X709960D01*
X708918Y31321D01*
X707982Y30781D01*
X707219Y30018D01*
X706679Y29083D01*
X706400Y28040D01*
Y26960D01*
X706679Y25918D01*
X707219Y24983D01*
X707684Y24518D01*
X707477Y24017D01*
X647771D01*
X621473Y50316D01*
X621821Y50918D01*
X622100Y51960D01*
Y53040D01*
X621821Y54083D01*
X621281Y55018D01*
X620517Y55781D01*
X619583Y56321D01*
X618540Y56600D01*
X617460D01*
X616418Y56321D01*
X615483Y55781D01*
X614719Y55018D01*
X614179Y54083D01*
X613900Y53040D01*
Y51960D01*
X614179Y50918D01*
X614527Y50316D01*
X610122Y45911D01*
X598353D01*
X598162Y46373D01*
X612431Y60642D01*
X612629Y60938D01*
X612698Y61287D01*
Y62123D01*
X613400Y62825D01*
X613900Y62618D01*
Y61960D01*
X614179Y60918D01*
X614719Y59983D01*
X615483Y59219D01*
X616418Y58679D01*
X617460Y58400D01*
X618540D01*
X619583Y58679D01*
X620184Y59027D01*
X641749Y37462D01*
X642045Y37264D01*
X642394Y37195D01*
X642394Y37195D01*
X657339D01*
X657564Y36695D01*
X656930Y35745D01*
X656413Y34498D01*
X656150Y33175D01*
Y31825D01*
X656413Y30502D01*
X656930Y29255D01*
X657679Y28133D01*
X658633Y27179D01*
X659755Y26430D01*
X661002Y25913D01*
X662325Y25650D01*
X663675D01*
X664998Y25913D01*
X666245Y26430D01*
X667367Y27179D01*
X668321Y28133D01*
X669070Y29255D01*
X669587Y30502D01*
X669850Y31825D01*
Y33175D01*
X669587Y34498D01*
X669070Y35745D01*
X668321Y36867D01*
X667367Y37821D01*
X666750Y38232D01*
X666902Y38732D01*
X717979D01*
X727027Y29684D01*
X726679Y29083D01*
X726400Y28040D01*
Y26960D01*
X726679Y25918D01*
X727219Y24983D01*
X727983Y24219D01*
X728918Y23679D01*
X729960Y23400D01*
X731040D01*
X732083Y23679D01*
X733017Y24219D01*
X733781Y24983D01*
X734321Y25918D01*
X734600Y26960D01*
Y28040D01*
X734321Y29083D01*
X733781Y30018D01*
X733017Y30781D01*
X732083Y31321D01*
X731040Y31600D01*
X729960D01*
X728918Y31321D01*
X728316Y30973D01*
X719001Y40288D01*
X718705Y40486D01*
X718356Y40555D01*
X660041D01*
X659692Y40486D01*
X659397Y40288D01*
X658126Y39018D01*
X651023D01*
X650816Y39518D01*
X651281Y39983D01*
X651821Y40918D01*
X652100Y41960D01*
Y43040D01*
X651821Y44082D01*
X651281Y45017D01*
X650816Y45483D01*
X651023Y45983D01*
X726942D01*
X740825Y32100D01*
X740618Y31600D01*
X739960D01*
X738917Y31321D01*
X737983Y30781D01*
X737219Y30018D01*
X736679Y29083D01*
X736400Y28040D01*
Y26960D01*
X736679Y25918D01*
X737219Y24983D01*
X737983Y24219D01*
X738917Y23679D01*
X739960Y23400D01*
X741040D01*
X741674Y23570D01*
X742132Y23198D01*
Y7680D01*
X742202Y7331D01*
X742399Y7036D01*
X744973Y4462D01*
X745269Y4264D01*
X745617Y4195D01*
X749258D01*
X749606Y4264D01*
X749902Y4462D01*
X752476Y7036D01*
X752673Y7331D01*
X752743Y7680D01*
Y24062D01*
X752743Y24062D01*
X752673Y24411D01*
X752476Y24706D01*
X752476Y24706D01*
X718456Y58726D01*
X718161Y58923D01*
X717812Y58993D01*
X650998D01*
X650791Y59493D01*
X651281Y59983D01*
X651821Y60918D01*
X652100Y61960D01*
Y63040D01*
X651821Y64082D01*
X651281Y65017D01*
X650518Y65781D01*
X649582Y66321D01*
X648540Y66600D01*
X647460D01*
X646418Y66321D01*
X645482Y65781D01*
X644719Y65017D01*
X644179Y64082D01*
X643900Y63040D01*
Y61960D01*
X644179Y60918D01*
X644719Y59983D01*
X645209Y59493D01*
X645002Y58993D01*
X632796D01*
X621473Y70316D01*
X621821Y70917D01*
X622000Y71589D01*
X628194D01*
X628294Y71089D01*
X627754Y70865D01*
X627135Y70246D01*
X626800Y69438D01*
Y68562D01*
X627135Y67754D01*
X627754Y67135D01*
X628562Y66800D01*
X629438D01*
X630246Y67135D01*
X630865Y67754D01*
X631200Y68562D01*
Y69438D01*
X630865Y70246D01*
X630246Y70865D01*
X629706Y71089D01*
X629806Y71589D01*
X631786D01*
X632135Y71658D01*
X632431Y71856D01*
X637770Y77195D01*
X649820D01*
X650169Y77264D01*
X650464Y77462D01*
X656501Y83498D01*
X656698Y83794D01*
X656768Y84142D01*
Y88598D01*
X657268Y88750D01*
X657679Y88133D01*
X658633Y87179D01*
X659755Y86430D01*
X661002Y85913D01*
X662325Y85650D01*
X663675D01*
X664998Y85913D01*
X666245Y86430D01*
X667367Y87179D01*
X668321Y88133D01*
X669070Y89255D01*
X669587Y90502D01*
X669850Y91825D01*
Y93175D01*
X669587Y94498D01*
X669070Y95745D01*
X668321Y96867D01*
X667367Y97821D01*
X666245Y98570D01*
X664998Y99087D01*
X663675Y99350D01*
X662325D01*
X661540Y99194D01*
X661293Y99655D01*
X673166Y111527D01*
X673768Y111179D01*
X674810Y110900D01*
X675890D01*
X676932Y111179D01*
X677868Y111719D01*
X678333Y112184D01*
X678832Y111977D01*
Y82621D01*
X661772Y65561D01*
X661438Y65700D01*
X660562D01*
X659754Y65365D01*
X659135Y64746D01*
X658800Y63938D01*
Y63062D01*
X659135Y62254D01*
X659754Y61635D01*
X660562Y61300D01*
X661438D01*
X662246Y61635D01*
X662865Y62254D01*
X663200Y63062D01*
Y63938D01*
X663061Y64272D01*
X680388Y81599D01*
X680388Y81599D01*
X680586Y81895D01*
X680655Y82244D01*
Y116820D01*
X680586Y117169D01*
X680388Y117464D01*
X678264Y119589D01*
X678471Y120089D01*
X746623D01*
X749089Y117622D01*
Y107378D01*
X742684Y100973D01*
X742083Y101321D01*
X741040Y101600D01*
X739960D01*
X738917Y101321D01*
X737983Y100781D01*
X737219Y100017D01*
X736679Y99082D01*
X736400Y98040D01*
Y96960D01*
X736679Y95917D01*
X737219Y94982D01*
X737983Y94219D01*
X738917Y93679D01*
X739960Y93400D01*
X741040D01*
X742083Y93679D01*
X743017Y94219D01*
X743781Y94982D01*
X744321Y95917D01*
X744600Y96960D01*
Y98040D01*
X744321Y99082D01*
X743973Y99684D01*
X750644Y106356D01*
X750842Y106651D01*
X750911Y107000D01*
Y114433D01*
X751400Y114460D01*
X751679Y113417D01*
X752219Y112483D01*
X752983Y111719D01*
X753918Y111179D01*
X754960Y110900D01*
X756040D01*
X757083Y111179D01*
X758017Y111719D01*
X758781Y112483D01*
X759321Y113417D01*
X759600Y114460D01*
Y115084D01*
X760100Y115292D01*
X762459Y112933D01*
Y105046D01*
X761959Y104839D01*
X761517Y105281D01*
X760582Y105821D01*
X759540Y106100D01*
X758460D01*
X757417Y105821D01*
X756483Y105281D01*
X755719Y104517D01*
X755179Y103583D01*
X754900Y102540D01*
Y101460D01*
X755179Y100417D01*
X755719Y99483D01*
X756483Y98719D01*
X757417Y98179D01*
X758460Y97900D01*
X759540D01*
X760582Y98179D01*
X761517Y98719D01*
X761959Y99161D01*
X762459Y98953D01*
Y96476D01*
X759870Y93887D01*
X759540Y93975D01*
X758460D01*
X757417Y93696D01*
X756483Y93156D01*
X755719Y92392D01*
X755179Y91457D01*
X754900Y90415D01*
Y89335D01*
X755179Y88292D01*
X755719Y87357D01*
X756483Y86594D01*
X757417Y86054D01*
X758460Y85775D01*
X759540D01*
X760582Y86054D01*
X761517Y86594D01*
X762281Y87357D01*
X762821Y88292D01*
X763100Y89335D01*
Y90415D01*
X762963Y90924D01*
X766114Y94075D01*
X766578Y94769D01*
X766741Y95589D01*
Y113820D01*
X766578Y114639D01*
X766114Y115334D01*
X759070Y122378D01*
X758885Y122502D01*
X755436Y125950D01*
X755643Y126450D01*
X755967D01*
X756870Y126692D01*
X757680Y127159D01*
X758341Y127820D01*
X758808Y128630D01*
X759050Y129533D01*
Y130467D01*
X758808Y131370D01*
X758341Y132180D01*
X757680Y132841D01*
X756870Y133308D01*
X755967Y133550D01*
X755033D01*
X754130Y133308D01*
X753320Y132841D01*
X752659Y132180D01*
X752597Y132072D01*
X752098Y132056D01*
X751964Y132256D01*
X748137Y136082D01*
X748345Y136582D01*
X786582D01*
Y-11582D01*
D02*
G37*
G36*
X39057Y111059D02*
X38800Y110438D01*
Y109562D01*
X39135Y108754D01*
X39754Y108135D01*
X39896Y108076D01*
X52286Y95686D01*
X52981Y95222D01*
X53800Y95059D01*
X75146D01*
X75543Y94662D01*
X75375Y94122D01*
X74754Y93865D01*
X74135Y93246D01*
X73800Y92438D01*
Y91562D01*
X74135Y90754D01*
X74754Y90135D01*
X75562Y89800D01*
X76438D01*
X77246Y90135D01*
X77865Y90754D01*
X78122Y91375D01*
X78662Y91543D01*
X80419Y89786D01*
X81113Y89322D01*
X81933Y89159D01*
X121163D01*
X121370Y88659D01*
X85623Y52911D01*
X78696D01*
X78418Y53327D01*
X78516Y53562D01*
Y54438D01*
X78181Y55246D01*
X77562Y55865D01*
X76753Y56200D01*
X75878D01*
X75070Y55865D01*
X74451Y55246D01*
X74116Y54438D01*
Y53562D01*
X74451Y52754D01*
X75070Y52135D01*
X75878Y51800D01*
X76753D01*
X76755Y51801D01*
X77200Y51356D01*
X77495Y51158D01*
X77844Y51089D01*
X86000D01*
X86349Y51158D01*
X86644Y51356D01*
X104735Y69446D01*
X105235Y69239D01*
Y68816D01*
X105570Y68007D01*
X106189Y67389D01*
X106997Y67054D01*
X107873D01*
X108287Y67225D01*
X108844Y66668D01*
X109140Y66470D01*
X109489Y66401D01*
X138540D01*
X138889Y66470D01*
X139184Y66668D01*
X140605Y68089D01*
X157324D01*
X157559Y67638D01*
X157561Y67589D01*
X150613Y60641D01*
X117949D01*
X117842Y60713D01*
X117396Y60802D01*
X117321Y61083D01*
X116781Y62018D01*
X116017Y62781D01*
X115083Y63321D01*
X114040Y63600D01*
X112960D01*
X111917Y63321D01*
X110983Y62781D01*
X110219Y62018D01*
X109679Y61083D01*
X109400Y60040D01*
Y58960D01*
X109679Y57917D01*
X110219Y56982D01*
X110502Y56700D01*
X110295Y56200D01*
X110062D01*
X109254Y55865D01*
X108635Y55246D01*
X108300Y54438D01*
Y53562D01*
X108635Y52754D01*
X109107Y52281D01*
Y51896D01*
X99856Y42644D01*
X99658Y42349D01*
X99589Y42000D01*
Y25304D01*
X99127Y25113D01*
X99095Y25144D01*
X98800Y25342D01*
X98451Y25411D01*
X62230D01*
X62023Y25911D01*
X62365Y26254D01*
X62700Y27062D01*
Y27938D01*
X62365Y28746D01*
X61746Y29365D01*
X60938Y29700D01*
X60062D01*
X59254Y29365D01*
X58635Y28746D01*
X58300Y27938D01*
Y27062D01*
X58635Y26254D01*
X58977Y25911D01*
X58770Y25411D01*
X33878D01*
X23911Y35377D01*
Y38270D01*
X24411Y38477D01*
X24754Y38135D01*
X25562Y37800D01*
X26438D01*
X27246Y38135D01*
X27865Y38754D01*
X28200Y39562D01*
Y40438D01*
X27865Y41246D01*
X27246Y41865D01*
X26438Y42200D01*
X25562D01*
X24754Y41865D01*
X24411Y41523D01*
X23911Y41730D01*
Y42528D01*
X24162Y42932D01*
X24838D01*
X25491Y43106D01*
X26077Y43445D01*
X26555Y43923D01*
X26893Y44509D01*
X27068Y45162D01*
Y45838D01*
X26893Y46491D01*
X26555Y47077D01*
X26077Y47555D01*
X25807Y47711D01*
Y48289D01*
X26077Y48445D01*
X26555Y48923D01*
X26893Y49509D01*
X27068Y50162D01*
Y50838D01*
X26893Y51491D01*
X26555Y52077D01*
X26077Y52555D01*
X25807Y52711D01*
Y53289D01*
X26077Y53445D01*
X26555Y53923D01*
X26893Y54509D01*
X27068Y55162D01*
Y55838D01*
X26893Y56491D01*
X26555Y57077D01*
X26077Y57555D01*
X25807Y57711D01*
Y58289D01*
X26077Y58445D01*
X26555Y58923D01*
X26893Y59509D01*
X27068Y60162D01*
Y60838D01*
X26893Y61491D01*
X26555Y62077D01*
X26077Y62555D01*
X25807Y62711D01*
Y63289D01*
X26077Y63445D01*
X26555Y63923D01*
X26893Y64509D01*
X27068Y65162D01*
Y65838D01*
X26893Y66491D01*
X26555Y67077D01*
X26077Y67555D01*
X25807Y67711D01*
Y68289D01*
X26077Y68445D01*
X26555Y68923D01*
X26893Y69509D01*
X27068Y70162D01*
Y70838D01*
X26893Y71491D01*
X26555Y72077D01*
X26077Y72555D01*
X25807Y72711D01*
Y73289D01*
X26077Y73445D01*
X26555Y73923D01*
X26893Y74509D01*
X27068Y75162D01*
Y75838D01*
X26893Y76491D01*
X26555Y77077D01*
X26077Y77555D01*
X25807Y77711D01*
Y78289D01*
X26077Y78445D01*
X26555Y78923D01*
X26893Y79509D01*
X27068Y80162D01*
Y80838D01*
X26893Y81491D01*
X26555Y82077D01*
X26077Y82555D01*
X25491Y82894D01*
X24838Y83069D01*
X24162D01*
X23509Y82894D01*
X23073Y82642D01*
X22573Y82858D01*
Y96277D01*
X23338Y97043D01*
X23878Y96875D01*
X24135Y96254D01*
X24754Y95635D01*
X25562Y95300D01*
X26438D01*
X27246Y95635D01*
X27865Y96254D01*
X28200Y97062D01*
Y97938D01*
X27865Y98746D01*
X27246Y99365D01*
X26625Y99622D01*
X26457Y100162D01*
X37854Y111559D01*
X38794D01*
X39057Y111059D01*
D02*
G37*
G36*
X449041Y97152D02*
X448635Y96746D01*
X448300Y95938D01*
Y95062D01*
X448439Y94727D01*
X443260Y89549D01*
X443063Y89253D01*
X442993Y88905D01*
Y74140D01*
X442659Y74002D01*
X442040Y73383D01*
X441705Y72574D01*
Y71699D01*
X442040Y70890D01*
X442659Y70272D01*
X443467Y69937D01*
X444342D01*
X445151Y70272D01*
X445770Y70890D01*
X446105Y71699D01*
Y72574D01*
X445770Y73383D01*
X445151Y74002D01*
X444816Y74140D01*
Y88527D01*
X449727Y93439D01*
X450062Y93300D01*
X450938D01*
X451746Y93635D01*
X452365Y94254D01*
X452700Y95062D01*
Y95938D01*
X452441Y96563D01*
X452865Y96846D01*
X471089Y78623D01*
Y66004D01*
X470754Y65865D01*
X470327Y65438D01*
X470000Y65302D01*
X469673Y65438D01*
X469246Y65865D01*
X468438Y66200D01*
X467562D01*
X466754Y65865D01*
X466135Y65246D01*
X465815Y64473D01*
X465586Y64413D01*
X465300Y64411D01*
X465144Y64644D01*
X460061Y69727D01*
X460200Y70062D01*
Y70938D01*
X459865Y71746D01*
X459246Y72365D01*
X458438Y72700D01*
X457562D01*
X456754Y72365D01*
X456135Y71746D01*
X455800Y70938D01*
Y70062D01*
X456135Y69254D01*
X456754Y68635D01*
X457562Y68300D01*
X458438D01*
X458773Y68439D01*
X463589Y63622D01*
Y44504D01*
X463254Y44365D01*
X462635Y43746D01*
X462300Y42938D01*
Y42062D01*
X462635Y41254D01*
X463254Y40635D01*
X464062Y40300D01*
X464938D01*
X465746Y40635D01*
X466365Y41254D01*
X466700Y42062D01*
Y42938D01*
X466365Y43746D01*
X465746Y44365D01*
X465411Y44504D01*
Y63194D01*
X465911Y63294D01*
X466135Y62754D01*
X466754Y62135D01*
X467562Y61800D01*
X468438D01*
X469246Y62135D01*
X469673Y62562D01*
X470000Y62698D01*
X470327Y62562D01*
X470754Y62135D01*
X471562Y61800D01*
X472438D01*
X473246Y62135D01*
X473865Y62754D01*
X474200Y63562D01*
Y64438D01*
X473865Y65246D01*
X473246Y65865D01*
X472911Y66004D01*
Y79000D01*
X472842Y79349D01*
X472644Y79644D01*
X472644Y79644D01*
X471704Y80585D01*
X471963Y81033D01*
X472460Y80900D01*
X473540D01*
X474582Y81179D01*
X475184Y81527D01*
X490589Y66123D01*
Y64700D01*
X490135Y64246D01*
X489800Y63438D01*
Y62562D01*
X490135Y61754D01*
X490754Y61135D01*
X491562Y60800D01*
X492438D01*
X493246Y61135D01*
X493865Y61754D01*
X494200Y62562D01*
Y63438D01*
X493865Y64246D01*
X493246Y64865D01*
X492438Y65200D01*
X492411D01*
Y66500D01*
X492342Y66849D01*
X492144Y67144D01*
X492144Y67144D01*
X488326Y70963D01*
X488572Y71424D01*
X488688Y71401D01*
X501583D01*
X501790Y70901D01*
X501635Y70746D01*
X501300Y69938D01*
Y69062D01*
X501635Y68254D01*
X502254Y67635D01*
X502589Y67496D01*
Y48377D01*
X496273Y42061D01*
X495938Y42200D01*
X495062D01*
X494254Y41865D01*
X493635Y41246D01*
X493300Y40438D01*
Y39562D01*
X493469Y39156D01*
X493134Y38656D01*
X439548D01*
X439548Y38656D01*
X439200Y38586D01*
X438904Y38389D01*
X438904Y38389D01*
X438676Y38161D01*
X437365D01*
X437137Y38389D01*
X436841Y38586D01*
X436493Y38656D01*
X434845D01*
X434511Y39156D01*
X434700Y39613D01*
Y40488D01*
X434365Y41297D01*
X433746Y41916D01*
X432987Y42230D01*
Y85946D01*
X433517Y86476D01*
X433852Y87285D01*
Y88160D01*
X433517Y88968D01*
X432899Y89587D01*
X432090Y89922D01*
X431215D01*
X430406Y89587D01*
X430373Y89555D01*
X429911Y89746D01*
Y90496D01*
X430246Y90635D01*
X430865Y91254D01*
X431200Y92062D01*
Y92938D01*
X430865Y93746D01*
X430246Y94365D01*
X429438Y94700D01*
X428562D01*
X427754Y94365D01*
X427135Y93746D01*
X426800Y92938D01*
Y92503D01*
X426300Y92404D01*
X426202Y92640D01*
X425584Y93259D01*
X424775Y93593D01*
X423900D01*
X423091Y93259D01*
X422472Y92640D01*
X422137Y91831D01*
Y91341D01*
X421637Y91134D01*
X421499Y91273D01*
X420690Y91608D01*
X419815D01*
X419006Y91273D01*
X418388Y90654D01*
X418007Y90578D01*
X417721Y90865D01*
X416912Y91200D01*
X416037D01*
X415228Y90865D01*
X414609Y90246D01*
X414274Y89438D01*
Y88562D01*
X414609Y87754D01*
X415228Y87135D01*
X415873Y86868D01*
X416050Y86338D01*
X415315Y85603D01*
X414865Y85400D01*
X414246Y86019D01*
X413438Y86354D01*
X412562D01*
X411754Y86019D01*
X411135Y85400D01*
X410925Y84893D01*
X410338Y84773D01*
X410246Y84865D01*
X409438Y85200D01*
X409239D01*
X409032Y85700D01*
X410714Y87382D01*
X411049Y87244D01*
X411924D01*
X412733Y87578D01*
X413352Y88197D01*
X413687Y89006D01*
Y89881D01*
X413352Y90690D01*
X412733Y91309D01*
X411924Y91644D01*
X411049D01*
X410241Y91309D01*
X409622Y90690D01*
X409287Y89881D01*
Y89006D01*
X409425Y88671D01*
X396759Y76005D01*
X396259Y76212D01*
Y84911D01*
X396190Y85259D01*
X395992Y85555D01*
X395992Y85555D01*
X394532Y87016D01*
X394236Y87213D01*
X393887Y87283D01*
X385871D01*
X385523Y87213D01*
X385227Y87016D01*
X385227Y87016D01*
X382696Y84485D01*
X381941Y84798D01*
X381066D01*
X380257Y84463D01*
X379638Y83844D01*
X379303Y83035D01*
Y82160D01*
X379638Y81352D01*
X380257Y80733D01*
X381066Y80398D01*
X381941D01*
X382749Y80733D01*
X383368Y81352D01*
X383703Y82160D01*
Y82914D01*
X386249Y85460D01*
X391931D01*
X392030Y84960D01*
X391578Y84773D01*
X390959Y84154D01*
X390624Y83345D01*
Y82470D01*
X390959Y81661D01*
X391578Y81043D01*
X392083Y80834D01*
Y79916D01*
X391582Y79817D01*
X391549Y79897D01*
X390931Y80516D01*
X390122Y80850D01*
X389247D01*
X388438Y80516D01*
X387819Y79897D01*
X387484Y79088D01*
Y78213D01*
X387819Y77404D01*
X388438Y76785D01*
X389247Y76451D01*
X390122D01*
X390931Y76785D01*
X391549Y77404D01*
X391582Y77484D01*
X392083Y77385D01*
Y64556D01*
X384014Y56487D01*
X383500Y56700D01*
X382625D01*
X381816Y56365D01*
X381197Y55746D01*
X380862Y54938D01*
Y54062D01*
X381197Y53254D01*
X381816Y52635D01*
X382625Y52300D01*
X383500D01*
X384309Y52635D01*
X384928Y53254D01*
X385262Y54062D01*
Y54938D01*
X385198Y55093D01*
X391627Y61522D01*
X392089Y61331D01*
Y60241D01*
X391594Y59746D01*
X391260Y58938D01*
Y58062D01*
X391594Y57254D01*
X391765Y57083D01*
X391648Y56493D01*
X391339Y56365D01*
X390720Y55746D01*
X390386Y54938D01*
Y54062D01*
X390720Y53254D01*
X391339Y52635D01*
X392148Y52300D01*
X393023D01*
X393832Y52635D01*
X394451Y53254D01*
X394785Y54062D01*
Y54938D01*
X394451Y55746D01*
X394280Y55917D01*
X394397Y56507D01*
X394706Y56635D01*
X395324Y57254D01*
X395589Y57891D01*
X396089Y57792D01*
Y40504D01*
X395754Y40365D01*
X395135Y39746D01*
X394800Y38938D01*
Y38196D01*
X394403Y37967D01*
X394338Y37951D01*
X392768Y39521D01*
X392472Y39719D01*
X392124Y39788D01*
X384917D01*
X384568Y39719D01*
X384272Y39521D01*
X384272Y39521D01*
X383975Y39224D01*
X383502Y39420D01*
X382627D01*
X381818Y39085D01*
X381199Y38466D01*
X380864Y37657D01*
Y36782D01*
X381131Y36137D01*
X380882Y35637D01*
X378758D01*
X376883Y37512D01*
X376995Y37800D01*
X377129Y37974D01*
X377938D01*
X378746Y38309D01*
X379365Y38928D01*
X379700Y39736D01*
Y40612D01*
X379365Y41420D01*
X378746Y42039D01*
X377938Y42374D01*
X377062D01*
X376254Y42039D01*
X375635Y41420D01*
X375300Y40612D01*
Y39803D01*
X375126Y39669D01*
X374838Y39557D01*
X374018Y40378D01*
Y41765D01*
X374953Y42700D01*
X375150Y42996D01*
X375219Y43344D01*
Y48438D01*
X375150Y48787D01*
X374953Y49082D01*
X373407Y50628D01*
X373401Y50632D01*
X373397Y50638D01*
X368737Y55162D01*
X368963Y55638D01*
X369668D01*
X370477Y55973D01*
X371096Y56592D01*
X371431Y57401D01*
Y58276D01*
X371177Y58889D01*
X371370Y59180D01*
X371440Y59528D01*
Y64102D01*
X371440Y64102D01*
X371370Y64451D01*
X371173Y64746D01*
X370716Y65203D01*
X370907Y65665D01*
X370999D01*
X371808Y66000D01*
X372427Y66619D01*
X372762Y67427D01*
Y68303D01*
X372427Y69111D01*
X371808Y69730D01*
X371205Y69980D01*
Y70347D01*
X371136Y70695D01*
X370938Y70991D01*
X370911Y71018D01*
Y74000D01*
X370842Y74349D01*
X370644Y74644D01*
X369989Y75300D01*
X370196Y75800D01*
X370438D01*
X371246Y76135D01*
X371865Y76754D01*
X372200Y77562D01*
Y78438D01*
X371865Y79246D01*
X371246Y79865D01*
X370438Y80200D01*
X369562D01*
X368754Y79865D01*
X368135Y79246D01*
X367800Y78438D01*
Y78196D01*
X367300Y77989D01*
X364332Y80957D01*
X364524Y81419D01*
X371363D01*
X371501Y81084D01*
X372120Y80465D01*
X372929Y80130D01*
X373804D01*
X374613Y80465D01*
X375232Y81084D01*
X375566Y81892D01*
Y82767D01*
X375232Y83576D01*
X374613Y84195D01*
X373804Y84530D01*
X372929D01*
X372120Y84195D01*
X371501Y83576D01*
X371363Y83241D01*
X370645D01*
X370584Y83349D01*
X370492Y83741D01*
X371027Y84277D01*
X371362Y85085D01*
Y85961D01*
X371027Y86769D01*
X370408Y87388D01*
X369600Y87723D01*
X368725D01*
X367916Y87388D01*
X367297Y86769D01*
X366962Y85961D01*
Y85085D01*
X367297Y84277D01*
X367833Y83741D01*
X367740Y83349D01*
X367680Y83241D01*
X362521D01*
X357195Y88567D01*
Y93151D01*
X357695Y93358D01*
X360885Y90168D01*
X361181Y89970D01*
X361530Y89901D01*
X388488D01*
X389215Y89174D01*
X389215Y89174D01*
X389511Y88977D01*
X389860Y88907D01*
X406655D01*
X407004Y88977D01*
X407300Y89174D01*
X409456Y91331D01*
X409556Y91480D01*
X410353Y92276D01*
X412423D01*
X412772Y92346D01*
X413067Y92543D01*
X416892Y96368D01*
X417392Y96161D01*
Y95632D01*
X417727Y94823D01*
X418346Y94204D01*
X419155Y93869D01*
X420030D01*
X420838Y94204D01*
X421457Y94823D01*
X421792Y95632D01*
Y96507D01*
X421525Y97152D01*
X421774Y97652D01*
X448833D01*
X449041Y97152D01*
D02*
G37*
G36*
X246939Y105272D02*
X246800Y104938D01*
Y104062D01*
X247135Y103254D01*
X247754Y102635D01*
X248562Y102300D01*
X249438D01*
X250246Y102635D01*
X250865Y103254D01*
X251200Y104062D01*
Y104331D01*
X251700Y104538D01*
X254712Y101526D01*
Y101414D01*
X254258Y100960D01*
X253923Y100152D01*
Y99276D01*
X254258Y98468D01*
X254471Y98254D01*
X254264Y97754D01*
X252233D01*
X251884Y97685D01*
X251588Y97487D01*
X247519Y93418D01*
X241898D01*
X225671Y109644D01*
X225376Y109842D01*
X225027Y109911D01*
X212556D01*
X212281Y110411D01*
X212418Y110628D01*
X241583D01*
X246939Y105272D01*
D02*
G37*
G36*
X232860Y89380D02*
X233554Y88916D01*
X234374Y88753D01*
X238861D01*
X239015Y88598D01*
X239710Y88134D01*
X240529Y87971D01*
X242056D01*
X242247Y87509D01*
X236655Y81918D01*
X234182D01*
X233933Y82418D01*
X234200Y83062D01*
Y83938D01*
X233865Y84746D01*
X233246Y85365D01*
X232438Y85700D01*
X231562D01*
X230754Y85365D01*
X230135Y84746D01*
X229800Y83938D01*
Y83122D01*
X229779Y83105D01*
X198649D01*
X198410Y83406D01*
X198556Y83925D01*
X199062Y84135D01*
X199681Y84754D01*
X200016Y85562D01*
Y86438D01*
X199785Y86996D01*
X203227Y90439D01*
X203562Y90300D01*
X204438D01*
X205246Y90635D01*
X205865Y91254D01*
X206021Y91630D01*
X206562D01*
X206635Y91454D01*
X207254Y90835D01*
X208062Y90500D01*
X208938D01*
X209746Y90835D01*
X210365Y91454D01*
X210700Y92262D01*
Y93138D01*
X210443Y93759D01*
X210706Y94259D01*
X227980D01*
X232860Y89380D01*
D02*
G37*
G36*
X156848Y92459D02*
X156635Y92246D01*
X156300Y91438D01*
Y90562D01*
X156570Y89911D01*
X156324Y89411D01*
X126817D01*
X126639Y89911D01*
X129687Y92959D01*
X156641D01*
X156848Y92459D01*
D02*
G37*
G36*
X308993Y92633D02*
X308331Y91971D01*
X308133Y91675D01*
X308064Y91327D01*
Y84628D01*
X308133Y84280D01*
X308331Y83984D01*
X309589Y82726D01*
Y68952D01*
X309499Y68815D01*
X308710D01*
X307902Y68480D01*
X307283Y67862D01*
X307015Y67217D01*
X306486Y67039D01*
X300566Y72959D01*
Y87036D01*
X301066Y87285D01*
X301711Y87018D01*
X302586D01*
X303395Y87353D01*
X304014Y87972D01*
X304349Y88780D01*
Y89656D01*
X304014Y90464D01*
X303647Y90831D01*
X305910Y93095D01*
X308801D01*
X308993Y92633D01*
D02*
G37*
G36*
X606356Y115356D02*
X606356Y115356D01*
X606651Y115158D01*
X607000Y115089D01*
X607000Y115089D01*
X633286D01*
X638413Y109962D01*
X638708Y109764D01*
X639057Y109695D01*
X664546D01*
X664737Y109233D01*
X641922Y86418D01*
X638355D01*
X638148Y86918D01*
X638484Y87254D01*
X638819Y88062D01*
Y88938D01*
X638484Y89746D01*
X637865Y90365D01*
X637057Y90700D01*
X636182D01*
X635847Y90561D01*
X631658Y94751D01*
X631362Y94948D01*
X631013Y95017D01*
X626282D01*
X625974Y95517D01*
X626200Y96062D01*
Y96938D01*
X625865Y97746D01*
X625246Y98365D01*
X624438Y98700D01*
X623562D01*
X623420Y98641D01*
X619387D01*
X606614Y111414D01*
X605919Y111878D01*
X605100Y112041D01*
X602046D01*
X601839Y112541D01*
X602281Y112982D01*
X602821Y113918D01*
X603100Y114960D01*
Y116040D01*
X602821Y117083D01*
X602281Y118017D01*
X601517Y118781D01*
X600583Y119321D01*
X599540Y119600D01*
X598460D01*
X597417Y119321D01*
X596483Y118781D01*
X595719Y118017D01*
X595179Y117083D01*
X594900Y116040D01*
Y114960D01*
X595179Y113918D01*
X595719Y112982D01*
X596161Y112541D01*
X595954Y112041D01*
X587487D01*
X577845Y121683D01*
X578036Y122145D01*
X599566D01*
X606356Y115356D01*
D02*
G37*
G36*
X616864Y93462D02*
X616864Y93462D01*
X617160Y93264D01*
X617508Y93195D01*
X617509Y93195D01*
X622572D01*
X622618Y93164D01*
X622967Y93095D01*
X625033D01*
X625382Y93164D01*
X625428Y93195D01*
X630636D01*
X634558Y89272D01*
X634419Y88938D01*
Y88062D01*
X634754Y87254D01*
X635090Y86918D01*
X634883Y86418D01*
X632682D01*
X632433Y86918D01*
X632700Y87562D01*
Y88438D01*
X632365Y89246D01*
X631746Y89865D01*
X630938Y90200D01*
X630062D01*
X629254Y89865D01*
X628794Y89405D01*
X616101D01*
X615752Y89336D01*
X615456Y89138D01*
X612585Y86268D01*
X606902D01*
X606750Y86768D01*
X607367Y87179D01*
X608321Y88133D01*
X609070Y89255D01*
X609587Y90502D01*
X609850Y91825D01*
Y93175D01*
X609587Y94498D01*
X609070Y95745D01*
X608321Y96867D01*
X607367Y97821D01*
X606750Y98233D01*
X606902Y98733D01*
X611593D01*
X616864Y93462D01*
D02*
G37*
G36*
X429736Y86599D02*
X429787Y86476D01*
X430406Y85857D01*
X431165Y85543D01*
Y41827D01*
X430635Y41297D01*
X430300Y40488D01*
Y39613D01*
X430489Y39156D01*
X430155Y38656D01*
X422377D01*
X420389Y40644D01*
X420093Y40842D01*
X419744Y40911D01*
X417052D01*
X416861Y41373D01*
X417663Y42175D01*
X417998Y42037D01*
X418873D01*
X419682Y42372D01*
X420300Y42990D01*
X420635Y43799D01*
Y44674D01*
X420300Y45483D01*
X419682Y46102D01*
X418873Y46437D01*
X417998D01*
X417189Y46102D01*
X416570Y45483D01*
X416235Y44674D01*
Y43799D01*
X416374Y43464D01*
X412349Y39439D01*
X411943Y39399D01*
X411746Y39596D01*
X411411Y39735D01*
Y75063D01*
X418330Y81982D01*
X418665Y81843D01*
X419540D01*
X420349Y82178D01*
X420967Y82797D01*
X421103Y83125D01*
X421693Y83242D01*
X421910Y83026D01*
X422719Y82691D01*
X423594D01*
X424403Y83026D01*
X425021Y83645D01*
X425201Y84079D01*
X425541Y84147D01*
X426350Y83812D01*
X427225D01*
X428033Y84147D01*
X428652Y84765D01*
X428987Y85574D01*
Y86449D01*
X428984Y86457D01*
X429176Y86691D01*
X429736Y86599D01*
D02*
G37*
G36*
X583105Y87582D02*
X582800Y86847D01*
Y85971D01*
X583135Y85163D01*
X583754Y84544D01*
X584074Y84411D01*
X583975Y83911D01*
X558027D01*
X557678Y83842D01*
X557382Y83644D01*
X555120Y81382D01*
X528047D01*
X527856Y81844D01*
X534094Y88082D01*
X549179D01*
X549279Y87582D01*
X548754Y87365D01*
X548135Y86746D01*
X547800Y85938D01*
Y85062D01*
X548135Y84254D01*
X548754Y83635D01*
X549562Y83300D01*
X550438D01*
X551246Y83635D01*
X551865Y84254D01*
X552200Y85062D01*
Y85938D01*
X551865Y86746D01*
X551246Y87365D01*
X550721Y87582D01*
X550821Y88082D01*
X582909D01*
X583105Y87582D01*
D02*
G37*
G36*
X193536Y86175D02*
Y85842D01*
X193547Y85786D01*
X193188Y85286D01*
X193148D01*
X193006Y85227D01*
X186072D01*
X185640Y85141D01*
X179181D01*
X178361Y84978D01*
X177667Y84514D01*
X175094Y81941D01*
X169706D01*
X169443Y82441D01*
X169700Y83062D01*
Y83938D01*
X169365Y84746D01*
X168746Y85365D01*
X167938Y85700D01*
X167062D01*
X166254Y85365D01*
X165635Y84746D01*
X165300Y83938D01*
Y83062D01*
X165557Y82441D01*
X165294Y81941D01*
X162641D01*
X160386Y84197D01*
X160365Y84246D01*
X159746Y84865D01*
X158938Y85200D01*
X158062D01*
X157920Y85141D01*
X121580D01*
X121438Y85200D01*
X121196D01*
X120989Y85700D01*
X122878Y87589D01*
X192122D01*
X193536Y86175D01*
D02*
G37*
G36*
X513581Y77451D02*
X513581Y77451D01*
X513877Y77253D01*
X514225Y77184D01*
X563748D01*
X563885Y76684D01*
X563219Y76017D01*
X562679Y75082D01*
X562400Y74040D01*
Y72960D01*
X562679Y71917D01*
X563219Y70982D01*
X563982Y70219D01*
X564918Y69679D01*
X565960Y69400D01*
X567040D01*
X568083Y69679D01*
X569018Y70219D01*
X569781Y70982D01*
X570321Y71917D01*
X570600Y72960D01*
Y74040D01*
X570321Y75082D01*
X569781Y76017D01*
X569115Y76684D01*
X569252Y77184D01*
X619809D01*
X620158Y77253D01*
X620453Y77451D01*
X624591Y81589D01*
X644000D01*
X644179Y80918D01*
X644719Y79983D01*
X645184Y79518D01*
X644977Y79018D01*
X637392D01*
X637392Y79018D01*
X637044Y78948D01*
X636748Y78751D01*
X636748Y78751D01*
X631409Y73411D01*
X622000D01*
X621821Y74082D01*
X621281Y75017D01*
X620517Y75781D01*
X619583Y76321D01*
X618540Y76600D01*
X617460D01*
X616418Y76321D01*
X615483Y75781D01*
X614719Y75017D01*
X614179Y74082D01*
X613900Y73040D01*
Y71960D01*
X614179Y70917D01*
X614719Y69982D01*
X615483Y69219D01*
X616418Y68679D01*
X617460Y68400D01*
X618540D01*
X619583Y68679D01*
X620184Y69027D01*
X630944Y58267D01*
X630753Y57805D01*
X630197D01*
X620464Y67538D01*
X620169Y67736D01*
X619820Y67805D01*
X616180D01*
X615831Y67736D01*
X615536Y67538D01*
X611142Y63145D01*
X610945Y62849D01*
X610876Y62501D01*
Y61664D01*
X596310Y47099D01*
X539217D01*
X514189Y72127D01*
X514380Y72589D01*
X527057D01*
X540469Y59177D01*
X540765Y58979D01*
X541113Y58910D01*
X545013D01*
X545152Y58575D01*
X545771Y57956D01*
X546580Y57621D01*
X547455D01*
X548263Y57956D01*
X548882Y58575D01*
X549217Y59384D01*
Y60259D01*
X548882Y61067D01*
X548263Y61686D01*
X547455Y62021D01*
X546580D01*
X545771Y61686D01*
X545152Y61067D01*
X545013Y60733D01*
X541491D01*
X528079Y74144D01*
X527783Y74342D01*
X527434Y74411D01*
X499618D01*
X499484Y74911D01*
X500017Y75219D01*
X500781Y75982D01*
X501321Y76917D01*
X501600Y77960D01*
Y79040D01*
X501321Y80082D01*
X500781Y81018D01*
X500017Y81781D01*
X499083Y82321D01*
X498040Y82600D01*
X496960D01*
X495918Y82321D01*
X494982Y81781D01*
X494219Y81018D01*
X493679Y80082D01*
X493400Y79040D01*
Y77960D01*
X493679Y76917D01*
X494219Y75982D01*
X494982Y75219D01*
X495516Y74911D01*
X495382Y74411D01*
X490851D01*
X479493Y85769D01*
Y90928D01*
X479423Y91277D01*
X479226Y91573D01*
X469790Y101009D01*
X469981Y101471D01*
X489561D01*
X513581Y77451D01*
D02*
G37*
G36*
X244800Y79938D02*
Y79062D01*
X244677Y78878D01*
X242940D01*
X242940Y78878D01*
X242592Y78809D01*
X242296Y78611D01*
X237589Y73905D01*
X237392Y73609D01*
X237322Y73260D01*
Y71117D01*
X233662Y67457D01*
X233617Y67467D01*
X233200Y67702D01*
Y68438D01*
X232865Y69246D01*
X232246Y69865D01*
X231438Y70200D01*
X230562D01*
X229754Y69865D01*
X229135Y69246D01*
X228800Y68438D01*
Y67562D01*
X229067Y66918D01*
X228818Y66417D01*
X210979D01*
X210979Y66417D01*
X210631Y66348D01*
X210335Y66151D01*
X210335Y66151D01*
X200596Y56411D01*
X199917D01*
X199710Y56911D01*
X200281Y57482D01*
X200821Y58417D01*
X201100Y59460D01*
Y60540D01*
X200821Y61582D01*
X200281Y62517D01*
X199518Y63281D01*
X198582Y63821D01*
X197540Y64100D01*
X196460D01*
X195417Y63821D01*
X194700Y63406D01*
X194200Y63671D01*
Y63938D01*
X193865Y64746D01*
X193246Y65365D01*
X192438Y65700D01*
X191562D01*
X190754Y65365D01*
X190135Y64746D01*
X189800Y63938D01*
Y63062D01*
X190135Y62254D01*
X190754Y61635D01*
X191562Y61300D01*
X192438D01*
X192605Y61369D01*
X193024Y61002D01*
X192900Y60540D01*
Y59460D01*
X193179Y58417D01*
X193719Y57482D01*
X194483Y56719D01*
X195417Y56179D01*
X196022Y56018D01*
X196171Y55460D01*
X194623Y53911D01*
X161880D01*
X161736Y54182D01*
X161700Y54411D01*
X186984Y79695D01*
X192072D01*
X192118Y79664D01*
X192467Y79595D01*
X194533D01*
X194882Y79664D01*
X195177Y79862D01*
X195411Y80095D01*
X228910D01*
X229831Y79174D01*
X230126Y78977D01*
X230475Y78907D01*
X230475Y78907D01*
X237525D01*
X237874Y78977D01*
X238169Y79174D01*
X239090Y80095D01*
X244695D01*
X244800Y79938D01*
D02*
G37*
G36*
X323685Y77837D02*
Y66202D01*
X321862Y64378D01*
X321664Y64083D01*
X321595Y63734D01*
Y48884D01*
X317879Y45168D01*
X317418Y45360D01*
Y56156D01*
X319144Y57882D01*
X319342Y58178D01*
X319411Y58527D01*
X319411Y58527D01*
Y67996D01*
X319746Y68135D01*
X320365Y68754D01*
X320700Y69562D01*
Y70438D01*
X320365Y71246D01*
X319746Y71865D01*
X318938Y72200D01*
X318062D01*
X317254Y71865D01*
X316635Y71246D01*
X316300Y70438D01*
Y69562D01*
X316635Y68754D01*
X317254Y68135D01*
X317589Y67996D01*
Y59643D01*
X317089Y59544D01*
X316948Y59883D01*
X316329Y60502D01*
X315521Y60837D01*
X314646D01*
X313837Y60502D01*
X313234Y59899D01*
X313147Y59903D01*
X312735Y60022D01*
Y61004D01*
X312735Y61004D01*
X312665Y61353D01*
X312468Y61649D01*
X310797Y63319D01*
X310501Y63517D01*
X310153Y63586D01*
X309939D01*
X309572Y63953D01*
X309749Y64483D01*
X310394Y64750D01*
X311013Y65369D01*
X311348Y66178D01*
Y67053D01*
X311028Y67824D01*
X311262Y68181D01*
X311294Y68260D01*
X311342Y68331D01*
X311360Y68424D01*
X311395Y68511D01*
X311395Y68596D01*
X311411Y68680D01*
Y70470D01*
X311911Y70677D01*
X312254Y70335D01*
X313062Y70000D01*
X313938D01*
X314746Y70335D01*
X315365Y70954D01*
X315700Y71762D01*
Y72638D01*
X315365Y73446D01*
X315038Y73773D01*
X314774Y74100D01*
X315038Y74427D01*
X315365Y74754D01*
X315504Y75089D01*
X318084D01*
X318432Y75158D01*
X318728Y75356D01*
X321330Y77957D01*
X321665Y77819D01*
X322540D01*
X323185Y78086D01*
X323685Y77837D01*
D02*
G37*
G36*
X185108Y80397D02*
X160623Y55911D01*
X151813D01*
X151764Y56411D01*
X152319Y56522D01*
X153014Y56986D01*
X160604Y64576D01*
X160746Y64635D01*
X161365Y65254D01*
X161700Y66062D01*
Y66938D01*
X161430Y67589D01*
X161676Y68089D01*
X162350D01*
X162635Y67401D01*
X163254Y66782D01*
X164062Y66447D01*
X164938D01*
X165746Y66782D01*
X166365Y67401D01*
X166700Y68209D01*
Y69085D01*
X166365Y69893D01*
X165746Y70512D01*
X164938Y70847D01*
X164062D01*
X163254Y70512D01*
X162653Y69911D01*
X141402D01*
X141210Y70373D01*
X145926Y75089D01*
X169496D01*
X169635Y74754D01*
X170254Y74135D01*
X171062Y73800D01*
X171938D01*
X172746Y74135D01*
X173365Y74754D01*
X173700Y75562D01*
Y76438D01*
X173401Y77159D01*
X173606Y77659D01*
X175981D01*
X176800Y77822D01*
X177495Y78286D01*
X180068Y80859D01*
X184917D01*
X185108Y80397D01*
D02*
G37*
G36*
X118800Y82804D02*
Y82562D01*
X119135Y81754D01*
X119754Y81135D01*
X120562Y80800D01*
X121438D01*
X121580Y80859D01*
X157667D01*
X160240Y78286D01*
X160935Y77822D01*
X161754Y77659D01*
X169061D01*
X169343Y77159D01*
X169194Y76911D01*
X145548D01*
X145199Y76842D01*
X144904Y76644D01*
X137671Y69411D01*
X113877D01*
X112561Y70727D01*
X112700Y71062D01*
Y71938D01*
X112365Y72746D01*
X111746Y73365D01*
X110938Y73700D01*
X110062D01*
X109437Y73441D01*
X109154Y73865D01*
X118300Y83011D01*
X118800Y82804D01*
D02*
G37*
G36*
X288203Y93180D02*
Y58679D01*
X288272Y58331D01*
X288470Y58035D01*
X294589Y51916D01*
Y43809D01*
X294562Y43782D01*
X294364Y43487D01*
X294295Y43138D01*
Y42801D01*
X293619Y42522D01*
X293000Y41903D01*
X292665Y41094D01*
Y40219D01*
X293000Y39410D01*
X293037Y39373D01*
X292846Y38911D01*
X290637D01*
X279404Y50144D01*
X279109Y50342D01*
X278760Y50411D01*
X272377D01*
X261838Y60950D01*
Y60989D01*
X261503Y61798D01*
X261411Y61890D01*
Y65770D01*
X261911Y65977D01*
X262254Y65635D01*
X263062Y65300D01*
X263938D01*
X264746Y65635D01*
X265365Y66254D01*
X265700Y67062D01*
Y67938D01*
X265365Y68746D01*
X264746Y69365D01*
X264410Y69504D01*
X264342Y69849D01*
X264283Y69937D01*
Y69968D01*
X287703Y93387D01*
X288203Y93180D01*
D02*
G37*
G36*
X348589Y70122D02*
Y61230D01*
X348089Y61023D01*
X347746Y61365D01*
X346938Y61700D01*
X346062D01*
X345727Y61561D01*
X342911Y64377D01*
Y75000D01*
X342888Y75116D01*
X343349Y75362D01*
X348589Y70122D01*
D02*
G37*
G36*
X347801Y94910D02*
X347704Y94419D01*
X347572Y94365D01*
X346954Y93746D01*
X346619Y92938D01*
Y92062D01*
X346954Y91254D01*
X347572Y90635D01*
X348089Y90421D01*
Y88865D01*
X348154Y88538D01*
X348156Y88507D01*
X348145Y88451D01*
X347917Y87978D01*
X347254Y87704D01*
X346635Y87085D01*
X346300Y86276D01*
Y85401D01*
X346635Y84592D01*
X347254Y83973D01*
X348062Y83639D01*
X348938D01*
X349746Y83973D01*
X350365Y84592D01*
X350632Y85237D01*
X351162Y85414D01*
X357839Y78738D01*
Y71250D01*
X357908Y70901D01*
X358105Y70606D01*
X364876Y63835D01*
X365172Y63638D01*
X365520Y63568D01*
X365558D01*
X365835Y63292D01*
Y62631D01*
X366170Y61823D01*
X366789Y61204D01*
X367597Y60869D01*
X368472D01*
X369117Y61136D01*
X369617Y60887D01*
Y60038D01*
X368793D01*
X367984Y59703D01*
X367366Y59084D01*
X367031Y58276D01*
Y57575D01*
X366544Y57367D01*
X363411Y60840D01*
Y63607D01*
X363342Y63956D01*
X363144Y64252D01*
X363144Y64252D01*
X347444Y79952D01*
Y80468D01*
X347444Y80468D01*
X347374Y80816D01*
X347177Y81112D01*
X333258Y95031D01*
X333465Y95531D01*
X333901D01*
X334709Y95866D01*
X335328Y96485D01*
X335663Y97293D01*
Y98168D01*
X335328Y98977D01*
X334709Y99596D01*
X333901Y99931D01*
X333025D01*
X332217Y99596D01*
X331598Y98977D01*
X331389Y98474D01*
X331097Y98415D01*
X330289Y98750D01*
X329413D01*
X329052Y98601D01*
X328514Y99138D01*
X328218Y99336D01*
X327870Y99405D01*
X322874D01*
X322683Y99867D01*
X330644Y107829D01*
X330644Y107829D01*
X330842Y108124D01*
X330911Y108473D01*
X330911Y108473D01*
Y111093D01*
X331411Y111300D01*
X347801Y94910D01*
D02*
G37*
G36*
X241841Y74872D02*
X242108Y74227D01*
X242727Y73608D01*
X243075Y73464D01*
Y71998D01*
X242754Y71865D01*
X242135Y71246D01*
X241800Y70438D01*
Y69562D01*
X242135Y68754D01*
X242754Y68135D01*
X243562Y67800D01*
X244438D01*
X245246Y68135D01*
X245865Y68754D01*
X245900Y68839D01*
X255893D01*
X256135Y68254D01*
X256754Y67635D01*
X257562Y67300D01*
X258438D01*
X259089Y67570D01*
X259589Y67324D01*
Y62752D01*
X259201D01*
X258392Y62417D01*
X257773Y61798D01*
X257438Y60989D01*
Y60114D01*
X257773Y59305D01*
X258392Y58686D01*
X259201Y58351D01*
X260076D01*
X260885Y58686D01*
X261205Y59007D01*
X271356Y48856D01*
X271651Y48658D01*
X272000Y48589D01*
X278382D01*
X280943Y46029D01*
X280765Y45499D01*
X280120Y45232D01*
X279828Y44939D01*
X279629Y45138D01*
X279333Y45336D01*
X278984Y45405D01*
X260911D01*
X260177Y46138D01*
X259882Y46336D01*
X259533Y46405D01*
X257467D01*
X257118Y46336D01*
X256823Y46138D01*
X256089Y45405D01*
X225170D01*
X224928Y45905D01*
X225200Y46562D01*
Y47438D01*
X224933Y48083D01*
X225182Y48583D01*
X245994D01*
X246343Y48652D01*
X246638Y48849D01*
X252227Y54439D01*
X252562Y54300D01*
X253438D01*
X254246Y54635D01*
X254865Y55254D01*
X255200Y56062D01*
Y56938D01*
X254865Y57746D01*
X254246Y58365D01*
X253438Y58700D01*
X252562D01*
X251754Y58365D01*
X251135Y57746D01*
X250800Y56938D01*
Y56062D01*
X250939Y55727D01*
X245616Y50405D01*
X221967D01*
X221967Y50405D01*
X221618Y50336D01*
X221323Y50138D01*
X221323Y50138D01*
X213862Y42677D01*
X213664Y42382D01*
X213595Y42033D01*
Y41141D01*
X213133Y40949D01*
X209911Y44171D01*
Y48800D01*
X210365Y49254D01*
X210700Y50062D01*
Y50938D01*
X210365Y51746D01*
X209746Y52365D01*
X208938Y52700D01*
X208062D01*
X207254Y52365D01*
X206635Y51746D01*
X206300Y50938D01*
Y50062D01*
X206635Y49254D01*
X207254Y48635D01*
X208062Y48300D01*
X208089D01*
Y43794D01*
X208158Y43445D01*
X208356Y43149D01*
X221149Y30356D01*
X221445Y30158D01*
X221794Y30089D01*
X248496D01*
X248635Y29754D01*
X249254Y29135D01*
X249794Y28911D01*
X249694Y28411D01*
X213878D01*
X202561Y39728D01*
X202700Y40062D01*
Y40938D01*
X202365Y41746D01*
X201746Y42365D01*
X200938Y42700D01*
X200630D01*
X200423Y43200D01*
X204514Y47291D01*
X204978Y47986D01*
X205141Y48805D01*
Y53420D01*
X205200Y53562D01*
Y54438D01*
X204865Y55246D01*
X204246Y55865D01*
X203601Y56132D01*
X203424Y56662D01*
X211357Y64595D01*
X233000D01*
X233349Y64664D01*
X233644Y64862D01*
X238878Y70095D01*
X238878Y70095D01*
X239075Y70391D01*
X239145Y70740D01*
Y72883D01*
X241311Y75049D01*
X241841Y74872D01*
D02*
G37*
G36*
X646300Y22911D02*
X646093Y22411D01*
X634000D01*
X633651Y22342D01*
X633356Y22144D01*
X632935Y21724D01*
X631193D01*
X631001Y22186D01*
X631638Y22823D01*
X631638Y22823D01*
X631836Y23118D01*
X631905Y23467D01*
Y24616D01*
X632788Y25499D01*
X633062Y25386D01*
X633938D01*
X634746Y25721D01*
X635365Y26340D01*
X635700Y27148D01*
Y28023D01*
X635365Y28832D01*
X634746Y29451D01*
X633938Y29786D01*
X633062D01*
X632254Y29451D01*
X631635Y28832D01*
X631300Y28023D01*
Y27148D01*
X631464Y26753D01*
X630442Y25731D01*
X630365Y25746D01*
X629746Y26365D01*
X628938Y26700D01*
X628062D01*
X627254Y26365D01*
X626635Y25746D01*
X626300Y24938D01*
Y24062D01*
X626570Y23411D01*
X626324Y22911D01*
X588756D01*
X584522Y27144D01*
X584227Y27342D01*
X583878Y27411D01*
X556618D01*
X556484Y27911D01*
X557018Y28219D01*
X557781Y28982D01*
X558321Y29917D01*
X558600Y30960D01*
Y32040D01*
X558321Y33083D01*
X557781Y34018D01*
X557018Y34781D01*
X556082Y35321D01*
X555040Y35600D01*
X553960D01*
X552917Y35321D01*
X551982Y34781D01*
X551219Y34018D01*
X550679Y33083D01*
X550400Y32040D01*
Y30960D01*
X550679Y29917D01*
X551219Y28982D01*
X551982Y28219D01*
X552516Y27911D01*
X552382Y27411D01*
X533378D01*
X531571Y29217D01*
X531855Y29641D01*
X532438Y29400D01*
X533313D01*
X534122Y29735D01*
X534740Y30354D01*
X535075Y31162D01*
Y32037D01*
X534740Y32846D01*
X534122Y33465D01*
X533313Y33800D01*
X532438D01*
X531629Y33465D01*
X531010Y32846D01*
X530675Y32037D01*
Y31162D01*
X530917Y30579D01*
X530493Y30296D01*
X523588Y37201D01*
X523292Y37399D01*
X522943Y37468D01*
X498437D01*
X498246Y37930D01*
X504404Y44089D01*
X610500D01*
X610849Y44158D01*
X611144Y44356D01*
X615816Y49027D01*
X616418Y48679D01*
X617460Y48400D01*
X618540D01*
X619583Y48679D01*
X620184Y49027D01*
X646300Y22911D01*
D02*
G37*
G36*
X726337Y48267D02*
X726146Y47805D01*
X648177D01*
X648114Y47900D01*
X648381Y48400D01*
X648540D01*
X649582Y48679D01*
X650518Y49219D01*
X651281Y49983D01*
X651821Y50918D01*
X652100Y51960D01*
Y53040D01*
X651821Y54083D01*
X651281Y55018D01*
X650518Y55781D01*
X649582Y56321D01*
X648540Y56600D01*
X647460D01*
X646418Y56321D01*
X645482Y55781D01*
X644719Y55018D01*
X644179Y54083D01*
X643900Y53040D01*
Y52382D01*
X643400Y52175D01*
X638867Y56708D01*
X639058Y57170D01*
X717434D01*
X726337Y48267D01*
D02*
G37*
G36*
X359583Y62128D02*
Y59995D01*
X359653Y59646D01*
X359850Y59350D01*
X365196Y54004D01*
X371529Y47671D01*
Y46371D01*
X371029Y46122D01*
X370384Y46389D01*
X369509D01*
X368701Y46055D01*
X368082Y45436D01*
X368058Y45378D01*
X364966D01*
X364966Y45378D01*
X364617Y45308D01*
X364322Y45111D01*
X363123Y43911D01*
X362378D01*
X350411Y55878D01*
Y70500D01*
X350388Y70616D01*
X350849Y70862D01*
X359583Y62128D01*
D02*
G37*
G36*
X200800Y54438D02*
Y53562D01*
X200859Y53420D01*
Y49692D01*
X195286Y44119D01*
X194822Y43425D01*
X194659Y42605D01*
Y37411D01*
X194822Y36591D01*
X195286Y35897D01*
X196359Y34824D01*
Y26580D01*
X196300Y26438D01*
Y25562D01*
X196635Y24754D01*
X197254Y24135D01*
X198062Y23800D01*
X198938D01*
X199746Y24135D01*
X200365Y24754D01*
X200700Y25562D01*
Y26438D01*
X200641Y26580D01*
Y31874D01*
X201141Y31973D01*
X201281Y31635D01*
X201900Y31016D01*
X202709Y30681D01*
X203584D01*
X204393Y31016D01*
X205012Y31635D01*
X205346Y32443D01*
Y33319D01*
X205107Y33897D01*
X205531Y34181D01*
X212856Y26856D01*
X213151Y26658D01*
X213500Y26589D01*
X213500Y26589D01*
X265973D01*
X266322Y26658D01*
X266618Y26856D01*
X267344Y27582D01*
X268655D01*
X269382Y26856D01*
X269382Y26856D01*
X269678Y26658D01*
X270027Y26589D01*
X279557D01*
X283853Y22293D01*
X284149Y22095D01*
X284497Y22026D01*
X320415D01*
X320779Y21662D01*
X320587Y21200D01*
X320562D01*
X319754Y20865D01*
X319135Y20246D01*
X318800Y19438D01*
Y18562D01*
X319135Y17754D01*
X319754Y17135D01*
X320562Y16800D01*
X321438D01*
X322246Y17135D01*
X322865Y17754D01*
X323200Y18562D01*
Y18587D01*
X323662Y18779D01*
X326829Y15611D01*
X327125Y15414D01*
X327474Y15344D01*
X330269D01*
X331089Y14524D01*
Y6286D01*
X331158Y5937D01*
X331356Y5642D01*
X338435Y-1438D01*
X338244Y-1900D01*
X337189D01*
X317561Y17728D01*
X317700Y18062D01*
Y18938D01*
X317365Y19746D01*
X316746Y20365D01*
X315938Y20700D01*
X315062D01*
X314254Y20365D01*
X313635Y19746D01*
X313300Y18938D01*
Y18062D01*
X313635Y17254D01*
X314254Y16635D01*
X315062Y16300D01*
X315938D01*
X316272Y16439D01*
X335508Y-2797D01*
X335342Y-3338D01*
X335162Y-3373D01*
X316751Y15038D01*
X316455Y15236D01*
X316106Y15305D01*
X200869D01*
X198978Y17196D01*
X199067Y17645D01*
X199686Y18264D01*
X200021Y19073D01*
Y19948D01*
X199686Y20757D01*
X199067Y21375D01*
X198259Y21711D01*
X197384D01*
X196575Y21375D01*
X195956Y20757D01*
X195621Y19948D01*
Y19073D01*
X195509Y18905D01*
X189189D01*
X188840Y18836D01*
X188544Y18638D01*
X184924Y15018D01*
X164523D01*
X164316Y15518D01*
X164781Y15982D01*
X165321Y16917D01*
X165600Y17960D01*
Y19040D01*
X165321Y20083D01*
X164781Y21017D01*
X164017Y21781D01*
X163083Y22321D01*
X162040Y22600D01*
X160960D01*
X159917Y22321D01*
X158983Y21781D01*
X158219Y21017D01*
X157679Y20083D01*
X157400Y19040D01*
Y17960D01*
X157679Y16917D01*
X158219Y15982D01*
X158684Y15518D01*
X158477Y15018D01*
X153798D01*
X147165Y21651D01*
X146869Y21848D01*
X146521Y21917D01*
X145182D01*
X144933Y22418D01*
X145200Y23062D01*
Y23938D01*
X144865Y24746D01*
X144246Y25365D01*
X143438Y25700D01*
X142562D01*
X141754Y25365D01*
X141135Y24746D01*
X140860Y24082D01*
X140371Y23845D01*
X140349Y23840D01*
X140300Y23841D01*
X139979Y23905D01*
X120422D01*
X120215Y24405D01*
X120464Y24654D01*
X120799Y25463D01*
Y26338D01*
X120464Y27147D01*
X119846Y27766D01*
X119037Y28101D01*
X118162D01*
X117353Y27766D01*
X116734Y27147D01*
X116399Y26338D01*
Y25463D01*
X116734Y24654D01*
X116984Y24405D01*
X116777Y23905D01*
X111196D01*
X110848Y23836D01*
X110552Y23638D01*
X110373Y23460D01*
X109873Y23667D01*
Y23856D01*
X109538Y24665D01*
X108920Y25283D01*
X108589Y25420D01*
X108431Y26027D01*
X108688Y26646D01*
Y27521D01*
X108353Y28330D01*
X107734Y28949D01*
X107405Y29085D01*
Y31616D01*
X127877Y52089D01*
X192824D01*
X193059Y51638D01*
X193061Y51589D01*
X185613Y44141D01*
X123580D01*
X123438Y44200D01*
X122562D01*
X121754Y43865D01*
X121135Y43246D01*
X120800Y42438D01*
Y41562D01*
X121135Y40754D01*
X121754Y40135D01*
X122562Y39800D01*
X123438D01*
X123580Y39859D01*
X186500D01*
X187319Y40022D01*
X188014Y40486D01*
X196104Y48576D01*
X196246Y48635D01*
X196865Y49254D01*
X197200Y50062D01*
Y50938D01*
X196865Y51746D01*
X196246Y52365D01*
X196243Y52366D01*
X196146Y52857D01*
X197878Y54589D01*
X200699D01*
X200800Y54438D01*
D02*
G37*
G36*
X307370Y61041D02*
X307101Y60391D01*
Y59516D01*
X307435Y58708D01*
X308054Y58089D01*
X308863Y57754D01*
X309738D01*
X310465Y58055D01*
X310676Y58041D01*
X311002Y57921D01*
X311206Y57546D01*
X310971Y57085D01*
X310562D01*
X309754Y56750D01*
X309135Y56131D01*
X308800Y55322D01*
Y54447D01*
X309135Y53638D01*
X309754Y53020D01*
X310562Y52685D01*
X311438D01*
X312083Y52952D01*
X312582Y52702D01*
Y43371D01*
X311462Y42251D01*
X311360D01*
X310906Y42705D01*
X310098Y43040D01*
X309223D01*
X308414Y42705D01*
X307795Y42086D01*
X307460Y41277D01*
Y40402D01*
X307795Y39594D01*
X307977Y39411D01*
X307770Y38911D01*
X306611D01*
X306362Y39411D01*
X306629Y40056D01*
Y40931D01*
X306405Y41474D01*
X306681Y41751D01*
X306681Y41751D01*
X306879Y42047D01*
X306948Y42395D01*
Y54487D01*
X306879Y54836D01*
X306681Y55131D01*
X303668Y58144D01*
X303373Y58342D01*
X303024Y58411D01*
X301378D01*
X296411Y63377D01*
Y71292D01*
X296911Y71499D01*
X307370Y61041D01*
D02*
G37*
G36*
X527522Y56216D02*
X527315Y55716D01*
X527019D01*
X526211Y55381D01*
X525592Y54762D01*
X525257Y53954D01*
Y53079D01*
X525592Y52270D01*
X526211Y51651D01*
X527019Y51316D01*
X527895D01*
X528703Y51651D01*
X529322Y52270D01*
X529657Y53079D01*
Y53374D01*
X530157Y53581D01*
X537365Y46373D01*
X537173Y45911D01*
X504027D01*
X503678Y45842D01*
X503382Y45644D01*
X498443Y40705D01*
X497892Y40861D01*
X497846Y41057D01*
X504144Y47356D01*
X504342Y47651D01*
X504411Y48000D01*
Y67496D01*
X504746Y67635D01*
X505365Y68254D01*
X505700Y69062D01*
Y69938D01*
X505365Y70746D01*
X505210Y70901D01*
X505417Y71401D01*
X512337D01*
X527522Y56216D01*
D02*
G37*
G36*
X253510Y39168D02*
X253806Y38970D01*
X254155Y38901D01*
X262938D01*
X263037Y38401D01*
X262655Y38243D01*
X262036Y37624D01*
X261701Y36815D01*
Y35940D01*
X262036Y35131D01*
X262655Y34512D01*
X262899Y34411D01*
X262800Y33911D01*
X252404D01*
X252177Y34138D01*
X251882Y34336D01*
X251533Y34405D01*
X249467D01*
X249467Y34405D01*
X249118Y34336D01*
X248823Y34138D01*
X248596Y33911D01*
X241377D01*
X237061Y38227D01*
X237200Y38562D01*
Y39438D01*
X236933Y40082D01*
X237182Y40582D01*
X252096D01*
X253510Y39168D01*
D02*
G37*
G36*
X372195Y40969D02*
Y40000D01*
X372265Y39651D01*
X372462Y39356D01*
X377736Y34082D01*
X378032Y33884D01*
X378380Y33815D01*
X384097D01*
X384446Y33884D01*
X384742Y34082D01*
X387438Y36778D01*
X391254D01*
X393998Y34034D01*
X393998Y34034D01*
X393998Y34034D01*
X394170Y33862D01*
X394170Y33862D01*
X394466Y33664D01*
X394466Y33664D01*
X394657Y33626D01*
X394814Y33595D01*
X402180D01*
X402529Y33664D01*
X402824Y33862D01*
X403045Y34082D01*
X410849D01*
X411118Y33687D01*
X411141Y33582D01*
X411083Y33288D01*
Y31844D01*
X410155Y30918D01*
X408326D01*
X407608Y31636D01*
X407312Y31833D01*
X406963Y31903D01*
X403913D01*
X403565Y31833D01*
X403269Y31636D01*
X402550Y30918D01*
X391403D01*
X391270Y31238D01*
X390651Y31857D01*
X389843Y32192D01*
X388967D01*
X388159Y31857D01*
X387540Y31238D01*
X387205Y30430D01*
Y29555D01*
X387472Y28910D01*
X387223Y28410D01*
X385920D01*
X384267Y30063D01*
X383971Y30260D01*
X383623Y30330D01*
X371471D01*
X371333Y30664D01*
X370714Y31283D01*
X369905Y31618D01*
X369030D01*
X368385Y31351D01*
X367885Y31600D01*
Y37312D01*
X371733Y41160D01*
X372195Y40969D01*
D02*
G37*
G36*
X384898Y26854D02*
X385194Y26656D01*
X385542Y26587D01*
X402103D01*
X402452Y26656D01*
X402747Y26854D01*
X402776Y26883D01*
X403307Y26706D01*
X403498Y26246D01*
X403238Y25746D01*
X388475D01*
X388475Y25746D01*
X388127Y25677D01*
X387831Y25479D01*
X387831Y25479D01*
X387098Y24746D01*
X376942D01*
X374119Y27569D01*
X373824Y27766D01*
X373475Y27836D01*
X372046D01*
X371768Y28336D01*
X371874Y28507D01*
X383245D01*
X384898Y26854D01*
D02*
G37*
G36*
X384276Y19589D02*
X384131Y19492D01*
X381563Y16924D01*
X369741D01*
X369392Y16854D01*
X369097Y16657D01*
X369097Y16657D01*
X368581Y16141D01*
X367269D01*
X366656Y16754D01*
X366360Y16952D01*
X366012Y17021D01*
X365975D01*
X365700Y17296D01*
Y17938D01*
X365365Y18746D01*
X364746Y19365D01*
X364206Y19589D01*
X364306Y20089D01*
X366991D01*
X367518Y19561D01*
X367518Y19561D01*
X367814Y19364D01*
X368163Y19294D01*
X368163Y19294D01*
X370229D01*
X370577Y19364D01*
X370873Y19561D01*
X371401Y20089D01*
X384124D01*
X384276Y19589D01*
D02*
G37*
G36*
X451494Y17148D02*
X451265Y16628D01*
X451253Y16619D01*
X450721Y16398D01*
X450102Y15779D01*
X449767Y14971D01*
Y14096D01*
X450102Y13287D01*
X450721Y12668D01*
X451412Y12382D01*
X451609Y11871D01*
X443155Y3418D01*
X421877D01*
X420957Y4338D01*
X420661Y4536D01*
X420312Y4605D01*
X406500D01*
X406151Y4536D01*
X405856Y4338D01*
X400805Y-712D01*
X380284D01*
X380077Y-212D01*
X397064Y16775D01*
X407898D01*
X407953Y16775D01*
X408356Y16850D01*
X408641Y16928D01*
X409111Y17005D01*
X409111Y17005D01*
X409610Y17019D01*
X410188D01*
X410536Y17089D01*
X410832Y17286D01*
X411134Y17589D01*
X417639D01*
X418723Y16505D01*
X419018Y16308D01*
X419367Y16238D01*
X423401D01*
X423749Y16308D01*
X424045Y16505D01*
X424084Y16544D01*
X424270Y16668D01*
X424509Y16907D01*
X424793D01*
X425142Y16976D01*
X425413Y17158D01*
X425425Y17146D01*
X425742Y17357D01*
X426180Y17589D01*
X451270D01*
X451494Y17148D01*
D02*
G37*
G36*
X567823Y18868D02*
X568118Y18670D01*
X568467Y18601D01*
X634240D01*
X634588Y18670D01*
X634884Y18868D01*
X635105Y19089D01*
X675332D01*
X675622Y18589D01*
X675384Y18013D01*
Y17138D01*
X675651Y16493D01*
X675402Y15993D01*
X563769D01*
X558135Y21627D01*
X558327Y22089D01*
X564602D01*
X567823Y18868D01*
D02*
G37*
G36*
X141058Y20626D02*
X140893Y20084D01*
X140893Y20084D01*
X140597Y19886D01*
X136261Y15550D01*
X136246Y15565D01*
X135438Y15900D01*
X134562D01*
X133754Y15565D01*
X133135Y14946D01*
X132800Y14138D01*
Y13262D01*
X133135Y12454D01*
X133754Y11835D01*
X134562Y11500D01*
X135438D01*
X136246Y11835D01*
X136865Y12454D01*
X137200Y13262D01*
Y13911D01*
X140174Y16885D01*
X140674Y16678D01*
Y16310D01*
X141009Y15502D01*
X141628Y14883D01*
X142436Y14548D01*
X143311D01*
X144120Y14883D01*
X144739Y15502D01*
X145074Y16310D01*
Y16930D01*
X145574Y17137D01*
X147439Y15272D01*
X147300Y14938D01*
Y14062D01*
X147635Y13254D01*
X148254Y12635D01*
X149021Y12317D01*
X149090Y12135D01*
X149147Y11800D01*
X148719Y11514D01*
X148146Y10941D01*
X112772D01*
X107141Y16572D01*
Y17500D01*
X106978Y18319D01*
X106935Y18385D01*
X107170Y18825D01*
X111089D01*
X111438Y18895D01*
X111734Y19092D01*
X112230Y19589D01*
X115496D01*
X115635Y19254D01*
X116254Y18635D01*
X116780Y18417D01*
Y17876D01*
X116754Y17865D01*
X116135Y17246D01*
X115800Y16438D01*
Y15562D01*
X116135Y14754D01*
X116754Y14135D01*
X117562Y13800D01*
X118438D01*
X119246Y14135D01*
X119865Y14754D01*
X120200Y15562D01*
Y16438D01*
X119865Y17246D01*
X119246Y17865D01*
X118720Y18083D01*
Y18624D01*
X118746Y18635D01*
X119365Y19254D01*
X119700Y20062D01*
Y20938D01*
X119433Y21583D01*
X119682Y22083D01*
X139602D01*
X141058Y20626D01*
D02*
G37*
G36*
X212288Y13019D02*
X212282Y12982D01*
X212016Y12805D01*
X209772Y10561D01*
X209438Y10700D01*
X208562D01*
X207754Y10365D01*
X207135Y9746D01*
X206800Y8938D01*
Y8062D01*
X207135Y7254D01*
X207754Y6635D01*
X208562Y6300D01*
X209438D01*
X210246Y6635D01*
X210865Y7254D01*
X211200Y8062D01*
Y8938D01*
X211061Y9273D01*
X213038Y11249D01*
X243484D01*
X243676Y10787D01*
X243635Y10746D01*
X243300Y9938D01*
Y9062D01*
X243635Y8254D01*
X244254Y7635D01*
X244589Y7496D01*
Y4196D01*
X244658Y3848D01*
X244856Y3552D01*
X245055Y3353D01*
X244719Y3018D01*
X244179Y2083D01*
X243900Y1040D01*
Y-40D01*
X244179Y-1082D01*
X244719Y-2018D01*
X245482Y-2781D01*
X246417Y-3321D01*
X247460Y-3600D01*
X248540D01*
X249583Y-3321D01*
X250518Y-2781D01*
X251281Y-2018D01*
X251821Y-1082D01*
X252100Y-40D01*
Y1040D01*
X251821Y2083D01*
X251281Y3018D01*
X250518Y3781D01*
X249583Y4321D01*
X248540Y4600D01*
X247460D01*
X246855Y4438D01*
X246411Y4801D01*
Y7496D01*
X246746Y7635D01*
X247365Y8254D01*
X247700Y9062D01*
Y9938D01*
X247365Y10746D01*
X247324Y10787D01*
X247516Y11249D01*
X316283D01*
X318138Y9394D01*
X318059Y9119D01*
X317913Y8911D01*
X255498D01*
X255365Y9231D01*
X254746Y9850D01*
X253938Y10185D01*
X253062D01*
X252254Y9850D01*
X251635Y9231D01*
X251300Y8423D01*
Y7547D01*
X251635Y6739D01*
X252254Y6120D01*
X253062Y5785D01*
X253938D01*
X254746Y6120D01*
X255365Y6739D01*
X255510Y7089D01*
X307962D01*
X308012Y6589D01*
X308002Y6587D01*
X306755Y6070D01*
X305633Y5321D01*
X304679Y4367D01*
X303930Y3245D01*
X303413Y1998D01*
X303150Y675D01*
Y-675D01*
X303413Y-1998D01*
X303930Y-3245D01*
X304679Y-4367D01*
X305633Y-5321D01*
X306755Y-6070D01*
X308002Y-6587D01*
X309325Y-6850D01*
X310675D01*
X311998Y-6587D01*
X313245Y-6070D01*
X314367Y-5321D01*
X315321Y-4367D01*
X316070Y-3245D01*
X316587Y-1998D01*
X316850Y-675D01*
Y675D01*
X316587Y1998D01*
X316070Y3245D01*
X315321Y4367D01*
X314367Y5321D01*
X313245Y6070D01*
X311998Y6587D01*
X311988Y6589D01*
X312038Y7089D01*
X317622D01*
X327662Y-2950D01*
X327404Y-3400D01*
X326460D01*
X325417Y-3679D01*
X324482Y-4219D01*
X323719Y-4983D01*
X323179Y-5917D01*
X322900Y-6960D01*
Y-8040D01*
X323179Y-9082D01*
X323719Y-10018D01*
X324482Y-10781D01*
X325005Y-11082D01*
X324871Y-11582D01*
X195461D01*
X195332Y-11099D01*
X195364Y-11081D01*
X196081Y-10364D01*
X196588Y-9486D01*
X196850Y-8507D01*
Y-7493D01*
X196588Y-6514D01*
X196081Y-5636D01*
X195364Y-4919D01*
X194486Y-4412D01*
X193507Y-4150D01*
X192493D01*
X191514Y-4412D01*
X190636Y-4919D01*
X189919Y-5636D01*
X189412Y-6514D01*
X189258Y-7089D01*
X185047D01*
X179627Y-1668D01*
X179331Y-1471D01*
X178982Y-1402D01*
X162790D01*
X162441Y-1471D01*
X162165Y-1656D01*
X162097Y-1639D01*
X161705Y-1402D01*
X161850Y-675D01*
Y675D01*
X161587Y1998D01*
X161070Y3245D01*
X160321Y4367D01*
X159367Y5321D01*
X158245Y6070D01*
X156998Y6587D01*
X155675Y6850D01*
X154325D01*
X153002Y6587D01*
X151755Y6070D01*
X150633Y5321D01*
X149679Y4367D01*
X148930Y3245D01*
X148413Y1998D01*
X148150Y675D01*
Y-675D01*
X148413Y-1998D01*
X148930Y-3245D01*
X149679Y-4367D01*
X150633Y-5321D01*
X150786Y-5423D01*
X150641Y-5901D01*
X142104D01*
X141912Y-5439D01*
X141978Y-5373D01*
X142313Y-4564D01*
Y-3689D01*
X142254Y-3547D01*
Y6659D01*
X149033D01*
X149852Y6822D01*
X150547Y7286D01*
X151119Y7859D01*
X184580D01*
X185400Y8022D01*
X186094Y8486D01*
X187900Y10292D01*
X188400Y10084D01*
Y9460D01*
X188679Y8417D01*
X189219Y7482D01*
X189982Y6719D01*
X190918Y6179D01*
X191960Y5900D01*
X193040D01*
X194082Y6179D01*
X195018Y6719D01*
X195781Y7482D01*
X196321Y8417D01*
X196600Y9460D01*
Y10540D01*
X196411Y11246D01*
X196859Y11505D01*
X197792Y10572D01*
X197812Y10522D01*
X198431Y9903D01*
X199240Y9568D01*
X200115D01*
X200924Y9903D01*
X201543Y10522D01*
X201877Y11331D01*
Y12206D01*
X201543Y13015D01*
X201537Y13021D01*
X201728Y13483D01*
X212036D01*
X212288Y13019D01*
D02*
G37*
G36*
X530856Y20856D02*
X531151Y20658D01*
X531500Y20589D01*
X543824D01*
X544070Y20089D01*
X543800Y19438D01*
Y18562D01*
X544135Y17754D01*
X544754Y17135D01*
X545562Y16800D01*
X546438D01*
X547246Y17135D01*
X547865Y17754D01*
X548200Y18562D01*
Y19438D01*
X547930Y20089D01*
X548176Y20589D01*
X548935D01*
X549181Y20089D01*
X548911Y19438D01*
Y18562D01*
X549246Y17754D01*
X549865Y17135D01*
X550673Y16800D01*
X551549D01*
X552357Y17135D01*
X552811Y17589D01*
X553122D01*
X563939Y6773D01*
X563800Y6438D01*
Y5562D01*
X564067Y4918D01*
X563818Y4417D01*
X548033D01*
X548033Y4417D01*
X547684Y4348D01*
X547389Y4151D01*
X547156Y3918D01*
X545845D01*
X545611Y4151D01*
X545316Y4348D01*
X544967Y4417D01*
X517871D01*
X509541Y12748D01*
X509584Y13132D01*
X510054Y13395D01*
X510562Y13185D01*
X511438D01*
X512246Y13520D01*
X512865Y14138D01*
X513004Y14473D01*
X542738D01*
X547439Y9772D01*
X547300Y9438D01*
Y8562D01*
X547635Y7754D01*
X548254Y7135D01*
X549062Y6800D01*
X549938D01*
X550746Y7135D01*
X551365Y7754D01*
X551700Y8562D01*
Y9438D01*
X551365Y10246D01*
X550746Y10865D01*
X549938Y11200D01*
X549062D01*
X548728Y11061D01*
X543760Y16029D01*
X543464Y16227D01*
X543115Y16296D01*
X513004D01*
X512865Y16631D01*
X512246Y17250D01*
X511438Y17585D01*
X510562D01*
X509754Y17250D01*
X509135Y16631D01*
X508902Y16068D01*
X508338Y15924D01*
X493673Y30589D01*
X493881Y31089D01*
X520622D01*
X530856Y20856D01*
D02*
G37*
G36*
X100057Y13660D02*
X100866Y13325D01*
X101741D01*
X102076Y13464D01*
X111191Y4349D01*
X111486Y4152D01*
X111835Y4082D01*
X115256D01*
X115505Y3582D01*
X115238Y2938D01*
Y2062D01*
X115573Y1254D01*
X115576Y1251D01*
X115329Y790D01*
X115184Y819D01*
X105709D01*
X98641Y7887D01*
Y12279D01*
X99014Y12652D01*
X99478Y13347D01*
X99523Y13571D01*
X100001Y13716D01*
X100057Y13660D01*
D02*
G37*
G36*
X334545Y12748D02*
X334840Y12550D01*
X335189Y12481D01*
X336944D01*
X349637Y-212D01*
X349430Y-712D01*
X340287D01*
X332911Y6664D01*
Y13728D01*
X333373Y13919D01*
X334545Y12748D01*
D02*
G37*
G36*
X443800Y-1911D02*
X439129Y-6583D01*
X420845D01*
X419424Y-5162D01*
X419601Y-4632D01*
X420246Y-4365D01*
X420865Y-3746D01*
X421200Y-2938D01*
Y-2062D01*
X421088Y-1791D01*
X421398Y-1411D01*
X443593D01*
X443800Y-1911D01*
D02*
G37*
%LPC*%
G36*
X513438Y125200D02*
X512562D01*
X511754Y124865D01*
X511135Y124246D01*
X510800Y123438D01*
Y122562D01*
X511135Y121754D01*
X511754Y121135D01*
X512562Y120800D01*
X513438D01*
X514246Y121135D01*
X514865Y121754D01*
X515200Y122562D01*
Y123438D01*
X514865Y124246D01*
X514246Y124865D01*
X513438Y125200D01*
D02*
G37*
G36*
X510438Y116200D02*
X509562D01*
X508754Y115865D01*
X508135Y115246D01*
X507800Y114438D01*
Y113562D01*
X508135Y112754D01*
X508754Y112135D01*
X509562Y111800D01*
X510438D01*
X511246Y112135D01*
X511865Y112754D01*
X512200Y113562D01*
Y114438D01*
X511865Y115246D01*
X511246Y115865D01*
X510438Y116200D01*
D02*
G37*
G36*
X584438Y101700D02*
X583562D01*
X582754Y101365D01*
X582135Y100746D01*
X581800Y99938D01*
Y99062D01*
X582135Y98254D01*
X582754Y97635D01*
X583562Y97300D01*
X584438D01*
X585246Y97635D01*
X585865Y98254D01*
X586200Y99062D01*
Y99938D01*
X585865Y100746D01*
X585246Y101365D01*
X584438Y101700D01*
D02*
G37*
G36*
X534438Y100200D02*
X533562D01*
X532754Y99865D01*
X532135Y99246D01*
X531800Y98438D01*
Y97562D01*
X532135Y96754D01*
X532754Y96135D01*
X533562Y95800D01*
X534438D01*
X535246Y96135D01*
X535865Y96754D01*
X536200Y97562D01*
Y98438D01*
X535865Y99246D01*
X535246Y99865D01*
X534438Y100200D01*
D02*
G37*
G36*
X110438Y127200D02*
X109562D01*
X108754Y126865D01*
X108135Y126246D01*
X107800Y125438D01*
Y124562D01*
X108135Y123754D01*
X108754Y123135D01*
X109562Y122800D01*
X110438D01*
X111246Y123135D01*
X111865Y123754D01*
X112200Y124562D01*
Y125438D01*
X111865Y126246D01*
X111246Y126865D01*
X110438Y127200D01*
D02*
G37*
G36*
X76438Y126585D02*
X75562D01*
X74754Y126250D01*
X74135Y125631D01*
X73800Y124822D01*
Y123947D01*
X74135Y123138D01*
X74754Y122520D01*
X75562Y122185D01*
X76438D01*
X77246Y122520D01*
X77865Y123138D01*
X78200Y123947D01*
Y124822D01*
X77865Y125631D01*
X77246Y126250D01*
X76438Y126585D01*
D02*
G37*
G36*
X675Y131850D02*
X-675D01*
X-1998Y131587D01*
X-3245Y131070D01*
X-4367Y130321D01*
X-5321Y129367D01*
X-6070Y128245D01*
X-6587Y126998D01*
X-6850Y125675D01*
Y124325D01*
X-6587Y123002D01*
X-6070Y121755D01*
X-5321Y120633D01*
X-4367Y119679D01*
X-3245Y118930D01*
X-1998Y118413D01*
X-675Y118150D01*
X675D01*
X1998Y118413D01*
X3245Y118930D01*
X4367Y119679D01*
X5321Y120633D01*
X6070Y121755D01*
X6587Y123002D01*
X6850Y124325D01*
Y125675D01*
X6587Y126998D01*
X6070Y128245D01*
X5321Y129367D01*
X4367Y130321D01*
X3245Y131070D01*
X1998Y131587D01*
X675Y131850D01*
D02*
G37*
G36*
X14838Y80568D02*
X14162D01*
X13509Y80393D01*
X12923Y80055D01*
X12445Y79577D01*
X12106Y78991D01*
X11931Y78338D01*
Y77662D01*
X12106Y77009D01*
X12445Y76423D01*
X12923Y75945D01*
X13193Y75789D01*
Y75211D01*
X12923Y75055D01*
X12445Y74577D01*
X12106Y73991D01*
X11931Y73338D01*
Y72662D01*
X12106Y72009D01*
X12445Y71423D01*
X12923Y70945D01*
X13509Y70606D01*
X14162Y70432D01*
X14838D01*
X15491Y70606D01*
X16077Y70945D01*
X16555Y71423D01*
X16894Y72009D01*
X17068Y72662D01*
Y73338D01*
X16894Y73991D01*
X16555Y74577D01*
X16077Y75055D01*
X15807Y75211D01*
Y75789D01*
X16077Y75945D01*
X16555Y76423D01*
X16894Y77009D01*
X17068Y77662D01*
Y78338D01*
X16894Y78991D01*
X16555Y79577D01*
X16077Y80055D01*
X15491Y80393D01*
X14838Y80568D01*
D02*
G37*
G36*
X10341Y35795D02*
X8659D01*
X7008Y35467D01*
X5453Y34823D01*
X4054Y33888D01*
X2864Y32698D01*
X1929Y31299D01*
X1285Y29744D01*
X957Y28093D01*
Y26411D01*
X1285Y24760D01*
X1929Y23205D01*
X2864Y21806D01*
X4054Y20616D01*
X5453Y19681D01*
X7008Y19037D01*
X8659Y18709D01*
X10341D01*
X11992Y19037D01*
X13547Y19681D01*
X14946Y20616D01*
X16136Y21806D01*
X17071Y23205D01*
X17715Y24760D01*
X18043Y26411D01*
Y28093D01*
X17715Y29744D01*
X17071Y31299D01*
X16136Y32698D01*
X14946Y33888D01*
X13547Y34823D01*
X11992Y35467D01*
X10341Y35795D01*
D02*
G37*
G36*
X19938Y4700D02*
X19062D01*
X18254Y4365D01*
X17635Y3746D01*
X17300Y2938D01*
Y2062D01*
X17635Y1254D01*
X18254Y635D01*
X19062Y300D01*
X19938D01*
X20746Y635D01*
X21365Y1254D01*
X21700Y2062D01*
Y2938D01*
X21365Y3746D01*
X20746Y4365D01*
X19938Y4700D01*
D02*
G37*
G36*
X675Y6850D02*
X-675D01*
X-1998Y6587D01*
X-3245Y6070D01*
X-4367Y5321D01*
X-5321Y4367D01*
X-6070Y3245D01*
X-6587Y1998D01*
X-6850Y675D01*
Y-675D01*
X-6587Y-1998D01*
X-6070Y-3245D01*
X-5321Y-4367D01*
X-4367Y-5321D01*
X-3245Y-6070D01*
X-1998Y-6587D01*
X-675Y-6850D01*
X675D01*
X1998Y-6587D01*
X3245Y-6070D01*
X4367Y-5321D01*
X5321Y-4367D01*
X6070Y-3245D01*
X6587Y-1998D01*
X6850Y-675D01*
Y675D01*
X6587Y1998D01*
X6070Y3245D01*
X5321Y4367D01*
X4367Y5321D01*
X3245Y6070D01*
X1998Y6587D01*
X675Y6850D01*
D02*
G37*
G36*
X64438Y-5700D02*
X63562D01*
X62754Y-6035D01*
X62135Y-6654D01*
X61800Y-7462D01*
Y-8338D01*
X62135Y-9146D01*
X62754Y-9765D01*
X63562Y-10100D01*
X64438D01*
X65246Y-9765D01*
X65865Y-9146D01*
X66200Y-8338D01*
Y-7462D01*
X65865Y-6654D01*
X65246Y-6035D01*
X64438Y-5700D01*
D02*
G37*
G36*
X281938Y101700D02*
X281062D01*
X280254Y101365D01*
X279635Y100746D01*
X279300Y99938D01*
Y99062D01*
X279635Y98254D01*
X280254Y97635D01*
X281062Y97300D01*
X281938D01*
X282746Y97635D01*
X283365Y98254D01*
X283700Y99062D01*
Y99938D01*
X283365Y100746D01*
X282746Y101365D01*
X281938Y101700D01*
D02*
G37*
G36*
X281049Y95811D02*
X280173D01*
X279365Y95476D01*
X278746Y94857D01*
X278411Y94049D01*
Y93173D01*
X278746Y92365D01*
X279365Y91746D01*
X280173Y91411D01*
X281049D01*
X281857Y91746D01*
X282476Y92365D01*
X282811Y93173D01*
Y94049D01*
X282476Y94857D01*
X281857Y95476D01*
X281049Y95811D01*
D02*
G37*
G36*
X254938Y123700D02*
X254062D01*
X253254Y123365D01*
X252635Y122746D01*
X252300Y121938D01*
Y121062D01*
X252635Y120254D01*
X253254Y119635D01*
X254062Y119300D01*
X254938D01*
X255746Y119635D01*
X256365Y120254D01*
X256700Y121062D01*
Y121938D01*
X256365Y122746D01*
X255746Y123365D01*
X254938Y123700D01*
D02*
G37*
G36*
X261938Y114200D02*
X261062D01*
X260254Y113865D01*
X259635Y113246D01*
X259300Y112438D01*
Y111562D01*
X259635Y110754D01*
X260254Y110135D01*
X261062Y109800D01*
X261938D01*
X262746Y110135D01*
X263365Y110754D01*
X263700Y111562D01*
Y112438D01*
X263365Y113246D01*
X262746Y113865D01*
X261938Y114200D01*
D02*
G37*
G36*
X775675Y131850D02*
X774325D01*
X773002Y131587D01*
X771755Y131070D01*
X770633Y130321D01*
X769679Y129367D01*
X768930Y128245D01*
X768413Y126998D01*
X768150Y125675D01*
Y124325D01*
X768413Y123002D01*
X768930Y121755D01*
X769679Y120633D01*
X770633Y119679D01*
X771755Y118930D01*
X773002Y118413D01*
X774325Y118150D01*
X775675D01*
X776998Y118413D01*
X778245Y118930D01*
X779367Y119679D01*
X780321Y120633D01*
X781070Y121755D01*
X781587Y123002D01*
X781850Y124325D01*
Y125675D01*
X781587Y126998D01*
X781070Y128245D01*
X780321Y129367D01*
X779367Y130321D01*
X778245Y131070D01*
X776998Y131587D01*
X775675Y131850D01*
D02*
G37*
G36*
X744590Y119100D02*
X743510D01*
X742467Y118821D01*
X741533Y118281D01*
X740769Y117517D01*
X740229Y116583D01*
X739950Y115540D01*
Y114460D01*
X740229Y113417D01*
X740769Y112483D01*
X741533Y111719D01*
X742467Y111179D01*
X743510Y110900D01*
X744590D01*
X745633Y111179D01*
X746567Y111719D01*
X747331Y112483D01*
X747871Y113417D01*
X748150Y114460D01*
Y115540D01*
X747871Y116583D01*
X747331Y117517D01*
X746567Y118281D01*
X745633Y118821D01*
X744590Y119100D01*
D02*
G37*
G36*
X733140D02*
X732060D01*
X731017Y118821D01*
X730083Y118281D01*
X729319Y117517D01*
X728779Y116583D01*
X728500Y115540D01*
Y114460D01*
X728779Y113417D01*
X729319Y112483D01*
X730083Y111719D01*
X731017Y111179D01*
X732060Y110900D01*
X733140D01*
X734183Y111179D01*
X735117Y111719D01*
X735881Y112483D01*
X736421Y113417D01*
X736700Y114460D01*
Y115540D01*
X736421Y116583D01*
X735881Y117517D01*
X735117Y118281D01*
X734183Y118821D01*
X733140Y119100D01*
D02*
G37*
G36*
X721690D02*
X720610D01*
X719567Y118821D01*
X718633Y118281D01*
X717869Y117517D01*
X717329Y116583D01*
X717050Y115540D01*
Y114460D01*
X717329Y113417D01*
X717869Y112483D01*
X718633Y111719D01*
X719567Y111179D01*
X720610Y110900D01*
X721690D01*
X722732Y111179D01*
X723667Y111719D01*
X724431Y112483D01*
X724971Y113417D01*
X725250Y114460D01*
Y115540D01*
X724971Y116583D01*
X724431Y117517D01*
X723667Y118281D01*
X722732Y118821D01*
X721690Y119100D01*
D02*
G37*
G36*
X710240D02*
X709160D01*
X708117Y118821D01*
X707183Y118281D01*
X706419Y117517D01*
X705879Y116583D01*
X705600Y115540D01*
Y114460D01*
X705879Y113417D01*
X706419Y112483D01*
X707183Y111719D01*
X708117Y111179D01*
X709160Y110900D01*
X710240D01*
X711282Y111179D01*
X712218Y111719D01*
X712981Y112483D01*
X713521Y113417D01*
X713800Y114460D01*
Y115540D01*
X713521Y116583D01*
X712981Y117517D01*
X712218Y118281D01*
X711282Y118821D01*
X710240Y119100D01*
D02*
G37*
G36*
X698790D02*
X697710D01*
X696667Y118821D01*
X695732Y118281D01*
X694969Y117517D01*
X694429Y116583D01*
X694150Y115540D01*
Y114460D01*
X694429Y113417D01*
X694969Y112483D01*
X695732Y111719D01*
X696667Y111179D01*
X697710Y110900D01*
X698790D01*
X699832Y111179D01*
X700768Y111719D01*
X701531Y112483D01*
X702071Y113417D01*
X702350Y114460D01*
Y115540D01*
X702071Y116583D01*
X701531Y117517D01*
X700768Y118281D01*
X699832Y118821D01*
X698790Y119100D01*
D02*
G37*
G36*
X687340D02*
X686260D01*
X685218Y118821D01*
X684282Y118281D01*
X683519Y117517D01*
X682979Y116583D01*
X682700Y115540D01*
Y114460D01*
X682979Y113417D01*
X683519Y112483D01*
X684282Y111719D01*
X685218Y111179D01*
X686260Y110900D01*
X687340D01*
X688382Y111179D01*
X689318Y111719D01*
X690081Y112483D01*
X690621Y113417D01*
X690900Y114460D01*
Y115540D01*
X690621Y116583D01*
X690081Y117517D01*
X689318Y118281D01*
X688382Y118821D01*
X687340Y119100D01*
D02*
G37*
G36*
X707438Y106200D02*
X706562D01*
X705754Y105865D01*
X705135Y105246D01*
X704800Y104438D01*
Y103562D01*
X705135Y102754D01*
X705754Y102135D01*
X706562Y101800D01*
X707438D01*
X708246Y102135D01*
X708865Y102754D01*
X709200Y103562D01*
Y104438D01*
X708865Y105246D01*
X708246Y105865D01*
X707438Y106200D01*
D02*
G37*
G36*
X774467Y105550D02*
X773533D01*
X772630Y105308D01*
X771820Y104841D01*
X771159Y104180D01*
X770692Y103370D01*
X770450Y102467D01*
Y101533D01*
X770692Y100630D01*
X771159Y99820D01*
X771820Y99159D01*
X772630Y98692D01*
X773533Y98450D01*
X774467D01*
X775370Y98692D01*
X776180Y99159D01*
X776841Y99820D01*
X777308Y100630D01*
X777550Y101533D01*
Y102467D01*
X777308Y103370D01*
X776841Y104180D01*
X776180Y104841D01*
X775370Y105308D01*
X774467Y105550D01*
D02*
G37*
G36*
X731040Y101600D02*
X729960D01*
X728918Y101321D01*
X727983Y100781D01*
X727219Y100017D01*
X726679Y99082D01*
X726400Y98040D01*
Y96960D01*
X726679Y95917D01*
X727219Y94982D01*
X727983Y94219D01*
X728918Y93679D01*
X729960Y93400D01*
X731040D01*
X732083Y93679D01*
X733017Y94219D01*
X733781Y94982D01*
X734321Y95917D01*
X734600Y96960D01*
Y98040D01*
X734321Y99082D01*
X733781Y100017D01*
X733017Y100781D01*
X732083Y101321D01*
X731040Y101600D01*
D02*
G37*
G36*
X721040D02*
X719960D01*
X718918Y101321D01*
X717982Y100781D01*
X717219Y100017D01*
X716679Y99082D01*
X716400Y98040D01*
Y96960D01*
X716679Y95917D01*
X717219Y94982D01*
X717982Y94219D01*
X718918Y93679D01*
X719960Y93400D01*
X721040D01*
X722083Y93679D01*
X723018Y94219D01*
X723781Y94982D01*
X724321Y95917D01*
X724600Y96960D01*
Y98040D01*
X724321Y99082D01*
X723781Y100017D01*
X723018Y100781D01*
X722083Y101321D01*
X721040Y101600D01*
D02*
G37*
G36*
X774467Y93425D02*
X773533D01*
X772630Y93183D01*
X771820Y92716D01*
X771159Y92055D01*
X770692Y91245D01*
X770450Y90342D01*
Y89408D01*
X770692Y88505D01*
X771159Y87695D01*
X771820Y87034D01*
X772630Y86567D01*
X773533Y86325D01*
X774467D01*
X775370Y86567D01*
X776180Y87034D01*
X776841Y87695D01*
X777308Y88505D01*
X777550Y89408D01*
Y90342D01*
X777308Y91245D01*
X776841Y92055D01*
X776180Y92716D01*
X775370Y93183D01*
X774467Y93425D01*
D02*
G37*
G36*
Y81300D02*
X773533D01*
X772630Y81058D01*
X771820Y80591D01*
X771159Y79930D01*
X770692Y79120D01*
X770450Y78217D01*
Y77283D01*
X770692Y76380D01*
X771159Y75570D01*
X771820Y74909D01*
X772630Y74442D01*
X773533Y74200D01*
X774467D01*
X775370Y74442D01*
X776180Y74909D01*
X776841Y75570D01*
X777308Y76380D01*
X777550Y77283D01*
Y78217D01*
X777308Y79120D01*
X776841Y79930D01*
X776180Y80591D01*
X775370Y81058D01*
X774467Y81300D01*
D02*
G37*
G36*
X759540Y81850D02*
X758460D01*
X757417Y81571D01*
X756483Y81031D01*
X755719Y80268D01*
X755179Y79333D01*
X754900Y78290D01*
Y77210D01*
X755179Y76168D01*
X755719Y75232D01*
X756483Y74469D01*
X757417Y73929D01*
X758460Y73650D01*
X759540D01*
X760582Y73929D01*
X761517Y74469D01*
X762281Y75232D01*
X762821Y76168D01*
X763100Y77210D01*
Y78290D01*
X762821Y79333D01*
X762281Y80268D01*
X761517Y81031D01*
X760582Y81571D01*
X759540Y81850D01*
D02*
G37*
G36*
X698938Y77200D02*
X698062D01*
X697254Y76865D01*
X696635Y76246D01*
X696300Y75438D01*
Y74562D01*
X696635Y73754D01*
X697254Y73135D01*
X698062Y72800D01*
X698938D01*
X699746Y73135D01*
X700365Y73754D01*
X700700Y74562D01*
Y75438D01*
X700365Y76246D01*
X699746Y76865D01*
X698938Y77200D01*
D02*
G37*
G36*
X648540Y76600D02*
X647460D01*
X646418Y76321D01*
X645482Y75781D01*
X644719Y75017D01*
X644179Y74082D01*
X643900Y73040D01*
Y71960D01*
X644179Y70917D01*
X644719Y69982D01*
X645482Y69219D01*
X646418Y68679D01*
X647460Y68400D01*
X648540D01*
X649582Y68679D01*
X650518Y69219D01*
X651281Y69982D01*
X651821Y70917D01*
X652100Y71960D01*
Y73040D01*
X651821Y74082D01*
X651281Y75017D01*
X650518Y75781D01*
X649582Y76321D01*
X648540Y76600D01*
D02*
G37*
G36*
X774467Y69175D02*
X773533D01*
X772630Y68933D01*
X771820Y68466D01*
X771159Y67805D01*
X770692Y66995D01*
X770450Y66092D01*
Y65158D01*
X770692Y64255D01*
X771159Y63445D01*
X771820Y62784D01*
X772630Y62317D01*
X773533Y62075D01*
X774467D01*
X775370Y62317D01*
X776180Y62784D01*
X776841Y63445D01*
X777308Y64255D01*
X777550Y65158D01*
Y66092D01*
X777308Y66995D01*
X776841Y67805D01*
X776180Y68466D01*
X775370Y68933D01*
X774467Y69175D01*
D02*
G37*
G36*
X759540Y69725D02*
X758460D01*
X757417Y69446D01*
X756483Y68906D01*
X755719Y68142D01*
X755179Y67207D01*
X754900Y66165D01*
Y65085D01*
X755179Y64043D01*
X755719Y63108D01*
X756483Y62344D01*
X757417Y61804D01*
X758460Y61525D01*
X759540D01*
X760582Y61804D01*
X761517Y62344D01*
X762281Y63108D01*
X762821Y64043D01*
X763100Y65085D01*
Y66165D01*
X762821Y67207D01*
X762281Y68142D01*
X761517Y68906D01*
X760582Y69446D01*
X759540Y69725D01*
D02*
G37*
G36*
X774467Y57050D02*
X773533D01*
X772630Y56808D01*
X771820Y56341D01*
X771159Y55680D01*
X770692Y54870D01*
X770450Y53967D01*
Y53033D01*
X770692Y52130D01*
X771159Y51320D01*
X771820Y50659D01*
X772630Y50192D01*
X773533Y49950D01*
X774467D01*
X775370Y50192D01*
X776180Y50659D01*
X776841Y51320D01*
X777308Y52130D01*
X777550Y53033D01*
Y53967D01*
X777308Y54870D01*
X776841Y55680D01*
X776180Y56341D01*
X775370Y56808D01*
X774467Y57050D01*
D02*
G37*
G36*
Y44550D02*
X773533D01*
X772630Y44308D01*
X771820Y43841D01*
X771159Y43180D01*
X770692Y42370D01*
X770450Y41467D01*
Y40533D01*
X770692Y39630D01*
X771159Y38820D01*
X771820Y38159D01*
X772630Y37692D01*
X773533Y37450D01*
X774467D01*
X775370Y37692D01*
X776180Y38159D01*
X776841Y38820D01*
X777308Y39630D01*
X777550Y40533D01*
Y41467D01*
X777308Y42370D01*
X776841Y43180D01*
X776180Y43841D01*
X775370Y44308D01*
X774467Y44550D01*
D02*
G37*
G36*
Y34050D02*
X773533D01*
X772630Y33808D01*
X771820Y33341D01*
X771159Y32680D01*
X770692Y31870D01*
X770450Y30967D01*
Y30033D01*
X770692Y29130D01*
X771159Y28320D01*
X771820Y27659D01*
X772630Y27192D01*
X773533Y26950D01*
X774467D01*
X775370Y27192D01*
X776180Y27659D01*
X776841Y28320D01*
X777308Y29130D01*
X777550Y30033D01*
Y30967D01*
X777308Y31870D01*
X776841Y32680D01*
X776180Y33341D01*
X775370Y33808D01*
X774467Y34050D01*
D02*
G37*
G36*
X759540Y34600D02*
X758460D01*
X757417Y34321D01*
X756483Y33781D01*
X755719Y33018D01*
X755179Y32083D01*
X754900Y31040D01*
Y29960D01*
X755179Y28918D01*
X755719Y27983D01*
X756483Y27219D01*
X757417Y26679D01*
X758460Y26400D01*
X759540D01*
X760582Y26679D01*
X761517Y27219D01*
X762281Y27983D01*
X762821Y28918D01*
X763100Y29960D01*
Y31040D01*
X762821Y32083D01*
X762281Y33018D01*
X761517Y33781D01*
X760582Y34321D01*
X759540Y34600D01*
D02*
G37*
G36*
X774967Y20550D02*
X774033D01*
X773130Y20308D01*
X772320Y19841D01*
X771659Y19180D01*
X771192Y18370D01*
X770950Y17467D01*
Y16533D01*
X771192Y15630D01*
X771659Y14820D01*
X772320Y14159D01*
X773130Y13692D01*
X774033Y13450D01*
X774967D01*
X775870Y13692D01*
X776680Y14159D01*
X777341Y14820D01*
X777808Y15630D01*
X778050Y16533D01*
Y17467D01*
X777808Y18370D01*
X777341Y19180D01*
X776680Y19841D01*
X775870Y20308D01*
X774967Y20550D01*
D02*
G37*
G36*
X760040Y21100D02*
X758960D01*
X757917Y20821D01*
X756983Y20281D01*
X756219Y19518D01*
X755679Y18583D01*
X755400Y17540D01*
Y16460D01*
X755679Y15417D01*
X756219Y14482D01*
X756983Y13719D01*
X757917Y13179D01*
X758960Y12900D01*
X760040D01*
X761083Y13179D01*
X762017Y13719D01*
X762781Y14482D01*
X763321Y15417D01*
X763600Y16460D01*
Y17540D01*
X763321Y18583D01*
X762781Y19518D01*
X762017Y20281D01*
X761083Y20821D01*
X760040Y21100D01*
D02*
G37*
G36*
X736290Y13600D02*
X735210D01*
X734167Y13321D01*
X733232Y12781D01*
X732469Y12017D01*
X731929Y11083D01*
X731650Y10040D01*
Y8960D01*
X731929Y7918D01*
X732469Y6983D01*
X733232Y6219D01*
X734167Y5679D01*
X735210Y5400D01*
X736290D01*
X737332Y5679D01*
X738268Y6219D01*
X739031Y6983D01*
X739571Y7918D01*
X739850Y8960D01*
Y10040D01*
X739571Y11083D01*
X739031Y12017D01*
X738268Y12781D01*
X737332Y13321D01*
X736290Y13600D01*
D02*
G37*
G36*
X775675Y6850D02*
X774325D01*
X773002Y6587D01*
X771755Y6070D01*
X770633Y5321D01*
X769679Y4367D01*
X768930Y3245D01*
X768413Y1998D01*
X768150Y675D01*
Y-675D01*
X768413Y-1998D01*
X768930Y-3245D01*
X769679Y-4367D01*
X770633Y-5321D01*
X771755Y-6070D01*
X773002Y-6587D01*
X774325Y-6850D01*
X775675D01*
X776998Y-6587D01*
X778245Y-6070D01*
X779367Y-5321D01*
X780321Y-4367D01*
X781070Y-3245D01*
X781587Y-1998D01*
X781850Y-675D01*
Y675D01*
X781587Y1998D01*
X781070Y3245D01*
X780321Y4367D01*
X779367Y5321D01*
X778245Y6070D01*
X776998Y6587D01*
X775675Y6850D01*
D02*
G37*
G36*
X620675Y6350D02*
X619325D01*
X618002Y6087D01*
X616755Y5570D01*
X615633Y4821D01*
X614679Y3867D01*
X613930Y2745D01*
X613413Y1498D01*
X613150Y175D01*
Y-1175D01*
X613413Y-2498D01*
X613930Y-3745D01*
X614679Y-4867D01*
X615633Y-5821D01*
X616755Y-6570D01*
X618002Y-7087D01*
X619325Y-7350D01*
X620675D01*
X621998Y-7087D01*
X623245Y-6570D01*
X624367Y-5821D01*
X625321Y-4867D01*
X626070Y-3745D01*
X626587Y-2498D01*
X626850Y-1175D01*
Y175D01*
X626587Y1498D01*
X626070Y2745D01*
X625321Y3867D01*
X624367Y4821D01*
X623245Y5570D01*
X621998Y6087D01*
X620675Y6350D01*
D02*
G37*
G36*
X747905Y-1950D02*
X746970D01*
X746067Y-2192D01*
X745258Y-2659D01*
X744597Y-3320D01*
X744129Y-4130D01*
X743888Y-5033D01*
Y-5967D01*
X744129Y-6870D01*
X744597Y-7680D01*
X745258Y-8341D01*
X746067Y-8808D01*
X746970Y-9050D01*
X747905D01*
X748808Y-8808D01*
X749617Y-8341D01*
X750278Y-7680D01*
X750746Y-6870D01*
X750987Y-5967D01*
Y-5033D01*
X750746Y-4130D01*
X750278Y-3320D01*
X749617Y-2659D01*
X748808Y-2192D01*
X747905Y-1950D01*
D02*
G37*
G36*
X736217D02*
X735283D01*
X734380Y-2192D01*
X733570Y-2659D01*
X732909Y-3320D01*
X732442Y-4130D01*
X732200Y-5033D01*
Y-5967D01*
X732442Y-6870D01*
X732909Y-7680D01*
X733570Y-8341D01*
X734380Y-8808D01*
X735283Y-9050D01*
X736217D01*
X737120Y-8808D01*
X737930Y-8341D01*
X738591Y-7680D01*
X739058Y-6870D01*
X739300Y-5967D01*
Y-5033D01*
X739058Y-4130D01*
X738591Y-3320D01*
X737930Y-2659D01*
X737120Y-2192D01*
X736217Y-1950D01*
D02*
G37*
G36*
X724530D02*
X723595D01*
X722692Y-2192D01*
X721883Y-2659D01*
X721222Y-3320D01*
X720754Y-4130D01*
X720512Y-5033D01*
Y-5967D01*
X720754Y-6870D01*
X721222Y-7680D01*
X721883Y-8341D01*
X722692Y-8808D01*
X723595Y-9050D01*
X724530D01*
X725433Y-8808D01*
X726242Y-8341D01*
X726903Y-7680D01*
X727371Y-6870D01*
X727612Y-5967D01*
Y-5033D01*
X727371Y-4130D01*
X726903Y-3320D01*
X726242Y-2659D01*
X725433Y-2192D01*
X724530Y-1950D01*
D02*
G37*
G36*
X712842D02*
X711908D01*
X711005Y-2192D01*
X710195Y-2659D01*
X709534Y-3320D01*
X709067Y-4130D01*
X708825Y-5033D01*
Y-5967D01*
X709067Y-6870D01*
X709534Y-7680D01*
X710195Y-8341D01*
X711005Y-8808D01*
X711908Y-9050D01*
X712842D01*
X713745Y-8808D01*
X714555Y-8341D01*
X715216Y-7680D01*
X715683Y-6870D01*
X715925Y-5967D01*
Y-5033D01*
X715683Y-4130D01*
X715216Y-3320D01*
X714555Y-2659D01*
X713745Y-2192D01*
X712842Y-1950D01*
D02*
G37*
G36*
X701155D02*
X700220D01*
X699317Y-2192D01*
X698508Y-2659D01*
X697847Y-3320D01*
X697379Y-4130D01*
X697137Y-5033D01*
Y-5967D01*
X697379Y-6870D01*
X697847Y-7680D01*
X698508Y-8341D01*
X699317Y-8808D01*
X700220Y-9050D01*
X701155D01*
X702058Y-8808D01*
X702867Y-8341D01*
X703528Y-7680D01*
X703996Y-6870D01*
X704238Y-5967D01*
Y-5033D01*
X703996Y-4130D01*
X703528Y-3320D01*
X702867Y-2659D01*
X702058Y-2192D01*
X701155Y-1950D01*
D02*
G37*
G36*
X689467D02*
X688533D01*
X687630Y-2192D01*
X686820Y-2659D01*
X686159Y-3320D01*
X685692Y-4130D01*
X685450Y-5033D01*
Y-5967D01*
X685692Y-6870D01*
X686159Y-7680D01*
X686820Y-8341D01*
X687630Y-8808D01*
X688533Y-9050D01*
X689467D01*
X690370Y-8808D01*
X691180Y-8341D01*
X691841Y-7680D01*
X692308Y-6870D01*
X692550Y-5967D01*
Y-5033D01*
X692308Y-4130D01*
X691841Y-3320D01*
X691180Y-2659D01*
X690370Y-2192D01*
X689467Y-1950D01*
D02*
G37*
G36*
X676467D02*
X675533D01*
X674630Y-2192D01*
X673820Y-2659D01*
X673159Y-3320D01*
X672692Y-4130D01*
X672450Y-5033D01*
Y-5967D01*
X672692Y-6870D01*
X673159Y-7680D01*
X673820Y-8341D01*
X674630Y-8808D01*
X675533Y-9050D01*
X676467D01*
X677370Y-8808D01*
X678180Y-8341D01*
X678841Y-7680D01*
X679308Y-6870D01*
X679550Y-5967D01*
Y-5033D01*
X679308Y-4130D01*
X678841Y-3320D01*
X678180Y-2659D01*
X677370Y-2192D01*
X676467Y-1950D01*
D02*
G37*
G36*
X662967Y-2450D02*
X662033D01*
X661130Y-2692D01*
X660320Y-3159D01*
X659659Y-3820D01*
X659192Y-4630D01*
X658950Y-5533D01*
Y-6467D01*
X659192Y-7370D01*
X659659Y-8180D01*
X660320Y-8841D01*
X661130Y-9308D01*
X662033Y-9550D01*
X662967D01*
X663870Y-9308D01*
X664680Y-8841D01*
X665341Y-8180D01*
X665808Y-7370D01*
X666050Y-6467D01*
Y-5533D01*
X665808Y-4630D01*
X665341Y-3820D01*
X664680Y-3159D01*
X663870Y-2692D01*
X662967Y-2450D01*
D02*
G37*
G36*
X651467D02*
X650533D01*
X649630Y-2692D01*
X648820Y-3159D01*
X648159Y-3820D01*
X647692Y-4630D01*
X647450Y-5533D01*
Y-6467D01*
X647692Y-7370D01*
X648159Y-8180D01*
X648820Y-8841D01*
X649630Y-9308D01*
X650533Y-9550D01*
X651467D01*
X652370Y-9308D01*
X653180Y-8841D01*
X653841Y-8180D01*
X654308Y-7370D01*
X654550Y-6467D01*
Y-5533D01*
X654308Y-4630D01*
X653841Y-3820D01*
X653180Y-3159D01*
X652370Y-2692D01*
X651467Y-2450D01*
D02*
G37*
G36*
X639967Y-2950D02*
X639033D01*
X638130Y-3192D01*
X637320Y-3659D01*
X636659Y-4320D01*
X636192Y-5130D01*
X635950Y-6033D01*
Y-6967D01*
X636192Y-7870D01*
X636659Y-8680D01*
X637320Y-9341D01*
X638130Y-9808D01*
X639033Y-10050D01*
X639967D01*
X640870Y-9808D01*
X641680Y-9341D01*
X642341Y-8680D01*
X642808Y-7870D01*
X643050Y-6967D01*
Y-6033D01*
X642808Y-5130D01*
X642341Y-4320D01*
X641680Y-3659D01*
X640870Y-3192D01*
X639967Y-2950D01*
D02*
G37*
G36*
X600967D02*
X600033D01*
X599130Y-3192D01*
X598320Y-3659D01*
X597659Y-4320D01*
X597192Y-5130D01*
X596950Y-6033D01*
Y-6967D01*
X597192Y-7870D01*
X597659Y-8680D01*
X598320Y-9341D01*
X599130Y-9808D01*
X600033Y-10050D01*
X600967D01*
X601870Y-9808D01*
X602680Y-9341D01*
X603341Y-8680D01*
X603808Y-7870D01*
X604050Y-6967D01*
Y-6033D01*
X603808Y-5130D01*
X603341Y-4320D01*
X602680Y-3659D01*
X601870Y-3192D01*
X600967Y-2950D01*
D02*
G37*
G36*
X62438Y76200D02*
X61562D01*
X60754Y75865D01*
X60135Y75246D01*
X59800Y74438D01*
Y73562D01*
X60135Y72754D01*
X60754Y72135D01*
X61562Y71800D01*
X62438D01*
X63246Y72135D01*
X63865Y72754D01*
X64200Y73562D01*
Y74438D01*
X63865Y75246D01*
X63246Y75865D01*
X62438Y76200D01*
D02*
G37*
G36*
X100438Y56700D02*
X99562D01*
X98754Y56365D01*
X98135Y55746D01*
X97800Y54938D01*
Y54062D01*
X98135Y53254D01*
X98754Y52635D01*
X99562Y52300D01*
X100438D01*
X101246Y52635D01*
X101865Y53254D01*
X102200Y54062D01*
Y54938D01*
X101865Y55746D01*
X101246Y56365D01*
X100438Y56700D01*
D02*
G37*
G36*
X451681Y92469D02*
X450806D01*
X449997Y92134D01*
X449378Y91515D01*
X449043Y90707D01*
Y89832D01*
X449378Y89023D01*
X449997Y88404D01*
X450460Y88212D01*
Y83951D01*
X450254Y83865D01*
X449635Y83246D01*
X449300Y82438D01*
Y81562D01*
X449635Y80754D01*
X450254Y80135D01*
X451062Y79800D01*
X451938D01*
X452176Y79899D01*
X452558Y79516D01*
X452332Y78970D01*
Y78094D01*
X452667Y77286D01*
X453286Y76667D01*
X453198Y76165D01*
X453158Y76105D01*
X453127Y75951D01*
X452607Y75900D01*
X452416Y76362D01*
X451797Y76980D01*
X450989Y77315D01*
X450114D01*
X449305Y76980D01*
X448686Y76362D01*
X448351Y75553D01*
Y74678D01*
X448686Y73869D01*
X449305Y73250D01*
X450114Y72915D01*
X450989D01*
X451797Y73250D01*
X452416Y73869D01*
X452589Y74285D01*
X453089Y74186D01*
Y70691D01*
X452589Y70591D01*
X452365Y71131D01*
X451746Y71750D01*
X450938Y72085D01*
X450062D01*
X449254Y71750D01*
X448635Y71131D01*
X448300Y70322D01*
Y69447D01*
X448635Y68638D01*
X449254Y68020D01*
X450062Y67685D01*
X450938D01*
X451746Y68020D01*
X452365Y68638D01*
X452589Y69178D01*
X453089Y69079D01*
Y66384D01*
X452589Y66176D01*
X452246Y66519D01*
X451438Y66854D01*
X450562D01*
X449754Y66519D01*
X449135Y65900D01*
X448800Y65092D01*
Y64216D01*
X449135Y63408D01*
X449462Y63081D01*
X449726Y62754D01*
X449462Y62427D01*
X449135Y62100D01*
X448800Y61291D01*
Y60416D01*
X449135Y59608D01*
X449754Y58989D01*
X450562Y58654D01*
X451438D01*
X452246Y58989D01*
X452589Y59331D01*
X453089Y59124D01*
Y56176D01*
X452589Y55930D01*
X451938Y56200D01*
X451062D01*
X450254Y55865D01*
X449635Y55246D01*
X449300Y54438D01*
Y53562D01*
X449635Y52754D01*
X450254Y52135D01*
X451062Y51800D01*
X451938D01*
X452589Y52070D01*
X453089Y51824D01*
Y50730D01*
X452589Y50523D01*
X452246Y50865D01*
X451438Y51200D01*
X450562D01*
X449754Y50865D01*
X449135Y50246D01*
X448800Y49438D01*
Y48562D01*
X449135Y47754D01*
X449754Y47135D01*
X450562Y46800D01*
X451438D01*
X452246Y47135D01*
X452589Y47477D01*
X453089Y47270D01*
Y46500D01*
X453158Y46151D01*
X453356Y45856D01*
X454939Y44273D01*
X454800Y43938D01*
Y43062D01*
X455135Y42254D01*
X455754Y41635D01*
X456562Y41300D01*
X457438D01*
X458246Y41635D01*
X458865Y42254D01*
X459200Y43062D01*
Y43938D01*
X458865Y44746D01*
X458246Y45365D01*
X457438Y45700D01*
X456562D01*
X456227Y45561D01*
X454911Y46878D01*
Y75379D01*
X454938Y75406D01*
X455136Y75702D01*
X455205Y76051D01*
Y76430D01*
X455778Y76667D01*
X456397Y77286D01*
X456732Y78094D01*
Y78970D01*
X456397Y79778D01*
X455778Y80397D01*
X454970Y80732D01*
X454094D01*
X453856Y80633D01*
X453474Y81016D01*
X453700Y81562D01*
Y82438D01*
X453365Y83246D01*
X452746Y83865D01*
X452283Y84057D01*
Y88319D01*
X452490Y88404D01*
X453109Y89023D01*
X453443Y89832D01*
Y90707D01*
X453109Y91515D01*
X452490Y92134D01*
X451681Y92469D01*
D02*
G37*
G36*
X476100Y73291D02*
X475225D01*
X474417Y72956D01*
X473798Y72337D01*
X473463Y71528D01*
Y70653D01*
X473798Y69844D01*
X474417Y69226D01*
X475225Y68891D01*
X476100D01*
X476909Y69226D01*
X477528Y69844D01*
X477863Y70653D01*
Y71528D01*
X477528Y72337D01*
X476909Y72956D01*
X476100Y73291D01*
D02*
G37*
G36*
X472438Y60200D02*
X471562D01*
X470754Y59865D01*
X470135Y59246D01*
X469800Y58438D01*
Y57562D01*
X470135Y56754D01*
X470754Y56135D01*
X471562Y55800D01*
X472438D01*
X473246Y56135D01*
X473865Y56754D01*
X474200Y57562D01*
Y58438D01*
X473865Y59246D01*
X473246Y59865D01*
X472438Y60200D01*
D02*
G37*
G36*
X443938D02*
X443062D01*
X442254Y59865D01*
X441635Y59246D01*
X441300Y58438D01*
Y57562D01*
X441635Y56754D01*
X442254Y56135D01*
X443062Y55800D01*
X443938D01*
X444746Y56135D01*
X445365Y56754D01*
X445700Y57562D01*
Y58438D01*
X445365Y59246D01*
X444746Y59865D01*
X443938Y60200D01*
D02*
G37*
G36*
X472938Y52700D02*
X472062D01*
X471254Y52365D01*
X470635Y51746D01*
X470300Y50938D01*
Y50062D01*
X470635Y49254D01*
X471254Y48635D01*
X472062Y48300D01*
X472938D01*
X473746Y48635D01*
X474365Y49254D01*
X474700Y50062D01*
Y50938D01*
X474365Y51746D01*
X473746Y52365D01*
X472938Y52700D01*
D02*
G37*
G36*
X393668Y48815D02*
X392792D01*
X391984Y48480D01*
X391394Y47891D01*
X391115Y47875D01*
X390836Y47891D01*
X390246Y48480D01*
X389438Y48815D01*
X388562D01*
X387754Y48480D01*
X387135Y47862D01*
X386800Y47053D01*
Y46178D01*
X387135Y45369D01*
X387754Y44750D01*
X388562Y44415D01*
X389438D01*
X390246Y44750D01*
X390836Y45340D01*
X391115Y45355D01*
X391394Y45340D01*
X391984Y44750D01*
X392792Y44415D01*
X393668D01*
X394476Y44750D01*
X395095Y45369D01*
X395430Y46178D01*
Y47053D01*
X395095Y47862D01*
X394476Y48480D01*
X393668Y48815D01*
D02*
G37*
G36*
X383780Y50687D02*
X382904D01*
X382096Y50353D01*
X381477Y49734D01*
X381142Y48925D01*
Y48050D01*
X381477Y47241D01*
X382096Y46622D01*
X382904Y46288D01*
X383780D01*
X384588Y46622D01*
X385207Y47241D01*
X385542Y48050D01*
Y48925D01*
X385207Y49734D01*
X384588Y50353D01*
X383780Y50687D01*
D02*
G37*
G36*
X246438Y99200D02*
X245562D01*
X244754Y98865D01*
X244135Y98246D01*
X243800Y97438D01*
Y96562D01*
X244135Y95754D01*
X244754Y95135D01*
X245562Y94800D01*
X246438D01*
X247246Y95135D01*
X247865Y95754D01*
X248200Y96562D01*
Y97438D01*
X247865Y98246D01*
X247246Y98865D01*
X246438Y99200D01*
D02*
G37*
G36*
X641438Y96200D02*
X640562D01*
X639754Y95865D01*
X639135Y95246D01*
X638800Y94438D01*
Y93562D01*
X639135Y92754D01*
X639754Y92135D01*
X640562Y91800D01*
X641438D01*
X642246Y92135D01*
X642865Y92754D01*
X643200Y93562D01*
Y94438D01*
X642865Y95246D01*
X642246Y95865D01*
X641438Y96200D01*
D02*
G37*
G36*
X508438Y79700D02*
X507562D01*
X506754Y79365D01*
X506135Y78746D01*
X505800Y77938D01*
Y77062D01*
X506135Y76254D01*
X506754Y75635D01*
X507562Y75300D01*
X508438D01*
X509246Y75635D01*
X509865Y76254D01*
X510200Y77062D01*
Y77938D01*
X509865Y78746D01*
X509246Y79365D01*
X508438Y79700D01*
D02*
G37*
G36*
X593938Y75200D02*
X593062D01*
X592254Y74865D01*
X591635Y74246D01*
X591300Y73438D01*
Y72562D01*
X591635Y71754D01*
X592254Y71135D01*
X593062Y70800D01*
X593938D01*
X594746Y71135D01*
X595365Y71754D01*
X595700Y72562D01*
Y73438D01*
X595365Y74246D01*
X594746Y74865D01*
X593938Y75200D01*
D02*
G37*
G36*
X585537Y54101D02*
X584662D01*
X583853Y53766D01*
X583234Y53147D01*
X582899Y52338D01*
Y51463D01*
X583234Y50655D01*
X583853Y50036D01*
X584662Y49701D01*
X585537D01*
X586346Y50036D01*
X586964Y50655D01*
X587299Y51463D01*
Y52338D01*
X586964Y53147D01*
X586346Y53766D01*
X585537Y54101D01*
D02*
G37*
G36*
X192438Y71200D02*
X191562D01*
X190754Y70865D01*
X190135Y70246D01*
X189800Y69438D01*
Y68562D01*
X190135Y67754D01*
X190754Y67135D01*
X191562Y66800D01*
X192438D01*
X193246Y67135D01*
X193865Y67754D01*
X194200Y68562D01*
Y69438D01*
X193865Y70246D01*
X193246Y70865D01*
X192438Y71200D01*
D02*
G37*
G36*
X314925Y68815D02*
X314050D01*
X313241Y68480D01*
X312622Y67862D01*
X312287Y67053D01*
Y66178D01*
X312622Y65369D01*
X313241Y64750D01*
X314050Y64415D01*
X314925D01*
X315733Y64750D01*
X316352Y65369D01*
X316687Y66178D01*
Y67053D01*
X316352Y67862D01*
X315733Y68480D01*
X314925Y68815D01*
D02*
G37*
G36*
X119938Y78200D02*
X119062D01*
X118254Y77865D01*
X117635Y77246D01*
X117300Y76438D01*
Y75562D01*
X117635Y74754D01*
X118254Y74135D01*
X119062Y73800D01*
X119938D01*
X120746Y74135D01*
X121365Y74754D01*
X121700Y75562D01*
Y76438D01*
X121365Y77246D01*
X120746Y77865D01*
X119938Y78200D01*
D02*
G37*
G36*
X267438Y64200D02*
X266562D01*
X265754Y63865D01*
X265135Y63246D01*
X264800Y62438D01*
Y61562D01*
X265135Y60754D01*
X265754Y60135D01*
X266562Y59800D01*
X267438D01*
X268246Y60135D01*
X268865Y60754D01*
X269200Y61562D01*
Y62438D01*
X268865Y63246D01*
X268246Y63865D01*
X267438Y64200D01*
D02*
G37*
G36*
X281438Y61700D02*
X280562D01*
X279754Y61365D01*
X279135Y60746D01*
X278800Y59938D01*
Y59062D01*
X279135Y58254D01*
X279754Y57635D01*
X280562Y57300D01*
X281438D01*
X282246Y57635D01*
X282865Y58254D01*
X283200Y59062D01*
Y59938D01*
X282865Y60746D01*
X282246Y61365D01*
X281438Y61700D01*
D02*
G37*
G36*
X230938Y59200D02*
X230062D01*
X229254Y58865D01*
X228635Y58246D01*
X228300Y57438D01*
Y56562D01*
X228635Y55754D01*
X229254Y55135D01*
X230062Y54800D01*
X230938D01*
X231746Y55135D01*
X232365Y55754D01*
X232700Y56562D01*
Y57438D01*
X232365Y58246D01*
X231746Y58865D01*
X230938Y59200D01*
D02*
G37*
G36*
X628938Y36700D02*
X628062D01*
X627254Y36365D01*
X626635Y35746D01*
X626300Y34938D01*
Y34062D01*
X626635Y33254D01*
X627254Y32635D01*
X628062Y32300D01*
X628938D01*
X629746Y32635D01*
X630365Y33254D01*
X630700Y34062D01*
Y34938D01*
X630365Y35746D01*
X629746Y36365D01*
X628938Y36700D01*
D02*
G37*
G36*
X585938Y33700D02*
X585062D01*
X584254Y33365D01*
X583635Y32746D01*
X583300Y31938D01*
Y31062D01*
X583635Y30254D01*
X584254Y29635D01*
X585062Y29300D01*
X585938D01*
X586746Y29635D01*
X587365Y30254D01*
X587700Y31062D01*
Y31938D01*
X587365Y32746D01*
X586746Y33365D01*
X585938Y33700D01*
D02*
G37*
G36*
X603675Y39350D02*
X602325D01*
X601002Y39087D01*
X599755Y38570D01*
X598633Y37821D01*
X597679Y36867D01*
X596930Y35745D01*
X596413Y34498D01*
X596150Y33175D01*
Y31825D01*
X596413Y30502D01*
X596930Y29255D01*
X597679Y28133D01*
X598633Y27179D01*
X599755Y26430D01*
X601002Y25913D01*
X602325Y25650D01*
X603675D01*
X604998Y25913D01*
X606245Y26430D01*
X607367Y27179D01*
X608321Y28133D01*
X609070Y29255D01*
X609587Y30502D01*
X609850Y31825D01*
Y33175D01*
X609587Y34498D01*
X609070Y35745D01*
X608321Y36867D01*
X607367Y37821D01*
X606245Y38570D01*
X604998Y39087D01*
X603675Y39350D01*
D02*
G37*
G36*
X624438Y29200D02*
X623562D01*
X622754Y28865D01*
X622135Y28246D01*
X621800Y27438D01*
Y26562D01*
X622135Y25754D01*
X622754Y25135D01*
X623562Y24800D01*
X624438D01*
X625246Y25135D01*
X625865Y25754D01*
X626200Y26562D01*
Y27438D01*
X625865Y28246D01*
X625246Y28865D01*
X624438Y29200D01*
D02*
G37*
G36*
X263938Y21200D02*
X263062D01*
X262254Y20865D01*
X261635Y20246D01*
X261300Y19438D01*
Y18562D01*
X261635Y17754D01*
X262254Y17135D01*
X263062Y16800D01*
X263938D01*
X264746Y17135D01*
X265365Y17754D01*
X265700Y18562D01*
Y19438D01*
X265365Y20246D01*
X264746Y20865D01*
X263938Y21200D01*
D02*
G37*
G36*
X231438D02*
X230562D01*
X229754Y20865D01*
X229135Y20246D01*
X228800Y19438D01*
Y18562D01*
X229135Y17754D01*
X229754Y17135D01*
X230562Y16800D01*
X231438D01*
X232246Y17135D01*
X232865Y17754D01*
X233200Y18562D01*
Y19438D01*
X232865Y20246D01*
X232246Y20865D01*
X231438Y21200D01*
D02*
G37*
G36*
X406179Y15745D02*
X405304D01*
X404495Y15410D01*
X403876Y14791D01*
X403542Y13983D01*
Y13107D01*
X403876Y12299D01*
X404495Y11680D01*
X405304Y11345D01*
X406179D01*
X406988Y11680D01*
X407607Y12299D01*
X407941Y13107D01*
Y13983D01*
X407607Y14791D01*
X406988Y15410D01*
X406179Y15745D01*
D02*
G37*
G36*
X284438Y4200D02*
X283562D01*
X282754Y3865D01*
X282135Y3246D01*
X281800Y2438D01*
Y1562D01*
X282135Y754D01*
X282754Y135D01*
X283562Y-200D01*
X284438D01*
X285246Y135D01*
X285865Y754D01*
X286200Y1562D01*
Y2438D01*
X285865Y3246D01*
X285246Y3865D01*
X284438Y4200D01*
D02*
G37*
G36*
X264438Y3700D02*
X263562D01*
X262754Y3365D01*
X262135Y2746D01*
X261800Y1938D01*
Y1062D01*
X262135Y254D01*
X262754Y-365D01*
X263562Y-700D01*
X264438D01*
X265246Y-365D01*
X265865Y254D01*
X266200Y1062D01*
Y1938D01*
X265865Y2746D01*
X265246Y3365D01*
X264438Y3700D01*
D02*
G37*
G36*
X534438Y13200D02*
X533562D01*
X532754Y12865D01*
X532135Y12246D01*
X531800Y11438D01*
Y10562D01*
X532135Y9754D01*
X532754Y9135D01*
X533562Y8800D01*
X534438D01*
X535246Y9135D01*
X535865Y9754D01*
X536200Y10562D01*
Y11438D01*
X535865Y12246D01*
X535246Y12865D01*
X534438Y13200D01*
D02*
G37*
G36*
X104438Y8700D02*
X103562D01*
X102754Y8365D01*
X102135Y7746D01*
X101800Y6938D01*
Y6062D01*
X102135Y5254D01*
X102754Y4635D01*
X103562Y4300D01*
X104438D01*
X105246Y4635D01*
X105865Y5254D01*
X106200Y6062D01*
Y6938D01*
X105865Y7746D01*
X105246Y8365D01*
X104438Y8700D01*
D02*
G37*
%LPD*%
D110*
X192180Y103700D02*
G03*
X190259Y103145I0J-3600D01*
G01*
X183658Y99000D02*
G03*
X183944Y99159I-1313J2697D01*
G01*
X192180Y103700D02*
X201972D01*
X126564Y99000D02*
X183658D01*
X183944Y99159D02*
X190259Y103145D01*
X184257Y95100D02*
X192180Y100100D01*
X105000Y15685D02*
Y17500D01*
X97538Y20348D02*
X102152D01*
X105000Y17500D01*
X97500Y20387D02*
X97538Y20348D01*
X185986Y83000D02*
X186072Y83086D01*
X193586D01*
X179181Y83000D02*
X185986D01*
X142167Y109081D02*
X145233D01*
X139854Y111394D02*
X142167Y109081D01*
X200480Y100100D02*
X204180Y96400D01*
X147813Y111500D02*
X165771D01*
X126813Y111394D02*
X139854D01*
X147400Y111248D02*
X147813Y111500D01*
X192180Y100100D02*
X200480D01*
X145233Y109081D02*
X147400Y111248D01*
X128800Y95100D02*
X184257D01*
X115820Y100400D02*
X126813Y111394D01*
X201972Y103700D02*
X206500Y102000D01*
X168271Y114000D02*
X185000D01*
X185500Y113500D01*
X123698Y96134D02*
X126564Y99000D01*
X204180Y96400D02*
X228867D01*
X234374Y90894D01*
X175981Y79800D02*
X179181Y83000D01*
X125000Y91300D02*
X128800Y95100D01*
X120202Y120702D02*
X147489D01*
X164150Y116650D02*
X168000Y120500D01*
X165771Y111500D02*
X168271Y114000D01*
X151541Y116650D02*
X164150D01*
X168000Y120500D02*
Y133000D01*
X147489Y120702D02*
X151541Y116650D01*
X123000Y42000D02*
X186500D01*
X195000Y50500D01*
X81933Y91300D02*
X125000D01*
X98467Y98700D02*
X101533D01*
X123634Y96134D02*
X123698D01*
X103516Y103488D02*
X106603Y100400D01*
X104620Y95612D02*
X123112D01*
X76033Y97200D02*
X81933Y91300D01*
X101533Y98700D02*
X104620Y95612D01*
X95767Y96000D02*
X98467Y98700D01*
X123112Y95612D02*
X123634Y96134D01*
X82324Y96000D02*
X95767D01*
X77524Y100800D02*
X82324Y96000D01*
X106603Y100400D02*
X115820D01*
X97399Y103488D02*
X103516D01*
X68967Y100800D02*
X77524D01*
X89687Y111200D02*
X97399Y103488D01*
X74185Y111200D02*
X89687D01*
X105855Y106355D02*
X120202Y120702D01*
X61000Y124385D02*
X74185Y111200D01*
X96500Y7000D02*
Y13166D01*
X97500Y14166D02*
Y20387D01*
X96500Y13166D02*
X97500Y14166D01*
X96500Y7000D02*
X104822Y-1322D01*
X115184D02*
X117446Y-3584D01*
X104822Y-1322D02*
X115184D01*
X117446Y-3584D02*
X117500D01*
X190180Y15600D02*
X194820D01*
X196769Y14623D02*
X199623Y11768D01*
X195797Y14623D02*
X196769D01*
X199623Y11768D02*
X199678D01*
X139500Y8800D02*
X149033D01*
X111885D02*
X139500D01*
X140113Y8187D01*
Y-4127D02*
Y8187D01*
X150233Y10000D02*
X184580D01*
X149033Y8800D02*
X150233Y10000D01*
X184580D02*
X190180Y15600D01*
X194820D02*
X195797Y14623D01*
X105000Y15685D02*
X111885Y8800D01*
X548000Y121000D02*
X548038Y121038D01*
X552806D02*
X555967Y124200D01*
X548038Y121038D02*
X552806D01*
X555967Y124200D02*
X572300D01*
X618500Y96500D02*
X624000D01*
X586600Y109900D02*
X605100D01*
X618500Y96500D01*
X572300Y124200D02*
X586600Y109900D01*
X577821Y125450D02*
X608641D01*
X568171Y135100D02*
X577821Y125450D01*
X298421Y135100D02*
X568171D01*
X41000Y110000D02*
X53800Y97200D01*
X56067Y113700D02*
X68967Y100800D01*
X36967Y113700D02*
X56067D01*
X20432Y97164D02*
X36967Y113700D01*
X20432Y48432D02*
Y97164D01*
X19500Y47500D02*
X20432Y48432D01*
X53800Y97200D02*
X76033D01*
X121000Y83000D02*
X158500D01*
X19500Y35115D02*
Y47500D01*
Y35115D02*
X35615Y19000D01*
X58000D01*
X257033Y93712D02*
X298421Y135100D01*
X608641Y125450D02*
X618241Y135050D01*
X746142D01*
X750450Y130742D01*
Y127908D02*
Y130742D01*
Y127908D02*
X757494Y120864D01*
X757556D01*
X764600Y113820D01*
Y95589D02*
Y113820D01*
X759000Y89989D02*
X764600Y95589D01*
X759000Y89875D02*
Y89989D01*
X252488Y93712D02*
X257033D01*
X240529Y90112D02*
X248888D01*
X234374Y90894D02*
X239748D01*
X240529Y90112D01*
X248888D02*
X252488Y93712D01*
X244500Y116000D02*
Y116500D01*
X226000Y135000D02*
X244500Y116500D01*
X170000Y135000D02*
X226000D01*
X168000Y133000D02*
X170000Y135000D01*
X203000Y48805D02*
Y54000D01*
X198500Y26000D02*
Y35711D01*
X196800Y37411D02*
X198500Y35711D01*
X196800Y37411D02*
Y42605D01*
X203000Y48805D01*
X158554Y83000D02*
X161754Y79800D01*
X175981D01*
X158500Y83000D02*
X158554D01*
X151500Y58500D02*
X159500Y66500D01*
X117257Y58500D02*
X151500D01*
X113500Y59500D02*
X114265Y58735D01*
X117023D02*
X117257Y58500D01*
X114265Y58735D02*
X117023D01*
D116*
X9500Y27252D02*
D03*
Y98748D02*
D03*
D117*
X14500Y48000D02*
D03*
Y53000D02*
D03*
Y58000D02*
D03*
Y63000D02*
D03*
Y68000D02*
D03*
Y73000D02*
D03*
Y78000D02*
D03*
X24500Y45500D02*
D03*
Y50500D02*
D03*
Y55500D02*
D03*
Y60500D02*
D03*
Y65500D02*
D03*
Y70500D02*
D03*
Y75500D02*
D03*
Y80500D02*
D03*
D118*
X137000Y75000D02*
D03*
X421000Y64000D02*
D03*
D119*
X113500Y106000D02*
D03*
Y59500D02*
D03*
X618000Y42500D02*
D03*
Y52500D02*
D03*
Y62500D02*
D03*
Y72500D02*
D03*
Y82500D02*
D03*
X648000D02*
D03*
Y72500D02*
D03*
Y62500D02*
D03*
Y52500D02*
D03*
Y42500D02*
D03*
X759000Y102000D02*
D03*
Y89875D02*
D03*
X755500Y115000D02*
D03*
X732600D02*
D03*
X744050D02*
D03*
X759000Y65625D02*
D03*
Y77750D02*
D03*
X327000Y-7500D02*
D03*
X161500Y18500D02*
D03*
X192500Y10000D02*
D03*
X566500Y73500D02*
D03*
X497500Y78500D02*
D03*
X554500Y31500D02*
D03*
X473000Y85000D02*
D03*
X206500Y102000D02*
D03*
X248000Y500D02*
D03*
X194500Y94500D02*
D03*
X197000Y60000D02*
D03*
X709700Y115000D02*
D03*
X639500Y8500D02*
D03*
X651000Y9000D02*
D03*
X600500Y8500D02*
D03*
X662500Y9000D02*
D03*
X676000Y9500D02*
D03*
X759000Y41000D02*
D03*
Y53500D02*
D03*
X689000Y9500D02*
D03*
X735750D02*
D03*
X700688D02*
D03*
X712375D02*
D03*
X724062D02*
D03*
X675350Y115000D02*
D03*
X686800D02*
D03*
X698250D02*
D03*
X721150D02*
D03*
X652450D02*
D03*
X641000D02*
D03*
X663900D02*
D03*
X599000Y115500D02*
D03*
X759000Y30500D02*
D03*
X759500Y17000D02*
D03*
X747437Y9500D02*
D03*
X740500Y97500D02*
D03*
X730500D02*
D03*
X720500D02*
D03*
X710500D02*
D03*
Y27500D02*
D03*
X720500D02*
D03*
X730500D02*
D03*
X740500D02*
D03*
D120*
X193000Y-8000D02*
D03*
D121*
X390500Y94494D02*
D03*
X381503Y82598D02*
D03*
X411487Y89444D02*
D03*
X463000Y95501D02*
D03*
X511000Y15385D02*
D03*
X551111Y19000D02*
D03*
X481000Y130000D02*
D03*
X410500Y37731D02*
D03*
X677584Y17575D02*
D03*
X415372Y106055D02*
D03*
X306000Y103000D02*
D03*
X288500Y99000D02*
D03*
X369231Y57838D02*
D03*
X106488Y27084D02*
D03*
X431652Y87722D02*
D03*
X690000Y55500D02*
D03*
X428500Y125500D02*
D03*
X514500Y11000D02*
D03*
X511000Y500D02*
D03*
X204000Y-9000D02*
D03*
X291000Y-7500D02*
D03*
X451000Y-9000D02*
D03*
X623000Y91000D02*
D03*
X633000Y105000D02*
D03*
X725000Y107000D02*
D03*
Y88500D02*
D03*
X281000Y54000D02*
D03*
X348000Y123500D02*
D03*
X369947Y44189D02*
D03*
X346145Y55147D02*
D03*
X370562Y67865D02*
D03*
X164500Y68647D02*
D03*
X192000Y63500D02*
D03*
Y69000D02*
D03*
X193586Y83086D02*
D03*
X55500Y33000D02*
D03*
X48500D02*
D03*
X42500D02*
D03*
X135816Y106000D02*
D03*
X152000Y105500D02*
D03*
X158500D02*
D03*
X165000D02*
D03*
X171500D02*
D03*
X195000Y111494D02*
D03*
X187500Y106506D02*
D03*
X143700Y112780D02*
D03*
X185500Y113500D02*
D03*
X204000Y92500D02*
D03*
X197816Y86000D02*
D03*
X137000Y91400D02*
D03*
X154500Y35500D02*
D03*
X146000D02*
D03*
X134540Y50500D02*
D03*
X185634Y46366D02*
D03*
X122166Y99834D02*
D03*
X100000Y95000D02*
D03*
X105855Y106355D02*
D03*
X117500Y131500D02*
D03*
X127000D02*
D03*
X135000D02*
D03*
X107500D02*
D03*
X99000D02*
D03*
X92000D02*
D03*
X71500Y132000D02*
D03*
X63000D02*
D03*
X55500D02*
D03*
X48000D02*
D03*
X40000D02*
D03*
X32500D02*
D03*
X61000Y124385D02*
D03*
X76000D02*
D03*
X202000Y8761D02*
D03*
X199678Y11768D02*
D03*
X104000Y6500D02*
D03*
X187143Y2769D02*
D03*
X197821Y19511D02*
D03*
X101303Y15525D02*
D03*
X135000Y13700D02*
D03*
X108700Y17217D02*
D03*
X107673Y23418D02*
D03*
X547017Y59821D02*
D03*
X509500Y47494D02*
D03*
X532875Y31600D02*
D03*
X547000Y30500D02*
D03*
X569500Y22006D02*
D03*
X585099Y51901D02*
D03*
X510500Y69819D02*
D03*
X483000Y84500D02*
D03*
X344000Y-7500D02*
D03*
X394500Y-7009D02*
D03*
X383063Y54500D02*
D03*
X392585D02*
D03*
X393460Y58500D02*
D03*
X450240Y116240D02*
D03*
X245500Y101500D02*
D03*
X409000Y32500D02*
D03*
X405438Y27310D02*
D03*
X409035Y15440D02*
D03*
X406700Y37500D02*
D03*
X438021Y39743D02*
D03*
X443500Y30500D02*
D03*
X430537Y27738D02*
D03*
X426613Y29252D02*
D03*
X420474Y32847D02*
D03*
X417392Y37162D02*
D03*
X430000Y31500D02*
D03*
X432500Y40051D02*
D03*
X358500Y53000D02*
D03*
X354939Y32939D02*
D03*
X361500Y76500D02*
D03*
X351500Y106000D02*
D03*
X348500Y111000D02*
D03*
X351538Y97277D02*
D03*
X359000Y116000D02*
D03*
X329851Y96550D02*
D03*
X333463Y97731D02*
D03*
X329069Y67033D02*
D03*
X319000Y55500D02*
D03*
X315083Y58637D02*
D03*
X333459Y50000D02*
D03*
X331500Y72500D02*
D03*
X334084Y75839D02*
D03*
X332515Y23500D02*
D03*
X304500Y30500D02*
D03*
X297997Y33000D02*
D03*
X364000Y25500D02*
D03*
X369196Y22699D02*
D03*
X367925Y17723D02*
D03*
X364979Y13616D02*
D03*
X491000Y2000D02*
D03*
X547075Y6075D02*
D03*
X549500Y9000D02*
D03*
X585316Y-3000D02*
D03*
X628500Y24500D02*
D03*
Y34500D02*
D03*
X624000Y27000D02*
D03*
X661000Y63500D02*
D03*
X641000Y94000D02*
D03*
X593500Y73000D02*
D03*
X585500Y31500D02*
D03*
X585000Y118000D02*
D03*
X548000Y121000D02*
D03*
X513000Y123000D02*
D03*
X533965Y124461D02*
D03*
X514000Y115500D02*
D03*
X492000Y110500D02*
D03*
X508000Y77500D02*
D03*
X588219Y65031D02*
D03*
X679000Y35000D02*
D03*
X636619Y88500D02*
D03*
X629000Y69000D02*
D03*
X624000Y96500D02*
D03*
X584000Y99500D02*
D03*
X594453Y105069D02*
D03*
X630500Y88000D02*
D03*
X563000Y95000D02*
D03*
X556500Y130000D02*
D03*
X496000Y128672D02*
D03*
X405000Y130500D02*
D03*
X450500Y95500D02*
D03*
X451243Y90269D02*
D03*
X468500Y70500D02*
D03*
X458000Y75000D02*
D03*
X454532Y78532D02*
D03*
X450551Y75115D02*
D03*
X451000Y64654D02*
D03*
X450500Y69885D02*
D03*
X451000Y60854D02*
D03*
X636500Y125000D02*
D03*
X487000Y130000D02*
D03*
X361000Y127500D02*
D03*
X352847Y11500D02*
D03*
X383185Y26329D02*
D03*
X392429Y50330D02*
D03*
X389000Y46615D02*
D03*
X393230D02*
D03*
X383064Y37220D02*
D03*
X223000Y47000D02*
D03*
X243500Y53000D02*
D03*
X237000Y84500D02*
D03*
X232000Y83500D02*
D03*
X224500Y68500D02*
D03*
X268000Y26000D02*
D03*
X264000Y1500D02*
D03*
X262546Y30500D02*
D03*
X259638Y60552D02*
D03*
X298662Y40494D02*
D03*
X294865Y40657D02*
D03*
X304429Y40494D02*
D03*
X309660Y40840D02*
D03*
X318500Y70000D02*
D03*
X314487Y66615D02*
D03*
X309794Y103221D02*
D03*
X302980Y98622D02*
D03*
X310500Y96500D02*
D03*
X262000Y82000D02*
D03*
X247000Y79500D02*
D03*
X243973Y75473D02*
D03*
X208500Y50500D02*
D03*
X108400Y2378D02*
D03*
X111500Y-5700D02*
D03*
X117438Y2500D02*
D03*
X153736Y23807D02*
D03*
X143000Y23500D02*
D03*
X110500Y71500D02*
D03*
X107435Y69254D02*
D03*
X103000Y77500D02*
D03*
X171500Y76000D02*
D03*
X168813Y73313D02*
D03*
X119500Y76000D02*
D03*
X100500Y50000D02*
D03*
X100000Y54500D02*
D03*
X76316Y54000D02*
D03*
X85500Y7000D02*
D03*
X58852Y9591D02*
D03*
X42500Y55000D02*
D03*
X171500Y83500D02*
D03*
X158500Y91000D02*
D03*
X491500Y11000D02*
D03*
X476297Y26534D02*
D03*
X477959Y23116D02*
D03*
X472671Y25397D02*
D03*
X494500Y51000D02*
D03*
X472500Y50500D02*
D03*
X411500Y-7000D02*
D03*
X412500Y363D02*
D03*
X407716Y-6653D02*
D03*
X422500Y-5000D02*
D03*
X419000Y-2500D02*
D03*
X495500Y40000D02*
D03*
X503500Y69500D02*
D03*
X496976Y68392D02*
D03*
X497547Y98363D02*
D03*
X492000Y63000D02*
D03*
X475663Y71091D02*
D03*
X550500Y95500D02*
D03*
X550000Y85500D02*
D03*
X557500Y120500D02*
D03*
X510000Y114000D02*
D03*
X707000Y104000D02*
D03*
X698500Y75000D02*
D03*
X407500Y118000D02*
D03*
X390500Y74939D02*
D03*
X389684Y78650D02*
D03*
X392824Y82908D02*
D03*
X83500Y100404D02*
D03*
X121000Y83000D02*
D03*
X41000Y110000D02*
D03*
X26000Y40000D02*
D03*
X58000Y19000D02*
D03*
X189000Y22000D02*
D03*
X169420Y-4807D02*
D03*
X185000Y500D02*
D03*
X143615Y12500D02*
D03*
X172000Y-8000D02*
D03*
X140113Y-4127D02*
D03*
X149500Y14500D02*
D03*
X203146Y32881D02*
D03*
X243000Y39000D02*
D03*
X299000Y64500D02*
D03*
X293000Y78500D02*
D03*
X298026Y92731D02*
D03*
X308000Y76000D02*
D03*
X254500Y121500D02*
D03*
X282321Y106885D02*
D03*
X290000Y106000D02*
D03*
X265000Y119000D02*
D03*
X391000Y129000D02*
D03*
X412301Y115301D02*
D03*
X416500Y118500D02*
D03*
X411000Y123500D02*
D03*
X358000Y122000D02*
D03*
X324516Y91000D02*
D03*
X328000Y82500D02*
D03*
X346500Y59500D02*
D03*
X345749Y64751D02*
D03*
X331000Y56000D02*
D03*
X325000Y49119D02*
D03*
X350506Y27403D02*
D03*
X348500Y21500D02*
D03*
X389405Y29992D02*
D03*
X369467Y29418D02*
D03*
X364000Y33500D02*
D03*
X405742Y13545D02*
D03*
X425000Y15000D02*
D03*
X421384Y22019D02*
D03*
X451967Y14533D02*
D03*
X457500Y29000D02*
D03*
X369184Y4904D02*
D03*
X343950Y2550D02*
D03*
X315500Y18500D02*
D03*
X263500Y19000D02*
D03*
X249000Y104500D02*
D03*
X210062Y111540D02*
D03*
X496000Y5000D02*
D03*
X460805Y24908D02*
D03*
X464493Y25826D02*
D03*
X493000Y24908D02*
D03*
X450083Y24978D02*
D03*
X468500Y25500D02*
D03*
X248000Y17500D02*
D03*
X257000Y1500D02*
D03*
X245500Y9500D02*
D03*
X258500Y43000D02*
D03*
X263901Y36378D02*
D03*
X281367Y43367D02*
D03*
X266500Y40812D02*
D03*
X324500Y38000D02*
D03*
X316000Y36976D02*
D03*
X342338Y39862D02*
D03*
X256123Y99714D02*
D03*
X338500Y130212D02*
D03*
X346000Y131400D02*
D03*
X208500Y92700D02*
D03*
X246000Y97000D02*
D03*
X110000Y125000D02*
D03*
X244500Y116000D02*
D03*
Y122000D02*
D03*
X230479Y123521D02*
D03*
X172000Y130500D02*
D03*
X136082Y117002D02*
D03*
X62000Y74000D02*
D03*
X53500Y73500D02*
D03*
X62500Y33000D02*
D03*
X57000Y40500D02*
D03*
X118333Y110965D02*
D03*
X100623Y111616D02*
D03*
X84000Y129500D02*
D03*
X83000Y107500D02*
D03*
X60500Y114500D02*
D03*
X56000Y93500D02*
D03*
X515062Y91706D02*
D03*
X525348Y84152D02*
D03*
X507500Y96000D02*
D03*
X383316Y105218D02*
D03*
X419592Y96069D02*
D03*
X362000Y99161D02*
D03*
X405130Y93500D02*
D03*
X327000Y109000D02*
D03*
X429120Y112681D02*
D03*
X363500Y115000D02*
D03*
X365000Y118500D02*
D03*
X348818Y92500D02*
D03*
X373366Y82330D02*
D03*
X369162Y85523D02*
D03*
X370000Y78000D02*
D03*
X368035Y63069D02*
D03*
X333500Y61000D02*
D03*
X348500Y85839D02*
D03*
X349026Y80608D02*
D03*
X675500Y124000D02*
D03*
X503000Y97901D02*
D03*
X424337Y91393D02*
D03*
X420253Y89408D02*
D03*
X416474Y89000D02*
D03*
X322102Y80019D02*
D03*
X313500Y76000D02*
D03*
Y72200D02*
D03*
X309148Y66615D02*
D03*
X309301Y59954D02*
D03*
X299622Y54892D02*
D03*
X311000Y54885D02*
D03*
X303543Y53454D02*
D03*
X311500Y90325D02*
D03*
X302149Y89218D02*
D03*
X316000Y90000D02*
D03*
X557500Y86000D02*
D03*
X633500Y27586D02*
D03*
X546000Y19000D02*
D03*
X472000Y58000D02*
D03*
X451500Y54000D02*
D03*
X443500Y58000D02*
D03*
X405486Y42956D02*
D03*
X528023Y96266D02*
D03*
X284000Y2000D02*
D03*
X424459Y24251D02*
D03*
X418435Y44237D02*
D03*
X311000Y29000D02*
D03*
X327013Y28454D02*
D03*
X358656Y27226D02*
D03*
X377500Y40174D02*
D03*
X280611Y93611D02*
D03*
X293000Y87000D02*
D03*
X292796Y92231D02*
D03*
X294000Y113000D02*
D03*
X290776Y118681D02*
D03*
X564000Y18000D02*
D03*
X453500Y18151D02*
D03*
X585000Y86409D02*
D03*
X231000Y99500D02*
D03*
X261500Y112000D02*
D03*
X265861Y108361D02*
D03*
X318711Y110004D02*
D03*
X330000Y113500D02*
D03*
X472000Y64000D02*
D03*
X250500Y31000D02*
D03*
X253500Y7985D02*
D03*
X209000Y8500D02*
D03*
X468000Y64000D02*
D03*
X424000Y5000D02*
D03*
X464500Y42500D02*
D03*
X458000Y70500D02*
D03*
X443905Y72137D02*
D03*
X451000Y49000D02*
D03*
X457000Y43500D02*
D03*
X426787Y86012D02*
D03*
X423156Y84891D02*
D03*
X326000Y126000D02*
D03*
X428000Y117500D02*
D03*
X451500Y82000D02*
D03*
X110500Y54000D02*
D03*
X118599Y25901D02*
D03*
X142874Y16748D02*
D03*
X397000Y38500D02*
D03*
X419102Y84043D02*
D03*
X231000Y19000D02*
D03*
X365000Y111500D02*
D03*
X429000Y92500D02*
D03*
X383342Y48487D02*
D03*
X413000Y84154D02*
D03*
X409000Y83000D02*
D03*
X367000Y128454D02*
D03*
X421000Y118000D02*
D03*
X263500Y67500D02*
D03*
X97500Y20387D02*
D03*
X117500Y-3584D02*
D03*
X64000Y-7900D02*
D03*
X45774Y14880D02*
D03*
X118000Y16000D02*
D03*
X117500Y20500D02*
D03*
X203000Y54000D02*
D03*
X195000Y50500D02*
D03*
X198500Y26000D02*
D03*
X123000Y42000D02*
D03*
X207500Y25500D02*
D03*
X167500Y83500D02*
D03*
X363500Y17500D02*
D03*
X289000Y33000D02*
D03*
X293399Y30360D02*
D03*
X321000Y19000D02*
D03*
X562500Y52000D02*
D03*
X253000Y56500D02*
D03*
X197000Y128000D02*
D03*
X230500Y57000D02*
D03*
X107000Y38500D02*
D03*
X281500Y99500D02*
D03*
X278000Y38000D02*
D03*
X281000Y59500D02*
D03*
X159500Y66500D02*
D03*
X158500Y83000D02*
D03*
X200500Y40500D02*
D03*
X235000Y39000D02*
D03*
X534000Y11000D02*
D03*
X566000Y6000D02*
D03*
X266500Y113000D02*
D03*
X266000Y80500D02*
D03*
X268000Y67500D02*
D03*
X267000Y62000D02*
D03*
X236000Y133500D02*
D03*
X534000Y98000D02*
D03*
X527457Y53516D02*
D03*
X569000Y103500D02*
D03*
X231000Y68000D02*
D03*
X60500Y27500D02*
D03*
X19500Y2500D02*
D03*
X26000Y97500D02*
D03*
X76000Y92000D02*
D03*
X244000Y70000D02*
D03*
X258000Y69500D02*
D03*
X217000Y41000D02*
D03*
D122*
X409182Y19118D02*
G03*
X407710Y18874I-146J-3678D01*
G01*
X408706Y21487D02*
G03*
X407324Y21249I330J-6048D01*
G01*
X409204Y20306D02*
G03*
X407504Y20062I-168J-4866D01*
G01*
X409156Y17931D02*
G03*
X407953Y17686I-121J-2491D01*
G01*
X408171Y22632D02*
G03*
X407612Y22543I864J-7193D01*
G01*
X405274Y24822D02*
G03*
X406674Y25144I164J2488D01*
G01*
X403913Y23629D02*
G03*
X403793Y23642I-125J-574D01*
G01*
X405782Y23645D02*
G03*
X406245Y23718I-344J3665D01*
G01*
X415401Y108549D02*
G03*
X415164Y108541I-29J-2494D01*
G01*
X348567Y103776D02*
G03*
X349276Y103067I2933J2224D01*
G01*
X349469Y104552D02*
G03*
X350052Y103969I2031J1448D01*
G01*
X366399Y56168D02*
G03*
X366514Y56049I1852J1671D01*
G01*
X111472Y-8194D02*
G03*
X111508Y-8194I28J2494D01*
G01*
X425284Y18177D02*
G03*
X424793Y17818I1216J-2177D01*
G01*
X424549Y19122D02*
G03*
X424374Y19006I1951J-3122D01*
G01*
X382098Y82598D02*
X385871Y86371D01*
X381503Y82598D02*
X382098D01*
X397000Y74957D02*
X411487Y89444D01*
X511000Y15385D02*
X543115D01*
X551111Y19000D02*
X551611Y18500D01*
X553500D01*
X479000Y132500D02*
X481961D01*
X472551Y122449D02*
Y126051D01*
X479000Y132500D01*
X503834Y131166D02*
X507312Y127688D01*
X555286D01*
X572379Y127506D02*
X576829Y123056D01*
X555467Y127506D02*
X572379D01*
X452522Y24478D02*
X456257Y20743D01*
X450583Y24478D02*
X452522D01*
X450083Y24978D02*
X450583Y24478D01*
X468500Y21500D02*
Y25500D01*
X439506Y-7494D02*
X468500Y21500D01*
X457500Y29000D02*
X461318D01*
X464493Y25826D01*
X464500Y20000D02*
Y25818D01*
X464493Y25826D02*
X464500Y25818D01*
X460328Y24430D02*
X460805Y24908D01*
X460328Y17621D02*
Y24430D01*
X356500Y10000D02*
X361596Y4904D01*
X369184D01*
X352090Y2410D02*
X377437D01*
X351171Y1223D02*
X378543D01*
X350679Y35D02*
X379035D01*
X406500Y3694D02*
X420312D01*
X401183Y-1623D02*
X406500Y3694D01*
X339910Y-1623D02*
X401183D01*
X405500Y363D02*
X412500D01*
X336811Y-2811D02*
X402326D01*
X405500Y363D01*
X315500Y18500D02*
X336811Y-2811D01*
X335015Y-4515D02*
X402968D01*
X316106Y14394D02*
X335015Y-4515D01*
X410133Y-1131D02*
X411132Y-2131D01*
X406869Y-1131D02*
X410133D01*
X407475Y-2318D02*
X409641D01*
X410641Y-3319D01*
X421500Y2506D02*
X443533D01*
X420312Y3694D02*
X421500Y2506D01*
X409156Y17931D02*
X410188D01*
X395703Y20062D02*
X407504D01*
X396195Y18874D02*
X407710D01*
X410188Y17931D02*
X410757Y18500D01*
X407084Y22437D02*
X407612Y22543D01*
X409696Y19118D02*
X410265Y19688D01*
X408706Y21487D02*
X409661Y22443D01*
X408171Y22632D02*
X409170Y23631D01*
X394597Y21249D02*
X407324D01*
X409182Y19118D02*
X409696D01*
X409204Y20306D02*
X409773Y20875D01*
X390169Y22437D02*
X407084D01*
X396687Y17686D02*
X407953D01*
X396514Y17514D02*
X396687Y17686D01*
X416829Y22443D02*
X421131Y26745D01*
X419000Y20875D02*
X420351Y19525D01*
X392195Y18847D02*
X394425Y21077D01*
X379035Y35D02*
X396514Y17514D01*
X418016Y18500D02*
X419367Y17150D01*
X409661Y22443D02*
X416829D01*
X378543Y1223D02*
X396195Y18874D01*
X388732Y21000D02*
X390169Y22437D01*
X377437Y2410D02*
X394917Y19890D01*
X410757Y18500D02*
X418016D01*
X410265Y19688D02*
X418508D01*
X409170Y23631D02*
X416337D01*
X409773Y20875D02*
X419000D01*
X384775Y18847D02*
X392195D01*
X394425Y21077D02*
X394597Y21249D01*
X394917Y19890D02*
X395703Y20062D01*
X418508Y19688D02*
X419859Y18337D01*
X371023Y21000D02*
X388732D01*
X387476Y23835D02*
X388475Y24835D01*
X404405Y24816D02*
X405274D01*
X404387Y24835D02*
X404405Y24816D01*
X403218Y23647D02*
X403793Y23642D01*
X405766Y23629D02*
X405782Y23645D01*
X403913Y23629D02*
X405766D01*
X388967Y23647D02*
X403218D01*
X387968Y22647D02*
X388967Y23647D01*
X388475Y24835D02*
X404387D01*
X406674Y25144D02*
X406799D01*
X407833Y26178D01*
X409205D01*
X417443Y33557D02*
X420443Y36557D01*
X409205Y26178D02*
X409527Y26500D01*
X415000D01*
X417443Y28943D02*
Y33557D01*
X415000Y26500D02*
X417443Y28943D01*
X421105Y30353D02*
X421777D01*
X415571Y24818D02*
X421105Y30353D01*
X408678Y24818D02*
X415571D01*
X421131Y26745D02*
X426936D01*
X428500Y25181D02*
X433681D01*
X426936Y26745D02*
X428500Y25181D01*
X449494Y31494D02*
X468819D01*
X470000Y30312D02*
X492661D01*
X437688Y19688D02*
X449494Y31494D01*
X468819D02*
X470000Y30312D01*
X483853Y33701D02*
X522201D01*
X483373Y34181D02*
X483853Y33701D01*
X531500Y21500D02*
X556973D01*
X470270Y32994D02*
X471263Y32000D01*
X521000D01*
X531500Y21500D01*
X442467Y32994D02*
X470270D01*
X442212Y32739D02*
X442467Y32994D01*
X441261Y32739D02*
X442212D01*
X440795Y32272D02*
X441261Y32739D01*
X433681Y25181D02*
X440772Y32272D01*
X440795D01*
X436987Y37249D02*
X439053D01*
X435512Y33687D02*
X440529D01*
X439053Y37249D02*
X439548Y37744D01*
X440529Y33687D02*
X441024Y34181D01*
X440037Y34874D02*
X440532Y35369D01*
X436004Y34874D02*
X440037D01*
X439545Y36062D02*
X440040Y36557D01*
X436496Y36062D02*
X439545D01*
X424880Y32174D02*
X426700Y33994D01*
X425812Y35181D02*
X431525D01*
X423693Y33062D02*
X425812Y35181D01*
X431525D02*
X431575Y35131D01*
X435747D02*
X436004Y34874D01*
X431575Y35131D02*
X435747D01*
X435255Y33943D02*
X435512Y33687D01*
X431083Y33943D02*
X435255D01*
X431033Y33994D02*
X431083Y33943D01*
X441024Y34181D02*
X483373D01*
X532902Y23000D02*
X564979D01*
X522201Y33701D02*
X532902Y23000D01*
X533081Y24500D02*
X533500D01*
X522525Y35056D02*
X533081Y24500D01*
X493245Y35369D02*
X493558Y35056D01*
X440532Y35369D02*
X493245D01*
X493558Y35056D02*
X522525D01*
X423693Y32268D02*
Y33062D01*
X424880Y31776D02*
Y32174D01*
X422269Y29165D02*
X424880Y31776D01*
X421871Y29165D02*
X422269D01*
X421777Y30353D02*
X423693Y32268D01*
X416337Y23631D02*
X421871Y29165D01*
X420443Y36557D02*
X430788D01*
X422000Y37744D02*
X431279D01*
X419744Y40000D02*
X422000Y37744D01*
X416000Y40000D02*
X419744D01*
X414182Y38181D02*
X416000Y40000D01*
X414182Y35475D02*
Y38181D01*
X407456Y28819D02*
X411025D01*
X406471Y29804D02*
X407456Y28819D01*
X407948Y30006D02*
X410533D01*
X403913Y30992D02*
X406963D01*
X407948Y30006D01*
X403423Y28822D02*
X404405Y29804D01*
X406471D01*
X403423Y28819D02*
Y28822D01*
X389419Y30006D02*
X402928D01*
X403913Y30992D01*
X385542Y27498D02*
X402103D01*
X403423Y28819D01*
X366974Y28385D02*
Y37689D01*
X372441Y43156D02*
Y48049D01*
X371919Y48570D02*
X372441Y48049D01*
X366514Y56049D02*
X372762Y49984D01*
X373107Y42143D02*
X374308Y43344D01*
Y48438D01*
X411994Y34994D02*
X412994Y35994D01*
X410500Y75441D02*
X419102Y84043D01*
X402668Y34994D02*
X411994D01*
X410500Y37731D02*
Y75441D01*
X409000Y39800D02*
Y83000D01*
X412994Y35994D02*
Y38795D01*
X406700Y37500D02*
X409000Y39800D01*
X402180Y34506D02*
X402668Y34994D01*
X394814Y34506D02*
X402180D01*
X412994Y38795D02*
X418435Y44237D01*
X398033Y36006D02*
X404983Y42956D01*
X405486D01*
X576894Y20812D02*
X633312D01*
X634000Y21500D02*
X712063D01*
X633312Y20812D02*
X634000Y21500D01*
X563392Y15081D02*
X695106D01*
X556973Y21500D02*
X563392Y15081D01*
X597894Y13894D02*
X684606D01*
X689000Y9500D01*
X587506Y3506D02*
X597894Y13894D01*
X678617Y20069D02*
X678686Y20000D01*
X676551Y20069D02*
X678617D01*
X634727Y20000D02*
X676482D01*
X676551Y20069D01*
X695106Y15081D02*
X700688Y9500D01*
X678686Y20000D02*
X701875D01*
X712063Y21500D02*
X724062Y9500D01*
X564979Y23000D02*
X568467Y19512D01*
X634240D01*
X634727Y20000D01*
X701875D02*
X712375Y9500D01*
X573206Y24500D02*
X576894Y20812D01*
X647394Y23106D02*
X716106D01*
X618000Y52500D02*
X647394Y23106D01*
X625133Y94106D02*
X631013D01*
X636619Y88500D01*
X515062Y91706D02*
Y95438D01*
X502743Y107757D02*
X515062Y95438D01*
X510006Y93235D02*
X521583Y81658D01*
X526381D01*
X521091Y80470D02*
X555497D01*
X508000Y93562D02*
X521091Y80470D01*
X555497D02*
X558027Y83000D01*
X514717Y79283D02*
X613262D01*
X616479Y82500D01*
X618000D01*
X499247Y94753D02*
X514717Y79283D01*
X467959Y117856D02*
X472551Y122449D01*
X481961Y132500D02*
X481967Y132494D01*
X554006D01*
X417340Y102382D02*
X489939D01*
X514225Y78095D01*
X468572Y100938D02*
X478581Y90928D01*
X415438Y100938D02*
X468572D01*
X474938Y91032D02*
X477394Y88576D01*
X463705Y91032D02*
X474938D01*
X454987Y99751D02*
X463705Y91032D01*
X452437Y98563D02*
X472000Y79000D01*
X416751Y99751D02*
X454987D01*
X423838Y90894D02*
X424337Y91393D01*
X421285Y86914D02*
X423838Y89466D01*
Y90894D01*
X413326Y84480D02*
X415482D01*
X417915Y86914D02*
X421285D01*
X415482Y84480D02*
X417915Y86914D01*
X413000Y84154D02*
X413326Y84480D01*
X390352Y91006D02*
X406164D01*
X407624Y92516D02*
X409759Y94651D01*
X406216Y91059D02*
X407624Y92467D01*
Y92516D01*
X389358Y92000D02*
X390352Y91006D01*
X409759Y94651D02*
X411651D01*
X408812Y92024D02*
X409975Y93188D01*
X408812Y91975D02*
Y92024D01*
X409975Y93188D02*
X412423D01*
X406655Y89819D02*
X408812Y91975D01*
X389860Y89819D02*
X406655D01*
X412423Y93188D02*
X417798Y98563D01*
X452437D01*
X411651Y94651D02*
X416751Y99751D01*
X412474Y97974D02*
X415438Y100938D01*
X406974Y97974D02*
X412474D01*
X362000Y99161D02*
X393000D01*
X414500Y102312D02*
X417270D01*
X417340Y102382D01*
X413188Y101000D02*
X414500Y102312D01*
X411500Y102500D02*
X412500Y103500D01*
X393038Y103812D02*
X410500D01*
X410000Y105000D02*
X413220Y108220D01*
X392000Y105000D02*
X410000D01*
X393651Y102500D02*
X411500D01*
X412500Y103500D02*
X415508D01*
X410500Y103812D02*
X412590Y105902D01*
X393000Y99161D02*
X394839Y101000D01*
X413188D01*
X366868Y100349D02*
X391500D01*
X393651Y102500D01*
X367360Y101537D02*
X390763D01*
X368276Y102724D02*
X389724D01*
X390763Y101537D02*
X393038Y103812D01*
X350527Y118369D02*
X367360Y101537D01*
X389724Y102724D02*
X392000Y105000D01*
X415569Y103562D02*
Y103569D01*
X415508Y103500D02*
X415569Y103562D01*
X415219Y105902D02*
X415372Y106055D01*
X412590Y105902D02*
X415219D01*
X413220Y108220D02*
X413392Y108392D01*
X415164Y108541D01*
X415569Y103569D02*
X503457D01*
X415401Y108549D02*
X502743Y107757D01*
X503457Y103569D02*
X510006Y97021D01*
X317323Y117182D02*
X336840D01*
X349469Y104552D01*
X352443Y99899D02*
X361530Y90812D01*
X350052Y103969D02*
X362022Y92000D01*
X362265Y92000D02*
X389358D01*
X336348Y115994D02*
X348567Y103776D01*
X317815Y115994D02*
X336348D01*
X349276Y103067D02*
X352443Y99899D01*
X362022Y92000D02*
X362265Y92000D01*
X361530Y90812D02*
X388866D01*
X351443Y119557D02*
X368276Y102724D01*
X316339Y119557D02*
X351443D01*
X309794Y103221D02*
Y106293D01*
X316500Y113000D02*
X323000D01*
X309794Y106293D02*
X316500Y113000D01*
X323000D02*
X327000Y109000D01*
X292331Y98331D02*
X304995Y110995D01*
X292331Y96973D02*
Y98331D01*
X304995Y110995D02*
X307777D01*
X308334Y106513D02*
X317815Y115994D01*
X295533Y91698D02*
X297292Y89939D01*
X290302Y93264D02*
X293519Y96481D01*
X305860Y108181D02*
X308322D01*
X317323Y117182D01*
X293519Y97519D02*
X305503Y109503D01*
X298026Y98553D02*
X305987Y106513D01*
X305503Y109503D02*
X307965D01*
X316831Y118369D01*
X293519Y96481D02*
Y97519D01*
X298026Y92731D02*
Y98553D01*
X295533Y91698D02*
Y97853D01*
X305987Y106513D02*
X308334D01*
X295533Y97853D02*
X305860Y108181D01*
X304318Y112182D02*
X307285D01*
X290994Y98859D02*
X304318Y112182D01*
X290994Y97967D02*
Y98859D01*
X263372Y70345D02*
X290994Y97967D01*
X263372Y69628D02*
Y70345D01*
X289114Y93756D02*
X292331Y96973D01*
X307777Y110995D02*
X316339Y119557D01*
X289114Y58679D02*
Y93756D01*
X299655Y72581D02*
X309561Y62675D01*
X299655Y72581D02*
Y90251D01*
X309561Y62675D02*
X310153D01*
X311823Y58370D02*
X313494Y56699D01*
X310153Y62675D02*
X311823Y61004D01*
Y58370D02*
Y61004D01*
X304429Y40788D02*
X306037Y42395D01*
Y54487D01*
X304429Y40494D02*
Y40788D01*
X303024Y57500D02*
X306037Y54487D01*
X301000Y57500D02*
X303024D01*
X295500Y63000D02*
X301000Y57500D01*
X295500Y63000D02*
Y89526D01*
X290506Y58967D02*
Y90255D01*
X289114Y58679D02*
X295500Y52294D01*
X290506Y58967D02*
X298662Y50811D01*
X324516Y91000D02*
X329000D01*
X349500Y55500D02*
Y70500D01*
X329000Y91000D02*
X349500Y70500D01*
X328000Y82500D02*
X334500D01*
X342000Y64000D02*
Y75000D01*
X334500Y82500D02*
X342000Y75000D01*
X318388Y95182D02*
X321700Y98494D01*
X310500Y96500D02*
X318027D01*
X313200Y93994D02*
X329006D01*
X318027Y96500D02*
X330000Y108473D01*
X321700Y98494D02*
X327870D01*
X342000Y64000D02*
X346500Y59500D01*
X360495Y59995D02*
X365841Y54649D01*
X360495Y59995D02*
Y62505D01*
X362500Y60490D02*
X366399Y56168D01*
X362500Y60490D02*
Y63607D01*
X368911Y58298D02*
X369231Y57978D01*
X346532Y79575D02*
X362500Y63607D01*
X369231Y57838D02*
Y57978D01*
X329006Y93994D02*
X360495Y62505D01*
X280864Y104391D02*
X283354D01*
X259506Y83033D02*
X280864Y104391D01*
X245994Y49494D02*
X253000Y56500D01*
X221967Y49494D02*
X245994D01*
X164147Y69000D02*
X164500Y68647D01*
X140228Y69000D02*
X164147D01*
X110019Y53518D02*
X110500Y54000D01*
X110019Y51518D02*
Y53518D01*
X100500Y42000D02*
X110019Y51518D01*
X106494Y27090D02*
Y31994D01*
X106127Y23918D02*
X107174D01*
X102000Y28045D02*
Y37027D01*
Y28045D02*
X106127Y23918D01*
X106488Y27084D02*
X106494Y27090D01*
X106640Y20924D02*
X109127D01*
X106149Y19737D02*
X111089D01*
X103597Y23968D02*
X106640Y20924D01*
X101032Y23968D02*
X103597D01*
X103105Y22781D02*
X106149Y19737D01*
X100171Y22781D02*
X103105D01*
X102000Y37027D02*
X119973Y55000D01*
X100500Y24500D02*
X101032Y23968D01*
X98451Y24500D02*
X100171Y22781D01*
X118333Y110965D02*
X121867Y114500D01*
X137107D01*
X137881Y115274D01*
X149532D01*
X150550Y114256D01*
X432076Y40474D02*
Y87299D01*
X431652Y87722D02*
X432076Y87299D01*
X456644Y117856D02*
X467959D01*
X468451Y116668D02*
X469639Y117856D01*
X474856D01*
X487000Y130000D01*
X396570Y125960D02*
X398609Y128000D01*
X443500D02*
X454832Y116668D01*
X398609Y128000D02*
X443500D01*
X406650Y129500D02*
X445000D01*
X456644Y117856D01*
X454832Y116668D02*
X468451D01*
X405000Y130500D02*
X405650D01*
X406650Y129500D01*
X508506Y12494D02*
Y14467D01*
X517494Y3506D02*
X544967D01*
X508506Y12494D02*
X517494Y3506D01*
X373107Y40000D02*
Y42143D01*
Y40000D02*
X378380Y34726D01*
X366974Y37689D02*
X372441Y43156D01*
X368911Y58298D02*
X370184Y59184D01*
X369947Y44159D02*
Y44189D01*
X356500Y30712D02*
X369947Y44159D01*
X364966Y44466D02*
X369670D01*
X369947Y44189D01*
X332750Y68535D02*
X346138Y55147D01*
X346145D01*
X370000Y70640D02*
Y74000D01*
X370294Y68133D02*
Y70347D01*
X370000Y70640D02*
X370294Y70347D01*
Y68133D02*
X370562Y67865D01*
X210979Y65506D02*
X233000D01*
X195000Y53000D02*
X197500Y55500D01*
X127500Y53000D02*
X195000D01*
X200973Y55500D02*
X210979Y65506D01*
X197500Y55500D02*
X200973D01*
X127805Y109000D02*
X138863D01*
X148537D02*
X225027D01*
X241521Y92506D01*
X146224Y106687D02*
X148537Y109000D01*
X141176Y106687D02*
X146224D01*
X138863Y109000D02*
X141176Y106687D01*
X116811Y98006D02*
X127805Y109000D01*
X197816Y86000D02*
Y86316D01*
X204000Y92500D01*
X194447Y85842D02*
X198095Y82194D01*
X122500Y88500D02*
X192500D01*
X198095Y82194D02*
X229779D01*
X86000Y52000D02*
X122500Y88500D01*
X192500D02*
X194447Y86553D01*
Y85842D02*
Y86553D01*
X172000Y121115D02*
Y130500D01*
X150550Y114256D02*
X165142D01*
X172000Y121115D01*
X105612Y98006D02*
X116811D01*
X102524Y101094D02*
X105612Y98006D01*
X97476Y101094D02*
X102524D01*
X96786Y100404D02*
X97476Y101094D01*
X83500Y100404D02*
X96786D01*
X33500Y24500D02*
X98451D01*
X23000Y35000D02*
Y43094D01*
Y35000D02*
X33500Y24500D01*
X23000Y43094D02*
X24500Y44594D01*
Y45500D01*
X100500Y24500D02*
Y42000D01*
X178982Y-2313D02*
X184669Y-8000D01*
X193000D01*
X158782D02*
X172000D01*
X132056Y-6812D02*
X151709D01*
X111508Y-8194D02*
X151411D01*
X162790Y-2313D02*
X178982D01*
X151411Y-8194D02*
X151549Y-8331D01*
X158451D01*
X151709Y-6812D02*
X152041Y-7144D01*
X157959D02*
X162790Y-2313D01*
X152041Y-7144D02*
X157959D01*
X158451Y-8331D02*
X158782Y-8000D01*
X120250Y4994D02*
X132056Y-6812D01*
X111835Y4994D02*
X120250D01*
X101303Y15525D02*
X111835Y4994D01*
X196788Y17017D02*
X197869D01*
X185301Y14106D02*
X189189Y17994D01*
X197869Y17017D02*
X200492Y14394D01*
X189189Y17994D02*
X195811D01*
X153421Y14106D02*
X185301D01*
X195811Y17994D02*
X196788Y17017D01*
X200492Y14394D02*
X316106D01*
X146521Y21006D02*
X153421Y14106D01*
X135700Y13700D02*
X141242Y19242D01*
X135000Y13700D02*
X135700D01*
X111852Y20500D02*
X117500D01*
X107174Y23918D02*
X107673Y23418D01*
X109127Y20924D02*
X111196Y22994D01*
X111089Y19737D02*
X111852Y20500D01*
X541113Y59821D02*
X547017D01*
X596688Y46188D02*
X611787Y61287D01*
X610500Y45000D02*
X618000Y52500D01*
X512714Y72312D02*
X538839Y46188D01*
X496533Y37506D02*
X504027Y45000D01*
X610500D01*
X538839Y46188D02*
X596688D01*
X533500Y24500D02*
X533743Y24500D01*
X522943Y36557D02*
X533000Y26500D01*
X497263Y36557D02*
X522943D01*
X533743Y24500D02*
X573206D01*
X533000Y26500D02*
X583878D01*
X588378Y22000D01*
X553500Y18500D02*
X566000Y6000D01*
X477394Y83606D02*
X488688Y72312D01*
X490473Y73500D02*
X527434D01*
X541113Y59821D01*
X478581Y85392D02*
X490473Y73500D01*
X488688Y72312D02*
X512714D01*
X478581Y85392D02*
Y90928D01*
X477394Y83606D02*
Y88576D01*
X342475Y-11181D02*
X345525D01*
X342163Y-10869D02*
X342475Y-11181D01*
X345837Y-10869D02*
X400490D01*
X345033Y-9994D02*
X345345Y-9681D01*
X338502D02*
X342655D01*
X345345D02*
X399998D01*
X342967Y-9994D02*
X345033D01*
X342655Y-9681D02*
X342967Y-9994D01*
X336869Y-10869D02*
X342163D01*
X345525Y-11181D02*
X345837Y-10869D01*
X402968Y-4515D02*
X405699Y-1784D01*
X558027Y83000D02*
X612286D01*
X616180Y86894D01*
X383316Y54500D02*
X392994Y64178D01*
X383063Y54500D02*
X383316D01*
X393000Y58960D02*
X393460Y58500D01*
X393000Y58960D02*
Y62505D01*
X436527Y112500D02*
X475473D01*
X428087Y110188D02*
X477516D01*
X428033Y120994D02*
X436527Y112500D01*
X394642Y34678D02*
X394814Y34506D01*
X391632Y37689D02*
X394642Y34678D01*
X407963Y24104D02*
X408678Y24818D01*
X406245Y23718D02*
X407963Y24104D01*
X411994Y31467D02*
Y33288D01*
X411025Y28819D02*
X413181Y30975D01*
Y32682D02*
X415563Y35063D01*
X411994Y33288D02*
X414182Y35475D01*
X413181Y30975D02*
Y32682D01*
X410533Y30006D02*
X411994Y31467D01*
X434263Y36557D02*
X436001D01*
X436493Y37744D02*
X436987Y37249D01*
X433771Y37744D02*
X436493D01*
X440040Y36557D02*
X493737D01*
X439548Y37744D02*
X494229D01*
X436001Y36557D02*
X436496Y36062D01*
X433875Y20875D02*
X443500Y30500D01*
X415563Y35063D02*
X417392Y37162D01*
X430788Y36557D02*
X430975Y36369D01*
X432559Y37506D02*
X433533D01*
X432076Y40474D02*
X432500Y40051D01*
X432017Y36369D02*
X432067Y36318D01*
X426700Y33994D02*
X431033D01*
X432067Y36318D02*
X434025D01*
X431467Y37557D02*
X432509D01*
X431279Y37744D02*
X431467Y37557D01*
X430975Y36369D02*
X432017D01*
X432509Y37557D02*
X432559Y37506D01*
X349500Y55500D02*
X362000Y43000D01*
X363500D01*
X364966Y44466D01*
X365841Y54649D02*
X371919Y48570D01*
X372762Y49984D02*
X374308Y48438D01*
X370184Y59184D02*
X370529Y59528D01*
Y64102D01*
X367767Y66864D02*
X370529Y64102D01*
X367767Y66864D02*
Y70233D01*
X361500Y76500D02*
X367767Y70233D01*
X346532Y79575D02*
Y80468D01*
X358750Y71250D02*
Y79115D01*
X348500Y111000D02*
X356217D01*
X351538Y97192D02*
Y97277D01*
Y97192D02*
X353333Y95397D01*
X330250Y113750D02*
X349006Y94994D01*
X356217Y111000D02*
X366868Y100349D01*
X329813Y96550D02*
X330450D01*
X327870Y98494D02*
X329813Y96550D01*
X330450D02*
X346532Y80468D01*
X332750Y68535D02*
Y68558D01*
X331500Y69808D02*
Y72500D01*
Y69808D02*
X332750Y68558D01*
X329006Y70622D02*
X331562Y68066D01*
X329006Y70622D02*
Y73533D01*
X331312Y75839D01*
X331562Y66464D02*
X335994Y62033D01*
X331562Y66464D02*
Y68066D01*
X316506Y56533D02*
X318500Y58527D01*
X313494Y42994D02*
Y56699D01*
X316506Y44186D02*
Y56533D01*
X311806Y39486D02*
X316506Y44186D01*
X318500Y58527D02*
Y70000D01*
X331312Y75839D02*
X334084D01*
X322506Y92494D02*
X324129Y90871D01*
X328500Y47611D02*
X332515Y43596D01*
Y23500D02*
Y43596D01*
X328500Y47611D02*
Y67000D01*
X318153Y30948D02*
X319500D01*
X337497Y22000D02*
X345103D01*
X327966Y17443D02*
X331138D01*
X285481Y25312D02*
X321776D01*
X329441Y21006D02*
X336503D01*
X320792Y22937D02*
X327474Y16256D01*
X319500Y30948D02*
X329441Y21006D01*
X285973Y26500D02*
X322268D01*
X321776Y25312D02*
X328458Y18631D01*
X322268Y26500D02*
X328950Y19818D01*
X284989Y24125D02*
X321284D01*
X284497Y22937D02*
X320792D01*
X321284Y24125D02*
X327966Y17443D01*
X328950Y19818D02*
X332122D01*
X328458Y18631D02*
X331630D01*
X327474Y16256D02*
X330646D01*
X332000Y6286D02*
Y14902D01*
X330646Y16256D02*
X332000Y14902D01*
X336503Y21006D02*
X337497Y22000D01*
X331138Y17443D02*
X335189Y13392D01*
X331630Y18631D02*
X335681Y14580D01*
X332122Y19818D02*
X335941Y16000D01*
X296786Y30500D02*
X304500D01*
X297997Y33000D02*
X316100D01*
X290607Y27866D02*
X305393D01*
X364000Y25500D02*
X372516D01*
X368958Y15229D02*
X369741Y16012D01*
X365597Y16110D02*
X366012D01*
X366892Y15229D02*
X368958D01*
X364207Y17500D02*
X365597Y16110D01*
X366012D02*
X366892Y15229D01*
X368163Y20206D02*
X370229D01*
X367368Y21000D02*
X368163Y20206D01*
X369741Y16012D02*
X381940D01*
X364000Y21000D02*
X367368D01*
X370229Y20206D02*
X371023Y21000D01*
X363500Y17500D02*
X364207D01*
X543115Y15385D02*
X549500Y9000D01*
X545467Y3006D02*
X547533D01*
X544967Y3506D02*
X545467Y3006D01*
X548033Y3506D02*
X587506D01*
X547533Y3006D02*
X548033Y3506D01*
X630994Y24994D02*
X633500Y27500D01*
X629533Y22006D02*
X630994Y23467D01*
X628006Y22006D02*
X629533D01*
X630994Y23467D02*
Y24994D01*
X628000Y22000D02*
X628006Y22006D01*
X677170Y119394D02*
X679744Y116820D01*
Y82244D02*
Y116820D01*
X673530Y119394D02*
X677170D01*
X661000Y63500D02*
X679744Y82244D01*
X632418Y58082D02*
X717812D01*
X751831Y24062D01*
X647392Y46894D02*
X727320D01*
X747437Y26776D01*
X669482Y115345D02*
X673530Y119394D01*
X669482Y112688D02*
Y115345D01*
X642300Y85506D02*
X669482Y112688D01*
X627494Y85506D02*
X642300D01*
X627000Y86000D02*
X627494Y85506D01*
X655856Y84142D02*
Y95506D01*
X675350Y115000D01*
X622967Y94006D02*
X625033D01*
X622867Y94106D02*
X622967Y94006D01*
X625033D02*
X625133Y94106D01*
X617508D02*
X622867D01*
X597171Y99644D02*
X611971D01*
X617508Y94106D01*
X592527Y95000D02*
X597171Y99644D01*
X563000Y95000D02*
X592527D01*
X626500Y85500D02*
X627000Y86000D01*
X616101Y88494D02*
X630006D01*
X630500Y88000D01*
X592144Y85356D02*
X612963D01*
X555286Y127688D02*
X555467Y127506D01*
X494139Y131166D02*
X503834D01*
X554006Y132494D02*
X556500Y130000D01*
X477516Y110188D02*
X496000Y128672D01*
X475473Y112500D02*
X494139Y131166D01*
X443905Y88905D02*
X450500Y95500D01*
X443905Y72137D02*
Y88905D01*
X451372Y82128D02*
Y90141D01*
X451243Y90269D02*
X451372Y90141D01*
Y82128D02*
X451500Y82000D01*
X454294Y76051D02*
Y78294D01*
X454000Y75757D02*
X454294Y76051D01*
Y78294D02*
X454532Y78532D01*
X454000Y46500D02*
Y75757D01*
X636500Y119500D02*
X641000Y115000D01*
X636500Y119500D02*
Y125000D01*
X365640Y125960D02*
X396570D01*
X364100Y127500D02*
X365640Y125960D01*
X361000Y127500D02*
X364100D01*
X353500Y11844D02*
Y24820D01*
X381940Y16012D02*
X384775Y18847D01*
X360177Y24823D02*
X364000Y21000D01*
X376565Y23835D02*
X387476D01*
X383623Y29418D02*
X385542Y27498D01*
X373475Y26924D02*
X376565Y23835D01*
X372516Y25500D02*
X375368Y22647D01*
X387968D01*
X368435Y26924D02*
X373475D01*
X369467Y29418D02*
X383623D01*
X366974Y28385D02*
X368435Y26924D01*
X378380Y34726D02*
X384097D01*
X387060Y37689D01*
X391632D01*
X383260Y37220D02*
X384917Y38877D01*
X383064Y37220D02*
X383260D01*
X384917Y38877D02*
X392124D01*
X214506Y42033D02*
X221967Y49494D01*
X229288Y81006D02*
X230475Y79818D01*
X243745Y87718D02*
X249879D01*
X237033Y81006D02*
X243745Y87718D01*
X230967Y81006D02*
X237033D01*
X229779Y82194D02*
X230967Y81006D01*
X238713D02*
X244979D01*
X230475Y79818D02*
X237525D01*
X238713Y81006D01*
X195033D02*
X229288D01*
X245967Y81994D02*
X248033D01*
X244979Y81006D02*
X245967Y81994D01*
X194533Y80506D02*
X195033Y81006D01*
X192467Y80506D02*
X194533D01*
X265973Y27500D02*
X266967Y28494D01*
X269033D02*
X270027Y27500D01*
X266967Y28494D02*
X269033D01*
X270027Y27500D02*
X279935D01*
X213500D02*
X265973D01*
X260500Y61000D02*
Y79991D01*
X262000Y81491D02*
Y82000D01*
X260500Y79991D02*
X262000Y81491D01*
X272000Y49500D02*
X278760D01*
X290260Y38000D01*
X295206Y43138D02*
X295500Y43432D01*
X298662Y40494D02*
Y50811D01*
X294865Y40657D02*
X295206Y40997D01*
X260500Y61000D02*
X272000Y49500D01*
X295500Y43432D02*
Y52294D01*
X295206Y40997D02*
Y43138D01*
X290260Y38000D02*
X310320D01*
X311014Y38694D01*
X311041D01*
X310160Y41340D02*
X311840D01*
X311806Y39459D02*
Y39486D01*
X311041Y38694D02*
X311806Y39459D01*
X311840Y41340D02*
X313494Y42994D01*
X309660Y40840D02*
X310160Y41340D01*
X309720Y99469D02*
X312287Y102037D01*
Y103287D01*
X318711Y109711D01*
X259506Y81979D02*
Y83033D01*
X254533Y77006D02*
X259506Y81979D01*
X248033Y81994D02*
X249021Y81006D01*
X254728D01*
X243973Y75473D02*
X243987Y75460D01*
Y70013D02*
Y75460D01*
X245006Y77967D02*
X245967Y77006D01*
X254533D01*
X243987Y70013D02*
X244250Y69750D01*
X242940Y77967D02*
X245006D01*
X238233Y73260D02*
X242940Y77967D01*
X209000Y43794D02*
Y50156D01*
X208500Y50500D02*
X208656D01*
X209000Y50156D01*
X61377Y9591D02*
X78796Y-7828D01*
X111472Y-8194D01*
X107435Y69254D02*
X107548D01*
X109489Y67312D01*
X110500Y71500D02*
X113500Y68500D01*
X138048D01*
X109489Y67312D02*
X138540D01*
X77844Y52000D02*
X86000D01*
X76316Y53528D02*
X77844Y52000D01*
X76316Y53528D02*
Y54000D01*
X138048Y68500D02*
X145548Y76000D01*
X171500D01*
X138540Y67312D02*
X140228Y69000D01*
X58852Y9591D02*
X61377D01*
X476797Y26034D02*
X478569D01*
X491500Y13103D01*
Y11000D02*
Y13103D01*
X476297Y26534D02*
X476797Y26034D01*
X442381Y-10119D02*
X475184Y22684D01*
X472671Y25397D02*
X473000Y25068D01*
X475184Y22684D02*
X477527D01*
X473000Y23000D02*
Y25068D01*
X441069Y-8931D02*
X473000Y23000D01*
X411243Y-7257D02*
X411500Y-7000D01*
X411243Y-8243D02*
Y-7257D01*
X400490Y-10869D02*
X405222Y-6137D01*
X406216Y-1784D02*
X406869Y-1131D01*
X411243Y-8243D02*
X413119Y-10119D01*
X406191Y-2972D02*
X406822D01*
X407716Y-7216D02*
Y-6653D01*
X416958Y-8931D02*
X441069D01*
X405699Y-1784D02*
X406216D01*
X414396Y-2131D02*
X414839Y-1688D01*
X407716Y-7216D02*
X411806Y-11306D01*
X412533Y-4506D02*
X416958Y-8931D01*
X411132Y-2131D02*
X414396D01*
X404034Y-5128D02*
X406191Y-2972D01*
X405222Y-5621D02*
X406683Y-4160D01*
X416292Y-3319D02*
X420467Y-7494D01*
X439506D01*
X407314Y-4160D02*
X407967Y-3506D01*
X408620D02*
X409620Y-4506D01*
X410641Y-3319D02*
X416292D01*
X405222Y-6137D02*
Y-5621D01*
X399998Y-9681D02*
X404034Y-5645D01*
X406683Y-4160D02*
X407314D01*
X404034Y-5645D02*
Y-5128D01*
X406822Y-2972D02*
X407475Y-2318D01*
X409620Y-4506D02*
X412533D01*
X442873Y-11306D02*
X461323Y7144D01*
X411806Y-11306D02*
X442873D01*
X413119Y-10119D02*
X442381D01*
X461323Y7144D02*
X477595D01*
X419000Y-2500D02*
X421000Y-500D01*
X416286Y-1688D02*
X418661Y688D01*
X443394D01*
X421000Y-500D02*
X444000D01*
X464500Y20000D01*
X443394Y688D02*
X460328Y17621D01*
X443533Y2506D02*
X456257Y15230D01*
Y20743D01*
X497025Y36318D02*
X497263Y36557D01*
X494467Y37506D02*
X496533D01*
X493737Y36557D02*
X493975Y36318D01*
X497025D01*
X494229Y37744D02*
X494467Y37506D01*
X495500Y40000D02*
X503500Y48000D01*
Y69500D01*
X498000Y96724D02*
X499247Y95477D01*
X497547Y98363D02*
X498000Y97910D01*
Y96724D02*
Y97910D01*
X473639Y84361D02*
X491500Y66500D01*
Y64000D02*
X492000Y63500D01*
Y63000D02*
Y63500D01*
X491500Y64000D02*
Y66500D01*
X473639Y84361D02*
Y85070D01*
X576829Y123056D02*
X599944D01*
X392994Y64178D02*
Y82738D01*
X392824Y82908D02*
X392994Y82738D01*
X393887Y86371D02*
X395348Y84911D01*
X393000Y62505D02*
X395348Y64853D01*
Y84911D01*
X144758Y19242D02*
X149500Y14500D01*
X244250Y69750D02*
X257750D01*
X258000Y69500D01*
X238233Y70740D02*
Y73260D01*
X233000Y65506D02*
X238233Y70740D01*
X290302Y90969D02*
X290307Y90964D01*
X290302Y90969D02*
Y93264D01*
X290307Y90455D02*
X290506Y90255D01*
X290307Y90455D02*
Y90964D01*
X281288Y109378D02*
X281474D01*
X279827Y107918D02*
X281288Y109378D01*
X279827Y107731D02*
Y107918D01*
X272502Y100406D02*
X279827Y107731D01*
X283354Y104391D02*
X284815Y105852D01*
Y107288D02*
X290527Y113000D01*
X281474Y109378D02*
X290776Y118681D01*
X284815Y105852D02*
Y107288D01*
X389533Y112808D02*
X412666D01*
X363500Y115000D02*
X387340D01*
X412666Y112808D02*
X414706Y110767D01*
X387340Y115000D02*
X389533Y112808D01*
X367494Y120994D02*
X428033D01*
X358000Y122000D02*
X358509D01*
X360009Y123500D01*
X411000D01*
X365000Y118500D02*
X367494Y120994D01*
X324000Y81648D02*
Y90742D01*
X324596Y65824D02*
Y81052D01*
X322506Y48506D02*
Y63734D01*
X324596Y65824D01*
X312994Y38994D02*
X322506Y48506D01*
X353000Y26000D02*
Y28436D01*
X353045Y31084D02*
X354188Y29941D01*
X348510Y34017D02*
X351442Y31084D01*
X353500Y24820D02*
X354188Y25508D01*
X335994Y42679D02*
X348776Y29897D01*
X335994Y42679D02*
Y62033D01*
X351442Y31084D02*
X353045D01*
X345103Y22000D02*
X350506Y27403D01*
X351539Y29897D02*
X353000Y28436D01*
X348776Y29897D02*
X351539D01*
X348500Y21500D02*
X353000Y26000D01*
X354188Y25508D02*
Y29941D01*
X347483Y34017D02*
X348510D01*
X342338Y39162D02*
X347483Y34017D01*
X356500Y29027D02*
Y30712D01*
Y10000D02*
Y25973D01*
X356006Y26467D02*
X356500Y25973D01*
X356006Y26467D02*
Y28533D01*
X356500Y29027D01*
X335941Y16000D02*
X338500D01*
X352090Y2410D01*
X337321Y13392D02*
X350679Y35D01*
X337813Y14580D02*
X351171Y1223D01*
X335189Y13392D02*
X337321D01*
X335681Y14580D02*
X337813D01*
X392124Y38877D02*
X394994Y36006D01*
X423072Y18500D02*
X423134D01*
X419859Y18337D02*
X422909D01*
X420351Y19525D02*
X422417D01*
X424131Y17818D02*
X424793D01*
X423626Y17313D02*
X423959Y17646D01*
X423564Y17313D02*
X423626D01*
X424623Y20875D02*
X433875D01*
X422909Y18337D02*
X423072Y18500D01*
X422642Y19688D02*
X423147Y20193D01*
X422580Y19688D02*
X422642D01*
X423147Y20193D02*
X423941D01*
X419367Y17150D02*
X423401D01*
X422417Y19525D02*
X422580Y19688D01*
X423959Y17646D02*
X424131Y17818D01*
X423401Y17150D02*
X423564Y17313D01*
X424549Y19122D02*
X425115Y19688D01*
X423639Y19006D02*
X424374D01*
X423134Y18500D02*
X423639Y19006D01*
X423941Y20193D02*
X424623Y20875D01*
X433533Y37506D02*
X433771Y37744D01*
X425284Y18177D02*
X425607Y18500D01*
X425115Y19688D02*
X437688D01*
X425607Y18500D02*
X453151D01*
X453500Y18151D01*
X407967Y-3506D02*
X408620D01*
X414839Y-1688D02*
X416286D01*
X332000Y6286D02*
X339910Y-1623D01*
X212660Y12160D02*
X316660D01*
X338502Y-9681D01*
X210062Y111540D02*
X241960D01*
X249000Y104500D01*
X318000Y8000D02*
X336869Y-10869D01*
X479739Y5000D02*
X496000D01*
X477595Y7144D02*
X479739Y5000D01*
X492661Y30312D02*
X508506Y14467D01*
X245500Y4196D02*
X248000Y1696D01*
X245500Y4196D02*
Y9500D01*
X248000Y500D02*
Y1696D01*
X260533Y44494D02*
X278984D01*
X259533Y45494D02*
X260533Y44494D01*
X256467D02*
X257467Y45494D01*
X220494Y44494D02*
X256467D01*
X257467Y45494D02*
X259533D01*
X279103Y42103D02*
X279103D01*
X274155Y38318D02*
X285973Y26500D01*
X310688Y36688D02*
X311506Y37506D01*
X287312Y36688D02*
X310688D01*
X264024Y36500D02*
X274294D01*
X279103Y42103D02*
X285706Y35500D01*
X278611Y40916D02*
X284820Y34707D01*
X263973Y39812D02*
X265467Y38318D01*
X285706Y35500D02*
X299024D01*
X277900Y43306D02*
X279103Y42103D01*
X258500Y43000D02*
X258806Y43306D01*
X265467Y38318D02*
X274155D01*
X299024Y35500D02*
X300042Y34482D01*
X258806Y43306D02*
X277900D01*
X254155Y39812D02*
X263973D01*
X266500Y40812D02*
X266603Y40916D01*
X281000Y43000D02*
X281367Y43367D01*
X300042Y34482D02*
X320982D01*
X266603Y40916D02*
X278611D01*
X281000Y43000D02*
X287312Y36688D01*
X320982Y34482D02*
X324500Y38000D01*
X263901Y36378D02*
X264024Y36500D01*
X284820Y33653D02*
Y34707D01*
X306527Y29000D02*
X311000D01*
X316100Y33000D02*
X318153Y30948D01*
X305393Y27866D02*
X306527Y29000D01*
X342338Y39162D02*
Y39862D01*
X315847Y120744D02*
X329032D01*
X244421Y113106D02*
X255623Y101904D01*
X256779Y96843D02*
X258994Y99058D01*
X255623Y100214D02*
X256123Y99714D01*
X299412Y132706D02*
X339533D01*
X340839Y131400D01*
X346000D01*
X599944Y123056D02*
X607000Y116000D01*
X329032Y120744D02*
X338500Y130212D01*
X258994Y99058D02*
Y101494D01*
X258025Y91319D02*
X299412Y132706D01*
X255623Y100214D02*
Y101904D01*
X256345Y91319D02*
X258025D01*
X254728Y81006D02*
X272502Y98781D01*
X252233Y96843D02*
X256779D01*
X241521Y92506D02*
X247896D01*
X252233Y96843D01*
X249879Y87718D02*
X250661Y88500D01*
X253527D01*
X256345Y91319D01*
X242006Y114967D02*
X243867Y113106D01*
X244421D01*
X242006Y114967D02*
Y115521D01*
X229527Y128000D02*
X242006Y115521D01*
X197000Y128000D02*
X229527D01*
X619809Y78095D02*
X624214Y82500D01*
X648000D01*
X507500Y96000D02*
X508000Y95500D01*
X637392Y78106D02*
X649820D01*
X655856Y84142D01*
X631786Y72500D02*
X637392Y78106D01*
X510006Y93235D02*
Y97021D01*
X508000Y93562D02*
Y95500D01*
X514225Y78095D02*
X619809D01*
X525348Y84152D02*
X528000Y86804D01*
X526381Y81658D02*
X533717Y88994D01*
X405303Y96303D02*
X406974Y97974D01*
X405130Y93500D02*
X405130Y93500D01*
X405130D01*
X354450Y95397D02*
X356283Y93564D01*
X353333Y95397D02*
X354450D01*
X414706Y110767D02*
X427507D01*
X428087Y110188D01*
X668294Y113180D02*
Y115837D01*
X673038Y120581D02*
X674718D01*
X668294Y115837D02*
X673038Y120581D01*
X665720Y110606D02*
X668294Y113180D01*
X674718Y120581D02*
X675136Y121000D01*
X750000Y107000D02*
Y118000D01*
X639057Y110606D02*
X665720D01*
X747000Y121000D02*
X750000Y118000D01*
X675136Y121000D02*
X747000D01*
X740500Y97500D02*
X750000Y107000D01*
X633663Y116000D02*
X639057Y110606D01*
X607000Y116000D02*
X633663D01*
X351312Y91481D02*
Y93714D01*
X356283Y88190D02*
X362143Y82330D01*
X351312Y91481D02*
X361651Y81142D01*
X362858D01*
X348818Y92500D02*
X349000Y92318D01*
X362858Y81142D02*
X370000Y74000D01*
X350033Y94994D02*
X351312Y93714D01*
X362143Y82330D02*
X373366D01*
X349000Y88865D02*
Y92318D01*
X356283Y88190D02*
Y93564D01*
X367347Y63069D02*
X368035D01*
X358750Y71250D02*
X365520Y64480D01*
X365936D01*
X367347Y63069D01*
X349000Y88865D02*
X358750Y79115D01*
X349006Y94994D02*
X350033D01*
X388866Y90812D02*
X389860Y89819D01*
X324000Y81648D02*
X324596Y81052D01*
X318084Y76000D02*
X322102Y80019D01*
X313500Y76000D02*
X318084D01*
X310500Y68680D02*
Y83104D01*
X309148Y66615D02*
X310500Y68680D01*
X308975Y84628D02*
X310500Y83104D01*
X309301Y59954D02*
Y60399D01*
X297292Y72407D02*
X309301Y60399D01*
X297292Y72407D02*
Y89939D01*
X292796Y92231D02*
X295500Y89526D01*
X311500Y90325D02*
X312207D01*
X313390Y91508D01*
X301640Y91793D02*
X303653Y93805D01*
X302456Y89526D02*
Y90930D01*
X299655Y90251D02*
X301197Y91793D01*
X303653Y94652D02*
X308469Y99469D01*
X301197Y91793D02*
X301640D01*
X303653Y93805D02*
Y94652D01*
X308469Y99469D02*
X309720D01*
X302149Y89218D02*
X302456Y89526D01*
X312994Y38967D02*
Y38994D01*
X311506Y37506D02*
X311533D01*
X312994Y38967D01*
X586533Y88994D02*
X588527Y87000D01*
X533717Y88994D02*
X586533D01*
X588527Y87000D02*
X590500D01*
X624106Y86894D02*
X625500Y85500D01*
X590500Y87000D02*
X592144Y85356D01*
X612963D02*
X616101Y88494D01*
X616180Y86894D02*
X624106D01*
X633500Y27500D02*
Y27586D01*
X625500Y85500D02*
X626500D01*
X625500Y85500D02*
X625500Y85500D01*
X499247Y94753D02*
Y95477D01*
X405130Y93500D02*
X405303Y96303D01*
X316831Y118369D02*
X350527D01*
X302456Y90930D02*
X305533Y94006D01*
X397000Y38500D02*
Y74957D01*
X385871Y86371D02*
X393887D01*
X528000Y86804D02*
Y96243D01*
X528023Y96266D01*
X278984Y44494D02*
X280478Y43000D01*
X217000Y41000D02*
X220494Y44494D01*
X252473Y41494D02*
X254155Y39812D01*
X233967Y41494D02*
X252473D01*
X230979Y38506D02*
X233967Y41494D01*
X284820Y33653D02*
X290607Y27866D01*
X276114Y33000D02*
X284989Y24125D01*
X274294Y36500D02*
X285481Y25312D01*
X252027Y33000D02*
X276114D01*
X294286D02*
X296786Y30500D01*
X360177Y24823D02*
Y25238D01*
X358656Y26759D02*
X360177Y25238D01*
X358656Y26759D02*
Y27226D01*
X394994Y36006D02*
X398033D01*
X434025Y36318D02*
X434263Y36557D01*
X305533Y94006D02*
X311533D01*
X312708Y95182D01*
X318388D01*
X313390Y91508D02*
X313982D01*
X310467Y92818D02*
X312025D01*
X308975Y91327D02*
X310467Y92818D01*
X308975Y84628D02*
Y91327D01*
X312025Y92818D02*
X313200Y93994D01*
X313982Y91508D02*
X314967Y92494D01*
X290527Y113000D02*
X294000D01*
X258994Y101494D02*
X265861Y108361D01*
X307285Y112182D02*
X315847Y120744D01*
X318711Y109711D02*
Y110004D01*
X330000Y108473D02*
Y113500D01*
X472000Y64000D02*
Y79000D01*
X221794Y31000D02*
X250500D01*
X209000Y43794D02*
X221794Y31000D01*
X249467Y33494D02*
X251533D01*
X252027Y33000D01*
X241000D02*
X248973D01*
X249467Y33494D01*
X253515Y8000D02*
X318000D01*
X253500Y7985D02*
X253515Y8000D01*
X139979Y22994D02*
X141967Y21006D01*
X146521D01*
X209000Y8500D02*
X212660Y12160D01*
X458000Y70500D02*
X464500Y64000D01*
Y42500D02*
Y64000D01*
X454000Y46500D02*
X457000Y43500D01*
X426787Y86012D02*
X426816D01*
X429000Y88196D01*
X272502Y98781D02*
Y100406D01*
X111196Y22994D02*
X139979D01*
X141242Y19242D02*
X144758D01*
X429000Y88196D02*
Y92500D01*
X314967Y92494D02*
X322506D01*
X263500Y67500D02*
Y69500D01*
X263372Y69628D02*
X263500Y69500D01*
X588378Y22000D02*
X628000D01*
X716106Y23106D02*
X720500Y27500D01*
X106494Y31994D02*
X127500Y53000D01*
X192367Y80606D02*
X192467Y80506D01*
X186606Y80606D02*
X192367D01*
X161000Y55000D02*
X186606Y80606D01*
X119973Y55000D02*
X161000D01*
X289000Y33000D02*
X294286D01*
X619000Y61500D02*
X642394Y38106D01*
X618000Y62500D02*
X618500Y62000D01*
X619500D01*
X611787Y62501D02*
X616180Y66894D01*
X619820D01*
X629820Y56894D01*
X611787Y61287D02*
Y62501D01*
X745617Y5106D02*
X749258D01*
X751831Y7680D02*
Y24062D01*
X749258Y5106D02*
X751831Y7680D01*
X743044D02*
Y23847D01*
Y7680D02*
X745617Y5106D01*
X618000Y72500D02*
X632418Y58082D01*
X637392Y56894D02*
X647392Y46894D01*
X618000Y72500D02*
X631786D01*
X740500Y26391D02*
Y27500D01*
Y26391D02*
X743044Y23847D01*
X629820Y56894D02*
X637392D01*
X747437Y9500D02*
Y26776D01*
X660041Y39644D02*
X718356D01*
X642394Y38106D02*
X658503D01*
X660041Y39644D01*
X718356D02*
X730500Y27500D01*
X215967Y38506D02*
X230979D01*
X214506Y39967D02*
X215967Y38506D01*
X214506Y39967D02*
Y42033D01*
X279935Y27500D02*
X284497Y22937D01*
X235000Y39000D02*
X241000Y33000D01*
X200500Y40500D02*
X213500Y27500D01*
M02*
