M48
;Layer_Color=9474304
;FILE_FORMAT=4:4
METRIC,LZ
;TYPE=PLATED
T01F00S00C0.4064
T02F00S00C0.7000
T03F00S00C1.0668
T04F00S00C1.0922
T06F00S00C2.5400
T07F00S00C2.6900
T08F00S00C3.1750
;TYPE=NON_PLATED
T09F00S00C1.4986
T10F00S00C3.1750
%
T01
X0004953Y0000635
X0006604Y001016
X0010795Y0008382
X0012319
X0014097
X0015875
X0015367Y0006985
X0014732Y0004826
X00149484Y00024361
X00116265Y00037795
X0014478Y0010287
X0027178Y0009779
X00270479Y00068793
X00273491Y00059482
X00276098Y00043732
X00257311Y00039434
X0024765Y00051782
X0029845Y0005207
X0029972Y0004064
X00301242Y00065788
X0031242Y0010668
X0037084Y0009017
X0039243
X00390491Y00060469
X0036322Y0005969
X00362899Y0004254
X00364782Y0003175
X0037973Y0003683
X003429Y00034798
X00355887Y-00010482
X0029845Y-00009103
X00298292Y0000635
X00275336Y0000604
X0026416Y0001651
X0021717Y0001778
X0016256Y-00020066
X0028321Y-00014478
X00430327Y-00012209
X0043688Y-0002032
X004699Y0000127
X00475342Y00007034
X0048006Y0005588
X00502466Y00049557
X0050419Y0006604
X00507181Y00029892
X0051308Y00022252
X0053086Y0002159
X0052705Y0006477
X00515992Y00083518
X0050927Y0010287
X0055118Y0010414
X005969Y0009906
X0061722
X0063627Y0007874
X00666867Y0007747
X00670309Y00092399
X0067691Y00103663
X0065659Y0010922
X00714671Y00110151
X0070612Y0009652
X0073406Y0008382
X00745234Y00077115
X00756913Y0008382
X00758601Y00102854
X00748958Y00103267
X00773251Y00102854
X00786537Y00103733
X0080264Y00093918
X0082423Y0009652
X00830614Y00072273
X00844588Y0005969
X0081534Y0004826
X0080137Y0004699
X0078994Y0007366
X0077343Y0007747
X0068072Y0006604
X0066929Y0004826
X0062992Y0004445
X0062357Y0002413
X0064389Y00020282
X0065278Y0000381
X0067056
X0072136Y0000508
X0073914Y-0001905
X0087376
X00873633Y00006477
X00896231Y0002921
X0088519Y0005461
X00890286Y00069604
X00901544Y00083664
X00869539Y00101248
X0058674Y0004826
X0051816Y-0002286
X00937728Y00012457
X00927046Y00034584
X0092329Y0004445
X00934529Y00045017
X00937757Y00057656
X00938447Y00074722
X0092456Y0006477
X00910986Y00069155
X0092456Y0008509
X0095885Y00102042
X00972983Y00094538
X00973291Y00066875
X00989089Y0007618
X0100838Y0009779
X01033018Y0009525
X0104267Y00095836
X0103886Y0008255
X01029813Y00069368
X01030583Y00034404
X0103895Y00039217
X010795Y000381
X01078126Y00061597
X01070315Y00055927
X01068005Y0008343
X01060176Y00094391
X01083598Y00074301
X01093565Y00070455
X010922Y0008001
X0109855Y00101728
X01112572Y00100948
X0112649Y0007747
X01143211Y00063443
X0115189Y00046103
X01147996Y00036914
X01170445Y00063266
X01179811Y00065597
X0118999Y0006477
X01200585Y00064508
X01209795Y00067395
X01214017Y00058716
X0125222Y00063266
X0124841Y0002794
X0124714Y0000508
X0125984Y000127
X0129794Y0000127
Y00039077
X0125857Y001016
X0117983Y0010795
X0116078Y0011049
X0116205Y0007366
X0114554Y-0002286
X0107315Y-000127
X0106426Y-0000635
X0104775Y00000922
X0104521Y-0001778
X01035598Y-000169
X0100203Y-00017802
X0107696Y000127
X01029934Y00109108
X01353503Y00080263
X0138938Y0007747
X0138684Y0004826
X01399822
X0139573Y0002286
X0138957Y0001543
X0135636Y0002794
X0130683
X0143256Y0004572
X0144653Y00055896
X0143764Y0001524
X01486702Y-0000762
X0148717Y0008001
X0158496Y0006858
X0159639Y0006223
X0160909Y00070068
X0159639Y0008763
X0172466Y000889
X01721063Y00044641
X017526Y0014097
X0177419Y001905
X0179578Y0026416
X018415Y0027178
Y0022479
X0171577Y0031496
X0161671Y003175
X0160782Y002667
X0158496Y0024511
X0158242Y0023114
X0160147Y0022352
X01617013Y0022479
X0162814Y0023876
X0159766Y0017526
X0167894Y0016129
X01494076Y0016518
X0150749Y0018542
X014859Y00219479
X0148336Y0025273
X0150991Y00266876
X014859Y0029972
X0141605Y0030607
X0139192Y0030734
X01356272Y00316131
X0130302Y0031242
X0130556Y0029337
X01308257Y00232933
X01341178Y00244514
X0135636Y0024892
X0139827Y0024257
X01397Y0021717
X0141605Y0021844
X0143002Y002413
X0144526Y0026289
X0141351Y003302
X01334384Y00213745
X01339741Y00135931
X01389424Y00151946
X0142875Y0013208
X01486152Y00131828
X0129413Y00120634
X0125603Y0012954
X0124968Y0016002
X0126232Y00173715
X0127889Y0017653
X0129667Y00177339
X0129032Y0019685
X0128905Y0024384
X0127762Y0024867
X0126377Y00249841
X0124968Y0028067
X012954Y0028956
X0125984Y00326826
X0123698Y003302
X0122174
X0114361Y0029525
X0114427Y0024257
X01146158Y00229284
X0114681Y0020828
X01154511Y00199471
X0116332Y001905
Y0017907
X0114427Y00177507
X011444Y00190793
X01127518Y00183227
X0112649Y0014732
X0114554Y00154569
Y00164221
X0114681Y0013716
X0114554Y0012446
X0120015Y0012827
X0119888Y0014732
Y0016256
X0118872
X0118999Y0017907
X01208184Y0018057
X0122682Y0021463
X0117602Y00242573
X0108966Y0023495
X01077817Y00232139
X01067441Y00227096
X01057845Y0022606
X01045176Y00227187
X0104902Y00213751
X0103886Y0021082
X0106452Y00213469
X01074817Y00215623
X01084039Y0021847
X01096397Y00222815
X01065764Y00244016
X01055046Y00269381
X01047245Y00292865
X0105791Y0030099
X0106934Y0029972
X0108712Y0029845
X01089965Y00286211
X0108839Y0031877
X0104394Y0031369
X0103505Y0029972
X010287Y0033147
X0099314Y0032766
X0093218Y00326273
X0091694Y0032385
X0090932Y0030988
X0091186Y0029464
X0092329Y002921
X009271Y0030099
Y0028321
X0091948Y0025187
X00937672Y00217229
X00948351Y00209118
X009398Y0019812
X0091821Y0019431
X00941227Y00172377
X00934808Y00160195
X00937846Y00146909
X00939665Y00112241
X00973688Y00123158
X00972979Y0013843
X00997167
X00996769Y00127838
X00998804Y00118403
X0098806
X00999387Y0014859
X0099187Y00190345
X00989798Y00199772
X00997774Y00210586
X00969018Y00209798
X0099187Y00240014
X01029032Y0023749
X00973622Y00267254
X0091059Y0013462
X01062826Y00112361
X00879207Y00140072
X0088011Y0015113
X00878204Y00164466
X0084709Y0015494
X0084074Y0014224
X00846987Y00127
X008255Y00124761
X0081026Y0014097
X00800311Y00148937
X00785623Y00152283
X0078994Y00139407
X00771Y00135773
X0076104Y00139425
X0075946Y0016383
X00785235Y00169203
X00798798
X0079629Y00183388
Y0019304
X0078232
X0080899Y001778
X00835834Y00170264
X0084201Y0018415
X00848573Y0019263
X0083312Y0020955
X0081814Y00203248
X00824271Y0023114
X0080264Y002286
X0079121Y00229425
X0078867Y0024511
X00786876Y00262181
X0077724Y0026162
X0076957Y00250501
X00767458Y00226614
X00756987Y00235537
X00743701Y00234266
X0074422Y0022098
Y0019939
X0073279Y0025146
X0071501Y0025273
X00712752Y00237772
X00717095Y00271487
X007366Y0026924
X0074676Y0028702
X00738572Y00301449
X006731Y0030226
X0067691Y0028702
X00675287Y00275237
X0066421Y0028448
X0064643Y0030861
X0062103Y0030988
Y0029464
X0062357Y0025781
X0062484Y0024638
X0063246Y0026543
X00650552Y00253273
X0066548Y0020828
X0067564Y0020447
X0068072Y0017145
X0066929
X0065532Y0017653
X00659481Y00153801
X0067818Y0015748
X0071374Y0015113
Y0013716
X0064262Y0014351
X0061849Y0013462
X0058547Y0014478
X0058674Y0017272
X0057023Y0017399
X0061976Y001778
X00619692Y00191702
X0062738Y0020193
X0060198Y0021463
X0058928Y0021209
X0058674Y0025273
X00585417Y00313743
X0059944Y0033909
X00533557Y00283311
X0052959Y00235458
X0051816Y0023495
X0051562Y0013716
X0052959Y0012827
X0056642Y0011938
X00837821Y00245238
X00846996Y00248236
X0083058Y0027686
X008382Y0028829
X00809526Y0027941
X0082804Y0032004
X0085979Y00330739
X0087884Y00333756
X0088392Y0031369
X0088519Y0028194
X0089281Y0026924
X00892908Y00247083
X00885999Y0023495
X0088519Y0021803
X00886526Y00204744
X00502452Y0021844
X00491708Y00211038
X0048768Y0017526
Y0016129
X004953Y0012827
X0047151Y0011777
X0041783Y00174363
X0040513Y0016891
X00428785Y00186215
X0043561Y0019304
Y0021209
X0042545
X0040259Y0021082
Y0023114
Y0026797
X0038608
X004191
X0043561
X0047625Y00270526
X0047117Y0028829
X004953Y00283194
X0050038Y0032512
X0043688Y0033147
X003429Y0033401
X0032258
X0029845
X0027305
X0025146
X0023368
X0021336Y0032893
X0019304Y00315937
X0018161Y0033528
X0016002
X0014097
X0012192
X0015494Y00315937
X0015367Y0029083
X0014224Y0023749
X0019304Y0023368
X0021209Y00255027
X0021082Y0027305
X00255583Y00283506
X00268871Y00270141
X00300565Y00281852
X00310301Y00253579
X0030734Y0021082
X0030353Y0019304
X0028067Y0018161
X00272885Y00175904
X0026162Y0019685
X00254Y002413
X002794Y003175
X00345648Y00297185
X00344972Y0026924
X00364998Y00286463
X0034798Y00232156
X00341733Y0012827
X0028067Y0013716
X00254Y0013843
X0025527Y00127
X00193842Y0013716
X0015748Y0018796
X0013589Y0018669
X0010795Y001397
X0010414Y002794
X001016Y0033528
X0008255
X0006604Y0024765
T02
X0003683Y0012192
Y0013462
Y0014732
Y0016002
Y0017272
Y0018542
Y0019812
X0006223Y0019177
Y0017907
Y0016637
Y0015367
Y0014097
Y0012827
Y0011557
Y0020447
T03
X0041021Y0004699
X0048895Y000254
X0049022Y-0002032
X0062992Y0000127
X0083058Y-0001905
X0140843Y0008001
X0156972Y0010795
X0164592
X0180467Y0006985
X0183007
X0185547
X0188087
Y0024765
X0185547
X0183007
X0180467
X0164592Y0020955
Y0018415
Y0015875
Y0013335
X0156972
Y0015875
Y0018415
Y0020955
X0143891Y0018669
X0126365Y0019939
X0120142Y002159
X0052451Y0025908
X0049403Y0024003
X0050038Y001524
X0028829Y0015113
Y0026924
T04
X0152527Y0002159
X0162433
X0165354Y0002286
X0168275
X0171704Y0002413
X0175006
X01779746
X01809433
X01839119
X01868805
X01898491
X0192913Y0004318
X0192786Y0007747
Y0010414
Y0013589
Y00166688
Y00197485
Y00228283
Y0025908
X0191897Y002921
X01889887
X01860804
X01831721
X01802638
X01773555
X01744472
X01715389
X01686306
X01657223
X0162814
X0152146Y0029337
T06
X0106934Y0016256
T07
X0002413Y0006922
Y0025082
T08
X0153162Y0008255
X0168402
Y0023495
X0153162
T09
X0152527Y-0001651
X0162433
X0165354Y-0001524
X0168275
X0171704Y-0001397
X0175006
X01779746
X01809433
X01839119
X01868805
X01898491
X0196723Y0004318
X0196596Y0007747
Y0010414
Y0013589
Y00166688
Y00197485
Y00228283
Y0025908
X0191897Y003302
X01889887
X01860804
X01831721
X01802638
X01773555
X01744472
X01715389
X01686306
X01657223
X0162814
X0152146Y0033147
T10
X0Y0
X003937
X007874
X011811
X015748Y-0000127
X019685Y0
Y003175
X015748
X011811
X007874
X003937
X0
M30
